G04 #@! TF.GenerationSoftware,KiCad,Pcbnew,5.1.2-f72e74a~84~ubuntu18.04.1*
G04 #@! TF.CreationDate,2019-08-01T22:55:58-04:00*
G04 #@! TF.ProjectId,iss-lna,6973732d-6c6e-4612-9e6b-696361645f70,rev?*
G04 #@! TF.SameCoordinates,Original*
G04 #@! TF.FileFunction,Copper,L1,Top*
G04 #@! TF.FilePolarity,Positive*
%FSLAX46Y46*%
G04 Gerber Fmt 4.6, Leading zero omitted, Abs format (unit mm)*
G04 Created by KiCad (PCBNEW 5.1.2-f72e74a~84~ubuntu18.04.1) date 2019-08-01 22:55:58*
%MOMM*%
%LPD*%
G04 APERTURE LIST*
%ADD10C,0.500000*%
%ADD11C,5.500000*%
%ADD12C,0.965200*%
%ADD13C,0.100000*%
%ADD14R,4.830000X2.413000*%
%ADD15R,4.830000X2.286000*%
%ADD16C,0.165100*%
%ADD17R,0.254000X2.616200*%
%ADD18C,0.590000*%
%ADD19R,0.700000X0.700000*%
%ADD20R,0.900000X0.700000*%
%ADD21C,1.250000*%
%ADD22R,2.000000X1.050000*%
%ADD23R,1.050000X1.000000*%
%ADD24C,0.975000*%
%ADD25C,0.690000*%
%ADD26C,0.849200*%
%ADD27C,0.250000*%
%ADD28C,0.160000*%
%ADD29C,0.200000*%
%ADD30C,0.254000*%
G04 APERTURE END LIST*
D10*
X126430000Y-50120000D03*
D11*
X140000000Y-70000000D03*
X140000000Y-46000000D03*
X83000000Y-70000000D03*
X83000000Y-46000000D03*
D12*
X135155000Y-61410000D03*
D13*
G36*
X133345000Y-63090000D02*
G01*
X133345000Y-58110000D01*
X135905000Y-58820000D01*
X137180000Y-59280000D01*
X137835000Y-59640000D01*
X138145000Y-59870000D01*
X138305000Y-60030000D01*
X138475000Y-60170000D01*
X138885000Y-60690000D01*
X138885000Y-63090000D01*
X133345000Y-63090000D01*
X133345000Y-63090000D01*
G37*
D12*
X136685000Y-57460000D03*
D13*
G36*
X133345000Y-57930000D02*
G01*
X133345000Y-57070000D01*
X138465000Y-56190000D01*
X138465000Y-58810000D01*
X133345000Y-57930000D01*
X133345000Y-57930000D01*
G37*
D12*
X134135000Y-54460000D03*
D13*
G36*
X138475000Y-54840000D02*
G01*
X138305000Y-54980000D01*
X138145000Y-55140000D01*
X137835000Y-55370000D01*
X137180000Y-55730000D01*
X135905000Y-56190000D01*
X133345000Y-56900000D01*
X133345000Y-51920000D01*
X138885000Y-51920000D01*
X138885000Y-54320000D01*
X138475000Y-54840000D01*
X138475000Y-54840000D01*
G37*
D14*
X141300000Y-61881500D03*
D15*
X141300000Y-57500000D03*
D14*
X141300000Y-53118500D03*
D16*
X138802450Y-57500000D03*
D13*
G36*
X138719900Y-56191900D02*
G01*
X138885000Y-56357000D01*
X138885000Y-58643000D01*
X138719900Y-58808100D01*
X138719900Y-56191900D01*
X138719900Y-56191900D01*
G37*
D17*
X138592900Y-57500000D03*
D12*
X137996000Y-53118500D03*
X137996000Y-61881500D03*
X87810000Y-53480000D03*
D13*
G36*
X89620000Y-51800000D02*
G01*
X89620000Y-56780000D01*
X87060000Y-56070000D01*
X85785000Y-55610000D01*
X85130000Y-55250000D01*
X84820000Y-55020000D01*
X84660000Y-54860000D01*
X84490000Y-54720000D01*
X84080000Y-54200000D01*
X84080000Y-51800000D01*
X89620000Y-51800000D01*
X89620000Y-51800000D01*
G37*
D12*
X86280000Y-57430000D03*
D13*
G36*
X89620000Y-56960000D02*
G01*
X89620000Y-57820000D01*
X84500000Y-58700000D01*
X84500000Y-56080000D01*
X89620000Y-56960000D01*
X89620000Y-56960000D01*
G37*
D12*
X88830000Y-60430000D03*
D13*
G36*
X84490000Y-60050000D02*
G01*
X84660000Y-59910000D01*
X84820000Y-59750000D01*
X85130000Y-59520000D01*
X85785000Y-59160000D01*
X87060000Y-58700000D01*
X89620000Y-57990000D01*
X89620000Y-62970000D01*
X84080000Y-62970000D01*
X84080000Y-60570000D01*
X84490000Y-60050000D01*
X84490000Y-60050000D01*
G37*
D14*
X81665000Y-53008500D03*
D15*
X81665000Y-57390000D03*
D14*
X81665000Y-61771500D03*
D16*
X84162550Y-57390000D03*
D13*
G36*
X84245100Y-58698100D02*
G01*
X84080000Y-58533000D01*
X84080000Y-56247000D01*
X84245100Y-56081900D01*
X84245100Y-58698100D01*
X84245100Y-58698100D01*
G37*
D17*
X84372100Y-57390000D03*
D12*
X84969000Y-61771500D03*
X84969000Y-53008500D03*
D13*
G36*
X119936958Y-57090710D02*
G01*
X119951276Y-57092834D01*
X119965317Y-57096351D01*
X119978946Y-57101228D01*
X119992031Y-57107417D01*
X120004447Y-57114858D01*
X120016073Y-57123481D01*
X120026798Y-57133202D01*
X120036519Y-57143927D01*
X120045142Y-57155553D01*
X120052583Y-57167969D01*
X120058772Y-57181054D01*
X120063649Y-57194683D01*
X120067166Y-57208724D01*
X120069290Y-57223042D01*
X120070000Y-57237500D01*
X120070000Y-57532500D01*
X120069290Y-57546958D01*
X120067166Y-57561276D01*
X120063649Y-57575317D01*
X120058772Y-57588946D01*
X120052583Y-57602031D01*
X120045142Y-57614447D01*
X120036519Y-57626073D01*
X120026798Y-57636798D01*
X120016073Y-57646519D01*
X120004447Y-57655142D01*
X119992031Y-57662583D01*
X119978946Y-57668772D01*
X119965317Y-57673649D01*
X119951276Y-57677166D01*
X119936958Y-57679290D01*
X119922500Y-57680000D01*
X119577500Y-57680000D01*
X119563042Y-57679290D01*
X119548724Y-57677166D01*
X119534683Y-57673649D01*
X119521054Y-57668772D01*
X119507969Y-57662583D01*
X119495553Y-57655142D01*
X119483927Y-57646519D01*
X119473202Y-57636798D01*
X119463481Y-57626073D01*
X119454858Y-57614447D01*
X119447417Y-57602031D01*
X119441228Y-57588946D01*
X119436351Y-57575317D01*
X119432834Y-57561276D01*
X119430710Y-57546958D01*
X119430000Y-57532500D01*
X119430000Y-57237500D01*
X119430710Y-57223042D01*
X119432834Y-57208724D01*
X119436351Y-57194683D01*
X119441228Y-57181054D01*
X119447417Y-57167969D01*
X119454858Y-57155553D01*
X119463481Y-57143927D01*
X119473202Y-57133202D01*
X119483927Y-57123481D01*
X119495553Y-57114858D01*
X119507969Y-57107417D01*
X119521054Y-57101228D01*
X119534683Y-57096351D01*
X119548724Y-57092834D01*
X119563042Y-57090710D01*
X119577500Y-57090000D01*
X119922500Y-57090000D01*
X119936958Y-57090710D01*
X119936958Y-57090710D01*
G37*
D18*
X119750000Y-57385000D03*
D13*
G36*
X119936958Y-56120710D02*
G01*
X119951276Y-56122834D01*
X119965317Y-56126351D01*
X119978946Y-56131228D01*
X119992031Y-56137417D01*
X120004447Y-56144858D01*
X120016073Y-56153481D01*
X120026798Y-56163202D01*
X120036519Y-56173927D01*
X120045142Y-56185553D01*
X120052583Y-56197969D01*
X120058772Y-56211054D01*
X120063649Y-56224683D01*
X120067166Y-56238724D01*
X120069290Y-56253042D01*
X120070000Y-56267500D01*
X120070000Y-56562500D01*
X120069290Y-56576958D01*
X120067166Y-56591276D01*
X120063649Y-56605317D01*
X120058772Y-56618946D01*
X120052583Y-56632031D01*
X120045142Y-56644447D01*
X120036519Y-56656073D01*
X120026798Y-56666798D01*
X120016073Y-56676519D01*
X120004447Y-56685142D01*
X119992031Y-56692583D01*
X119978946Y-56698772D01*
X119965317Y-56703649D01*
X119951276Y-56707166D01*
X119936958Y-56709290D01*
X119922500Y-56710000D01*
X119577500Y-56710000D01*
X119563042Y-56709290D01*
X119548724Y-56707166D01*
X119534683Y-56703649D01*
X119521054Y-56698772D01*
X119507969Y-56692583D01*
X119495553Y-56685142D01*
X119483927Y-56676519D01*
X119473202Y-56666798D01*
X119463481Y-56656073D01*
X119454858Y-56644447D01*
X119447417Y-56632031D01*
X119441228Y-56618946D01*
X119436351Y-56605317D01*
X119432834Y-56591276D01*
X119430710Y-56576958D01*
X119430000Y-56562500D01*
X119430000Y-56267500D01*
X119430710Y-56253042D01*
X119432834Y-56238724D01*
X119436351Y-56224683D01*
X119441228Y-56211054D01*
X119447417Y-56197969D01*
X119454858Y-56185553D01*
X119463481Y-56173927D01*
X119473202Y-56163202D01*
X119483927Y-56153481D01*
X119495553Y-56144858D01*
X119507969Y-56137417D01*
X119521054Y-56131228D01*
X119534683Y-56126351D01*
X119548724Y-56122834D01*
X119563042Y-56120710D01*
X119577500Y-56120000D01*
X119922500Y-56120000D01*
X119936958Y-56120710D01*
X119936958Y-56120710D01*
G37*
D18*
X119750000Y-56415000D03*
D13*
G36*
X114626958Y-60180710D02*
G01*
X114641276Y-60182834D01*
X114655317Y-60186351D01*
X114668946Y-60191228D01*
X114682031Y-60197417D01*
X114694447Y-60204858D01*
X114706073Y-60213481D01*
X114716798Y-60223202D01*
X114726519Y-60233927D01*
X114735142Y-60245553D01*
X114742583Y-60257969D01*
X114748772Y-60271054D01*
X114753649Y-60284683D01*
X114757166Y-60298724D01*
X114759290Y-60313042D01*
X114760000Y-60327500D01*
X114760000Y-60672500D01*
X114759290Y-60686958D01*
X114757166Y-60701276D01*
X114753649Y-60715317D01*
X114748772Y-60728946D01*
X114742583Y-60742031D01*
X114735142Y-60754447D01*
X114726519Y-60766073D01*
X114716798Y-60776798D01*
X114706073Y-60786519D01*
X114694447Y-60795142D01*
X114682031Y-60802583D01*
X114668946Y-60808772D01*
X114655317Y-60813649D01*
X114641276Y-60817166D01*
X114626958Y-60819290D01*
X114612500Y-60820000D01*
X114317500Y-60820000D01*
X114303042Y-60819290D01*
X114288724Y-60817166D01*
X114274683Y-60813649D01*
X114261054Y-60808772D01*
X114247969Y-60802583D01*
X114235553Y-60795142D01*
X114223927Y-60786519D01*
X114213202Y-60776798D01*
X114203481Y-60766073D01*
X114194858Y-60754447D01*
X114187417Y-60742031D01*
X114181228Y-60728946D01*
X114176351Y-60715317D01*
X114172834Y-60701276D01*
X114170710Y-60686958D01*
X114170000Y-60672500D01*
X114170000Y-60327500D01*
X114170710Y-60313042D01*
X114172834Y-60298724D01*
X114176351Y-60284683D01*
X114181228Y-60271054D01*
X114187417Y-60257969D01*
X114194858Y-60245553D01*
X114203481Y-60233927D01*
X114213202Y-60223202D01*
X114223927Y-60213481D01*
X114235553Y-60204858D01*
X114247969Y-60197417D01*
X114261054Y-60191228D01*
X114274683Y-60186351D01*
X114288724Y-60182834D01*
X114303042Y-60180710D01*
X114317500Y-60180000D01*
X114612500Y-60180000D01*
X114626958Y-60180710D01*
X114626958Y-60180710D01*
G37*
D18*
X114465000Y-60500000D03*
D13*
G36*
X115596958Y-60180710D02*
G01*
X115611276Y-60182834D01*
X115625317Y-60186351D01*
X115638946Y-60191228D01*
X115652031Y-60197417D01*
X115664447Y-60204858D01*
X115676073Y-60213481D01*
X115686798Y-60223202D01*
X115696519Y-60233927D01*
X115705142Y-60245553D01*
X115712583Y-60257969D01*
X115718772Y-60271054D01*
X115723649Y-60284683D01*
X115727166Y-60298724D01*
X115729290Y-60313042D01*
X115730000Y-60327500D01*
X115730000Y-60672500D01*
X115729290Y-60686958D01*
X115727166Y-60701276D01*
X115723649Y-60715317D01*
X115718772Y-60728946D01*
X115712583Y-60742031D01*
X115705142Y-60754447D01*
X115696519Y-60766073D01*
X115686798Y-60776798D01*
X115676073Y-60786519D01*
X115664447Y-60795142D01*
X115652031Y-60802583D01*
X115638946Y-60808772D01*
X115625317Y-60813649D01*
X115611276Y-60817166D01*
X115596958Y-60819290D01*
X115582500Y-60820000D01*
X115287500Y-60820000D01*
X115273042Y-60819290D01*
X115258724Y-60817166D01*
X115244683Y-60813649D01*
X115231054Y-60808772D01*
X115217969Y-60802583D01*
X115205553Y-60795142D01*
X115193927Y-60786519D01*
X115183202Y-60776798D01*
X115173481Y-60766073D01*
X115164858Y-60754447D01*
X115157417Y-60742031D01*
X115151228Y-60728946D01*
X115146351Y-60715317D01*
X115142834Y-60701276D01*
X115140710Y-60686958D01*
X115140000Y-60672500D01*
X115140000Y-60327500D01*
X115140710Y-60313042D01*
X115142834Y-60298724D01*
X115146351Y-60284683D01*
X115151228Y-60271054D01*
X115157417Y-60257969D01*
X115164858Y-60245553D01*
X115173481Y-60233927D01*
X115183202Y-60223202D01*
X115193927Y-60213481D01*
X115205553Y-60204858D01*
X115217969Y-60197417D01*
X115231054Y-60191228D01*
X115244683Y-60186351D01*
X115258724Y-60182834D01*
X115273042Y-60180710D01*
X115287500Y-60180000D01*
X115582500Y-60180000D01*
X115596958Y-60180710D01*
X115596958Y-60180710D01*
G37*
D18*
X115435000Y-60500000D03*
D13*
G36*
X117546958Y-60180710D02*
G01*
X117561276Y-60182834D01*
X117575317Y-60186351D01*
X117588946Y-60191228D01*
X117602031Y-60197417D01*
X117614447Y-60204858D01*
X117626073Y-60213481D01*
X117636798Y-60223202D01*
X117646519Y-60233927D01*
X117655142Y-60245553D01*
X117662583Y-60257969D01*
X117668772Y-60271054D01*
X117673649Y-60284683D01*
X117677166Y-60298724D01*
X117679290Y-60313042D01*
X117680000Y-60327500D01*
X117680000Y-60672500D01*
X117679290Y-60686958D01*
X117677166Y-60701276D01*
X117673649Y-60715317D01*
X117668772Y-60728946D01*
X117662583Y-60742031D01*
X117655142Y-60754447D01*
X117646519Y-60766073D01*
X117636798Y-60776798D01*
X117626073Y-60786519D01*
X117614447Y-60795142D01*
X117602031Y-60802583D01*
X117588946Y-60808772D01*
X117575317Y-60813649D01*
X117561276Y-60817166D01*
X117546958Y-60819290D01*
X117532500Y-60820000D01*
X117237500Y-60820000D01*
X117223042Y-60819290D01*
X117208724Y-60817166D01*
X117194683Y-60813649D01*
X117181054Y-60808772D01*
X117167969Y-60802583D01*
X117155553Y-60795142D01*
X117143927Y-60786519D01*
X117133202Y-60776798D01*
X117123481Y-60766073D01*
X117114858Y-60754447D01*
X117107417Y-60742031D01*
X117101228Y-60728946D01*
X117096351Y-60715317D01*
X117092834Y-60701276D01*
X117090710Y-60686958D01*
X117090000Y-60672500D01*
X117090000Y-60327500D01*
X117090710Y-60313042D01*
X117092834Y-60298724D01*
X117096351Y-60284683D01*
X117101228Y-60271054D01*
X117107417Y-60257969D01*
X117114858Y-60245553D01*
X117123481Y-60233927D01*
X117133202Y-60223202D01*
X117143927Y-60213481D01*
X117155553Y-60204858D01*
X117167969Y-60197417D01*
X117181054Y-60191228D01*
X117194683Y-60186351D01*
X117208724Y-60182834D01*
X117223042Y-60180710D01*
X117237500Y-60180000D01*
X117532500Y-60180000D01*
X117546958Y-60180710D01*
X117546958Y-60180710D01*
G37*
D18*
X117385000Y-60500000D03*
D13*
G36*
X116576958Y-60180710D02*
G01*
X116591276Y-60182834D01*
X116605317Y-60186351D01*
X116618946Y-60191228D01*
X116632031Y-60197417D01*
X116644447Y-60204858D01*
X116656073Y-60213481D01*
X116666798Y-60223202D01*
X116676519Y-60233927D01*
X116685142Y-60245553D01*
X116692583Y-60257969D01*
X116698772Y-60271054D01*
X116703649Y-60284683D01*
X116707166Y-60298724D01*
X116709290Y-60313042D01*
X116710000Y-60327500D01*
X116710000Y-60672500D01*
X116709290Y-60686958D01*
X116707166Y-60701276D01*
X116703649Y-60715317D01*
X116698772Y-60728946D01*
X116692583Y-60742031D01*
X116685142Y-60754447D01*
X116676519Y-60766073D01*
X116666798Y-60776798D01*
X116656073Y-60786519D01*
X116644447Y-60795142D01*
X116632031Y-60802583D01*
X116618946Y-60808772D01*
X116605317Y-60813649D01*
X116591276Y-60817166D01*
X116576958Y-60819290D01*
X116562500Y-60820000D01*
X116267500Y-60820000D01*
X116253042Y-60819290D01*
X116238724Y-60817166D01*
X116224683Y-60813649D01*
X116211054Y-60808772D01*
X116197969Y-60802583D01*
X116185553Y-60795142D01*
X116173927Y-60786519D01*
X116163202Y-60776798D01*
X116153481Y-60766073D01*
X116144858Y-60754447D01*
X116137417Y-60742031D01*
X116131228Y-60728946D01*
X116126351Y-60715317D01*
X116122834Y-60701276D01*
X116120710Y-60686958D01*
X116120000Y-60672500D01*
X116120000Y-60327500D01*
X116120710Y-60313042D01*
X116122834Y-60298724D01*
X116126351Y-60284683D01*
X116131228Y-60271054D01*
X116137417Y-60257969D01*
X116144858Y-60245553D01*
X116153481Y-60233927D01*
X116163202Y-60223202D01*
X116173927Y-60213481D01*
X116185553Y-60204858D01*
X116197969Y-60197417D01*
X116211054Y-60191228D01*
X116224683Y-60186351D01*
X116238724Y-60182834D01*
X116253042Y-60180710D01*
X116267500Y-60180000D01*
X116562500Y-60180000D01*
X116576958Y-60180710D01*
X116576958Y-60180710D01*
G37*
D18*
X116415000Y-60500000D03*
D10*
X121500000Y-64650000D03*
X98100000Y-57400000D03*
D13*
G36*
X99876958Y-65880710D02*
G01*
X99891276Y-65882834D01*
X99905317Y-65886351D01*
X99918946Y-65891228D01*
X99932031Y-65897417D01*
X99944447Y-65904858D01*
X99956073Y-65913481D01*
X99966798Y-65923202D01*
X99976519Y-65933927D01*
X99985142Y-65945553D01*
X99992583Y-65957969D01*
X99998772Y-65971054D01*
X100003649Y-65984683D01*
X100007166Y-65998724D01*
X100009290Y-66013042D01*
X100010000Y-66027500D01*
X100010000Y-66372500D01*
X100009290Y-66386958D01*
X100007166Y-66401276D01*
X100003649Y-66415317D01*
X99998772Y-66428946D01*
X99992583Y-66442031D01*
X99985142Y-66454447D01*
X99976519Y-66466073D01*
X99966798Y-66476798D01*
X99956073Y-66486519D01*
X99944447Y-66495142D01*
X99932031Y-66502583D01*
X99918946Y-66508772D01*
X99905317Y-66513649D01*
X99891276Y-66517166D01*
X99876958Y-66519290D01*
X99862500Y-66520000D01*
X99567500Y-66520000D01*
X99553042Y-66519290D01*
X99538724Y-66517166D01*
X99524683Y-66513649D01*
X99511054Y-66508772D01*
X99497969Y-66502583D01*
X99485553Y-66495142D01*
X99473927Y-66486519D01*
X99463202Y-66476798D01*
X99453481Y-66466073D01*
X99444858Y-66454447D01*
X99437417Y-66442031D01*
X99431228Y-66428946D01*
X99426351Y-66415317D01*
X99422834Y-66401276D01*
X99420710Y-66386958D01*
X99420000Y-66372500D01*
X99420000Y-66027500D01*
X99420710Y-66013042D01*
X99422834Y-65998724D01*
X99426351Y-65984683D01*
X99431228Y-65971054D01*
X99437417Y-65957969D01*
X99444858Y-65945553D01*
X99453481Y-65933927D01*
X99463202Y-65923202D01*
X99473927Y-65913481D01*
X99485553Y-65904858D01*
X99497969Y-65897417D01*
X99511054Y-65891228D01*
X99524683Y-65886351D01*
X99538724Y-65882834D01*
X99553042Y-65880710D01*
X99567500Y-65880000D01*
X99862500Y-65880000D01*
X99876958Y-65880710D01*
X99876958Y-65880710D01*
G37*
D18*
X99715000Y-66200000D03*
D13*
G36*
X100846958Y-65880710D02*
G01*
X100861276Y-65882834D01*
X100875317Y-65886351D01*
X100888946Y-65891228D01*
X100902031Y-65897417D01*
X100914447Y-65904858D01*
X100926073Y-65913481D01*
X100936798Y-65923202D01*
X100946519Y-65933927D01*
X100955142Y-65945553D01*
X100962583Y-65957969D01*
X100968772Y-65971054D01*
X100973649Y-65984683D01*
X100977166Y-65998724D01*
X100979290Y-66013042D01*
X100980000Y-66027500D01*
X100980000Y-66372500D01*
X100979290Y-66386958D01*
X100977166Y-66401276D01*
X100973649Y-66415317D01*
X100968772Y-66428946D01*
X100962583Y-66442031D01*
X100955142Y-66454447D01*
X100946519Y-66466073D01*
X100936798Y-66476798D01*
X100926073Y-66486519D01*
X100914447Y-66495142D01*
X100902031Y-66502583D01*
X100888946Y-66508772D01*
X100875317Y-66513649D01*
X100861276Y-66517166D01*
X100846958Y-66519290D01*
X100832500Y-66520000D01*
X100537500Y-66520000D01*
X100523042Y-66519290D01*
X100508724Y-66517166D01*
X100494683Y-66513649D01*
X100481054Y-66508772D01*
X100467969Y-66502583D01*
X100455553Y-66495142D01*
X100443927Y-66486519D01*
X100433202Y-66476798D01*
X100423481Y-66466073D01*
X100414858Y-66454447D01*
X100407417Y-66442031D01*
X100401228Y-66428946D01*
X100396351Y-66415317D01*
X100392834Y-66401276D01*
X100390710Y-66386958D01*
X100390000Y-66372500D01*
X100390000Y-66027500D01*
X100390710Y-66013042D01*
X100392834Y-65998724D01*
X100396351Y-65984683D01*
X100401228Y-65971054D01*
X100407417Y-65957969D01*
X100414858Y-65945553D01*
X100423481Y-65933927D01*
X100433202Y-65923202D01*
X100443927Y-65913481D01*
X100455553Y-65904858D01*
X100467969Y-65897417D01*
X100481054Y-65891228D01*
X100494683Y-65886351D01*
X100508724Y-65882834D01*
X100523042Y-65880710D01*
X100537500Y-65880000D01*
X100832500Y-65880000D01*
X100846958Y-65880710D01*
X100846958Y-65880710D01*
G37*
D18*
X100685000Y-66200000D03*
D13*
G36*
X100886958Y-63920710D02*
G01*
X100901276Y-63922834D01*
X100915317Y-63926351D01*
X100928946Y-63931228D01*
X100942031Y-63937417D01*
X100954447Y-63944858D01*
X100966073Y-63953481D01*
X100976798Y-63963202D01*
X100986519Y-63973927D01*
X100995142Y-63985553D01*
X101002583Y-63997969D01*
X101008772Y-64011054D01*
X101013649Y-64024683D01*
X101017166Y-64038724D01*
X101019290Y-64053042D01*
X101020000Y-64067500D01*
X101020000Y-64362500D01*
X101019290Y-64376958D01*
X101017166Y-64391276D01*
X101013649Y-64405317D01*
X101008772Y-64418946D01*
X101002583Y-64432031D01*
X100995142Y-64444447D01*
X100986519Y-64456073D01*
X100976798Y-64466798D01*
X100966073Y-64476519D01*
X100954447Y-64485142D01*
X100942031Y-64492583D01*
X100928946Y-64498772D01*
X100915317Y-64503649D01*
X100901276Y-64507166D01*
X100886958Y-64509290D01*
X100872500Y-64510000D01*
X100527500Y-64510000D01*
X100513042Y-64509290D01*
X100498724Y-64507166D01*
X100484683Y-64503649D01*
X100471054Y-64498772D01*
X100457969Y-64492583D01*
X100445553Y-64485142D01*
X100433927Y-64476519D01*
X100423202Y-64466798D01*
X100413481Y-64456073D01*
X100404858Y-64444447D01*
X100397417Y-64432031D01*
X100391228Y-64418946D01*
X100386351Y-64405317D01*
X100382834Y-64391276D01*
X100380710Y-64376958D01*
X100380000Y-64362500D01*
X100380000Y-64067500D01*
X100380710Y-64053042D01*
X100382834Y-64038724D01*
X100386351Y-64024683D01*
X100391228Y-64011054D01*
X100397417Y-63997969D01*
X100404858Y-63985553D01*
X100413481Y-63973927D01*
X100423202Y-63963202D01*
X100433927Y-63953481D01*
X100445553Y-63944858D01*
X100457969Y-63937417D01*
X100471054Y-63931228D01*
X100484683Y-63926351D01*
X100498724Y-63922834D01*
X100513042Y-63920710D01*
X100527500Y-63920000D01*
X100872500Y-63920000D01*
X100886958Y-63920710D01*
X100886958Y-63920710D01*
G37*
D18*
X100700000Y-64215000D03*
D13*
G36*
X100886958Y-64890710D02*
G01*
X100901276Y-64892834D01*
X100915317Y-64896351D01*
X100928946Y-64901228D01*
X100942031Y-64907417D01*
X100954447Y-64914858D01*
X100966073Y-64923481D01*
X100976798Y-64933202D01*
X100986519Y-64943927D01*
X100995142Y-64955553D01*
X101002583Y-64967969D01*
X101008772Y-64981054D01*
X101013649Y-64994683D01*
X101017166Y-65008724D01*
X101019290Y-65023042D01*
X101020000Y-65037500D01*
X101020000Y-65332500D01*
X101019290Y-65346958D01*
X101017166Y-65361276D01*
X101013649Y-65375317D01*
X101008772Y-65388946D01*
X101002583Y-65402031D01*
X100995142Y-65414447D01*
X100986519Y-65426073D01*
X100976798Y-65436798D01*
X100966073Y-65446519D01*
X100954447Y-65455142D01*
X100942031Y-65462583D01*
X100928946Y-65468772D01*
X100915317Y-65473649D01*
X100901276Y-65477166D01*
X100886958Y-65479290D01*
X100872500Y-65480000D01*
X100527500Y-65480000D01*
X100513042Y-65479290D01*
X100498724Y-65477166D01*
X100484683Y-65473649D01*
X100471054Y-65468772D01*
X100457969Y-65462583D01*
X100445553Y-65455142D01*
X100433927Y-65446519D01*
X100423202Y-65436798D01*
X100413481Y-65426073D01*
X100404858Y-65414447D01*
X100397417Y-65402031D01*
X100391228Y-65388946D01*
X100386351Y-65375317D01*
X100382834Y-65361276D01*
X100380710Y-65346958D01*
X100380000Y-65332500D01*
X100380000Y-65037500D01*
X100380710Y-65023042D01*
X100382834Y-65008724D01*
X100386351Y-64994683D01*
X100391228Y-64981054D01*
X100397417Y-64967969D01*
X100404858Y-64955553D01*
X100413481Y-64943927D01*
X100423202Y-64933202D01*
X100433927Y-64923481D01*
X100445553Y-64914858D01*
X100457969Y-64907417D01*
X100471054Y-64901228D01*
X100484683Y-64896351D01*
X100498724Y-64892834D01*
X100513042Y-64890710D01*
X100527500Y-64890000D01*
X100872500Y-64890000D01*
X100886958Y-64890710D01*
X100886958Y-64890710D01*
G37*
D18*
X100700000Y-65185000D03*
D13*
G36*
X119936958Y-50990710D02*
G01*
X119951276Y-50992834D01*
X119965317Y-50996351D01*
X119978946Y-51001228D01*
X119992031Y-51007417D01*
X120004447Y-51014858D01*
X120016073Y-51023481D01*
X120026798Y-51033202D01*
X120036519Y-51043927D01*
X120045142Y-51055553D01*
X120052583Y-51067969D01*
X120058772Y-51081054D01*
X120063649Y-51094683D01*
X120067166Y-51108724D01*
X120069290Y-51123042D01*
X120070000Y-51137500D01*
X120070000Y-51432500D01*
X120069290Y-51446958D01*
X120067166Y-51461276D01*
X120063649Y-51475317D01*
X120058772Y-51488946D01*
X120052583Y-51502031D01*
X120045142Y-51514447D01*
X120036519Y-51526073D01*
X120026798Y-51536798D01*
X120016073Y-51546519D01*
X120004447Y-51555142D01*
X119992031Y-51562583D01*
X119978946Y-51568772D01*
X119965317Y-51573649D01*
X119951276Y-51577166D01*
X119936958Y-51579290D01*
X119922500Y-51580000D01*
X119577500Y-51580000D01*
X119563042Y-51579290D01*
X119548724Y-51577166D01*
X119534683Y-51573649D01*
X119521054Y-51568772D01*
X119507969Y-51562583D01*
X119495553Y-51555142D01*
X119483927Y-51546519D01*
X119473202Y-51536798D01*
X119463481Y-51526073D01*
X119454858Y-51514447D01*
X119447417Y-51502031D01*
X119441228Y-51488946D01*
X119436351Y-51475317D01*
X119432834Y-51461276D01*
X119430710Y-51446958D01*
X119430000Y-51432500D01*
X119430000Y-51137500D01*
X119430710Y-51123042D01*
X119432834Y-51108724D01*
X119436351Y-51094683D01*
X119441228Y-51081054D01*
X119447417Y-51067969D01*
X119454858Y-51055553D01*
X119463481Y-51043927D01*
X119473202Y-51033202D01*
X119483927Y-51023481D01*
X119495553Y-51014858D01*
X119507969Y-51007417D01*
X119521054Y-51001228D01*
X119534683Y-50996351D01*
X119548724Y-50992834D01*
X119563042Y-50990710D01*
X119577500Y-50990000D01*
X119922500Y-50990000D01*
X119936958Y-50990710D01*
X119936958Y-50990710D01*
G37*
D18*
X119750000Y-51285000D03*
D13*
G36*
X119936958Y-50020710D02*
G01*
X119951276Y-50022834D01*
X119965317Y-50026351D01*
X119978946Y-50031228D01*
X119992031Y-50037417D01*
X120004447Y-50044858D01*
X120016073Y-50053481D01*
X120026798Y-50063202D01*
X120036519Y-50073927D01*
X120045142Y-50085553D01*
X120052583Y-50097969D01*
X120058772Y-50111054D01*
X120063649Y-50124683D01*
X120067166Y-50138724D01*
X120069290Y-50153042D01*
X120070000Y-50167500D01*
X120070000Y-50462500D01*
X120069290Y-50476958D01*
X120067166Y-50491276D01*
X120063649Y-50505317D01*
X120058772Y-50518946D01*
X120052583Y-50532031D01*
X120045142Y-50544447D01*
X120036519Y-50556073D01*
X120026798Y-50566798D01*
X120016073Y-50576519D01*
X120004447Y-50585142D01*
X119992031Y-50592583D01*
X119978946Y-50598772D01*
X119965317Y-50603649D01*
X119951276Y-50607166D01*
X119936958Y-50609290D01*
X119922500Y-50610000D01*
X119577500Y-50610000D01*
X119563042Y-50609290D01*
X119548724Y-50607166D01*
X119534683Y-50603649D01*
X119521054Y-50598772D01*
X119507969Y-50592583D01*
X119495553Y-50585142D01*
X119483927Y-50576519D01*
X119473202Y-50566798D01*
X119463481Y-50556073D01*
X119454858Y-50544447D01*
X119447417Y-50532031D01*
X119441228Y-50518946D01*
X119436351Y-50505317D01*
X119432834Y-50491276D01*
X119430710Y-50476958D01*
X119430000Y-50462500D01*
X119430000Y-50167500D01*
X119430710Y-50153042D01*
X119432834Y-50138724D01*
X119436351Y-50124683D01*
X119441228Y-50111054D01*
X119447417Y-50097969D01*
X119454858Y-50085553D01*
X119463481Y-50073927D01*
X119473202Y-50063202D01*
X119483927Y-50053481D01*
X119495553Y-50044858D01*
X119507969Y-50037417D01*
X119521054Y-50031228D01*
X119534683Y-50026351D01*
X119548724Y-50022834D01*
X119563042Y-50020710D01*
X119577500Y-50020000D01*
X119922500Y-50020000D01*
X119936958Y-50020710D01*
X119936958Y-50020710D01*
G37*
D18*
X119750000Y-50315000D03*
D13*
G36*
X125361958Y-57130710D02*
G01*
X125376276Y-57132834D01*
X125390317Y-57136351D01*
X125403946Y-57141228D01*
X125417031Y-57147417D01*
X125429447Y-57154858D01*
X125441073Y-57163481D01*
X125451798Y-57173202D01*
X125461519Y-57183927D01*
X125470142Y-57195553D01*
X125477583Y-57207969D01*
X125483772Y-57221054D01*
X125488649Y-57234683D01*
X125492166Y-57248724D01*
X125494290Y-57263042D01*
X125495000Y-57277500D01*
X125495000Y-57622500D01*
X125494290Y-57636958D01*
X125492166Y-57651276D01*
X125488649Y-57665317D01*
X125483772Y-57678946D01*
X125477583Y-57692031D01*
X125470142Y-57704447D01*
X125461519Y-57716073D01*
X125451798Y-57726798D01*
X125441073Y-57736519D01*
X125429447Y-57745142D01*
X125417031Y-57752583D01*
X125403946Y-57758772D01*
X125390317Y-57763649D01*
X125376276Y-57767166D01*
X125361958Y-57769290D01*
X125347500Y-57770000D01*
X125052500Y-57770000D01*
X125038042Y-57769290D01*
X125023724Y-57767166D01*
X125009683Y-57763649D01*
X124996054Y-57758772D01*
X124982969Y-57752583D01*
X124970553Y-57745142D01*
X124958927Y-57736519D01*
X124948202Y-57726798D01*
X124938481Y-57716073D01*
X124929858Y-57704447D01*
X124922417Y-57692031D01*
X124916228Y-57678946D01*
X124911351Y-57665317D01*
X124907834Y-57651276D01*
X124905710Y-57636958D01*
X124905000Y-57622500D01*
X124905000Y-57277500D01*
X124905710Y-57263042D01*
X124907834Y-57248724D01*
X124911351Y-57234683D01*
X124916228Y-57221054D01*
X124922417Y-57207969D01*
X124929858Y-57195553D01*
X124938481Y-57183927D01*
X124948202Y-57173202D01*
X124958927Y-57163481D01*
X124970553Y-57154858D01*
X124982969Y-57147417D01*
X124996054Y-57141228D01*
X125009683Y-57136351D01*
X125023724Y-57132834D01*
X125038042Y-57130710D01*
X125052500Y-57130000D01*
X125347500Y-57130000D01*
X125361958Y-57130710D01*
X125361958Y-57130710D01*
G37*
D18*
X125200000Y-57450000D03*
D13*
G36*
X126331958Y-57130710D02*
G01*
X126346276Y-57132834D01*
X126360317Y-57136351D01*
X126373946Y-57141228D01*
X126387031Y-57147417D01*
X126399447Y-57154858D01*
X126411073Y-57163481D01*
X126421798Y-57173202D01*
X126431519Y-57183927D01*
X126440142Y-57195553D01*
X126447583Y-57207969D01*
X126453772Y-57221054D01*
X126458649Y-57234683D01*
X126462166Y-57248724D01*
X126464290Y-57263042D01*
X126465000Y-57277500D01*
X126465000Y-57622500D01*
X126464290Y-57636958D01*
X126462166Y-57651276D01*
X126458649Y-57665317D01*
X126453772Y-57678946D01*
X126447583Y-57692031D01*
X126440142Y-57704447D01*
X126431519Y-57716073D01*
X126421798Y-57726798D01*
X126411073Y-57736519D01*
X126399447Y-57745142D01*
X126387031Y-57752583D01*
X126373946Y-57758772D01*
X126360317Y-57763649D01*
X126346276Y-57767166D01*
X126331958Y-57769290D01*
X126317500Y-57770000D01*
X126022500Y-57770000D01*
X126008042Y-57769290D01*
X125993724Y-57767166D01*
X125979683Y-57763649D01*
X125966054Y-57758772D01*
X125952969Y-57752583D01*
X125940553Y-57745142D01*
X125928927Y-57736519D01*
X125918202Y-57726798D01*
X125908481Y-57716073D01*
X125899858Y-57704447D01*
X125892417Y-57692031D01*
X125886228Y-57678946D01*
X125881351Y-57665317D01*
X125877834Y-57651276D01*
X125875710Y-57636958D01*
X125875000Y-57622500D01*
X125875000Y-57277500D01*
X125875710Y-57263042D01*
X125877834Y-57248724D01*
X125881351Y-57234683D01*
X125886228Y-57221054D01*
X125892417Y-57207969D01*
X125899858Y-57195553D01*
X125908481Y-57183927D01*
X125918202Y-57173202D01*
X125928927Y-57163481D01*
X125940553Y-57154858D01*
X125952969Y-57147417D01*
X125966054Y-57141228D01*
X125979683Y-57136351D01*
X125993724Y-57132834D01*
X126008042Y-57130710D01*
X126022500Y-57130000D01*
X126317500Y-57130000D01*
X126331958Y-57130710D01*
X126331958Y-57130710D01*
G37*
D18*
X126170000Y-57450000D03*
D13*
G36*
X119936958Y-54990710D02*
G01*
X119951276Y-54992834D01*
X119965317Y-54996351D01*
X119978946Y-55001228D01*
X119992031Y-55007417D01*
X120004447Y-55014858D01*
X120016073Y-55023481D01*
X120026798Y-55033202D01*
X120036519Y-55043927D01*
X120045142Y-55055553D01*
X120052583Y-55067969D01*
X120058772Y-55081054D01*
X120063649Y-55094683D01*
X120067166Y-55108724D01*
X120069290Y-55123042D01*
X120070000Y-55137500D01*
X120070000Y-55432500D01*
X120069290Y-55446958D01*
X120067166Y-55461276D01*
X120063649Y-55475317D01*
X120058772Y-55488946D01*
X120052583Y-55502031D01*
X120045142Y-55514447D01*
X120036519Y-55526073D01*
X120026798Y-55536798D01*
X120016073Y-55546519D01*
X120004447Y-55555142D01*
X119992031Y-55562583D01*
X119978946Y-55568772D01*
X119965317Y-55573649D01*
X119951276Y-55577166D01*
X119936958Y-55579290D01*
X119922500Y-55580000D01*
X119577500Y-55580000D01*
X119563042Y-55579290D01*
X119548724Y-55577166D01*
X119534683Y-55573649D01*
X119521054Y-55568772D01*
X119507969Y-55562583D01*
X119495553Y-55555142D01*
X119483927Y-55546519D01*
X119473202Y-55536798D01*
X119463481Y-55526073D01*
X119454858Y-55514447D01*
X119447417Y-55502031D01*
X119441228Y-55488946D01*
X119436351Y-55475317D01*
X119432834Y-55461276D01*
X119430710Y-55446958D01*
X119430000Y-55432500D01*
X119430000Y-55137500D01*
X119430710Y-55123042D01*
X119432834Y-55108724D01*
X119436351Y-55094683D01*
X119441228Y-55081054D01*
X119447417Y-55067969D01*
X119454858Y-55055553D01*
X119463481Y-55043927D01*
X119473202Y-55033202D01*
X119483927Y-55023481D01*
X119495553Y-55014858D01*
X119507969Y-55007417D01*
X119521054Y-55001228D01*
X119534683Y-54996351D01*
X119548724Y-54992834D01*
X119563042Y-54990710D01*
X119577500Y-54990000D01*
X119922500Y-54990000D01*
X119936958Y-54990710D01*
X119936958Y-54990710D01*
G37*
D18*
X119750000Y-55285000D03*
D13*
G36*
X119936958Y-54020710D02*
G01*
X119951276Y-54022834D01*
X119965317Y-54026351D01*
X119978946Y-54031228D01*
X119992031Y-54037417D01*
X120004447Y-54044858D01*
X120016073Y-54053481D01*
X120026798Y-54063202D01*
X120036519Y-54073927D01*
X120045142Y-54085553D01*
X120052583Y-54097969D01*
X120058772Y-54111054D01*
X120063649Y-54124683D01*
X120067166Y-54138724D01*
X120069290Y-54153042D01*
X120070000Y-54167500D01*
X120070000Y-54462500D01*
X120069290Y-54476958D01*
X120067166Y-54491276D01*
X120063649Y-54505317D01*
X120058772Y-54518946D01*
X120052583Y-54532031D01*
X120045142Y-54544447D01*
X120036519Y-54556073D01*
X120026798Y-54566798D01*
X120016073Y-54576519D01*
X120004447Y-54585142D01*
X119992031Y-54592583D01*
X119978946Y-54598772D01*
X119965317Y-54603649D01*
X119951276Y-54607166D01*
X119936958Y-54609290D01*
X119922500Y-54610000D01*
X119577500Y-54610000D01*
X119563042Y-54609290D01*
X119548724Y-54607166D01*
X119534683Y-54603649D01*
X119521054Y-54598772D01*
X119507969Y-54592583D01*
X119495553Y-54585142D01*
X119483927Y-54576519D01*
X119473202Y-54566798D01*
X119463481Y-54556073D01*
X119454858Y-54544447D01*
X119447417Y-54532031D01*
X119441228Y-54518946D01*
X119436351Y-54505317D01*
X119432834Y-54491276D01*
X119430710Y-54476958D01*
X119430000Y-54462500D01*
X119430000Y-54167500D01*
X119430710Y-54153042D01*
X119432834Y-54138724D01*
X119436351Y-54124683D01*
X119441228Y-54111054D01*
X119447417Y-54097969D01*
X119454858Y-54085553D01*
X119463481Y-54073927D01*
X119473202Y-54063202D01*
X119483927Y-54053481D01*
X119495553Y-54044858D01*
X119507969Y-54037417D01*
X119521054Y-54031228D01*
X119534683Y-54026351D01*
X119548724Y-54022834D01*
X119563042Y-54020710D01*
X119577500Y-54020000D01*
X119922500Y-54020000D01*
X119936958Y-54020710D01*
X119936958Y-54020710D01*
G37*
D18*
X119750000Y-54315000D03*
D13*
G36*
X112236958Y-58070710D02*
G01*
X112251276Y-58072834D01*
X112265317Y-58076351D01*
X112278946Y-58081228D01*
X112292031Y-58087417D01*
X112304447Y-58094858D01*
X112316073Y-58103481D01*
X112326798Y-58113202D01*
X112336519Y-58123927D01*
X112345142Y-58135553D01*
X112352583Y-58147969D01*
X112358772Y-58161054D01*
X112363649Y-58174683D01*
X112367166Y-58188724D01*
X112369290Y-58203042D01*
X112370000Y-58217500D01*
X112370000Y-58512500D01*
X112369290Y-58526958D01*
X112367166Y-58541276D01*
X112363649Y-58555317D01*
X112358772Y-58568946D01*
X112352583Y-58582031D01*
X112345142Y-58594447D01*
X112336519Y-58606073D01*
X112326798Y-58616798D01*
X112316073Y-58626519D01*
X112304447Y-58635142D01*
X112292031Y-58642583D01*
X112278946Y-58648772D01*
X112265317Y-58653649D01*
X112251276Y-58657166D01*
X112236958Y-58659290D01*
X112222500Y-58660000D01*
X111877500Y-58660000D01*
X111863042Y-58659290D01*
X111848724Y-58657166D01*
X111834683Y-58653649D01*
X111821054Y-58648772D01*
X111807969Y-58642583D01*
X111795553Y-58635142D01*
X111783927Y-58626519D01*
X111773202Y-58616798D01*
X111763481Y-58606073D01*
X111754858Y-58594447D01*
X111747417Y-58582031D01*
X111741228Y-58568946D01*
X111736351Y-58555317D01*
X111732834Y-58541276D01*
X111730710Y-58526958D01*
X111730000Y-58512500D01*
X111730000Y-58217500D01*
X111730710Y-58203042D01*
X111732834Y-58188724D01*
X111736351Y-58174683D01*
X111741228Y-58161054D01*
X111747417Y-58147969D01*
X111754858Y-58135553D01*
X111763481Y-58123927D01*
X111773202Y-58113202D01*
X111783927Y-58103481D01*
X111795553Y-58094858D01*
X111807969Y-58087417D01*
X111821054Y-58081228D01*
X111834683Y-58076351D01*
X111848724Y-58072834D01*
X111863042Y-58070710D01*
X111877500Y-58070000D01*
X112222500Y-58070000D01*
X112236958Y-58070710D01*
X112236958Y-58070710D01*
G37*
D18*
X112050000Y-58365000D03*
D13*
G36*
X112236958Y-57100710D02*
G01*
X112251276Y-57102834D01*
X112265317Y-57106351D01*
X112278946Y-57111228D01*
X112292031Y-57117417D01*
X112304447Y-57124858D01*
X112316073Y-57133481D01*
X112326798Y-57143202D01*
X112336519Y-57153927D01*
X112345142Y-57165553D01*
X112352583Y-57177969D01*
X112358772Y-57191054D01*
X112363649Y-57204683D01*
X112367166Y-57218724D01*
X112369290Y-57233042D01*
X112370000Y-57247500D01*
X112370000Y-57542500D01*
X112369290Y-57556958D01*
X112367166Y-57571276D01*
X112363649Y-57585317D01*
X112358772Y-57598946D01*
X112352583Y-57612031D01*
X112345142Y-57624447D01*
X112336519Y-57636073D01*
X112326798Y-57646798D01*
X112316073Y-57656519D01*
X112304447Y-57665142D01*
X112292031Y-57672583D01*
X112278946Y-57678772D01*
X112265317Y-57683649D01*
X112251276Y-57687166D01*
X112236958Y-57689290D01*
X112222500Y-57690000D01*
X111877500Y-57690000D01*
X111863042Y-57689290D01*
X111848724Y-57687166D01*
X111834683Y-57683649D01*
X111821054Y-57678772D01*
X111807969Y-57672583D01*
X111795553Y-57665142D01*
X111783927Y-57656519D01*
X111773202Y-57646798D01*
X111763481Y-57636073D01*
X111754858Y-57624447D01*
X111747417Y-57612031D01*
X111741228Y-57598946D01*
X111736351Y-57585317D01*
X111732834Y-57571276D01*
X111730710Y-57556958D01*
X111730000Y-57542500D01*
X111730000Y-57247500D01*
X111730710Y-57233042D01*
X111732834Y-57218724D01*
X111736351Y-57204683D01*
X111741228Y-57191054D01*
X111747417Y-57177969D01*
X111754858Y-57165553D01*
X111763481Y-57153927D01*
X111773202Y-57143202D01*
X111783927Y-57133481D01*
X111795553Y-57124858D01*
X111807969Y-57117417D01*
X111821054Y-57111228D01*
X111834683Y-57106351D01*
X111848724Y-57102834D01*
X111863042Y-57100710D01*
X111877500Y-57100000D01*
X112222500Y-57100000D01*
X112236958Y-57100710D01*
X112236958Y-57100710D01*
G37*
D18*
X112050000Y-57395000D03*
D13*
G36*
X116076958Y-55980710D02*
G01*
X116091276Y-55982834D01*
X116105317Y-55986351D01*
X116118946Y-55991228D01*
X116132031Y-55997417D01*
X116144447Y-56004858D01*
X116156073Y-56013481D01*
X116166798Y-56023202D01*
X116176519Y-56033927D01*
X116185142Y-56045553D01*
X116192583Y-56057969D01*
X116198772Y-56071054D01*
X116203649Y-56084683D01*
X116207166Y-56098724D01*
X116209290Y-56113042D01*
X116210000Y-56127500D01*
X116210000Y-56472500D01*
X116209290Y-56486958D01*
X116207166Y-56501276D01*
X116203649Y-56515317D01*
X116198772Y-56528946D01*
X116192583Y-56542031D01*
X116185142Y-56554447D01*
X116176519Y-56566073D01*
X116166798Y-56576798D01*
X116156073Y-56586519D01*
X116144447Y-56595142D01*
X116132031Y-56602583D01*
X116118946Y-56608772D01*
X116105317Y-56613649D01*
X116091276Y-56617166D01*
X116076958Y-56619290D01*
X116062500Y-56620000D01*
X115767500Y-56620000D01*
X115753042Y-56619290D01*
X115738724Y-56617166D01*
X115724683Y-56613649D01*
X115711054Y-56608772D01*
X115697969Y-56602583D01*
X115685553Y-56595142D01*
X115673927Y-56586519D01*
X115663202Y-56576798D01*
X115653481Y-56566073D01*
X115644858Y-56554447D01*
X115637417Y-56542031D01*
X115631228Y-56528946D01*
X115626351Y-56515317D01*
X115622834Y-56501276D01*
X115620710Y-56486958D01*
X115620000Y-56472500D01*
X115620000Y-56127500D01*
X115620710Y-56113042D01*
X115622834Y-56098724D01*
X115626351Y-56084683D01*
X115631228Y-56071054D01*
X115637417Y-56057969D01*
X115644858Y-56045553D01*
X115653481Y-56033927D01*
X115663202Y-56023202D01*
X115673927Y-56013481D01*
X115685553Y-56004858D01*
X115697969Y-55997417D01*
X115711054Y-55991228D01*
X115724683Y-55986351D01*
X115738724Y-55982834D01*
X115753042Y-55980710D01*
X115767500Y-55980000D01*
X116062500Y-55980000D01*
X116076958Y-55980710D01*
X116076958Y-55980710D01*
G37*
D18*
X115915000Y-56300000D03*
D13*
G36*
X117046958Y-55980710D02*
G01*
X117061276Y-55982834D01*
X117075317Y-55986351D01*
X117088946Y-55991228D01*
X117102031Y-55997417D01*
X117114447Y-56004858D01*
X117126073Y-56013481D01*
X117136798Y-56023202D01*
X117146519Y-56033927D01*
X117155142Y-56045553D01*
X117162583Y-56057969D01*
X117168772Y-56071054D01*
X117173649Y-56084683D01*
X117177166Y-56098724D01*
X117179290Y-56113042D01*
X117180000Y-56127500D01*
X117180000Y-56472500D01*
X117179290Y-56486958D01*
X117177166Y-56501276D01*
X117173649Y-56515317D01*
X117168772Y-56528946D01*
X117162583Y-56542031D01*
X117155142Y-56554447D01*
X117146519Y-56566073D01*
X117136798Y-56576798D01*
X117126073Y-56586519D01*
X117114447Y-56595142D01*
X117102031Y-56602583D01*
X117088946Y-56608772D01*
X117075317Y-56613649D01*
X117061276Y-56617166D01*
X117046958Y-56619290D01*
X117032500Y-56620000D01*
X116737500Y-56620000D01*
X116723042Y-56619290D01*
X116708724Y-56617166D01*
X116694683Y-56613649D01*
X116681054Y-56608772D01*
X116667969Y-56602583D01*
X116655553Y-56595142D01*
X116643927Y-56586519D01*
X116633202Y-56576798D01*
X116623481Y-56566073D01*
X116614858Y-56554447D01*
X116607417Y-56542031D01*
X116601228Y-56528946D01*
X116596351Y-56515317D01*
X116592834Y-56501276D01*
X116590710Y-56486958D01*
X116590000Y-56472500D01*
X116590000Y-56127500D01*
X116590710Y-56113042D01*
X116592834Y-56098724D01*
X116596351Y-56084683D01*
X116601228Y-56071054D01*
X116607417Y-56057969D01*
X116614858Y-56045553D01*
X116623481Y-56033927D01*
X116633202Y-56023202D01*
X116643927Y-56013481D01*
X116655553Y-56004858D01*
X116667969Y-55997417D01*
X116681054Y-55991228D01*
X116694683Y-55986351D01*
X116708724Y-55982834D01*
X116723042Y-55980710D01*
X116737500Y-55980000D01*
X117032500Y-55980000D01*
X117046958Y-55980710D01*
X117046958Y-55980710D01*
G37*
D18*
X116885000Y-56300000D03*
D13*
G36*
X113186958Y-58070710D02*
G01*
X113201276Y-58072834D01*
X113215317Y-58076351D01*
X113228946Y-58081228D01*
X113242031Y-58087417D01*
X113254447Y-58094858D01*
X113266073Y-58103481D01*
X113276798Y-58113202D01*
X113286519Y-58123927D01*
X113295142Y-58135553D01*
X113302583Y-58147969D01*
X113308772Y-58161054D01*
X113313649Y-58174683D01*
X113317166Y-58188724D01*
X113319290Y-58203042D01*
X113320000Y-58217500D01*
X113320000Y-58512500D01*
X113319290Y-58526958D01*
X113317166Y-58541276D01*
X113313649Y-58555317D01*
X113308772Y-58568946D01*
X113302583Y-58582031D01*
X113295142Y-58594447D01*
X113286519Y-58606073D01*
X113276798Y-58616798D01*
X113266073Y-58626519D01*
X113254447Y-58635142D01*
X113242031Y-58642583D01*
X113228946Y-58648772D01*
X113215317Y-58653649D01*
X113201276Y-58657166D01*
X113186958Y-58659290D01*
X113172500Y-58660000D01*
X112827500Y-58660000D01*
X112813042Y-58659290D01*
X112798724Y-58657166D01*
X112784683Y-58653649D01*
X112771054Y-58648772D01*
X112757969Y-58642583D01*
X112745553Y-58635142D01*
X112733927Y-58626519D01*
X112723202Y-58616798D01*
X112713481Y-58606073D01*
X112704858Y-58594447D01*
X112697417Y-58582031D01*
X112691228Y-58568946D01*
X112686351Y-58555317D01*
X112682834Y-58541276D01*
X112680710Y-58526958D01*
X112680000Y-58512500D01*
X112680000Y-58217500D01*
X112680710Y-58203042D01*
X112682834Y-58188724D01*
X112686351Y-58174683D01*
X112691228Y-58161054D01*
X112697417Y-58147969D01*
X112704858Y-58135553D01*
X112713481Y-58123927D01*
X112723202Y-58113202D01*
X112733927Y-58103481D01*
X112745553Y-58094858D01*
X112757969Y-58087417D01*
X112771054Y-58081228D01*
X112784683Y-58076351D01*
X112798724Y-58072834D01*
X112813042Y-58070710D01*
X112827500Y-58070000D01*
X113172500Y-58070000D01*
X113186958Y-58070710D01*
X113186958Y-58070710D01*
G37*
D18*
X113000000Y-58365000D03*
D13*
G36*
X113186958Y-57100710D02*
G01*
X113201276Y-57102834D01*
X113215317Y-57106351D01*
X113228946Y-57111228D01*
X113242031Y-57117417D01*
X113254447Y-57124858D01*
X113266073Y-57133481D01*
X113276798Y-57143202D01*
X113286519Y-57153927D01*
X113295142Y-57165553D01*
X113302583Y-57177969D01*
X113308772Y-57191054D01*
X113313649Y-57204683D01*
X113317166Y-57218724D01*
X113319290Y-57233042D01*
X113320000Y-57247500D01*
X113320000Y-57542500D01*
X113319290Y-57556958D01*
X113317166Y-57571276D01*
X113313649Y-57585317D01*
X113308772Y-57598946D01*
X113302583Y-57612031D01*
X113295142Y-57624447D01*
X113286519Y-57636073D01*
X113276798Y-57646798D01*
X113266073Y-57656519D01*
X113254447Y-57665142D01*
X113242031Y-57672583D01*
X113228946Y-57678772D01*
X113215317Y-57683649D01*
X113201276Y-57687166D01*
X113186958Y-57689290D01*
X113172500Y-57690000D01*
X112827500Y-57690000D01*
X112813042Y-57689290D01*
X112798724Y-57687166D01*
X112784683Y-57683649D01*
X112771054Y-57678772D01*
X112757969Y-57672583D01*
X112745553Y-57665142D01*
X112733927Y-57656519D01*
X112723202Y-57646798D01*
X112713481Y-57636073D01*
X112704858Y-57624447D01*
X112697417Y-57612031D01*
X112691228Y-57598946D01*
X112686351Y-57585317D01*
X112682834Y-57571276D01*
X112680710Y-57556958D01*
X112680000Y-57542500D01*
X112680000Y-57247500D01*
X112680710Y-57233042D01*
X112682834Y-57218724D01*
X112686351Y-57204683D01*
X112691228Y-57191054D01*
X112697417Y-57177969D01*
X112704858Y-57165553D01*
X112713481Y-57153927D01*
X112723202Y-57143202D01*
X112733927Y-57133481D01*
X112745553Y-57124858D01*
X112757969Y-57117417D01*
X112771054Y-57111228D01*
X112784683Y-57106351D01*
X112798724Y-57102834D01*
X112813042Y-57100710D01*
X112827500Y-57100000D01*
X113172500Y-57100000D01*
X113186958Y-57100710D01*
X113186958Y-57100710D01*
G37*
D18*
X113000000Y-57395000D03*
D13*
G36*
X116076958Y-55030710D02*
G01*
X116091276Y-55032834D01*
X116105317Y-55036351D01*
X116118946Y-55041228D01*
X116132031Y-55047417D01*
X116144447Y-55054858D01*
X116156073Y-55063481D01*
X116166798Y-55073202D01*
X116176519Y-55083927D01*
X116185142Y-55095553D01*
X116192583Y-55107969D01*
X116198772Y-55121054D01*
X116203649Y-55134683D01*
X116207166Y-55148724D01*
X116209290Y-55163042D01*
X116210000Y-55177500D01*
X116210000Y-55522500D01*
X116209290Y-55536958D01*
X116207166Y-55551276D01*
X116203649Y-55565317D01*
X116198772Y-55578946D01*
X116192583Y-55592031D01*
X116185142Y-55604447D01*
X116176519Y-55616073D01*
X116166798Y-55626798D01*
X116156073Y-55636519D01*
X116144447Y-55645142D01*
X116132031Y-55652583D01*
X116118946Y-55658772D01*
X116105317Y-55663649D01*
X116091276Y-55667166D01*
X116076958Y-55669290D01*
X116062500Y-55670000D01*
X115767500Y-55670000D01*
X115753042Y-55669290D01*
X115738724Y-55667166D01*
X115724683Y-55663649D01*
X115711054Y-55658772D01*
X115697969Y-55652583D01*
X115685553Y-55645142D01*
X115673927Y-55636519D01*
X115663202Y-55626798D01*
X115653481Y-55616073D01*
X115644858Y-55604447D01*
X115637417Y-55592031D01*
X115631228Y-55578946D01*
X115626351Y-55565317D01*
X115622834Y-55551276D01*
X115620710Y-55536958D01*
X115620000Y-55522500D01*
X115620000Y-55177500D01*
X115620710Y-55163042D01*
X115622834Y-55148724D01*
X115626351Y-55134683D01*
X115631228Y-55121054D01*
X115637417Y-55107969D01*
X115644858Y-55095553D01*
X115653481Y-55083927D01*
X115663202Y-55073202D01*
X115673927Y-55063481D01*
X115685553Y-55054858D01*
X115697969Y-55047417D01*
X115711054Y-55041228D01*
X115724683Y-55036351D01*
X115738724Y-55032834D01*
X115753042Y-55030710D01*
X115767500Y-55030000D01*
X116062500Y-55030000D01*
X116076958Y-55030710D01*
X116076958Y-55030710D01*
G37*
D18*
X115915000Y-55350000D03*
D13*
G36*
X117046958Y-55030710D02*
G01*
X117061276Y-55032834D01*
X117075317Y-55036351D01*
X117088946Y-55041228D01*
X117102031Y-55047417D01*
X117114447Y-55054858D01*
X117126073Y-55063481D01*
X117136798Y-55073202D01*
X117146519Y-55083927D01*
X117155142Y-55095553D01*
X117162583Y-55107969D01*
X117168772Y-55121054D01*
X117173649Y-55134683D01*
X117177166Y-55148724D01*
X117179290Y-55163042D01*
X117180000Y-55177500D01*
X117180000Y-55522500D01*
X117179290Y-55536958D01*
X117177166Y-55551276D01*
X117173649Y-55565317D01*
X117168772Y-55578946D01*
X117162583Y-55592031D01*
X117155142Y-55604447D01*
X117146519Y-55616073D01*
X117136798Y-55626798D01*
X117126073Y-55636519D01*
X117114447Y-55645142D01*
X117102031Y-55652583D01*
X117088946Y-55658772D01*
X117075317Y-55663649D01*
X117061276Y-55667166D01*
X117046958Y-55669290D01*
X117032500Y-55670000D01*
X116737500Y-55670000D01*
X116723042Y-55669290D01*
X116708724Y-55667166D01*
X116694683Y-55663649D01*
X116681054Y-55658772D01*
X116667969Y-55652583D01*
X116655553Y-55645142D01*
X116643927Y-55636519D01*
X116633202Y-55626798D01*
X116623481Y-55616073D01*
X116614858Y-55604447D01*
X116607417Y-55592031D01*
X116601228Y-55578946D01*
X116596351Y-55565317D01*
X116592834Y-55551276D01*
X116590710Y-55536958D01*
X116590000Y-55522500D01*
X116590000Y-55177500D01*
X116590710Y-55163042D01*
X116592834Y-55148724D01*
X116596351Y-55134683D01*
X116601228Y-55121054D01*
X116607417Y-55107969D01*
X116614858Y-55095553D01*
X116623481Y-55083927D01*
X116633202Y-55073202D01*
X116643927Y-55063481D01*
X116655553Y-55054858D01*
X116667969Y-55047417D01*
X116681054Y-55041228D01*
X116694683Y-55036351D01*
X116708724Y-55032834D01*
X116723042Y-55030710D01*
X116737500Y-55030000D01*
X117032500Y-55030000D01*
X117046958Y-55030710D01*
X117046958Y-55030710D01*
G37*
D18*
X116885000Y-55350000D03*
D13*
G36*
X105076958Y-57080710D02*
G01*
X105091276Y-57082834D01*
X105105317Y-57086351D01*
X105118946Y-57091228D01*
X105132031Y-57097417D01*
X105144447Y-57104858D01*
X105156073Y-57113481D01*
X105166798Y-57123202D01*
X105176519Y-57133927D01*
X105185142Y-57145553D01*
X105192583Y-57157969D01*
X105198772Y-57171054D01*
X105203649Y-57184683D01*
X105207166Y-57198724D01*
X105209290Y-57213042D01*
X105210000Y-57227500D01*
X105210000Y-57572500D01*
X105209290Y-57586958D01*
X105207166Y-57601276D01*
X105203649Y-57615317D01*
X105198772Y-57628946D01*
X105192583Y-57642031D01*
X105185142Y-57654447D01*
X105176519Y-57666073D01*
X105166798Y-57676798D01*
X105156073Y-57686519D01*
X105144447Y-57695142D01*
X105132031Y-57702583D01*
X105118946Y-57708772D01*
X105105317Y-57713649D01*
X105091276Y-57717166D01*
X105076958Y-57719290D01*
X105062500Y-57720000D01*
X104767500Y-57720000D01*
X104753042Y-57719290D01*
X104738724Y-57717166D01*
X104724683Y-57713649D01*
X104711054Y-57708772D01*
X104697969Y-57702583D01*
X104685553Y-57695142D01*
X104673927Y-57686519D01*
X104663202Y-57676798D01*
X104653481Y-57666073D01*
X104644858Y-57654447D01*
X104637417Y-57642031D01*
X104631228Y-57628946D01*
X104626351Y-57615317D01*
X104622834Y-57601276D01*
X104620710Y-57586958D01*
X104620000Y-57572500D01*
X104620000Y-57227500D01*
X104620710Y-57213042D01*
X104622834Y-57198724D01*
X104626351Y-57184683D01*
X104631228Y-57171054D01*
X104637417Y-57157969D01*
X104644858Y-57145553D01*
X104653481Y-57133927D01*
X104663202Y-57123202D01*
X104673927Y-57113481D01*
X104685553Y-57104858D01*
X104697969Y-57097417D01*
X104711054Y-57091228D01*
X104724683Y-57086351D01*
X104738724Y-57082834D01*
X104753042Y-57080710D01*
X104767500Y-57080000D01*
X105062500Y-57080000D01*
X105076958Y-57080710D01*
X105076958Y-57080710D01*
G37*
D18*
X104915000Y-57400000D03*
D13*
G36*
X106046958Y-57080710D02*
G01*
X106061276Y-57082834D01*
X106075317Y-57086351D01*
X106088946Y-57091228D01*
X106102031Y-57097417D01*
X106114447Y-57104858D01*
X106126073Y-57113481D01*
X106136798Y-57123202D01*
X106146519Y-57133927D01*
X106155142Y-57145553D01*
X106162583Y-57157969D01*
X106168772Y-57171054D01*
X106173649Y-57184683D01*
X106177166Y-57198724D01*
X106179290Y-57213042D01*
X106180000Y-57227500D01*
X106180000Y-57572500D01*
X106179290Y-57586958D01*
X106177166Y-57601276D01*
X106173649Y-57615317D01*
X106168772Y-57628946D01*
X106162583Y-57642031D01*
X106155142Y-57654447D01*
X106146519Y-57666073D01*
X106136798Y-57676798D01*
X106126073Y-57686519D01*
X106114447Y-57695142D01*
X106102031Y-57702583D01*
X106088946Y-57708772D01*
X106075317Y-57713649D01*
X106061276Y-57717166D01*
X106046958Y-57719290D01*
X106032500Y-57720000D01*
X105737500Y-57720000D01*
X105723042Y-57719290D01*
X105708724Y-57717166D01*
X105694683Y-57713649D01*
X105681054Y-57708772D01*
X105667969Y-57702583D01*
X105655553Y-57695142D01*
X105643927Y-57686519D01*
X105633202Y-57676798D01*
X105623481Y-57666073D01*
X105614858Y-57654447D01*
X105607417Y-57642031D01*
X105601228Y-57628946D01*
X105596351Y-57615317D01*
X105592834Y-57601276D01*
X105590710Y-57586958D01*
X105590000Y-57572500D01*
X105590000Y-57227500D01*
X105590710Y-57213042D01*
X105592834Y-57198724D01*
X105596351Y-57184683D01*
X105601228Y-57171054D01*
X105607417Y-57157969D01*
X105614858Y-57145553D01*
X105623481Y-57133927D01*
X105633202Y-57123202D01*
X105643927Y-57113481D01*
X105655553Y-57104858D01*
X105667969Y-57097417D01*
X105681054Y-57091228D01*
X105694683Y-57086351D01*
X105708724Y-57082834D01*
X105723042Y-57080710D01*
X105737500Y-57080000D01*
X106032500Y-57080000D01*
X106046958Y-57080710D01*
X106046958Y-57080710D01*
G37*
D18*
X105885000Y-57400000D03*
D19*
X117400000Y-59400000D03*
X115500000Y-59400000D03*
X115500000Y-57400000D03*
D20*
X117200000Y-57400000D03*
D13*
G36*
X130699504Y-49076204D02*
G01*
X130723773Y-49079804D01*
X130747571Y-49085765D01*
X130770671Y-49094030D01*
X130792849Y-49104520D01*
X130813893Y-49117133D01*
X130833598Y-49131747D01*
X130851777Y-49148223D01*
X130868253Y-49166402D01*
X130882867Y-49186107D01*
X130895480Y-49207151D01*
X130905970Y-49229329D01*
X130914235Y-49252429D01*
X130920196Y-49276227D01*
X130923796Y-49300496D01*
X130925000Y-49325000D01*
X130925000Y-51475000D01*
X130923796Y-51499504D01*
X130920196Y-51523773D01*
X130914235Y-51547571D01*
X130905970Y-51570671D01*
X130895480Y-51592849D01*
X130882867Y-51613893D01*
X130868253Y-51633598D01*
X130851777Y-51651777D01*
X130833598Y-51668253D01*
X130813893Y-51682867D01*
X130792849Y-51695480D01*
X130770671Y-51705970D01*
X130747571Y-51714235D01*
X130723773Y-51720196D01*
X130699504Y-51723796D01*
X130675000Y-51725000D01*
X129925000Y-51725000D01*
X129900496Y-51723796D01*
X129876227Y-51720196D01*
X129852429Y-51714235D01*
X129829329Y-51705970D01*
X129807151Y-51695480D01*
X129786107Y-51682867D01*
X129766402Y-51668253D01*
X129748223Y-51651777D01*
X129731747Y-51633598D01*
X129717133Y-51613893D01*
X129704520Y-51592849D01*
X129694030Y-51570671D01*
X129685765Y-51547571D01*
X129679804Y-51523773D01*
X129676204Y-51499504D01*
X129675000Y-51475000D01*
X129675000Y-49325000D01*
X129676204Y-49300496D01*
X129679804Y-49276227D01*
X129685765Y-49252429D01*
X129694030Y-49229329D01*
X129704520Y-49207151D01*
X129717133Y-49186107D01*
X129731747Y-49166402D01*
X129748223Y-49148223D01*
X129766402Y-49131747D01*
X129786107Y-49117133D01*
X129807151Y-49104520D01*
X129829329Y-49094030D01*
X129852429Y-49085765D01*
X129876227Y-49079804D01*
X129900496Y-49076204D01*
X129925000Y-49075000D01*
X130675000Y-49075000D01*
X130699504Y-49076204D01*
X130699504Y-49076204D01*
G37*
D21*
X130300000Y-50400000D03*
D13*
G36*
X127899504Y-49076204D02*
G01*
X127923773Y-49079804D01*
X127947571Y-49085765D01*
X127970671Y-49094030D01*
X127992849Y-49104520D01*
X128013893Y-49117133D01*
X128033598Y-49131747D01*
X128051777Y-49148223D01*
X128068253Y-49166402D01*
X128082867Y-49186107D01*
X128095480Y-49207151D01*
X128105970Y-49229329D01*
X128114235Y-49252429D01*
X128120196Y-49276227D01*
X128123796Y-49300496D01*
X128125000Y-49325000D01*
X128125000Y-51475000D01*
X128123796Y-51499504D01*
X128120196Y-51523773D01*
X128114235Y-51547571D01*
X128105970Y-51570671D01*
X128095480Y-51592849D01*
X128082867Y-51613893D01*
X128068253Y-51633598D01*
X128051777Y-51651777D01*
X128033598Y-51668253D01*
X128013893Y-51682867D01*
X127992849Y-51695480D01*
X127970671Y-51705970D01*
X127947571Y-51714235D01*
X127923773Y-51720196D01*
X127899504Y-51723796D01*
X127875000Y-51725000D01*
X127125000Y-51725000D01*
X127100496Y-51723796D01*
X127076227Y-51720196D01*
X127052429Y-51714235D01*
X127029329Y-51705970D01*
X127007151Y-51695480D01*
X126986107Y-51682867D01*
X126966402Y-51668253D01*
X126948223Y-51651777D01*
X126931747Y-51633598D01*
X126917133Y-51613893D01*
X126904520Y-51592849D01*
X126894030Y-51570671D01*
X126885765Y-51547571D01*
X126879804Y-51523773D01*
X126876204Y-51499504D01*
X126875000Y-51475000D01*
X126875000Y-49325000D01*
X126876204Y-49300496D01*
X126879804Y-49276227D01*
X126885765Y-49252429D01*
X126894030Y-49229329D01*
X126904520Y-49207151D01*
X126917133Y-49186107D01*
X126931747Y-49166402D01*
X126948223Y-49148223D01*
X126966402Y-49131747D01*
X126986107Y-49117133D01*
X127007151Y-49104520D01*
X127029329Y-49094030D01*
X127052429Y-49085765D01*
X127076227Y-49079804D01*
X127100496Y-49076204D01*
X127125000Y-49075000D01*
X127875000Y-49075000D01*
X127899504Y-49076204D01*
X127899504Y-49076204D01*
G37*
D21*
X127500000Y-50400000D03*
D13*
G36*
X129246958Y-57130710D02*
G01*
X129261276Y-57132834D01*
X129275317Y-57136351D01*
X129288946Y-57141228D01*
X129302031Y-57147417D01*
X129314447Y-57154858D01*
X129326073Y-57163481D01*
X129336798Y-57173202D01*
X129346519Y-57183927D01*
X129355142Y-57195553D01*
X129362583Y-57207969D01*
X129368772Y-57221054D01*
X129373649Y-57234683D01*
X129377166Y-57248724D01*
X129379290Y-57263042D01*
X129380000Y-57277500D01*
X129380000Y-57622500D01*
X129379290Y-57636958D01*
X129377166Y-57651276D01*
X129373649Y-57665317D01*
X129368772Y-57678946D01*
X129362583Y-57692031D01*
X129355142Y-57704447D01*
X129346519Y-57716073D01*
X129336798Y-57726798D01*
X129326073Y-57736519D01*
X129314447Y-57745142D01*
X129302031Y-57752583D01*
X129288946Y-57758772D01*
X129275317Y-57763649D01*
X129261276Y-57767166D01*
X129246958Y-57769290D01*
X129232500Y-57770000D01*
X128937500Y-57770000D01*
X128923042Y-57769290D01*
X128908724Y-57767166D01*
X128894683Y-57763649D01*
X128881054Y-57758772D01*
X128867969Y-57752583D01*
X128855553Y-57745142D01*
X128843927Y-57736519D01*
X128833202Y-57726798D01*
X128823481Y-57716073D01*
X128814858Y-57704447D01*
X128807417Y-57692031D01*
X128801228Y-57678946D01*
X128796351Y-57665317D01*
X128792834Y-57651276D01*
X128790710Y-57636958D01*
X128790000Y-57622500D01*
X128790000Y-57277500D01*
X128790710Y-57263042D01*
X128792834Y-57248724D01*
X128796351Y-57234683D01*
X128801228Y-57221054D01*
X128807417Y-57207969D01*
X128814858Y-57195553D01*
X128823481Y-57183927D01*
X128833202Y-57173202D01*
X128843927Y-57163481D01*
X128855553Y-57154858D01*
X128867969Y-57147417D01*
X128881054Y-57141228D01*
X128894683Y-57136351D01*
X128908724Y-57132834D01*
X128923042Y-57130710D01*
X128937500Y-57130000D01*
X129232500Y-57130000D01*
X129246958Y-57130710D01*
X129246958Y-57130710D01*
G37*
D18*
X129085000Y-57450000D03*
D13*
G36*
X128276958Y-57130710D02*
G01*
X128291276Y-57132834D01*
X128305317Y-57136351D01*
X128318946Y-57141228D01*
X128332031Y-57147417D01*
X128344447Y-57154858D01*
X128356073Y-57163481D01*
X128366798Y-57173202D01*
X128376519Y-57183927D01*
X128385142Y-57195553D01*
X128392583Y-57207969D01*
X128398772Y-57221054D01*
X128403649Y-57234683D01*
X128407166Y-57248724D01*
X128409290Y-57263042D01*
X128410000Y-57277500D01*
X128410000Y-57622500D01*
X128409290Y-57636958D01*
X128407166Y-57651276D01*
X128403649Y-57665317D01*
X128398772Y-57678946D01*
X128392583Y-57692031D01*
X128385142Y-57704447D01*
X128376519Y-57716073D01*
X128366798Y-57726798D01*
X128356073Y-57736519D01*
X128344447Y-57745142D01*
X128332031Y-57752583D01*
X128318946Y-57758772D01*
X128305317Y-57763649D01*
X128291276Y-57767166D01*
X128276958Y-57769290D01*
X128262500Y-57770000D01*
X127967500Y-57770000D01*
X127953042Y-57769290D01*
X127938724Y-57767166D01*
X127924683Y-57763649D01*
X127911054Y-57758772D01*
X127897969Y-57752583D01*
X127885553Y-57745142D01*
X127873927Y-57736519D01*
X127863202Y-57726798D01*
X127853481Y-57716073D01*
X127844858Y-57704447D01*
X127837417Y-57692031D01*
X127831228Y-57678946D01*
X127826351Y-57665317D01*
X127822834Y-57651276D01*
X127820710Y-57636958D01*
X127820000Y-57622500D01*
X127820000Y-57277500D01*
X127820710Y-57263042D01*
X127822834Y-57248724D01*
X127826351Y-57234683D01*
X127831228Y-57221054D01*
X127837417Y-57207969D01*
X127844858Y-57195553D01*
X127853481Y-57183927D01*
X127863202Y-57173202D01*
X127873927Y-57163481D01*
X127885553Y-57154858D01*
X127897969Y-57147417D01*
X127911054Y-57141228D01*
X127924683Y-57136351D01*
X127938724Y-57132834D01*
X127953042Y-57130710D01*
X127967500Y-57130000D01*
X128262500Y-57130000D01*
X128276958Y-57130710D01*
X128276958Y-57130710D01*
G37*
D18*
X128115000Y-57450000D03*
D13*
G36*
X118886958Y-57090710D02*
G01*
X118901276Y-57092834D01*
X118915317Y-57096351D01*
X118928946Y-57101228D01*
X118942031Y-57107417D01*
X118954447Y-57114858D01*
X118966073Y-57123481D01*
X118976798Y-57133202D01*
X118986519Y-57143927D01*
X118995142Y-57155553D01*
X119002583Y-57167969D01*
X119008772Y-57181054D01*
X119013649Y-57194683D01*
X119017166Y-57208724D01*
X119019290Y-57223042D01*
X119020000Y-57237500D01*
X119020000Y-57532500D01*
X119019290Y-57546958D01*
X119017166Y-57561276D01*
X119013649Y-57575317D01*
X119008772Y-57588946D01*
X119002583Y-57602031D01*
X118995142Y-57614447D01*
X118986519Y-57626073D01*
X118976798Y-57636798D01*
X118966073Y-57646519D01*
X118954447Y-57655142D01*
X118942031Y-57662583D01*
X118928946Y-57668772D01*
X118915317Y-57673649D01*
X118901276Y-57677166D01*
X118886958Y-57679290D01*
X118872500Y-57680000D01*
X118527500Y-57680000D01*
X118513042Y-57679290D01*
X118498724Y-57677166D01*
X118484683Y-57673649D01*
X118471054Y-57668772D01*
X118457969Y-57662583D01*
X118445553Y-57655142D01*
X118433927Y-57646519D01*
X118423202Y-57636798D01*
X118413481Y-57626073D01*
X118404858Y-57614447D01*
X118397417Y-57602031D01*
X118391228Y-57588946D01*
X118386351Y-57575317D01*
X118382834Y-57561276D01*
X118380710Y-57546958D01*
X118380000Y-57532500D01*
X118380000Y-57237500D01*
X118380710Y-57223042D01*
X118382834Y-57208724D01*
X118386351Y-57194683D01*
X118391228Y-57181054D01*
X118397417Y-57167969D01*
X118404858Y-57155553D01*
X118413481Y-57143927D01*
X118423202Y-57133202D01*
X118433927Y-57123481D01*
X118445553Y-57114858D01*
X118457969Y-57107417D01*
X118471054Y-57101228D01*
X118484683Y-57096351D01*
X118498724Y-57092834D01*
X118513042Y-57090710D01*
X118527500Y-57090000D01*
X118872500Y-57090000D01*
X118886958Y-57090710D01*
X118886958Y-57090710D01*
G37*
D18*
X118700000Y-57385000D03*
D13*
G36*
X118886958Y-56120710D02*
G01*
X118901276Y-56122834D01*
X118915317Y-56126351D01*
X118928946Y-56131228D01*
X118942031Y-56137417D01*
X118954447Y-56144858D01*
X118966073Y-56153481D01*
X118976798Y-56163202D01*
X118986519Y-56173927D01*
X118995142Y-56185553D01*
X119002583Y-56197969D01*
X119008772Y-56211054D01*
X119013649Y-56224683D01*
X119017166Y-56238724D01*
X119019290Y-56253042D01*
X119020000Y-56267500D01*
X119020000Y-56562500D01*
X119019290Y-56576958D01*
X119017166Y-56591276D01*
X119013649Y-56605317D01*
X119008772Y-56618946D01*
X119002583Y-56632031D01*
X118995142Y-56644447D01*
X118986519Y-56656073D01*
X118976798Y-56666798D01*
X118966073Y-56676519D01*
X118954447Y-56685142D01*
X118942031Y-56692583D01*
X118928946Y-56698772D01*
X118915317Y-56703649D01*
X118901276Y-56707166D01*
X118886958Y-56709290D01*
X118872500Y-56710000D01*
X118527500Y-56710000D01*
X118513042Y-56709290D01*
X118498724Y-56707166D01*
X118484683Y-56703649D01*
X118471054Y-56698772D01*
X118457969Y-56692583D01*
X118445553Y-56685142D01*
X118433927Y-56676519D01*
X118423202Y-56666798D01*
X118413481Y-56656073D01*
X118404858Y-56644447D01*
X118397417Y-56632031D01*
X118391228Y-56618946D01*
X118386351Y-56605317D01*
X118382834Y-56591276D01*
X118380710Y-56576958D01*
X118380000Y-56562500D01*
X118380000Y-56267500D01*
X118380710Y-56253042D01*
X118382834Y-56238724D01*
X118386351Y-56224683D01*
X118391228Y-56211054D01*
X118397417Y-56197969D01*
X118404858Y-56185553D01*
X118413481Y-56173927D01*
X118423202Y-56163202D01*
X118433927Y-56153481D01*
X118445553Y-56144858D01*
X118457969Y-56137417D01*
X118471054Y-56131228D01*
X118484683Y-56126351D01*
X118498724Y-56122834D01*
X118513042Y-56120710D01*
X118527500Y-56120000D01*
X118872500Y-56120000D01*
X118886958Y-56120710D01*
X118886958Y-56120710D01*
G37*
D18*
X118700000Y-56415000D03*
D13*
G36*
X103146958Y-57080710D02*
G01*
X103161276Y-57082834D01*
X103175317Y-57086351D01*
X103188946Y-57091228D01*
X103202031Y-57097417D01*
X103214447Y-57104858D01*
X103226073Y-57113481D01*
X103236798Y-57123202D01*
X103246519Y-57133927D01*
X103255142Y-57145553D01*
X103262583Y-57157969D01*
X103268772Y-57171054D01*
X103273649Y-57184683D01*
X103277166Y-57198724D01*
X103279290Y-57213042D01*
X103280000Y-57227500D01*
X103280000Y-57572500D01*
X103279290Y-57586958D01*
X103277166Y-57601276D01*
X103273649Y-57615317D01*
X103268772Y-57628946D01*
X103262583Y-57642031D01*
X103255142Y-57654447D01*
X103246519Y-57666073D01*
X103236798Y-57676798D01*
X103226073Y-57686519D01*
X103214447Y-57695142D01*
X103202031Y-57702583D01*
X103188946Y-57708772D01*
X103175317Y-57713649D01*
X103161276Y-57717166D01*
X103146958Y-57719290D01*
X103132500Y-57720000D01*
X102837500Y-57720000D01*
X102823042Y-57719290D01*
X102808724Y-57717166D01*
X102794683Y-57713649D01*
X102781054Y-57708772D01*
X102767969Y-57702583D01*
X102755553Y-57695142D01*
X102743927Y-57686519D01*
X102733202Y-57676798D01*
X102723481Y-57666073D01*
X102714858Y-57654447D01*
X102707417Y-57642031D01*
X102701228Y-57628946D01*
X102696351Y-57615317D01*
X102692834Y-57601276D01*
X102690710Y-57586958D01*
X102690000Y-57572500D01*
X102690000Y-57227500D01*
X102690710Y-57213042D01*
X102692834Y-57198724D01*
X102696351Y-57184683D01*
X102701228Y-57171054D01*
X102707417Y-57157969D01*
X102714858Y-57145553D01*
X102723481Y-57133927D01*
X102733202Y-57123202D01*
X102743927Y-57113481D01*
X102755553Y-57104858D01*
X102767969Y-57097417D01*
X102781054Y-57091228D01*
X102794683Y-57086351D01*
X102808724Y-57082834D01*
X102823042Y-57080710D01*
X102837500Y-57080000D01*
X103132500Y-57080000D01*
X103146958Y-57080710D01*
X103146958Y-57080710D01*
G37*
D18*
X102985000Y-57400000D03*
D13*
G36*
X102176958Y-57080710D02*
G01*
X102191276Y-57082834D01*
X102205317Y-57086351D01*
X102218946Y-57091228D01*
X102232031Y-57097417D01*
X102244447Y-57104858D01*
X102256073Y-57113481D01*
X102266798Y-57123202D01*
X102276519Y-57133927D01*
X102285142Y-57145553D01*
X102292583Y-57157969D01*
X102298772Y-57171054D01*
X102303649Y-57184683D01*
X102307166Y-57198724D01*
X102309290Y-57213042D01*
X102310000Y-57227500D01*
X102310000Y-57572500D01*
X102309290Y-57586958D01*
X102307166Y-57601276D01*
X102303649Y-57615317D01*
X102298772Y-57628946D01*
X102292583Y-57642031D01*
X102285142Y-57654447D01*
X102276519Y-57666073D01*
X102266798Y-57676798D01*
X102256073Y-57686519D01*
X102244447Y-57695142D01*
X102232031Y-57702583D01*
X102218946Y-57708772D01*
X102205317Y-57713649D01*
X102191276Y-57717166D01*
X102176958Y-57719290D01*
X102162500Y-57720000D01*
X101867500Y-57720000D01*
X101853042Y-57719290D01*
X101838724Y-57717166D01*
X101824683Y-57713649D01*
X101811054Y-57708772D01*
X101797969Y-57702583D01*
X101785553Y-57695142D01*
X101773927Y-57686519D01*
X101763202Y-57676798D01*
X101753481Y-57666073D01*
X101744858Y-57654447D01*
X101737417Y-57642031D01*
X101731228Y-57628946D01*
X101726351Y-57615317D01*
X101722834Y-57601276D01*
X101720710Y-57586958D01*
X101720000Y-57572500D01*
X101720000Y-57227500D01*
X101720710Y-57213042D01*
X101722834Y-57198724D01*
X101726351Y-57184683D01*
X101731228Y-57171054D01*
X101737417Y-57157969D01*
X101744858Y-57145553D01*
X101753481Y-57133927D01*
X101763202Y-57123202D01*
X101773927Y-57113481D01*
X101785553Y-57104858D01*
X101797969Y-57097417D01*
X101811054Y-57091228D01*
X101824683Y-57086351D01*
X101838724Y-57082834D01*
X101853042Y-57080710D01*
X101867500Y-57080000D01*
X102162500Y-57080000D01*
X102176958Y-57080710D01*
X102176958Y-57080710D01*
G37*
D18*
X102015000Y-57400000D03*
D13*
G36*
X96346958Y-57080710D02*
G01*
X96361276Y-57082834D01*
X96375317Y-57086351D01*
X96388946Y-57091228D01*
X96402031Y-57097417D01*
X96414447Y-57104858D01*
X96426073Y-57113481D01*
X96436798Y-57123202D01*
X96446519Y-57133927D01*
X96455142Y-57145553D01*
X96462583Y-57157969D01*
X96468772Y-57171054D01*
X96473649Y-57184683D01*
X96477166Y-57198724D01*
X96479290Y-57213042D01*
X96480000Y-57227500D01*
X96480000Y-57572500D01*
X96479290Y-57586958D01*
X96477166Y-57601276D01*
X96473649Y-57615317D01*
X96468772Y-57628946D01*
X96462583Y-57642031D01*
X96455142Y-57654447D01*
X96446519Y-57666073D01*
X96436798Y-57676798D01*
X96426073Y-57686519D01*
X96414447Y-57695142D01*
X96402031Y-57702583D01*
X96388946Y-57708772D01*
X96375317Y-57713649D01*
X96361276Y-57717166D01*
X96346958Y-57719290D01*
X96332500Y-57720000D01*
X96037500Y-57720000D01*
X96023042Y-57719290D01*
X96008724Y-57717166D01*
X95994683Y-57713649D01*
X95981054Y-57708772D01*
X95967969Y-57702583D01*
X95955553Y-57695142D01*
X95943927Y-57686519D01*
X95933202Y-57676798D01*
X95923481Y-57666073D01*
X95914858Y-57654447D01*
X95907417Y-57642031D01*
X95901228Y-57628946D01*
X95896351Y-57615317D01*
X95892834Y-57601276D01*
X95890710Y-57586958D01*
X95890000Y-57572500D01*
X95890000Y-57227500D01*
X95890710Y-57213042D01*
X95892834Y-57198724D01*
X95896351Y-57184683D01*
X95901228Y-57171054D01*
X95907417Y-57157969D01*
X95914858Y-57145553D01*
X95923481Y-57133927D01*
X95933202Y-57123202D01*
X95943927Y-57113481D01*
X95955553Y-57104858D01*
X95967969Y-57097417D01*
X95981054Y-57091228D01*
X95994683Y-57086351D01*
X96008724Y-57082834D01*
X96023042Y-57080710D01*
X96037500Y-57080000D01*
X96332500Y-57080000D01*
X96346958Y-57080710D01*
X96346958Y-57080710D01*
G37*
D18*
X96185000Y-57400000D03*
D13*
G36*
X95376958Y-57080710D02*
G01*
X95391276Y-57082834D01*
X95405317Y-57086351D01*
X95418946Y-57091228D01*
X95432031Y-57097417D01*
X95444447Y-57104858D01*
X95456073Y-57113481D01*
X95466798Y-57123202D01*
X95476519Y-57133927D01*
X95485142Y-57145553D01*
X95492583Y-57157969D01*
X95498772Y-57171054D01*
X95503649Y-57184683D01*
X95507166Y-57198724D01*
X95509290Y-57213042D01*
X95510000Y-57227500D01*
X95510000Y-57572500D01*
X95509290Y-57586958D01*
X95507166Y-57601276D01*
X95503649Y-57615317D01*
X95498772Y-57628946D01*
X95492583Y-57642031D01*
X95485142Y-57654447D01*
X95476519Y-57666073D01*
X95466798Y-57676798D01*
X95456073Y-57686519D01*
X95444447Y-57695142D01*
X95432031Y-57702583D01*
X95418946Y-57708772D01*
X95405317Y-57713649D01*
X95391276Y-57717166D01*
X95376958Y-57719290D01*
X95362500Y-57720000D01*
X95067500Y-57720000D01*
X95053042Y-57719290D01*
X95038724Y-57717166D01*
X95024683Y-57713649D01*
X95011054Y-57708772D01*
X94997969Y-57702583D01*
X94985553Y-57695142D01*
X94973927Y-57686519D01*
X94963202Y-57676798D01*
X94953481Y-57666073D01*
X94944858Y-57654447D01*
X94937417Y-57642031D01*
X94931228Y-57628946D01*
X94926351Y-57615317D01*
X94922834Y-57601276D01*
X94920710Y-57586958D01*
X94920000Y-57572500D01*
X94920000Y-57227500D01*
X94920710Y-57213042D01*
X94922834Y-57198724D01*
X94926351Y-57184683D01*
X94931228Y-57171054D01*
X94937417Y-57157969D01*
X94944858Y-57145553D01*
X94953481Y-57133927D01*
X94963202Y-57123202D01*
X94973927Y-57113481D01*
X94985553Y-57104858D01*
X94997969Y-57097417D01*
X95011054Y-57091228D01*
X95024683Y-57086351D01*
X95038724Y-57082834D01*
X95053042Y-57080710D01*
X95067500Y-57080000D01*
X95362500Y-57080000D01*
X95376958Y-57080710D01*
X95376958Y-57080710D01*
G37*
D18*
X95215000Y-57400000D03*
D13*
G36*
X93546958Y-57080710D02*
G01*
X93561276Y-57082834D01*
X93575317Y-57086351D01*
X93588946Y-57091228D01*
X93602031Y-57097417D01*
X93614447Y-57104858D01*
X93626073Y-57113481D01*
X93636798Y-57123202D01*
X93646519Y-57133927D01*
X93655142Y-57145553D01*
X93662583Y-57157969D01*
X93668772Y-57171054D01*
X93673649Y-57184683D01*
X93677166Y-57198724D01*
X93679290Y-57213042D01*
X93680000Y-57227500D01*
X93680000Y-57572500D01*
X93679290Y-57586958D01*
X93677166Y-57601276D01*
X93673649Y-57615317D01*
X93668772Y-57628946D01*
X93662583Y-57642031D01*
X93655142Y-57654447D01*
X93646519Y-57666073D01*
X93636798Y-57676798D01*
X93626073Y-57686519D01*
X93614447Y-57695142D01*
X93602031Y-57702583D01*
X93588946Y-57708772D01*
X93575317Y-57713649D01*
X93561276Y-57717166D01*
X93546958Y-57719290D01*
X93532500Y-57720000D01*
X93237500Y-57720000D01*
X93223042Y-57719290D01*
X93208724Y-57717166D01*
X93194683Y-57713649D01*
X93181054Y-57708772D01*
X93167969Y-57702583D01*
X93155553Y-57695142D01*
X93143927Y-57686519D01*
X93133202Y-57676798D01*
X93123481Y-57666073D01*
X93114858Y-57654447D01*
X93107417Y-57642031D01*
X93101228Y-57628946D01*
X93096351Y-57615317D01*
X93092834Y-57601276D01*
X93090710Y-57586958D01*
X93090000Y-57572500D01*
X93090000Y-57227500D01*
X93090710Y-57213042D01*
X93092834Y-57198724D01*
X93096351Y-57184683D01*
X93101228Y-57171054D01*
X93107417Y-57157969D01*
X93114858Y-57145553D01*
X93123481Y-57133927D01*
X93133202Y-57123202D01*
X93143927Y-57113481D01*
X93155553Y-57104858D01*
X93167969Y-57097417D01*
X93181054Y-57091228D01*
X93194683Y-57086351D01*
X93208724Y-57082834D01*
X93223042Y-57080710D01*
X93237500Y-57080000D01*
X93532500Y-57080000D01*
X93546958Y-57080710D01*
X93546958Y-57080710D01*
G37*
D18*
X93385000Y-57400000D03*
D13*
G36*
X92576958Y-57080710D02*
G01*
X92591276Y-57082834D01*
X92605317Y-57086351D01*
X92618946Y-57091228D01*
X92632031Y-57097417D01*
X92644447Y-57104858D01*
X92656073Y-57113481D01*
X92666798Y-57123202D01*
X92676519Y-57133927D01*
X92685142Y-57145553D01*
X92692583Y-57157969D01*
X92698772Y-57171054D01*
X92703649Y-57184683D01*
X92707166Y-57198724D01*
X92709290Y-57213042D01*
X92710000Y-57227500D01*
X92710000Y-57572500D01*
X92709290Y-57586958D01*
X92707166Y-57601276D01*
X92703649Y-57615317D01*
X92698772Y-57628946D01*
X92692583Y-57642031D01*
X92685142Y-57654447D01*
X92676519Y-57666073D01*
X92666798Y-57676798D01*
X92656073Y-57686519D01*
X92644447Y-57695142D01*
X92632031Y-57702583D01*
X92618946Y-57708772D01*
X92605317Y-57713649D01*
X92591276Y-57717166D01*
X92576958Y-57719290D01*
X92562500Y-57720000D01*
X92267500Y-57720000D01*
X92253042Y-57719290D01*
X92238724Y-57717166D01*
X92224683Y-57713649D01*
X92211054Y-57708772D01*
X92197969Y-57702583D01*
X92185553Y-57695142D01*
X92173927Y-57686519D01*
X92163202Y-57676798D01*
X92153481Y-57666073D01*
X92144858Y-57654447D01*
X92137417Y-57642031D01*
X92131228Y-57628946D01*
X92126351Y-57615317D01*
X92122834Y-57601276D01*
X92120710Y-57586958D01*
X92120000Y-57572500D01*
X92120000Y-57227500D01*
X92120710Y-57213042D01*
X92122834Y-57198724D01*
X92126351Y-57184683D01*
X92131228Y-57171054D01*
X92137417Y-57157969D01*
X92144858Y-57145553D01*
X92153481Y-57133927D01*
X92163202Y-57123202D01*
X92173927Y-57113481D01*
X92185553Y-57104858D01*
X92197969Y-57097417D01*
X92211054Y-57091228D01*
X92224683Y-57086351D01*
X92238724Y-57082834D01*
X92253042Y-57080710D01*
X92267500Y-57080000D01*
X92562500Y-57080000D01*
X92576958Y-57080710D01*
X92576958Y-57080710D01*
G37*
D18*
X92415000Y-57400000D03*
D22*
X96900000Y-67690000D03*
X96900000Y-64700000D03*
D23*
X98425000Y-66195000D03*
D22*
X103600000Y-64705000D03*
X103600000Y-67695000D03*
D23*
X102075000Y-66200000D03*
D22*
X122300000Y-58895000D03*
X122300000Y-55905000D03*
D23*
X123825000Y-57400000D03*
D22*
X108700000Y-55805000D03*
X108700000Y-58795000D03*
D23*
X107175000Y-57300000D03*
D13*
G36*
X123230142Y-52351174D02*
G01*
X123253803Y-52354684D01*
X123277007Y-52360496D01*
X123299529Y-52368554D01*
X123321153Y-52378782D01*
X123341670Y-52391079D01*
X123360883Y-52405329D01*
X123378607Y-52421393D01*
X123394671Y-52439117D01*
X123408921Y-52458330D01*
X123421218Y-52478847D01*
X123431446Y-52500471D01*
X123439504Y-52522993D01*
X123445316Y-52546197D01*
X123448826Y-52569858D01*
X123450000Y-52593750D01*
X123450000Y-53081250D01*
X123448826Y-53105142D01*
X123445316Y-53128803D01*
X123439504Y-53152007D01*
X123431446Y-53174529D01*
X123421218Y-53196153D01*
X123408921Y-53216670D01*
X123394671Y-53235883D01*
X123378607Y-53253607D01*
X123360883Y-53269671D01*
X123341670Y-53283921D01*
X123321153Y-53296218D01*
X123299529Y-53306446D01*
X123277007Y-53314504D01*
X123253803Y-53320316D01*
X123230142Y-53323826D01*
X123206250Y-53325000D01*
X122293750Y-53325000D01*
X122269858Y-53323826D01*
X122246197Y-53320316D01*
X122222993Y-53314504D01*
X122200471Y-53306446D01*
X122178847Y-53296218D01*
X122158330Y-53283921D01*
X122139117Y-53269671D01*
X122121393Y-53253607D01*
X122105329Y-53235883D01*
X122091079Y-53216670D01*
X122078782Y-53196153D01*
X122068554Y-53174529D01*
X122060496Y-53152007D01*
X122054684Y-53128803D01*
X122051174Y-53105142D01*
X122050000Y-53081250D01*
X122050000Y-52593750D01*
X122051174Y-52569858D01*
X122054684Y-52546197D01*
X122060496Y-52522993D01*
X122068554Y-52500471D01*
X122078782Y-52478847D01*
X122091079Y-52458330D01*
X122105329Y-52439117D01*
X122121393Y-52421393D01*
X122139117Y-52405329D01*
X122158330Y-52391079D01*
X122178847Y-52378782D01*
X122200471Y-52368554D01*
X122222993Y-52360496D01*
X122246197Y-52354684D01*
X122269858Y-52351174D01*
X122293750Y-52350000D01*
X123206250Y-52350000D01*
X123230142Y-52351174D01*
X123230142Y-52351174D01*
G37*
D24*
X122750000Y-52837500D03*
D13*
G36*
X123230142Y-50476174D02*
G01*
X123253803Y-50479684D01*
X123277007Y-50485496D01*
X123299529Y-50493554D01*
X123321153Y-50503782D01*
X123341670Y-50516079D01*
X123360883Y-50530329D01*
X123378607Y-50546393D01*
X123394671Y-50564117D01*
X123408921Y-50583330D01*
X123421218Y-50603847D01*
X123431446Y-50625471D01*
X123439504Y-50647993D01*
X123445316Y-50671197D01*
X123448826Y-50694858D01*
X123450000Y-50718750D01*
X123450000Y-51206250D01*
X123448826Y-51230142D01*
X123445316Y-51253803D01*
X123439504Y-51277007D01*
X123431446Y-51299529D01*
X123421218Y-51321153D01*
X123408921Y-51341670D01*
X123394671Y-51360883D01*
X123378607Y-51378607D01*
X123360883Y-51394671D01*
X123341670Y-51408921D01*
X123321153Y-51421218D01*
X123299529Y-51431446D01*
X123277007Y-51439504D01*
X123253803Y-51445316D01*
X123230142Y-51448826D01*
X123206250Y-51450000D01*
X122293750Y-51450000D01*
X122269858Y-51448826D01*
X122246197Y-51445316D01*
X122222993Y-51439504D01*
X122200471Y-51431446D01*
X122178847Y-51421218D01*
X122158330Y-51408921D01*
X122139117Y-51394671D01*
X122121393Y-51378607D01*
X122105329Y-51360883D01*
X122091079Y-51341670D01*
X122078782Y-51321153D01*
X122068554Y-51299529D01*
X122060496Y-51277007D01*
X122054684Y-51253803D01*
X122051174Y-51230142D01*
X122050000Y-51206250D01*
X122050000Y-50718750D01*
X122051174Y-50694858D01*
X122054684Y-50671197D01*
X122060496Y-50647993D01*
X122068554Y-50625471D01*
X122078782Y-50603847D01*
X122091079Y-50583330D01*
X122105329Y-50564117D01*
X122121393Y-50546393D01*
X122139117Y-50530329D01*
X122158330Y-50516079D01*
X122178847Y-50503782D01*
X122200471Y-50493554D01*
X122222993Y-50485496D01*
X122246197Y-50479684D01*
X122269858Y-50476174D01*
X122293750Y-50475000D01*
X123206250Y-50475000D01*
X123230142Y-50476174D01*
X123230142Y-50476174D01*
G37*
D24*
X122750000Y-50962500D03*
D13*
G36*
X132146958Y-57180710D02*
G01*
X132161276Y-57182834D01*
X132175317Y-57186351D01*
X132188946Y-57191228D01*
X132202031Y-57197417D01*
X132214447Y-57204858D01*
X132226073Y-57213481D01*
X132236798Y-57223202D01*
X132246519Y-57233927D01*
X132255142Y-57245553D01*
X132262583Y-57257969D01*
X132268772Y-57271054D01*
X132273649Y-57284683D01*
X132277166Y-57298724D01*
X132279290Y-57313042D01*
X132280000Y-57327500D01*
X132280000Y-57672500D01*
X132279290Y-57686958D01*
X132277166Y-57701276D01*
X132273649Y-57715317D01*
X132268772Y-57728946D01*
X132262583Y-57742031D01*
X132255142Y-57754447D01*
X132246519Y-57766073D01*
X132236798Y-57776798D01*
X132226073Y-57786519D01*
X132214447Y-57795142D01*
X132202031Y-57802583D01*
X132188946Y-57808772D01*
X132175317Y-57813649D01*
X132161276Y-57817166D01*
X132146958Y-57819290D01*
X132132500Y-57820000D01*
X131837500Y-57820000D01*
X131823042Y-57819290D01*
X131808724Y-57817166D01*
X131794683Y-57813649D01*
X131781054Y-57808772D01*
X131767969Y-57802583D01*
X131755553Y-57795142D01*
X131743927Y-57786519D01*
X131733202Y-57776798D01*
X131723481Y-57766073D01*
X131714858Y-57754447D01*
X131707417Y-57742031D01*
X131701228Y-57728946D01*
X131696351Y-57715317D01*
X131692834Y-57701276D01*
X131690710Y-57686958D01*
X131690000Y-57672500D01*
X131690000Y-57327500D01*
X131690710Y-57313042D01*
X131692834Y-57298724D01*
X131696351Y-57284683D01*
X131701228Y-57271054D01*
X131707417Y-57257969D01*
X131714858Y-57245553D01*
X131723481Y-57233927D01*
X131733202Y-57223202D01*
X131743927Y-57213481D01*
X131755553Y-57204858D01*
X131767969Y-57197417D01*
X131781054Y-57191228D01*
X131794683Y-57186351D01*
X131808724Y-57182834D01*
X131823042Y-57180710D01*
X131837500Y-57180000D01*
X132132500Y-57180000D01*
X132146958Y-57180710D01*
X132146958Y-57180710D01*
G37*
D18*
X131985000Y-57500000D03*
D13*
G36*
X131176958Y-57180710D02*
G01*
X131191276Y-57182834D01*
X131205317Y-57186351D01*
X131218946Y-57191228D01*
X131232031Y-57197417D01*
X131244447Y-57204858D01*
X131256073Y-57213481D01*
X131266798Y-57223202D01*
X131276519Y-57233927D01*
X131285142Y-57245553D01*
X131292583Y-57257969D01*
X131298772Y-57271054D01*
X131303649Y-57284683D01*
X131307166Y-57298724D01*
X131309290Y-57313042D01*
X131310000Y-57327500D01*
X131310000Y-57672500D01*
X131309290Y-57686958D01*
X131307166Y-57701276D01*
X131303649Y-57715317D01*
X131298772Y-57728946D01*
X131292583Y-57742031D01*
X131285142Y-57754447D01*
X131276519Y-57766073D01*
X131266798Y-57776798D01*
X131256073Y-57786519D01*
X131244447Y-57795142D01*
X131232031Y-57802583D01*
X131218946Y-57808772D01*
X131205317Y-57813649D01*
X131191276Y-57817166D01*
X131176958Y-57819290D01*
X131162500Y-57820000D01*
X130867500Y-57820000D01*
X130853042Y-57819290D01*
X130838724Y-57817166D01*
X130824683Y-57813649D01*
X130811054Y-57808772D01*
X130797969Y-57802583D01*
X130785553Y-57795142D01*
X130773927Y-57786519D01*
X130763202Y-57776798D01*
X130753481Y-57766073D01*
X130744858Y-57754447D01*
X130737417Y-57742031D01*
X130731228Y-57728946D01*
X130726351Y-57715317D01*
X130722834Y-57701276D01*
X130720710Y-57686958D01*
X130720000Y-57672500D01*
X130720000Y-57327500D01*
X130720710Y-57313042D01*
X130722834Y-57298724D01*
X130726351Y-57284683D01*
X130731228Y-57271054D01*
X130737417Y-57257969D01*
X130744858Y-57245553D01*
X130753481Y-57233927D01*
X130763202Y-57223202D01*
X130773927Y-57213481D01*
X130785553Y-57204858D01*
X130797969Y-57197417D01*
X130811054Y-57191228D01*
X130824683Y-57186351D01*
X130838724Y-57182834D01*
X130853042Y-57180710D01*
X130867500Y-57180000D01*
X131162500Y-57180000D01*
X131176958Y-57180710D01*
X131176958Y-57180710D01*
G37*
D18*
X131015000Y-57500000D03*
D13*
G36*
X130236958Y-56195710D02*
G01*
X130251276Y-56197834D01*
X130265317Y-56201351D01*
X130278946Y-56206228D01*
X130292031Y-56212417D01*
X130304447Y-56219858D01*
X130316073Y-56228481D01*
X130326798Y-56238202D01*
X130336519Y-56248927D01*
X130345142Y-56260553D01*
X130352583Y-56272969D01*
X130358772Y-56286054D01*
X130363649Y-56299683D01*
X130367166Y-56313724D01*
X130369290Y-56328042D01*
X130370000Y-56342500D01*
X130370000Y-56637500D01*
X130369290Y-56651958D01*
X130367166Y-56666276D01*
X130363649Y-56680317D01*
X130358772Y-56693946D01*
X130352583Y-56707031D01*
X130345142Y-56719447D01*
X130336519Y-56731073D01*
X130326798Y-56741798D01*
X130316073Y-56751519D01*
X130304447Y-56760142D01*
X130292031Y-56767583D01*
X130278946Y-56773772D01*
X130265317Y-56778649D01*
X130251276Y-56782166D01*
X130236958Y-56784290D01*
X130222500Y-56785000D01*
X129877500Y-56785000D01*
X129863042Y-56784290D01*
X129848724Y-56782166D01*
X129834683Y-56778649D01*
X129821054Y-56773772D01*
X129807969Y-56767583D01*
X129795553Y-56760142D01*
X129783927Y-56751519D01*
X129773202Y-56741798D01*
X129763481Y-56731073D01*
X129754858Y-56719447D01*
X129747417Y-56707031D01*
X129741228Y-56693946D01*
X129736351Y-56680317D01*
X129732834Y-56666276D01*
X129730710Y-56651958D01*
X129730000Y-56637500D01*
X129730000Y-56342500D01*
X129730710Y-56328042D01*
X129732834Y-56313724D01*
X129736351Y-56299683D01*
X129741228Y-56286054D01*
X129747417Y-56272969D01*
X129754858Y-56260553D01*
X129763481Y-56248927D01*
X129773202Y-56238202D01*
X129783927Y-56228481D01*
X129795553Y-56219858D01*
X129807969Y-56212417D01*
X129821054Y-56206228D01*
X129834683Y-56201351D01*
X129848724Y-56197834D01*
X129863042Y-56195710D01*
X129877500Y-56195000D01*
X130222500Y-56195000D01*
X130236958Y-56195710D01*
X130236958Y-56195710D01*
G37*
D18*
X130050000Y-56490000D03*
D13*
G36*
X130236958Y-57165710D02*
G01*
X130251276Y-57167834D01*
X130265317Y-57171351D01*
X130278946Y-57176228D01*
X130292031Y-57182417D01*
X130304447Y-57189858D01*
X130316073Y-57198481D01*
X130326798Y-57208202D01*
X130336519Y-57218927D01*
X130345142Y-57230553D01*
X130352583Y-57242969D01*
X130358772Y-57256054D01*
X130363649Y-57269683D01*
X130367166Y-57283724D01*
X130369290Y-57298042D01*
X130370000Y-57312500D01*
X130370000Y-57607500D01*
X130369290Y-57621958D01*
X130367166Y-57636276D01*
X130363649Y-57650317D01*
X130358772Y-57663946D01*
X130352583Y-57677031D01*
X130345142Y-57689447D01*
X130336519Y-57701073D01*
X130326798Y-57711798D01*
X130316073Y-57721519D01*
X130304447Y-57730142D01*
X130292031Y-57737583D01*
X130278946Y-57743772D01*
X130265317Y-57748649D01*
X130251276Y-57752166D01*
X130236958Y-57754290D01*
X130222500Y-57755000D01*
X129877500Y-57755000D01*
X129863042Y-57754290D01*
X129848724Y-57752166D01*
X129834683Y-57748649D01*
X129821054Y-57743772D01*
X129807969Y-57737583D01*
X129795553Y-57730142D01*
X129783927Y-57721519D01*
X129773202Y-57711798D01*
X129763481Y-57701073D01*
X129754858Y-57689447D01*
X129747417Y-57677031D01*
X129741228Y-57663946D01*
X129736351Y-57650317D01*
X129732834Y-57636276D01*
X129730710Y-57621958D01*
X129730000Y-57607500D01*
X129730000Y-57312500D01*
X129730710Y-57298042D01*
X129732834Y-57283724D01*
X129736351Y-57269683D01*
X129741228Y-57256054D01*
X129747417Y-57242969D01*
X129754858Y-57230553D01*
X129763481Y-57218927D01*
X129773202Y-57208202D01*
X129783927Y-57198481D01*
X129795553Y-57189858D01*
X129807969Y-57182417D01*
X129821054Y-57176228D01*
X129834683Y-57171351D01*
X129848724Y-57167834D01*
X129863042Y-57165710D01*
X129877500Y-57165000D01*
X130222500Y-57165000D01*
X130236958Y-57165710D01*
X130236958Y-57165710D01*
G37*
D18*
X130050000Y-57460000D03*
D13*
G36*
X127336958Y-56170710D02*
G01*
X127351276Y-56172834D01*
X127365317Y-56176351D01*
X127378946Y-56181228D01*
X127392031Y-56187417D01*
X127404447Y-56194858D01*
X127416073Y-56203481D01*
X127426798Y-56213202D01*
X127436519Y-56223927D01*
X127445142Y-56235553D01*
X127452583Y-56247969D01*
X127458772Y-56261054D01*
X127463649Y-56274683D01*
X127467166Y-56288724D01*
X127469290Y-56303042D01*
X127470000Y-56317500D01*
X127470000Y-56612500D01*
X127469290Y-56626958D01*
X127467166Y-56641276D01*
X127463649Y-56655317D01*
X127458772Y-56668946D01*
X127452583Y-56682031D01*
X127445142Y-56694447D01*
X127436519Y-56706073D01*
X127426798Y-56716798D01*
X127416073Y-56726519D01*
X127404447Y-56735142D01*
X127392031Y-56742583D01*
X127378946Y-56748772D01*
X127365317Y-56753649D01*
X127351276Y-56757166D01*
X127336958Y-56759290D01*
X127322500Y-56760000D01*
X126977500Y-56760000D01*
X126963042Y-56759290D01*
X126948724Y-56757166D01*
X126934683Y-56753649D01*
X126921054Y-56748772D01*
X126907969Y-56742583D01*
X126895553Y-56735142D01*
X126883927Y-56726519D01*
X126873202Y-56716798D01*
X126863481Y-56706073D01*
X126854858Y-56694447D01*
X126847417Y-56682031D01*
X126841228Y-56668946D01*
X126836351Y-56655317D01*
X126832834Y-56641276D01*
X126830710Y-56626958D01*
X126830000Y-56612500D01*
X126830000Y-56317500D01*
X126830710Y-56303042D01*
X126832834Y-56288724D01*
X126836351Y-56274683D01*
X126841228Y-56261054D01*
X126847417Y-56247969D01*
X126854858Y-56235553D01*
X126863481Y-56223927D01*
X126873202Y-56213202D01*
X126883927Y-56203481D01*
X126895553Y-56194858D01*
X126907969Y-56187417D01*
X126921054Y-56181228D01*
X126934683Y-56176351D01*
X126948724Y-56172834D01*
X126963042Y-56170710D01*
X126977500Y-56170000D01*
X127322500Y-56170000D01*
X127336958Y-56170710D01*
X127336958Y-56170710D01*
G37*
D18*
X127150000Y-56465000D03*
D13*
G36*
X127336958Y-57140710D02*
G01*
X127351276Y-57142834D01*
X127365317Y-57146351D01*
X127378946Y-57151228D01*
X127392031Y-57157417D01*
X127404447Y-57164858D01*
X127416073Y-57173481D01*
X127426798Y-57183202D01*
X127436519Y-57193927D01*
X127445142Y-57205553D01*
X127452583Y-57217969D01*
X127458772Y-57231054D01*
X127463649Y-57244683D01*
X127467166Y-57258724D01*
X127469290Y-57273042D01*
X127470000Y-57287500D01*
X127470000Y-57582500D01*
X127469290Y-57596958D01*
X127467166Y-57611276D01*
X127463649Y-57625317D01*
X127458772Y-57638946D01*
X127452583Y-57652031D01*
X127445142Y-57664447D01*
X127436519Y-57676073D01*
X127426798Y-57686798D01*
X127416073Y-57696519D01*
X127404447Y-57705142D01*
X127392031Y-57712583D01*
X127378946Y-57718772D01*
X127365317Y-57723649D01*
X127351276Y-57727166D01*
X127336958Y-57729290D01*
X127322500Y-57730000D01*
X126977500Y-57730000D01*
X126963042Y-57729290D01*
X126948724Y-57727166D01*
X126934683Y-57723649D01*
X126921054Y-57718772D01*
X126907969Y-57712583D01*
X126895553Y-57705142D01*
X126883927Y-57696519D01*
X126873202Y-57686798D01*
X126863481Y-57676073D01*
X126854858Y-57664447D01*
X126847417Y-57652031D01*
X126841228Y-57638946D01*
X126836351Y-57625317D01*
X126832834Y-57611276D01*
X126830710Y-57596958D01*
X126830000Y-57582500D01*
X126830000Y-57287500D01*
X126830710Y-57273042D01*
X126832834Y-57258724D01*
X126836351Y-57244683D01*
X126841228Y-57231054D01*
X126847417Y-57217969D01*
X126854858Y-57205553D01*
X126863481Y-57193927D01*
X126873202Y-57183202D01*
X126883927Y-57173481D01*
X126895553Y-57164858D01*
X126907969Y-57157417D01*
X126921054Y-57151228D01*
X126934683Y-57146351D01*
X126948724Y-57142834D01*
X126963042Y-57140710D01*
X126977500Y-57140000D01*
X127322500Y-57140000D01*
X127336958Y-57140710D01*
X127336958Y-57140710D01*
G37*
D18*
X127150000Y-57435000D03*
D13*
G36*
X118836958Y-54990710D02*
G01*
X118851276Y-54992834D01*
X118865317Y-54996351D01*
X118878946Y-55001228D01*
X118892031Y-55007417D01*
X118904447Y-55014858D01*
X118916073Y-55023481D01*
X118926798Y-55033202D01*
X118936519Y-55043927D01*
X118945142Y-55055553D01*
X118952583Y-55067969D01*
X118958772Y-55081054D01*
X118963649Y-55094683D01*
X118967166Y-55108724D01*
X118969290Y-55123042D01*
X118970000Y-55137500D01*
X118970000Y-55432500D01*
X118969290Y-55446958D01*
X118967166Y-55461276D01*
X118963649Y-55475317D01*
X118958772Y-55488946D01*
X118952583Y-55502031D01*
X118945142Y-55514447D01*
X118936519Y-55526073D01*
X118926798Y-55536798D01*
X118916073Y-55546519D01*
X118904447Y-55555142D01*
X118892031Y-55562583D01*
X118878946Y-55568772D01*
X118865317Y-55573649D01*
X118851276Y-55577166D01*
X118836958Y-55579290D01*
X118822500Y-55580000D01*
X118477500Y-55580000D01*
X118463042Y-55579290D01*
X118448724Y-55577166D01*
X118434683Y-55573649D01*
X118421054Y-55568772D01*
X118407969Y-55562583D01*
X118395553Y-55555142D01*
X118383927Y-55546519D01*
X118373202Y-55536798D01*
X118363481Y-55526073D01*
X118354858Y-55514447D01*
X118347417Y-55502031D01*
X118341228Y-55488946D01*
X118336351Y-55475317D01*
X118332834Y-55461276D01*
X118330710Y-55446958D01*
X118330000Y-55432500D01*
X118330000Y-55137500D01*
X118330710Y-55123042D01*
X118332834Y-55108724D01*
X118336351Y-55094683D01*
X118341228Y-55081054D01*
X118347417Y-55067969D01*
X118354858Y-55055553D01*
X118363481Y-55043927D01*
X118373202Y-55033202D01*
X118383927Y-55023481D01*
X118395553Y-55014858D01*
X118407969Y-55007417D01*
X118421054Y-55001228D01*
X118434683Y-54996351D01*
X118448724Y-54992834D01*
X118463042Y-54990710D01*
X118477500Y-54990000D01*
X118822500Y-54990000D01*
X118836958Y-54990710D01*
X118836958Y-54990710D01*
G37*
D18*
X118650000Y-55285000D03*
D13*
G36*
X118836958Y-54020710D02*
G01*
X118851276Y-54022834D01*
X118865317Y-54026351D01*
X118878946Y-54031228D01*
X118892031Y-54037417D01*
X118904447Y-54044858D01*
X118916073Y-54053481D01*
X118926798Y-54063202D01*
X118936519Y-54073927D01*
X118945142Y-54085553D01*
X118952583Y-54097969D01*
X118958772Y-54111054D01*
X118963649Y-54124683D01*
X118967166Y-54138724D01*
X118969290Y-54153042D01*
X118970000Y-54167500D01*
X118970000Y-54462500D01*
X118969290Y-54476958D01*
X118967166Y-54491276D01*
X118963649Y-54505317D01*
X118958772Y-54518946D01*
X118952583Y-54532031D01*
X118945142Y-54544447D01*
X118936519Y-54556073D01*
X118926798Y-54566798D01*
X118916073Y-54576519D01*
X118904447Y-54585142D01*
X118892031Y-54592583D01*
X118878946Y-54598772D01*
X118865317Y-54603649D01*
X118851276Y-54607166D01*
X118836958Y-54609290D01*
X118822500Y-54610000D01*
X118477500Y-54610000D01*
X118463042Y-54609290D01*
X118448724Y-54607166D01*
X118434683Y-54603649D01*
X118421054Y-54598772D01*
X118407969Y-54592583D01*
X118395553Y-54585142D01*
X118383927Y-54576519D01*
X118373202Y-54566798D01*
X118363481Y-54556073D01*
X118354858Y-54544447D01*
X118347417Y-54532031D01*
X118341228Y-54518946D01*
X118336351Y-54505317D01*
X118332834Y-54491276D01*
X118330710Y-54476958D01*
X118330000Y-54462500D01*
X118330000Y-54167500D01*
X118330710Y-54153042D01*
X118332834Y-54138724D01*
X118336351Y-54124683D01*
X118341228Y-54111054D01*
X118347417Y-54097969D01*
X118354858Y-54085553D01*
X118363481Y-54073927D01*
X118373202Y-54063202D01*
X118383927Y-54053481D01*
X118395553Y-54044858D01*
X118407969Y-54037417D01*
X118421054Y-54031228D01*
X118434683Y-54026351D01*
X118448724Y-54022834D01*
X118463042Y-54020710D01*
X118477500Y-54020000D01*
X118822500Y-54020000D01*
X118836958Y-54020710D01*
X118836958Y-54020710D01*
G37*
D18*
X118650000Y-54315000D03*
D13*
G36*
X119936958Y-52020710D02*
G01*
X119951276Y-52022834D01*
X119965317Y-52026351D01*
X119978946Y-52031228D01*
X119992031Y-52037417D01*
X120004447Y-52044858D01*
X120016073Y-52053481D01*
X120026798Y-52063202D01*
X120036519Y-52073927D01*
X120045142Y-52085553D01*
X120052583Y-52097969D01*
X120058772Y-52111054D01*
X120063649Y-52124683D01*
X120067166Y-52138724D01*
X120069290Y-52153042D01*
X120070000Y-52167500D01*
X120070000Y-52462500D01*
X120069290Y-52476958D01*
X120067166Y-52491276D01*
X120063649Y-52505317D01*
X120058772Y-52518946D01*
X120052583Y-52532031D01*
X120045142Y-52544447D01*
X120036519Y-52556073D01*
X120026798Y-52566798D01*
X120016073Y-52576519D01*
X120004447Y-52585142D01*
X119992031Y-52592583D01*
X119978946Y-52598772D01*
X119965317Y-52603649D01*
X119951276Y-52607166D01*
X119936958Y-52609290D01*
X119922500Y-52610000D01*
X119577500Y-52610000D01*
X119563042Y-52609290D01*
X119548724Y-52607166D01*
X119534683Y-52603649D01*
X119521054Y-52598772D01*
X119507969Y-52592583D01*
X119495553Y-52585142D01*
X119483927Y-52576519D01*
X119473202Y-52566798D01*
X119463481Y-52556073D01*
X119454858Y-52544447D01*
X119447417Y-52532031D01*
X119441228Y-52518946D01*
X119436351Y-52505317D01*
X119432834Y-52491276D01*
X119430710Y-52476958D01*
X119430000Y-52462500D01*
X119430000Y-52167500D01*
X119430710Y-52153042D01*
X119432834Y-52138724D01*
X119436351Y-52124683D01*
X119441228Y-52111054D01*
X119447417Y-52097969D01*
X119454858Y-52085553D01*
X119463481Y-52073927D01*
X119473202Y-52063202D01*
X119483927Y-52053481D01*
X119495553Y-52044858D01*
X119507969Y-52037417D01*
X119521054Y-52031228D01*
X119534683Y-52026351D01*
X119548724Y-52022834D01*
X119563042Y-52020710D01*
X119577500Y-52020000D01*
X119922500Y-52020000D01*
X119936958Y-52020710D01*
X119936958Y-52020710D01*
G37*
D18*
X119750000Y-52315000D03*
D13*
G36*
X119936958Y-52990710D02*
G01*
X119951276Y-52992834D01*
X119965317Y-52996351D01*
X119978946Y-53001228D01*
X119992031Y-53007417D01*
X120004447Y-53014858D01*
X120016073Y-53023481D01*
X120026798Y-53033202D01*
X120036519Y-53043927D01*
X120045142Y-53055553D01*
X120052583Y-53067969D01*
X120058772Y-53081054D01*
X120063649Y-53094683D01*
X120067166Y-53108724D01*
X120069290Y-53123042D01*
X120070000Y-53137500D01*
X120070000Y-53432500D01*
X120069290Y-53446958D01*
X120067166Y-53461276D01*
X120063649Y-53475317D01*
X120058772Y-53488946D01*
X120052583Y-53502031D01*
X120045142Y-53514447D01*
X120036519Y-53526073D01*
X120026798Y-53536798D01*
X120016073Y-53546519D01*
X120004447Y-53555142D01*
X119992031Y-53562583D01*
X119978946Y-53568772D01*
X119965317Y-53573649D01*
X119951276Y-53577166D01*
X119936958Y-53579290D01*
X119922500Y-53580000D01*
X119577500Y-53580000D01*
X119563042Y-53579290D01*
X119548724Y-53577166D01*
X119534683Y-53573649D01*
X119521054Y-53568772D01*
X119507969Y-53562583D01*
X119495553Y-53555142D01*
X119483927Y-53546519D01*
X119473202Y-53536798D01*
X119463481Y-53526073D01*
X119454858Y-53514447D01*
X119447417Y-53502031D01*
X119441228Y-53488946D01*
X119436351Y-53475317D01*
X119432834Y-53461276D01*
X119430710Y-53446958D01*
X119430000Y-53432500D01*
X119430000Y-53137500D01*
X119430710Y-53123042D01*
X119432834Y-53108724D01*
X119436351Y-53094683D01*
X119441228Y-53081054D01*
X119447417Y-53067969D01*
X119454858Y-53055553D01*
X119463481Y-53043927D01*
X119473202Y-53033202D01*
X119483927Y-53023481D01*
X119495553Y-53014858D01*
X119507969Y-53007417D01*
X119521054Y-53001228D01*
X119534683Y-52996351D01*
X119548724Y-52992834D01*
X119563042Y-52990710D01*
X119577500Y-52990000D01*
X119922500Y-52990000D01*
X119936958Y-52990710D01*
X119936958Y-52990710D01*
G37*
D18*
X119750000Y-53285000D03*
D13*
G36*
X118836958Y-52020710D02*
G01*
X118851276Y-52022834D01*
X118865317Y-52026351D01*
X118878946Y-52031228D01*
X118892031Y-52037417D01*
X118904447Y-52044858D01*
X118916073Y-52053481D01*
X118926798Y-52063202D01*
X118936519Y-52073927D01*
X118945142Y-52085553D01*
X118952583Y-52097969D01*
X118958772Y-52111054D01*
X118963649Y-52124683D01*
X118967166Y-52138724D01*
X118969290Y-52153042D01*
X118970000Y-52167500D01*
X118970000Y-52462500D01*
X118969290Y-52476958D01*
X118967166Y-52491276D01*
X118963649Y-52505317D01*
X118958772Y-52518946D01*
X118952583Y-52532031D01*
X118945142Y-52544447D01*
X118936519Y-52556073D01*
X118926798Y-52566798D01*
X118916073Y-52576519D01*
X118904447Y-52585142D01*
X118892031Y-52592583D01*
X118878946Y-52598772D01*
X118865317Y-52603649D01*
X118851276Y-52607166D01*
X118836958Y-52609290D01*
X118822500Y-52610000D01*
X118477500Y-52610000D01*
X118463042Y-52609290D01*
X118448724Y-52607166D01*
X118434683Y-52603649D01*
X118421054Y-52598772D01*
X118407969Y-52592583D01*
X118395553Y-52585142D01*
X118383927Y-52576519D01*
X118373202Y-52566798D01*
X118363481Y-52556073D01*
X118354858Y-52544447D01*
X118347417Y-52532031D01*
X118341228Y-52518946D01*
X118336351Y-52505317D01*
X118332834Y-52491276D01*
X118330710Y-52476958D01*
X118330000Y-52462500D01*
X118330000Y-52167500D01*
X118330710Y-52153042D01*
X118332834Y-52138724D01*
X118336351Y-52124683D01*
X118341228Y-52111054D01*
X118347417Y-52097969D01*
X118354858Y-52085553D01*
X118363481Y-52073927D01*
X118373202Y-52063202D01*
X118383927Y-52053481D01*
X118395553Y-52044858D01*
X118407969Y-52037417D01*
X118421054Y-52031228D01*
X118434683Y-52026351D01*
X118448724Y-52022834D01*
X118463042Y-52020710D01*
X118477500Y-52020000D01*
X118822500Y-52020000D01*
X118836958Y-52020710D01*
X118836958Y-52020710D01*
G37*
D18*
X118650000Y-52315000D03*
D13*
G36*
X118836958Y-52990710D02*
G01*
X118851276Y-52992834D01*
X118865317Y-52996351D01*
X118878946Y-53001228D01*
X118892031Y-53007417D01*
X118904447Y-53014858D01*
X118916073Y-53023481D01*
X118926798Y-53033202D01*
X118936519Y-53043927D01*
X118945142Y-53055553D01*
X118952583Y-53067969D01*
X118958772Y-53081054D01*
X118963649Y-53094683D01*
X118967166Y-53108724D01*
X118969290Y-53123042D01*
X118970000Y-53137500D01*
X118970000Y-53432500D01*
X118969290Y-53446958D01*
X118967166Y-53461276D01*
X118963649Y-53475317D01*
X118958772Y-53488946D01*
X118952583Y-53502031D01*
X118945142Y-53514447D01*
X118936519Y-53526073D01*
X118926798Y-53536798D01*
X118916073Y-53546519D01*
X118904447Y-53555142D01*
X118892031Y-53562583D01*
X118878946Y-53568772D01*
X118865317Y-53573649D01*
X118851276Y-53577166D01*
X118836958Y-53579290D01*
X118822500Y-53580000D01*
X118477500Y-53580000D01*
X118463042Y-53579290D01*
X118448724Y-53577166D01*
X118434683Y-53573649D01*
X118421054Y-53568772D01*
X118407969Y-53562583D01*
X118395553Y-53555142D01*
X118383927Y-53546519D01*
X118373202Y-53536798D01*
X118363481Y-53526073D01*
X118354858Y-53514447D01*
X118347417Y-53502031D01*
X118341228Y-53488946D01*
X118336351Y-53475317D01*
X118332834Y-53461276D01*
X118330710Y-53446958D01*
X118330000Y-53432500D01*
X118330000Y-53137500D01*
X118330710Y-53123042D01*
X118332834Y-53108724D01*
X118336351Y-53094683D01*
X118341228Y-53081054D01*
X118347417Y-53067969D01*
X118354858Y-53055553D01*
X118363481Y-53043927D01*
X118373202Y-53033202D01*
X118383927Y-53023481D01*
X118395553Y-53014858D01*
X118407969Y-53007417D01*
X118421054Y-53001228D01*
X118434683Y-52996351D01*
X118448724Y-52992834D01*
X118463042Y-52990710D01*
X118477500Y-52990000D01*
X118822500Y-52990000D01*
X118836958Y-52990710D01*
X118836958Y-52990710D01*
G37*
D18*
X118650000Y-53285000D03*
D13*
G36*
X104136958Y-56120710D02*
G01*
X104151276Y-56122834D01*
X104165317Y-56126351D01*
X104178946Y-56131228D01*
X104192031Y-56137417D01*
X104204447Y-56144858D01*
X104216073Y-56153481D01*
X104226798Y-56163202D01*
X104236519Y-56173927D01*
X104245142Y-56185553D01*
X104252583Y-56197969D01*
X104258772Y-56211054D01*
X104263649Y-56224683D01*
X104267166Y-56238724D01*
X104269290Y-56253042D01*
X104270000Y-56267500D01*
X104270000Y-56562500D01*
X104269290Y-56576958D01*
X104267166Y-56591276D01*
X104263649Y-56605317D01*
X104258772Y-56618946D01*
X104252583Y-56632031D01*
X104245142Y-56644447D01*
X104236519Y-56656073D01*
X104226798Y-56666798D01*
X104216073Y-56676519D01*
X104204447Y-56685142D01*
X104192031Y-56692583D01*
X104178946Y-56698772D01*
X104165317Y-56703649D01*
X104151276Y-56707166D01*
X104136958Y-56709290D01*
X104122500Y-56710000D01*
X103777500Y-56710000D01*
X103763042Y-56709290D01*
X103748724Y-56707166D01*
X103734683Y-56703649D01*
X103721054Y-56698772D01*
X103707969Y-56692583D01*
X103695553Y-56685142D01*
X103683927Y-56676519D01*
X103673202Y-56666798D01*
X103663481Y-56656073D01*
X103654858Y-56644447D01*
X103647417Y-56632031D01*
X103641228Y-56618946D01*
X103636351Y-56605317D01*
X103632834Y-56591276D01*
X103630710Y-56576958D01*
X103630000Y-56562500D01*
X103630000Y-56267500D01*
X103630710Y-56253042D01*
X103632834Y-56238724D01*
X103636351Y-56224683D01*
X103641228Y-56211054D01*
X103647417Y-56197969D01*
X103654858Y-56185553D01*
X103663481Y-56173927D01*
X103673202Y-56163202D01*
X103683927Y-56153481D01*
X103695553Y-56144858D01*
X103707969Y-56137417D01*
X103721054Y-56131228D01*
X103734683Y-56126351D01*
X103748724Y-56122834D01*
X103763042Y-56120710D01*
X103777500Y-56120000D01*
X104122500Y-56120000D01*
X104136958Y-56120710D01*
X104136958Y-56120710D01*
G37*
D18*
X103950000Y-56415000D03*
D13*
G36*
X104136958Y-57090710D02*
G01*
X104151276Y-57092834D01*
X104165317Y-57096351D01*
X104178946Y-57101228D01*
X104192031Y-57107417D01*
X104204447Y-57114858D01*
X104216073Y-57123481D01*
X104226798Y-57133202D01*
X104236519Y-57143927D01*
X104245142Y-57155553D01*
X104252583Y-57167969D01*
X104258772Y-57181054D01*
X104263649Y-57194683D01*
X104267166Y-57208724D01*
X104269290Y-57223042D01*
X104270000Y-57237500D01*
X104270000Y-57532500D01*
X104269290Y-57546958D01*
X104267166Y-57561276D01*
X104263649Y-57575317D01*
X104258772Y-57588946D01*
X104252583Y-57602031D01*
X104245142Y-57614447D01*
X104236519Y-57626073D01*
X104226798Y-57636798D01*
X104216073Y-57646519D01*
X104204447Y-57655142D01*
X104192031Y-57662583D01*
X104178946Y-57668772D01*
X104165317Y-57673649D01*
X104151276Y-57677166D01*
X104136958Y-57679290D01*
X104122500Y-57680000D01*
X103777500Y-57680000D01*
X103763042Y-57679290D01*
X103748724Y-57677166D01*
X103734683Y-57673649D01*
X103721054Y-57668772D01*
X103707969Y-57662583D01*
X103695553Y-57655142D01*
X103683927Y-57646519D01*
X103673202Y-57636798D01*
X103663481Y-57626073D01*
X103654858Y-57614447D01*
X103647417Y-57602031D01*
X103641228Y-57588946D01*
X103636351Y-57575317D01*
X103632834Y-57561276D01*
X103630710Y-57546958D01*
X103630000Y-57532500D01*
X103630000Y-57237500D01*
X103630710Y-57223042D01*
X103632834Y-57208724D01*
X103636351Y-57194683D01*
X103641228Y-57181054D01*
X103647417Y-57167969D01*
X103654858Y-57155553D01*
X103663481Y-57143927D01*
X103673202Y-57133202D01*
X103683927Y-57123481D01*
X103695553Y-57114858D01*
X103707969Y-57107417D01*
X103721054Y-57101228D01*
X103734683Y-57096351D01*
X103748724Y-57092834D01*
X103763042Y-57090710D01*
X103777500Y-57090000D01*
X104122500Y-57090000D01*
X104136958Y-57090710D01*
X104136958Y-57090710D01*
G37*
D18*
X103950000Y-57385000D03*
D13*
G36*
X101236958Y-56170710D02*
G01*
X101251276Y-56172834D01*
X101265317Y-56176351D01*
X101278946Y-56181228D01*
X101292031Y-56187417D01*
X101304447Y-56194858D01*
X101316073Y-56203481D01*
X101326798Y-56213202D01*
X101336519Y-56223927D01*
X101345142Y-56235553D01*
X101352583Y-56247969D01*
X101358772Y-56261054D01*
X101363649Y-56274683D01*
X101367166Y-56288724D01*
X101369290Y-56303042D01*
X101370000Y-56317500D01*
X101370000Y-56612500D01*
X101369290Y-56626958D01*
X101367166Y-56641276D01*
X101363649Y-56655317D01*
X101358772Y-56668946D01*
X101352583Y-56682031D01*
X101345142Y-56694447D01*
X101336519Y-56706073D01*
X101326798Y-56716798D01*
X101316073Y-56726519D01*
X101304447Y-56735142D01*
X101292031Y-56742583D01*
X101278946Y-56748772D01*
X101265317Y-56753649D01*
X101251276Y-56757166D01*
X101236958Y-56759290D01*
X101222500Y-56760000D01*
X100877500Y-56760000D01*
X100863042Y-56759290D01*
X100848724Y-56757166D01*
X100834683Y-56753649D01*
X100821054Y-56748772D01*
X100807969Y-56742583D01*
X100795553Y-56735142D01*
X100783927Y-56726519D01*
X100773202Y-56716798D01*
X100763481Y-56706073D01*
X100754858Y-56694447D01*
X100747417Y-56682031D01*
X100741228Y-56668946D01*
X100736351Y-56655317D01*
X100732834Y-56641276D01*
X100730710Y-56626958D01*
X100730000Y-56612500D01*
X100730000Y-56317500D01*
X100730710Y-56303042D01*
X100732834Y-56288724D01*
X100736351Y-56274683D01*
X100741228Y-56261054D01*
X100747417Y-56247969D01*
X100754858Y-56235553D01*
X100763481Y-56223927D01*
X100773202Y-56213202D01*
X100783927Y-56203481D01*
X100795553Y-56194858D01*
X100807969Y-56187417D01*
X100821054Y-56181228D01*
X100834683Y-56176351D01*
X100848724Y-56172834D01*
X100863042Y-56170710D01*
X100877500Y-56170000D01*
X101222500Y-56170000D01*
X101236958Y-56170710D01*
X101236958Y-56170710D01*
G37*
D18*
X101050000Y-56465000D03*
D13*
G36*
X101236958Y-57140710D02*
G01*
X101251276Y-57142834D01*
X101265317Y-57146351D01*
X101278946Y-57151228D01*
X101292031Y-57157417D01*
X101304447Y-57164858D01*
X101316073Y-57173481D01*
X101326798Y-57183202D01*
X101336519Y-57193927D01*
X101345142Y-57205553D01*
X101352583Y-57217969D01*
X101358772Y-57231054D01*
X101363649Y-57244683D01*
X101367166Y-57258724D01*
X101369290Y-57273042D01*
X101370000Y-57287500D01*
X101370000Y-57582500D01*
X101369290Y-57596958D01*
X101367166Y-57611276D01*
X101363649Y-57625317D01*
X101358772Y-57638946D01*
X101352583Y-57652031D01*
X101345142Y-57664447D01*
X101336519Y-57676073D01*
X101326798Y-57686798D01*
X101316073Y-57696519D01*
X101304447Y-57705142D01*
X101292031Y-57712583D01*
X101278946Y-57718772D01*
X101265317Y-57723649D01*
X101251276Y-57727166D01*
X101236958Y-57729290D01*
X101222500Y-57730000D01*
X100877500Y-57730000D01*
X100863042Y-57729290D01*
X100848724Y-57727166D01*
X100834683Y-57723649D01*
X100821054Y-57718772D01*
X100807969Y-57712583D01*
X100795553Y-57705142D01*
X100783927Y-57696519D01*
X100773202Y-57686798D01*
X100763481Y-57676073D01*
X100754858Y-57664447D01*
X100747417Y-57652031D01*
X100741228Y-57638946D01*
X100736351Y-57625317D01*
X100732834Y-57611276D01*
X100730710Y-57596958D01*
X100730000Y-57582500D01*
X100730000Y-57287500D01*
X100730710Y-57273042D01*
X100732834Y-57258724D01*
X100736351Y-57244683D01*
X100741228Y-57231054D01*
X100747417Y-57217969D01*
X100754858Y-57205553D01*
X100763481Y-57193927D01*
X100773202Y-57183202D01*
X100783927Y-57173481D01*
X100795553Y-57164858D01*
X100807969Y-57157417D01*
X100821054Y-57151228D01*
X100834683Y-57146351D01*
X100848724Y-57142834D01*
X100863042Y-57140710D01*
X100877500Y-57140000D01*
X101222500Y-57140000D01*
X101236958Y-57140710D01*
X101236958Y-57140710D01*
G37*
D18*
X101050000Y-57435000D03*
D13*
G36*
X100246958Y-57080710D02*
G01*
X100261276Y-57082834D01*
X100275317Y-57086351D01*
X100288946Y-57091228D01*
X100302031Y-57097417D01*
X100314447Y-57104858D01*
X100326073Y-57113481D01*
X100336798Y-57123202D01*
X100346519Y-57133927D01*
X100355142Y-57145553D01*
X100362583Y-57157969D01*
X100368772Y-57171054D01*
X100373649Y-57184683D01*
X100377166Y-57198724D01*
X100379290Y-57213042D01*
X100380000Y-57227500D01*
X100380000Y-57572500D01*
X100379290Y-57586958D01*
X100377166Y-57601276D01*
X100373649Y-57615317D01*
X100368772Y-57628946D01*
X100362583Y-57642031D01*
X100355142Y-57654447D01*
X100346519Y-57666073D01*
X100336798Y-57676798D01*
X100326073Y-57686519D01*
X100314447Y-57695142D01*
X100302031Y-57702583D01*
X100288946Y-57708772D01*
X100275317Y-57713649D01*
X100261276Y-57717166D01*
X100246958Y-57719290D01*
X100232500Y-57720000D01*
X99937500Y-57720000D01*
X99923042Y-57719290D01*
X99908724Y-57717166D01*
X99894683Y-57713649D01*
X99881054Y-57708772D01*
X99867969Y-57702583D01*
X99855553Y-57695142D01*
X99843927Y-57686519D01*
X99833202Y-57676798D01*
X99823481Y-57666073D01*
X99814858Y-57654447D01*
X99807417Y-57642031D01*
X99801228Y-57628946D01*
X99796351Y-57615317D01*
X99792834Y-57601276D01*
X99790710Y-57586958D01*
X99790000Y-57572500D01*
X99790000Y-57227500D01*
X99790710Y-57213042D01*
X99792834Y-57198724D01*
X99796351Y-57184683D01*
X99801228Y-57171054D01*
X99807417Y-57157969D01*
X99814858Y-57145553D01*
X99823481Y-57133927D01*
X99833202Y-57123202D01*
X99843927Y-57113481D01*
X99855553Y-57104858D01*
X99867969Y-57097417D01*
X99881054Y-57091228D01*
X99894683Y-57086351D01*
X99908724Y-57082834D01*
X99923042Y-57080710D01*
X99937500Y-57080000D01*
X100232500Y-57080000D01*
X100246958Y-57080710D01*
X100246958Y-57080710D01*
G37*
D18*
X100085000Y-57400000D03*
D13*
G36*
X99276958Y-57080710D02*
G01*
X99291276Y-57082834D01*
X99305317Y-57086351D01*
X99318946Y-57091228D01*
X99332031Y-57097417D01*
X99344447Y-57104858D01*
X99356073Y-57113481D01*
X99366798Y-57123202D01*
X99376519Y-57133927D01*
X99385142Y-57145553D01*
X99392583Y-57157969D01*
X99398772Y-57171054D01*
X99403649Y-57184683D01*
X99407166Y-57198724D01*
X99409290Y-57213042D01*
X99410000Y-57227500D01*
X99410000Y-57572500D01*
X99409290Y-57586958D01*
X99407166Y-57601276D01*
X99403649Y-57615317D01*
X99398772Y-57628946D01*
X99392583Y-57642031D01*
X99385142Y-57654447D01*
X99376519Y-57666073D01*
X99366798Y-57676798D01*
X99356073Y-57686519D01*
X99344447Y-57695142D01*
X99332031Y-57702583D01*
X99318946Y-57708772D01*
X99305317Y-57713649D01*
X99291276Y-57717166D01*
X99276958Y-57719290D01*
X99262500Y-57720000D01*
X98967500Y-57720000D01*
X98953042Y-57719290D01*
X98938724Y-57717166D01*
X98924683Y-57713649D01*
X98911054Y-57708772D01*
X98897969Y-57702583D01*
X98885553Y-57695142D01*
X98873927Y-57686519D01*
X98863202Y-57676798D01*
X98853481Y-57666073D01*
X98844858Y-57654447D01*
X98837417Y-57642031D01*
X98831228Y-57628946D01*
X98826351Y-57615317D01*
X98822834Y-57601276D01*
X98820710Y-57586958D01*
X98820000Y-57572500D01*
X98820000Y-57227500D01*
X98820710Y-57213042D01*
X98822834Y-57198724D01*
X98826351Y-57184683D01*
X98831228Y-57171054D01*
X98837417Y-57157969D01*
X98844858Y-57145553D01*
X98853481Y-57133927D01*
X98863202Y-57123202D01*
X98873927Y-57113481D01*
X98885553Y-57104858D01*
X98897969Y-57097417D01*
X98911054Y-57091228D01*
X98924683Y-57086351D01*
X98938724Y-57082834D01*
X98953042Y-57080710D01*
X98967500Y-57080000D01*
X99262500Y-57080000D01*
X99276958Y-57080710D01*
X99276958Y-57080710D01*
G37*
D18*
X99115000Y-57400000D03*
D13*
G36*
X97286958Y-56120710D02*
G01*
X97301276Y-56122834D01*
X97315317Y-56126351D01*
X97328946Y-56131228D01*
X97342031Y-56137417D01*
X97354447Y-56144858D01*
X97366073Y-56153481D01*
X97376798Y-56163202D01*
X97386519Y-56173927D01*
X97395142Y-56185553D01*
X97402583Y-56197969D01*
X97408772Y-56211054D01*
X97413649Y-56224683D01*
X97417166Y-56238724D01*
X97419290Y-56253042D01*
X97420000Y-56267500D01*
X97420000Y-56562500D01*
X97419290Y-56576958D01*
X97417166Y-56591276D01*
X97413649Y-56605317D01*
X97408772Y-56618946D01*
X97402583Y-56632031D01*
X97395142Y-56644447D01*
X97386519Y-56656073D01*
X97376798Y-56666798D01*
X97366073Y-56676519D01*
X97354447Y-56685142D01*
X97342031Y-56692583D01*
X97328946Y-56698772D01*
X97315317Y-56703649D01*
X97301276Y-56707166D01*
X97286958Y-56709290D01*
X97272500Y-56710000D01*
X96927500Y-56710000D01*
X96913042Y-56709290D01*
X96898724Y-56707166D01*
X96884683Y-56703649D01*
X96871054Y-56698772D01*
X96857969Y-56692583D01*
X96845553Y-56685142D01*
X96833927Y-56676519D01*
X96823202Y-56666798D01*
X96813481Y-56656073D01*
X96804858Y-56644447D01*
X96797417Y-56632031D01*
X96791228Y-56618946D01*
X96786351Y-56605317D01*
X96782834Y-56591276D01*
X96780710Y-56576958D01*
X96780000Y-56562500D01*
X96780000Y-56267500D01*
X96780710Y-56253042D01*
X96782834Y-56238724D01*
X96786351Y-56224683D01*
X96791228Y-56211054D01*
X96797417Y-56197969D01*
X96804858Y-56185553D01*
X96813481Y-56173927D01*
X96823202Y-56163202D01*
X96833927Y-56153481D01*
X96845553Y-56144858D01*
X96857969Y-56137417D01*
X96871054Y-56131228D01*
X96884683Y-56126351D01*
X96898724Y-56122834D01*
X96913042Y-56120710D01*
X96927500Y-56120000D01*
X97272500Y-56120000D01*
X97286958Y-56120710D01*
X97286958Y-56120710D01*
G37*
D18*
X97100000Y-56415000D03*
D13*
G36*
X97286958Y-57090710D02*
G01*
X97301276Y-57092834D01*
X97315317Y-57096351D01*
X97328946Y-57101228D01*
X97342031Y-57107417D01*
X97354447Y-57114858D01*
X97366073Y-57123481D01*
X97376798Y-57133202D01*
X97386519Y-57143927D01*
X97395142Y-57155553D01*
X97402583Y-57167969D01*
X97408772Y-57181054D01*
X97413649Y-57194683D01*
X97417166Y-57208724D01*
X97419290Y-57223042D01*
X97420000Y-57237500D01*
X97420000Y-57532500D01*
X97419290Y-57546958D01*
X97417166Y-57561276D01*
X97413649Y-57575317D01*
X97408772Y-57588946D01*
X97402583Y-57602031D01*
X97395142Y-57614447D01*
X97386519Y-57626073D01*
X97376798Y-57636798D01*
X97366073Y-57646519D01*
X97354447Y-57655142D01*
X97342031Y-57662583D01*
X97328946Y-57668772D01*
X97315317Y-57673649D01*
X97301276Y-57677166D01*
X97286958Y-57679290D01*
X97272500Y-57680000D01*
X96927500Y-57680000D01*
X96913042Y-57679290D01*
X96898724Y-57677166D01*
X96884683Y-57673649D01*
X96871054Y-57668772D01*
X96857969Y-57662583D01*
X96845553Y-57655142D01*
X96833927Y-57646519D01*
X96823202Y-57636798D01*
X96813481Y-57626073D01*
X96804858Y-57614447D01*
X96797417Y-57602031D01*
X96791228Y-57588946D01*
X96786351Y-57575317D01*
X96782834Y-57561276D01*
X96780710Y-57546958D01*
X96780000Y-57532500D01*
X96780000Y-57237500D01*
X96780710Y-57223042D01*
X96782834Y-57208724D01*
X96786351Y-57194683D01*
X96791228Y-57181054D01*
X96797417Y-57167969D01*
X96804858Y-57155553D01*
X96813481Y-57143927D01*
X96823202Y-57133202D01*
X96833927Y-57123481D01*
X96845553Y-57114858D01*
X96857969Y-57107417D01*
X96871054Y-57101228D01*
X96884683Y-57096351D01*
X96898724Y-57092834D01*
X96913042Y-57090710D01*
X96927500Y-57090000D01*
X97272500Y-57090000D01*
X97286958Y-57090710D01*
X97286958Y-57090710D01*
G37*
D18*
X97100000Y-57385000D03*
D13*
G36*
X94486958Y-56120710D02*
G01*
X94501276Y-56122834D01*
X94515317Y-56126351D01*
X94528946Y-56131228D01*
X94542031Y-56137417D01*
X94554447Y-56144858D01*
X94566073Y-56153481D01*
X94576798Y-56163202D01*
X94586519Y-56173927D01*
X94595142Y-56185553D01*
X94602583Y-56197969D01*
X94608772Y-56211054D01*
X94613649Y-56224683D01*
X94617166Y-56238724D01*
X94619290Y-56253042D01*
X94620000Y-56267500D01*
X94620000Y-56562500D01*
X94619290Y-56576958D01*
X94617166Y-56591276D01*
X94613649Y-56605317D01*
X94608772Y-56618946D01*
X94602583Y-56632031D01*
X94595142Y-56644447D01*
X94586519Y-56656073D01*
X94576798Y-56666798D01*
X94566073Y-56676519D01*
X94554447Y-56685142D01*
X94542031Y-56692583D01*
X94528946Y-56698772D01*
X94515317Y-56703649D01*
X94501276Y-56707166D01*
X94486958Y-56709290D01*
X94472500Y-56710000D01*
X94127500Y-56710000D01*
X94113042Y-56709290D01*
X94098724Y-56707166D01*
X94084683Y-56703649D01*
X94071054Y-56698772D01*
X94057969Y-56692583D01*
X94045553Y-56685142D01*
X94033927Y-56676519D01*
X94023202Y-56666798D01*
X94013481Y-56656073D01*
X94004858Y-56644447D01*
X93997417Y-56632031D01*
X93991228Y-56618946D01*
X93986351Y-56605317D01*
X93982834Y-56591276D01*
X93980710Y-56576958D01*
X93980000Y-56562500D01*
X93980000Y-56267500D01*
X93980710Y-56253042D01*
X93982834Y-56238724D01*
X93986351Y-56224683D01*
X93991228Y-56211054D01*
X93997417Y-56197969D01*
X94004858Y-56185553D01*
X94013481Y-56173927D01*
X94023202Y-56163202D01*
X94033927Y-56153481D01*
X94045553Y-56144858D01*
X94057969Y-56137417D01*
X94071054Y-56131228D01*
X94084683Y-56126351D01*
X94098724Y-56122834D01*
X94113042Y-56120710D01*
X94127500Y-56120000D01*
X94472500Y-56120000D01*
X94486958Y-56120710D01*
X94486958Y-56120710D01*
G37*
D18*
X94300000Y-56415000D03*
D13*
G36*
X94486958Y-57090710D02*
G01*
X94501276Y-57092834D01*
X94515317Y-57096351D01*
X94528946Y-57101228D01*
X94542031Y-57107417D01*
X94554447Y-57114858D01*
X94566073Y-57123481D01*
X94576798Y-57133202D01*
X94586519Y-57143927D01*
X94595142Y-57155553D01*
X94602583Y-57167969D01*
X94608772Y-57181054D01*
X94613649Y-57194683D01*
X94617166Y-57208724D01*
X94619290Y-57223042D01*
X94620000Y-57237500D01*
X94620000Y-57532500D01*
X94619290Y-57546958D01*
X94617166Y-57561276D01*
X94613649Y-57575317D01*
X94608772Y-57588946D01*
X94602583Y-57602031D01*
X94595142Y-57614447D01*
X94586519Y-57626073D01*
X94576798Y-57636798D01*
X94566073Y-57646519D01*
X94554447Y-57655142D01*
X94542031Y-57662583D01*
X94528946Y-57668772D01*
X94515317Y-57673649D01*
X94501276Y-57677166D01*
X94486958Y-57679290D01*
X94472500Y-57680000D01*
X94127500Y-57680000D01*
X94113042Y-57679290D01*
X94098724Y-57677166D01*
X94084683Y-57673649D01*
X94071054Y-57668772D01*
X94057969Y-57662583D01*
X94045553Y-57655142D01*
X94033927Y-57646519D01*
X94023202Y-57636798D01*
X94013481Y-57626073D01*
X94004858Y-57614447D01*
X93997417Y-57602031D01*
X93991228Y-57588946D01*
X93986351Y-57575317D01*
X93982834Y-57561276D01*
X93980710Y-57546958D01*
X93980000Y-57532500D01*
X93980000Y-57237500D01*
X93980710Y-57223042D01*
X93982834Y-57208724D01*
X93986351Y-57194683D01*
X93991228Y-57181054D01*
X93997417Y-57167969D01*
X94004858Y-57155553D01*
X94013481Y-57143927D01*
X94023202Y-57133202D01*
X94033927Y-57123481D01*
X94045553Y-57114858D01*
X94057969Y-57107417D01*
X94071054Y-57101228D01*
X94084683Y-57096351D01*
X94098724Y-57092834D01*
X94113042Y-57090710D01*
X94127500Y-57090000D01*
X94472500Y-57090000D01*
X94486958Y-57090710D01*
X94486958Y-57090710D01*
G37*
D18*
X94300000Y-57385000D03*
D13*
G36*
X91686958Y-56120710D02*
G01*
X91701276Y-56122834D01*
X91715317Y-56126351D01*
X91728946Y-56131228D01*
X91742031Y-56137417D01*
X91754447Y-56144858D01*
X91766073Y-56153481D01*
X91776798Y-56163202D01*
X91786519Y-56173927D01*
X91795142Y-56185553D01*
X91802583Y-56197969D01*
X91808772Y-56211054D01*
X91813649Y-56224683D01*
X91817166Y-56238724D01*
X91819290Y-56253042D01*
X91820000Y-56267500D01*
X91820000Y-56562500D01*
X91819290Y-56576958D01*
X91817166Y-56591276D01*
X91813649Y-56605317D01*
X91808772Y-56618946D01*
X91802583Y-56632031D01*
X91795142Y-56644447D01*
X91786519Y-56656073D01*
X91776798Y-56666798D01*
X91766073Y-56676519D01*
X91754447Y-56685142D01*
X91742031Y-56692583D01*
X91728946Y-56698772D01*
X91715317Y-56703649D01*
X91701276Y-56707166D01*
X91686958Y-56709290D01*
X91672500Y-56710000D01*
X91327500Y-56710000D01*
X91313042Y-56709290D01*
X91298724Y-56707166D01*
X91284683Y-56703649D01*
X91271054Y-56698772D01*
X91257969Y-56692583D01*
X91245553Y-56685142D01*
X91233927Y-56676519D01*
X91223202Y-56666798D01*
X91213481Y-56656073D01*
X91204858Y-56644447D01*
X91197417Y-56632031D01*
X91191228Y-56618946D01*
X91186351Y-56605317D01*
X91182834Y-56591276D01*
X91180710Y-56576958D01*
X91180000Y-56562500D01*
X91180000Y-56267500D01*
X91180710Y-56253042D01*
X91182834Y-56238724D01*
X91186351Y-56224683D01*
X91191228Y-56211054D01*
X91197417Y-56197969D01*
X91204858Y-56185553D01*
X91213481Y-56173927D01*
X91223202Y-56163202D01*
X91233927Y-56153481D01*
X91245553Y-56144858D01*
X91257969Y-56137417D01*
X91271054Y-56131228D01*
X91284683Y-56126351D01*
X91298724Y-56122834D01*
X91313042Y-56120710D01*
X91327500Y-56120000D01*
X91672500Y-56120000D01*
X91686958Y-56120710D01*
X91686958Y-56120710D01*
G37*
D18*
X91500000Y-56415000D03*
D13*
G36*
X91686958Y-57090710D02*
G01*
X91701276Y-57092834D01*
X91715317Y-57096351D01*
X91728946Y-57101228D01*
X91742031Y-57107417D01*
X91754447Y-57114858D01*
X91766073Y-57123481D01*
X91776798Y-57133202D01*
X91786519Y-57143927D01*
X91795142Y-57155553D01*
X91802583Y-57167969D01*
X91808772Y-57181054D01*
X91813649Y-57194683D01*
X91817166Y-57208724D01*
X91819290Y-57223042D01*
X91820000Y-57237500D01*
X91820000Y-57532500D01*
X91819290Y-57546958D01*
X91817166Y-57561276D01*
X91813649Y-57575317D01*
X91808772Y-57588946D01*
X91802583Y-57602031D01*
X91795142Y-57614447D01*
X91786519Y-57626073D01*
X91776798Y-57636798D01*
X91766073Y-57646519D01*
X91754447Y-57655142D01*
X91742031Y-57662583D01*
X91728946Y-57668772D01*
X91715317Y-57673649D01*
X91701276Y-57677166D01*
X91686958Y-57679290D01*
X91672500Y-57680000D01*
X91327500Y-57680000D01*
X91313042Y-57679290D01*
X91298724Y-57677166D01*
X91284683Y-57673649D01*
X91271054Y-57668772D01*
X91257969Y-57662583D01*
X91245553Y-57655142D01*
X91233927Y-57646519D01*
X91223202Y-57636798D01*
X91213481Y-57626073D01*
X91204858Y-57614447D01*
X91197417Y-57602031D01*
X91191228Y-57588946D01*
X91186351Y-57575317D01*
X91182834Y-57561276D01*
X91180710Y-57546958D01*
X91180000Y-57532500D01*
X91180000Y-57237500D01*
X91180710Y-57223042D01*
X91182834Y-57208724D01*
X91186351Y-57194683D01*
X91191228Y-57181054D01*
X91197417Y-57167969D01*
X91204858Y-57155553D01*
X91213481Y-57143927D01*
X91223202Y-57133202D01*
X91233927Y-57123481D01*
X91245553Y-57114858D01*
X91257969Y-57107417D01*
X91271054Y-57101228D01*
X91284683Y-57096351D01*
X91298724Y-57092834D01*
X91313042Y-57090710D01*
X91327500Y-57090000D01*
X91672500Y-57090000D01*
X91686958Y-57090710D01*
X91686958Y-57090710D01*
G37*
D18*
X91500000Y-57385000D03*
D25*
X135000000Y-62500000D03*
X134650000Y-56050000D03*
X135000000Y-52500000D03*
X86660000Y-59280000D03*
X88250000Y-55750000D03*
X87000000Y-55500000D03*
X85000000Y-54500000D03*
X138250000Y-54250000D03*
X137750000Y-60250000D03*
X135750000Y-59250000D03*
X133750000Y-58750000D03*
X136000000Y-55500000D03*
X85410000Y-60290000D03*
X121700000Y-54825000D03*
X117850000Y-55225000D03*
X122300000Y-59925000D03*
X123350000Y-59925000D03*
X122875000Y-54725000D03*
X127150000Y-55725000D03*
X130050000Y-55750000D03*
X107975000Y-59875000D03*
X109250000Y-59925000D03*
X108275000Y-54400000D03*
X109375000Y-54625000D03*
X104050000Y-55575000D03*
X101050000Y-55675000D03*
X97100000Y-55525000D03*
X94425000Y-55525000D03*
X91600000Y-55450000D03*
X102850000Y-63650000D03*
X104250000Y-63650000D03*
X102875000Y-68825000D03*
X104300000Y-68825000D03*
X96125000Y-68900000D03*
X97525000Y-68975000D03*
X96500000Y-63350000D03*
X97750000Y-63475000D03*
X100650000Y-63300000D03*
X118475000Y-51700000D03*
X120425000Y-52225000D03*
X120500000Y-51375000D03*
X90280000Y-58450000D03*
X91500000Y-58500000D03*
X93500000Y-58500000D03*
X95500000Y-58500000D03*
X97500000Y-58500000D03*
X99500000Y-58500000D03*
X101500000Y-58500000D03*
X103500000Y-58500000D03*
X105500000Y-58500000D03*
X107500000Y-58500000D03*
X110000000Y-58500000D03*
X106000000Y-56000000D03*
X107000000Y-56000000D03*
X104980000Y-56410000D03*
X103000000Y-56400000D03*
X102000000Y-56430000D03*
X100000000Y-56000000D03*
X99000000Y-56420000D03*
X98000000Y-56000000D03*
X96000000Y-56000000D03*
X93500000Y-56000000D03*
X92500000Y-56250000D03*
X89750000Y-55750000D03*
X89750000Y-55750000D03*
X110500000Y-59500000D03*
X112000000Y-60500000D03*
X124500000Y-58500000D03*
X126500000Y-58500000D03*
X128750000Y-58500000D03*
X128250000Y-56250000D03*
X129250000Y-56250000D03*
X126250000Y-56500000D03*
X124500000Y-56250000D03*
X88275000Y-58775000D03*
X90000000Y-52500000D03*
X95000000Y-52500000D03*
X100000000Y-52500000D03*
X105000000Y-52500000D03*
X110000000Y-52500000D03*
X125000000Y-52500000D03*
X130000000Y-52500000D03*
X90000000Y-47500000D03*
X95000000Y-47500000D03*
X100000000Y-47500000D03*
X105000000Y-47500000D03*
X110000000Y-47500000D03*
X115000000Y-47500000D03*
X120000000Y-47500000D03*
X125000000Y-47500000D03*
X130000000Y-47500000D03*
X135000000Y-47500000D03*
X90000000Y-62500000D03*
X90000000Y-67500000D03*
X80000000Y-67500000D03*
X90000000Y-72500000D03*
X95000000Y-72500000D03*
X95000000Y-67500000D03*
X95000000Y-62500000D03*
X100000000Y-62500000D03*
X105200000Y-62700000D03*
X100000000Y-72500000D03*
X100000000Y-67500000D03*
X105000000Y-72500000D03*
X110000000Y-72500000D03*
X110000000Y-67500000D03*
X110000000Y-62500000D03*
X115000000Y-67500000D03*
X115000000Y-72500000D03*
X115000000Y-72500000D03*
X120000000Y-72500000D03*
X120000000Y-67500000D03*
X125000000Y-67500000D03*
X130000000Y-67500000D03*
X125000000Y-72500000D03*
X130000000Y-72500000D03*
X135000000Y-72500000D03*
X135000000Y-67500000D03*
X101300000Y-67420000D03*
X118050000Y-60400000D03*
X113900000Y-60500000D03*
X111990000Y-59100000D03*
X113070000Y-59170000D03*
X130850000Y-58550000D03*
X132850000Y-56450000D03*
X132350000Y-58750000D03*
X119050000Y-58600000D03*
X120300000Y-58600000D03*
X114350000Y-56300000D03*
X113225000Y-56275000D03*
X112100000Y-56300000D03*
X111000000Y-56300000D03*
X114096410Y-58446410D03*
X111050000Y-58450000D03*
X115000000Y-52500000D03*
X115000000Y-62500000D03*
X120000000Y-62500000D03*
X125000000Y-62500000D03*
X130000000Y-62500000D03*
D26*
X122400000Y-55905000D02*
X122400000Y-55525000D01*
X122400000Y-55525000D02*
X121700000Y-54825000D01*
X117910000Y-55285000D02*
X117850000Y-55225000D01*
X118650000Y-55285000D02*
X117910000Y-55285000D01*
X122400000Y-58895000D02*
X122400000Y-59825000D01*
X122400000Y-59825000D02*
X122300000Y-59925000D01*
X122400000Y-58895000D02*
X122400000Y-58975000D01*
X122400000Y-58975000D02*
X123350000Y-59925000D01*
X122400000Y-55905000D02*
X122400000Y-55200000D01*
X122400000Y-55200000D02*
X122875000Y-54725000D01*
X108700000Y-58745000D02*
X108700000Y-59150000D01*
X108700000Y-59150000D02*
X107975000Y-59875000D01*
X108700000Y-58745000D02*
X108700000Y-59375000D01*
X108700000Y-59375000D02*
X109250000Y-59925000D01*
X108700000Y-55755000D02*
X108700000Y-54825000D01*
X108700000Y-54825000D02*
X108275000Y-54400000D01*
X108700000Y-55755000D02*
X108700000Y-55300000D01*
X108700000Y-55300000D02*
X109375000Y-54625000D01*
X103600000Y-64705000D02*
X103600000Y-64400000D01*
X103600000Y-64400000D02*
X102850000Y-63650000D01*
X103600000Y-64705000D02*
X103600000Y-64300000D01*
X103600000Y-64300000D02*
X104250000Y-63650000D01*
X103600000Y-67695000D02*
X103600000Y-68100000D01*
X103600000Y-68100000D02*
X102875000Y-68825000D01*
X103600000Y-67695000D02*
X103600000Y-68125000D01*
X103600000Y-68125000D02*
X104300000Y-68825000D01*
X96900000Y-67690000D02*
X96900000Y-68125000D01*
X96900000Y-68125000D02*
X96125000Y-68900000D01*
X96900000Y-67690000D02*
X96900000Y-68350000D01*
X96900000Y-68350000D02*
X97525000Y-68975000D01*
X96900000Y-64700000D02*
X96900000Y-63750000D01*
X96900000Y-63750000D02*
X96500000Y-63350000D01*
X96900000Y-64700000D02*
X96900000Y-64325000D01*
X96900000Y-64325000D02*
X97750000Y-63475000D01*
X100650000Y-64125790D02*
X100700000Y-64175790D01*
X100650000Y-63300000D02*
X100650000Y-64125790D01*
X91600000Y-56315000D02*
X91500000Y-56415000D01*
X91600000Y-55450000D02*
X91600000Y-56315000D01*
X94425000Y-56265790D02*
X94300000Y-56390790D01*
X94425000Y-55525000D02*
X94425000Y-56265790D01*
X97100000Y-55525000D02*
X97100000Y-56390790D01*
X101050000Y-55675000D02*
X101050000Y-56390790D01*
X103950000Y-56162903D02*
X103950000Y-56390790D01*
X104050000Y-55575000D02*
X104050000Y-56062903D01*
X104050000Y-56062903D02*
X103950000Y-56162903D01*
X127150000Y-55725000D02*
X127150000Y-56440790D01*
X130050000Y-55750000D02*
X130050000Y-56490000D01*
D27*
X118650000Y-52315000D02*
X118650000Y-51875000D01*
X118650000Y-51875000D02*
X118475000Y-51700000D01*
X119750000Y-52315000D02*
X120335000Y-52315000D01*
X120335000Y-52315000D02*
X120425000Y-52225000D01*
X119750000Y-51285000D02*
X120410000Y-51285000D01*
X120410000Y-51285000D02*
X120500000Y-51375000D01*
X135335000Y-53118500D02*
X134696000Y-53118500D01*
X138000000Y-53118500D02*
X135335000Y-53118500D01*
X135335000Y-61881500D02*
X134696000Y-61881500D01*
X138000000Y-61881500D02*
X135335000Y-61881500D01*
D26*
X117462097Y-60500000D02*
X117424210Y-60500000D01*
X118050000Y-60400000D02*
X117562097Y-60400000D01*
X117562097Y-60400000D02*
X117462097Y-60500000D01*
X113900000Y-60500000D02*
X114425790Y-60500000D01*
X110500000Y-59500000D02*
X111590000Y-59500000D01*
X111590000Y-59500000D02*
X111990000Y-59100000D01*
X113000000Y-58612097D02*
X113000000Y-58409210D01*
X113070000Y-59170000D02*
X113070000Y-58682097D01*
X113070000Y-58682097D02*
X113000000Y-58612097D01*
X111990000Y-58469210D02*
X112050000Y-58409210D01*
X111990000Y-59100000D02*
X111990000Y-58469210D01*
X92375790Y-57424209D02*
X92375790Y-57400000D01*
X81600000Y-57400000D02*
X84864200Y-57400000D01*
X84864200Y-57400000D02*
X84888409Y-57424209D01*
X91032372Y-57374610D02*
X91081971Y-57424209D01*
X89385390Y-57374610D02*
X91032372Y-57374610D01*
X91081971Y-57424209D02*
X92375790Y-57424209D01*
X89320000Y-57440000D02*
X89385390Y-57374610D01*
X86215000Y-57440000D02*
X89320000Y-57440000D01*
X95215000Y-57400000D02*
X93385000Y-57400000D01*
X99115000Y-57400000D02*
X96224210Y-57400000D01*
X102015000Y-57400000D02*
X100124210Y-57400000D01*
X104915000Y-57400000D02*
X103024210Y-57400000D01*
X128115000Y-57450000D02*
X126209210Y-57450000D01*
X129174210Y-57500000D02*
X129124210Y-57450000D01*
X131015000Y-57500000D02*
X129174210Y-57500000D01*
X138000000Y-57500000D02*
X132024210Y-57500000D01*
X136725000Y-57500000D02*
X136685000Y-57460000D01*
X141300000Y-57500000D02*
X136725000Y-57500000D01*
D28*
X131985000Y-52085000D02*
X130300000Y-50400000D01*
X131985000Y-57500000D02*
X131985000Y-52085000D01*
D27*
X122102500Y-50315000D02*
X119750000Y-50315000D01*
X122750000Y-50962500D02*
X122102500Y-50315000D01*
D26*
X107175000Y-57350000D02*
X105935000Y-57350000D01*
X115325000Y-57400000D02*
X106950000Y-57400000D01*
D29*
X115915000Y-55350000D02*
X115915000Y-56300000D01*
X115915000Y-56985000D02*
X115500000Y-57400000D01*
X115915000Y-56300000D02*
X115915000Y-56985000D01*
D26*
X125200000Y-57450000D02*
X117450000Y-57450000D01*
X102075000Y-66200000D02*
X100724209Y-66200000D01*
X100724209Y-65781971D02*
X100724209Y-66200000D01*
X100700000Y-65185000D02*
X100700000Y-65757762D01*
X100700000Y-65757762D02*
X100724209Y-65781971D01*
X99710000Y-66195000D02*
X99715000Y-66200000D01*
X98425000Y-66195000D02*
X99710000Y-66195000D01*
X119750000Y-55285000D02*
X119750000Y-56000000D01*
D29*
X116885000Y-55350000D02*
X116885000Y-56300000D01*
X118585000Y-56300000D02*
X118700000Y-56415000D01*
X116885000Y-56300000D02*
X118585000Y-56300000D01*
D26*
X118700000Y-56415000D02*
X119750000Y-56415000D01*
X116415000Y-60315000D02*
X115500000Y-59400000D01*
X116415000Y-60500000D02*
X116415000Y-60315000D01*
X117095000Y-59400000D02*
X117400000Y-59400000D01*
X116415000Y-60080000D02*
X117095000Y-59400000D01*
X116415000Y-60500000D02*
X116415000Y-60080000D01*
X115435000Y-60500000D02*
X116415000Y-60500000D01*
D27*
X118650000Y-53285000D02*
X118650000Y-54315000D01*
X118650000Y-54315000D02*
X119750000Y-54315000D01*
X119750000Y-53285000D02*
X118650000Y-53285000D01*
X122302500Y-53285000D02*
X122750000Y-52837500D01*
X119750000Y-53285000D02*
X122302500Y-53285000D01*
D28*
X125187500Y-50400000D02*
X122750000Y-52837500D01*
X127500000Y-50400000D02*
X125187500Y-50400000D01*
D26*
X127220000Y-50120000D02*
X127500000Y-50400000D01*
X126430000Y-50120000D02*
X127220000Y-50120000D01*
D30*
G36*
X116429281Y-56780719D02*
G01*
X116495334Y-56834928D01*
X116536967Y-56857181D01*
X116510214Y-56889780D01*
X116483564Y-56939639D01*
X116467153Y-56993738D01*
X116461612Y-57050000D01*
X116461612Y-57750000D01*
X116467153Y-57806262D01*
X116483564Y-57860361D01*
X116510214Y-57910220D01*
X116546079Y-57953921D01*
X116589780Y-57989786D01*
X116639639Y-58016436D01*
X116693738Y-58032847D01*
X116750000Y-58038388D01*
X117045250Y-58038388D01*
X117052743Y-58044537D01*
X117176365Y-58110614D01*
X117310502Y-58151304D01*
X117415042Y-58161600D01*
X123180591Y-58161600D01*
X123189639Y-58166436D01*
X123243738Y-58182847D01*
X123300000Y-58188388D01*
X124350000Y-58188388D01*
X124406262Y-58182847D01*
X124460361Y-58166436D01*
X124469409Y-58161600D01*
X125234958Y-58161600D01*
X125339498Y-58151304D01*
X125473635Y-58110614D01*
X125597257Y-58044537D01*
X125704605Y-57956438D01*
X125811953Y-58044537D01*
X125935575Y-58110614D01*
X126069712Y-58151304D01*
X126174252Y-58161600D01*
X128149958Y-58161600D01*
X128254498Y-58151304D01*
X128388635Y-58110614D01*
X128512257Y-58044537D01*
X128620612Y-57955612D01*
X128621899Y-57954043D01*
X128646307Y-57978451D01*
X128668598Y-58005612D01*
X128776953Y-58094537D01*
X128900575Y-58160614D01*
X129034712Y-58201304D01*
X129139252Y-58211600D01*
X129174210Y-58215043D01*
X129209168Y-58211600D01*
X131049958Y-58211600D01*
X131154498Y-58201304D01*
X131288635Y-58160614D01*
X131412257Y-58094537D01*
X131519605Y-58006438D01*
X131626953Y-58094537D01*
X131750575Y-58160614D01*
X131884712Y-58201304D01*
X131989252Y-58211600D01*
X133099365Y-58211600D01*
X137267254Y-61124101D01*
X137285155Y-61134547D01*
X137308556Y-61143046D01*
X137333166Y-61146816D01*
X143688000Y-61489292D01*
X143688000Y-70984740D01*
X143635339Y-71521810D01*
X143483796Y-72023747D01*
X143237646Y-72486690D01*
X142906263Y-72893004D01*
X142502275Y-73227213D01*
X142041062Y-73476588D01*
X141540197Y-73631633D01*
X141004048Y-73687984D01*
X140999487Y-73688000D01*
X82015260Y-73688000D01*
X81478190Y-73635339D01*
X80976253Y-73483796D01*
X80513310Y-73237646D01*
X80106996Y-72906263D01*
X79772787Y-72502275D01*
X79523412Y-72041062D01*
X79368367Y-71540197D01*
X79312016Y-71004048D01*
X79312000Y-70999487D01*
X79312000Y-65695000D01*
X97611612Y-65695000D01*
X97611612Y-66695000D01*
X97617153Y-66751262D01*
X97633564Y-66805361D01*
X97660214Y-66855220D01*
X97696079Y-66898921D01*
X97739780Y-66934786D01*
X97789639Y-66961436D01*
X97843738Y-66977847D01*
X97900000Y-66983388D01*
X98950000Y-66983388D01*
X99006262Y-66977847D01*
X99060361Y-66961436D01*
X99110220Y-66934786D01*
X99144564Y-66906600D01*
X99629274Y-66906600D01*
X99714999Y-66915043D01*
X99854497Y-66901304D01*
X99988635Y-66860613D01*
X100112256Y-66794536D01*
X100219603Y-66706438D01*
X100326952Y-66794537D01*
X100450574Y-66860614D01*
X100584711Y-66901304D01*
X100689251Y-66911600D01*
X100724209Y-66915043D01*
X100759167Y-66911600D01*
X101355436Y-66911600D01*
X101389780Y-66939786D01*
X101439639Y-66966436D01*
X101493738Y-66982847D01*
X101550000Y-66988388D01*
X102600000Y-66988388D01*
X102656262Y-66982847D01*
X102710361Y-66966436D01*
X102760220Y-66939786D01*
X102803921Y-66903921D01*
X102839786Y-66860220D01*
X102866436Y-66810361D01*
X102882847Y-66756262D01*
X102888388Y-66700000D01*
X102888388Y-65700000D01*
X102882847Y-65643738D01*
X102866436Y-65589639D01*
X102839786Y-65539780D01*
X102803921Y-65496079D01*
X102760220Y-65460214D01*
X102710361Y-65433564D01*
X102656262Y-65417153D01*
X102600000Y-65411612D01*
X101550000Y-65411612D01*
X101493738Y-65417153D01*
X101439639Y-65433564D01*
X101411600Y-65448551D01*
X101411600Y-65150042D01*
X101401304Y-65045502D01*
X101360614Y-64911365D01*
X101294537Y-64787743D01*
X101205611Y-64679388D01*
X101097256Y-64590463D01*
X100973634Y-64524386D01*
X100839497Y-64483696D01*
X100700000Y-64469957D01*
X100560502Y-64483696D01*
X100426365Y-64524386D01*
X100302743Y-64590463D01*
X100194388Y-64679389D01*
X100105463Y-64787744D01*
X100039386Y-64911366D01*
X99998696Y-65045503D01*
X99988400Y-65150043D01*
X99988400Y-65536933D01*
X99983635Y-65534386D01*
X99849498Y-65493696D01*
X99744958Y-65483400D01*
X99710000Y-65479957D01*
X99675042Y-65483400D01*
X99144564Y-65483400D01*
X99110220Y-65455214D01*
X99060361Y-65428564D01*
X99006262Y-65412153D01*
X98950000Y-65406612D01*
X97900000Y-65406612D01*
X97843738Y-65412153D01*
X97789639Y-65428564D01*
X97739780Y-65455214D01*
X97696079Y-65491079D01*
X97660214Y-65534780D01*
X97633564Y-65584639D01*
X97617153Y-65638738D01*
X97611612Y-65695000D01*
X79312000Y-65695000D01*
X79312000Y-61055937D01*
X85687788Y-61166981D01*
X85704497Y-61166170D01*
X85728833Y-61160917D01*
X85751677Y-61151018D01*
X85772150Y-61136852D01*
X85789467Y-61118965D01*
X85802961Y-61098042D01*
X85812114Y-61074890D01*
X85816574Y-61050396D01*
X85816170Y-61025503D01*
X85810917Y-61001167D01*
X85803745Y-60984617D01*
X86437051Y-60500000D01*
X114719957Y-60500000D01*
X114733696Y-60639498D01*
X114774386Y-60773635D01*
X114840463Y-60897257D01*
X114929388Y-61005612D01*
X115037743Y-61094537D01*
X115161365Y-61160614D01*
X115295502Y-61201304D01*
X115400042Y-61211600D01*
X116380042Y-61211600D01*
X116415000Y-61215043D01*
X116449958Y-61211600D01*
X116554498Y-61201304D01*
X116688635Y-61160614D01*
X116812257Y-61094537D01*
X116920612Y-61005612D01*
X117009537Y-60897257D01*
X117075614Y-60773635D01*
X117116304Y-60639498D01*
X117130043Y-60500000D01*
X117126600Y-60465042D01*
X117126600Y-60374754D01*
X117389755Y-60111600D01*
X117434958Y-60111600D01*
X117539498Y-60101304D01*
X117673635Y-60060614D01*
X117715217Y-60038388D01*
X117750000Y-60038388D01*
X117806262Y-60032847D01*
X117860361Y-60016436D01*
X117910220Y-59989786D01*
X117953921Y-59953921D01*
X117989786Y-59910220D01*
X118016436Y-59860361D01*
X118032847Y-59806262D01*
X118038388Y-59750000D01*
X118038388Y-59715217D01*
X118060614Y-59673635D01*
X118101304Y-59539498D01*
X118115043Y-59400000D01*
X118101304Y-59260502D01*
X118060614Y-59126365D01*
X118038388Y-59084783D01*
X118038388Y-59050000D01*
X118032847Y-58993738D01*
X118016436Y-58939639D01*
X117989786Y-58889780D01*
X117953921Y-58846079D01*
X117910220Y-58810214D01*
X117860361Y-58783564D01*
X117806262Y-58767153D01*
X117750000Y-58761612D01*
X117715217Y-58761612D01*
X117673635Y-58739386D01*
X117539498Y-58698696D01*
X117434958Y-58688400D01*
X117129957Y-58688400D01*
X117094999Y-58684957D01*
X116955501Y-58698696D01*
X116914811Y-58711039D01*
X116821365Y-58739386D01*
X116697743Y-58805463D01*
X116589388Y-58894388D01*
X116567104Y-58921541D01*
X116297500Y-59191146D01*
X116136425Y-59030071D01*
X116132847Y-58993738D01*
X116116436Y-58939639D01*
X116089786Y-58889780D01*
X116053921Y-58846079D01*
X116010220Y-58810214D01*
X115960361Y-58783564D01*
X115906262Y-58767153D01*
X115850000Y-58761612D01*
X115815215Y-58761612D01*
X115773635Y-58739387D01*
X115639498Y-58698696D01*
X115500000Y-58684957D01*
X115360502Y-58698696D01*
X115226365Y-58739387D01*
X115184785Y-58761612D01*
X115150000Y-58761612D01*
X115093738Y-58767153D01*
X115039639Y-58783564D01*
X114989780Y-58810214D01*
X114946079Y-58846079D01*
X114910214Y-58889780D01*
X114883564Y-58939639D01*
X114867153Y-58993738D01*
X114861612Y-59050000D01*
X114861612Y-59084785D01*
X114839387Y-59126365D01*
X114798696Y-59260502D01*
X114784957Y-59400000D01*
X114798696Y-59539498D01*
X114839387Y-59673635D01*
X114861612Y-59715215D01*
X114861612Y-59750000D01*
X114867153Y-59806262D01*
X114883564Y-59860361D01*
X114910214Y-59910220D01*
X114946079Y-59953921D01*
X114962388Y-59967306D01*
X114929388Y-59994388D01*
X114840463Y-60102743D01*
X114774386Y-60226365D01*
X114733696Y-60360502D01*
X114719957Y-60500000D01*
X86437051Y-60500000D01*
X89538656Y-58126598D01*
X89668851Y-58104221D01*
X89730362Y-58086437D01*
X89730787Y-58086210D01*
X90812908Y-58086210D01*
X90942473Y-58125513D01*
X91047013Y-58135809D01*
X91081971Y-58139252D01*
X91116929Y-58135809D01*
X92340832Y-58135809D01*
X92375790Y-58139252D01*
X92410748Y-58135809D01*
X92515288Y-58125513D01*
X92649425Y-58084823D01*
X92773047Y-58018746D01*
X92881402Y-57929821D01*
X92892463Y-57916343D01*
X92987743Y-57994537D01*
X93111365Y-58060614D01*
X93245502Y-58101304D01*
X93350042Y-58111600D01*
X95249958Y-58111600D01*
X95354498Y-58101304D01*
X95488635Y-58060614D01*
X95612257Y-57994537D01*
X95719605Y-57906438D01*
X95826953Y-57994537D01*
X95950575Y-58060614D01*
X96084712Y-58101304D01*
X96189252Y-58111600D01*
X99149958Y-58111600D01*
X99254498Y-58101304D01*
X99388635Y-58060614D01*
X99512257Y-57994537D01*
X99619605Y-57906438D01*
X99726953Y-57994537D01*
X99850575Y-58060614D01*
X99984712Y-58101304D01*
X100089252Y-58111600D01*
X102049958Y-58111600D01*
X102154498Y-58101304D01*
X102288635Y-58060614D01*
X102412257Y-57994537D01*
X102519605Y-57906438D01*
X102626953Y-57994537D01*
X102750575Y-58060614D01*
X102884712Y-58101304D01*
X102989252Y-58111600D01*
X104949958Y-58111600D01*
X105054498Y-58101304D01*
X105188635Y-58060614D01*
X105312257Y-57994537D01*
X105420612Y-57905612D01*
X105436308Y-57886486D01*
X105495334Y-57934928D01*
X105570693Y-57975208D01*
X105627188Y-57992346D01*
X105661365Y-58010614D01*
X105795502Y-58051304D01*
X105900042Y-58061600D01*
X106530591Y-58061600D01*
X106539639Y-58066436D01*
X106593738Y-58082847D01*
X106650000Y-58088388D01*
X106767924Y-58088388D01*
X106810502Y-58101304D01*
X106915042Y-58111600D01*
X115359958Y-58111600D01*
X115464498Y-58101304D01*
X115598635Y-58060614D01*
X115640217Y-58038388D01*
X115850000Y-58038388D01*
X115906262Y-58032847D01*
X115960361Y-58016436D01*
X116010220Y-57989786D01*
X116053921Y-57953921D01*
X116089786Y-57910220D01*
X116116436Y-57860361D01*
X116132847Y-57806262D01*
X116138388Y-57750000D01*
X116138388Y-57308913D01*
X116175212Y-57272089D01*
X116189974Y-57259974D01*
X116203607Y-57243363D01*
X116238335Y-57201046D01*
X116274271Y-57133815D01*
X116296400Y-57060865D01*
X116303872Y-56985000D01*
X116302000Y-56965993D01*
X116302000Y-56836353D01*
X116304666Y-56834928D01*
X116370719Y-56780719D01*
X116400000Y-56745040D01*
X116429281Y-56780719D01*
X116429281Y-56780719D01*
G37*
X116429281Y-56780719D02*
X116495334Y-56834928D01*
X116536967Y-56857181D01*
X116510214Y-56889780D01*
X116483564Y-56939639D01*
X116467153Y-56993738D01*
X116461612Y-57050000D01*
X116461612Y-57750000D01*
X116467153Y-57806262D01*
X116483564Y-57860361D01*
X116510214Y-57910220D01*
X116546079Y-57953921D01*
X116589780Y-57989786D01*
X116639639Y-58016436D01*
X116693738Y-58032847D01*
X116750000Y-58038388D01*
X117045250Y-58038388D01*
X117052743Y-58044537D01*
X117176365Y-58110614D01*
X117310502Y-58151304D01*
X117415042Y-58161600D01*
X123180591Y-58161600D01*
X123189639Y-58166436D01*
X123243738Y-58182847D01*
X123300000Y-58188388D01*
X124350000Y-58188388D01*
X124406262Y-58182847D01*
X124460361Y-58166436D01*
X124469409Y-58161600D01*
X125234958Y-58161600D01*
X125339498Y-58151304D01*
X125473635Y-58110614D01*
X125597257Y-58044537D01*
X125704605Y-57956438D01*
X125811953Y-58044537D01*
X125935575Y-58110614D01*
X126069712Y-58151304D01*
X126174252Y-58161600D01*
X128149958Y-58161600D01*
X128254498Y-58151304D01*
X128388635Y-58110614D01*
X128512257Y-58044537D01*
X128620612Y-57955612D01*
X128621899Y-57954043D01*
X128646307Y-57978451D01*
X128668598Y-58005612D01*
X128776953Y-58094537D01*
X128900575Y-58160614D01*
X129034712Y-58201304D01*
X129139252Y-58211600D01*
X129174210Y-58215043D01*
X129209168Y-58211600D01*
X131049958Y-58211600D01*
X131154498Y-58201304D01*
X131288635Y-58160614D01*
X131412257Y-58094537D01*
X131519605Y-58006438D01*
X131626953Y-58094537D01*
X131750575Y-58160614D01*
X131884712Y-58201304D01*
X131989252Y-58211600D01*
X133099365Y-58211600D01*
X137267254Y-61124101D01*
X137285155Y-61134547D01*
X137308556Y-61143046D01*
X137333166Y-61146816D01*
X143688000Y-61489292D01*
X143688000Y-70984740D01*
X143635339Y-71521810D01*
X143483796Y-72023747D01*
X143237646Y-72486690D01*
X142906263Y-72893004D01*
X142502275Y-73227213D01*
X142041062Y-73476588D01*
X141540197Y-73631633D01*
X141004048Y-73687984D01*
X140999487Y-73688000D01*
X82015260Y-73688000D01*
X81478190Y-73635339D01*
X80976253Y-73483796D01*
X80513310Y-73237646D01*
X80106996Y-72906263D01*
X79772787Y-72502275D01*
X79523412Y-72041062D01*
X79368367Y-71540197D01*
X79312016Y-71004048D01*
X79312000Y-70999487D01*
X79312000Y-65695000D01*
X97611612Y-65695000D01*
X97611612Y-66695000D01*
X97617153Y-66751262D01*
X97633564Y-66805361D01*
X97660214Y-66855220D01*
X97696079Y-66898921D01*
X97739780Y-66934786D01*
X97789639Y-66961436D01*
X97843738Y-66977847D01*
X97900000Y-66983388D01*
X98950000Y-66983388D01*
X99006262Y-66977847D01*
X99060361Y-66961436D01*
X99110220Y-66934786D01*
X99144564Y-66906600D01*
X99629274Y-66906600D01*
X99714999Y-66915043D01*
X99854497Y-66901304D01*
X99988635Y-66860613D01*
X100112256Y-66794536D01*
X100219603Y-66706438D01*
X100326952Y-66794537D01*
X100450574Y-66860614D01*
X100584711Y-66901304D01*
X100689251Y-66911600D01*
X100724209Y-66915043D01*
X100759167Y-66911600D01*
X101355436Y-66911600D01*
X101389780Y-66939786D01*
X101439639Y-66966436D01*
X101493738Y-66982847D01*
X101550000Y-66988388D01*
X102600000Y-66988388D01*
X102656262Y-66982847D01*
X102710361Y-66966436D01*
X102760220Y-66939786D01*
X102803921Y-66903921D01*
X102839786Y-66860220D01*
X102866436Y-66810361D01*
X102882847Y-66756262D01*
X102888388Y-66700000D01*
X102888388Y-65700000D01*
X102882847Y-65643738D01*
X102866436Y-65589639D01*
X102839786Y-65539780D01*
X102803921Y-65496079D01*
X102760220Y-65460214D01*
X102710361Y-65433564D01*
X102656262Y-65417153D01*
X102600000Y-65411612D01*
X101550000Y-65411612D01*
X101493738Y-65417153D01*
X101439639Y-65433564D01*
X101411600Y-65448551D01*
X101411600Y-65150042D01*
X101401304Y-65045502D01*
X101360614Y-64911365D01*
X101294537Y-64787743D01*
X101205611Y-64679388D01*
X101097256Y-64590463D01*
X100973634Y-64524386D01*
X100839497Y-64483696D01*
X100700000Y-64469957D01*
X100560502Y-64483696D01*
X100426365Y-64524386D01*
X100302743Y-64590463D01*
X100194388Y-64679389D01*
X100105463Y-64787744D01*
X100039386Y-64911366D01*
X99998696Y-65045503D01*
X99988400Y-65150043D01*
X99988400Y-65536933D01*
X99983635Y-65534386D01*
X99849498Y-65493696D01*
X99744958Y-65483400D01*
X99710000Y-65479957D01*
X99675042Y-65483400D01*
X99144564Y-65483400D01*
X99110220Y-65455214D01*
X99060361Y-65428564D01*
X99006262Y-65412153D01*
X98950000Y-65406612D01*
X97900000Y-65406612D01*
X97843738Y-65412153D01*
X97789639Y-65428564D01*
X97739780Y-65455214D01*
X97696079Y-65491079D01*
X97660214Y-65534780D01*
X97633564Y-65584639D01*
X97617153Y-65638738D01*
X97611612Y-65695000D01*
X79312000Y-65695000D01*
X79312000Y-61055937D01*
X85687788Y-61166981D01*
X85704497Y-61166170D01*
X85728833Y-61160917D01*
X85751677Y-61151018D01*
X85772150Y-61136852D01*
X85789467Y-61118965D01*
X85802961Y-61098042D01*
X85812114Y-61074890D01*
X85816574Y-61050396D01*
X85816170Y-61025503D01*
X85810917Y-61001167D01*
X85803745Y-60984617D01*
X86437051Y-60500000D01*
X114719957Y-60500000D01*
X114733696Y-60639498D01*
X114774386Y-60773635D01*
X114840463Y-60897257D01*
X114929388Y-61005612D01*
X115037743Y-61094537D01*
X115161365Y-61160614D01*
X115295502Y-61201304D01*
X115400042Y-61211600D01*
X116380042Y-61211600D01*
X116415000Y-61215043D01*
X116449958Y-61211600D01*
X116554498Y-61201304D01*
X116688635Y-61160614D01*
X116812257Y-61094537D01*
X116920612Y-61005612D01*
X117009537Y-60897257D01*
X117075614Y-60773635D01*
X117116304Y-60639498D01*
X117130043Y-60500000D01*
X117126600Y-60465042D01*
X117126600Y-60374754D01*
X117389755Y-60111600D01*
X117434958Y-60111600D01*
X117539498Y-60101304D01*
X117673635Y-60060614D01*
X117715217Y-60038388D01*
X117750000Y-60038388D01*
X117806262Y-60032847D01*
X117860361Y-60016436D01*
X117910220Y-59989786D01*
X117953921Y-59953921D01*
X117989786Y-59910220D01*
X118016436Y-59860361D01*
X118032847Y-59806262D01*
X118038388Y-59750000D01*
X118038388Y-59715217D01*
X118060614Y-59673635D01*
X118101304Y-59539498D01*
X118115043Y-59400000D01*
X118101304Y-59260502D01*
X118060614Y-59126365D01*
X118038388Y-59084783D01*
X118038388Y-59050000D01*
X118032847Y-58993738D01*
X118016436Y-58939639D01*
X117989786Y-58889780D01*
X117953921Y-58846079D01*
X117910220Y-58810214D01*
X117860361Y-58783564D01*
X117806262Y-58767153D01*
X117750000Y-58761612D01*
X117715217Y-58761612D01*
X117673635Y-58739386D01*
X117539498Y-58698696D01*
X117434958Y-58688400D01*
X117129957Y-58688400D01*
X117094999Y-58684957D01*
X116955501Y-58698696D01*
X116914811Y-58711039D01*
X116821365Y-58739386D01*
X116697743Y-58805463D01*
X116589388Y-58894388D01*
X116567104Y-58921541D01*
X116297500Y-59191146D01*
X116136425Y-59030071D01*
X116132847Y-58993738D01*
X116116436Y-58939639D01*
X116089786Y-58889780D01*
X116053921Y-58846079D01*
X116010220Y-58810214D01*
X115960361Y-58783564D01*
X115906262Y-58767153D01*
X115850000Y-58761612D01*
X115815215Y-58761612D01*
X115773635Y-58739387D01*
X115639498Y-58698696D01*
X115500000Y-58684957D01*
X115360502Y-58698696D01*
X115226365Y-58739387D01*
X115184785Y-58761612D01*
X115150000Y-58761612D01*
X115093738Y-58767153D01*
X115039639Y-58783564D01*
X114989780Y-58810214D01*
X114946079Y-58846079D01*
X114910214Y-58889780D01*
X114883564Y-58939639D01*
X114867153Y-58993738D01*
X114861612Y-59050000D01*
X114861612Y-59084785D01*
X114839387Y-59126365D01*
X114798696Y-59260502D01*
X114784957Y-59400000D01*
X114798696Y-59539498D01*
X114839387Y-59673635D01*
X114861612Y-59715215D01*
X114861612Y-59750000D01*
X114867153Y-59806262D01*
X114883564Y-59860361D01*
X114910214Y-59910220D01*
X114946079Y-59953921D01*
X114962388Y-59967306D01*
X114929388Y-59994388D01*
X114840463Y-60102743D01*
X114774386Y-60226365D01*
X114733696Y-60360502D01*
X114719957Y-60500000D01*
X86437051Y-60500000D01*
X89538656Y-58126598D01*
X89668851Y-58104221D01*
X89730362Y-58086437D01*
X89730787Y-58086210D01*
X90812908Y-58086210D01*
X90942473Y-58125513D01*
X91047013Y-58135809D01*
X91081971Y-58139252D01*
X91116929Y-58135809D01*
X92340832Y-58135809D01*
X92375790Y-58139252D01*
X92410748Y-58135809D01*
X92515288Y-58125513D01*
X92649425Y-58084823D01*
X92773047Y-58018746D01*
X92881402Y-57929821D01*
X92892463Y-57916343D01*
X92987743Y-57994537D01*
X93111365Y-58060614D01*
X93245502Y-58101304D01*
X93350042Y-58111600D01*
X95249958Y-58111600D01*
X95354498Y-58101304D01*
X95488635Y-58060614D01*
X95612257Y-57994537D01*
X95719605Y-57906438D01*
X95826953Y-57994537D01*
X95950575Y-58060614D01*
X96084712Y-58101304D01*
X96189252Y-58111600D01*
X99149958Y-58111600D01*
X99254498Y-58101304D01*
X99388635Y-58060614D01*
X99512257Y-57994537D01*
X99619605Y-57906438D01*
X99726953Y-57994537D01*
X99850575Y-58060614D01*
X99984712Y-58101304D01*
X100089252Y-58111600D01*
X102049958Y-58111600D01*
X102154498Y-58101304D01*
X102288635Y-58060614D01*
X102412257Y-57994537D01*
X102519605Y-57906438D01*
X102626953Y-57994537D01*
X102750575Y-58060614D01*
X102884712Y-58101304D01*
X102989252Y-58111600D01*
X104949958Y-58111600D01*
X105054498Y-58101304D01*
X105188635Y-58060614D01*
X105312257Y-57994537D01*
X105420612Y-57905612D01*
X105436308Y-57886486D01*
X105495334Y-57934928D01*
X105570693Y-57975208D01*
X105627188Y-57992346D01*
X105661365Y-58010614D01*
X105795502Y-58051304D01*
X105900042Y-58061600D01*
X106530591Y-58061600D01*
X106539639Y-58066436D01*
X106593738Y-58082847D01*
X106650000Y-58088388D01*
X106767924Y-58088388D01*
X106810502Y-58101304D01*
X106915042Y-58111600D01*
X115359958Y-58111600D01*
X115464498Y-58101304D01*
X115598635Y-58060614D01*
X115640217Y-58038388D01*
X115850000Y-58038388D01*
X115906262Y-58032847D01*
X115960361Y-58016436D01*
X116010220Y-57989786D01*
X116053921Y-57953921D01*
X116089786Y-57910220D01*
X116116436Y-57860361D01*
X116132847Y-57806262D01*
X116138388Y-57750000D01*
X116138388Y-57308913D01*
X116175212Y-57272089D01*
X116189974Y-57259974D01*
X116203607Y-57243363D01*
X116238335Y-57201046D01*
X116274271Y-57133815D01*
X116296400Y-57060865D01*
X116303872Y-56985000D01*
X116302000Y-56965993D01*
X116302000Y-56836353D01*
X116304666Y-56834928D01*
X116370719Y-56780719D01*
X116400000Y-56745040D01*
X116429281Y-56780719D01*
G36*
X141521810Y-42364661D02*
G01*
X142023747Y-42516204D01*
X142486689Y-42762354D01*
X142893004Y-43093737D01*
X143227211Y-43497724D01*
X143476588Y-43958938D01*
X143631633Y-44459805D01*
X143687984Y-44995951D01*
X143688001Y-45000800D01*
X143688001Y-53950787D01*
X137506462Y-54123049D01*
X137487790Y-54124957D01*
X137463822Y-54131693D01*
X137441629Y-54142975D01*
X133307871Y-56783764D01*
X133296149Y-56785779D01*
X133287084Y-56788400D01*
X132352000Y-56788400D01*
X132352000Y-52103011D01*
X132353774Y-52085000D01*
X132352000Y-52066988D01*
X132352000Y-52066978D01*
X132346689Y-52013056D01*
X132325704Y-51943876D01*
X132291625Y-51880120D01*
X132245763Y-51824237D01*
X132231766Y-51812750D01*
X131213388Y-50794373D01*
X131213388Y-49325000D01*
X131203043Y-49219966D01*
X131172406Y-49118968D01*
X131122653Y-49025888D01*
X131055698Y-48944302D01*
X130974112Y-48877347D01*
X130881032Y-48827594D01*
X130780034Y-48796957D01*
X130675000Y-48786612D01*
X129925000Y-48786612D01*
X129819966Y-48796957D01*
X129718968Y-48827594D01*
X129625888Y-48877347D01*
X129544302Y-48944302D01*
X129477347Y-49025888D01*
X129427594Y-49118968D01*
X129396957Y-49219966D01*
X129386612Y-49325000D01*
X129386612Y-51475000D01*
X129396957Y-51580034D01*
X129427594Y-51681032D01*
X129477347Y-51774112D01*
X129544302Y-51855698D01*
X129625888Y-51922653D01*
X129718968Y-51972406D01*
X129819966Y-52003043D01*
X129925000Y-52013388D01*
X130675000Y-52013388D01*
X130780034Y-52003043D01*
X130881032Y-51972406D01*
X130974112Y-51922653D01*
X131055698Y-51855698D01*
X131122653Y-51774112D01*
X131133954Y-51752970D01*
X131618001Y-52237017D01*
X131618000Y-56912810D01*
X131519605Y-56993562D01*
X131412257Y-56905463D01*
X131288635Y-56839386D01*
X131154498Y-56798696D01*
X131049958Y-56788400D01*
X129394591Y-56788400D01*
X129263708Y-56748696D01*
X129124210Y-56734957D01*
X128984712Y-56748696D01*
X128850575Y-56789387D01*
X128726954Y-56855464D01*
X128619606Y-56943562D01*
X128512257Y-56855463D01*
X128388635Y-56789386D01*
X128254498Y-56748696D01*
X128149958Y-56738400D01*
X126174252Y-56738400D01*
X126069712Y-56748696D01*
X125935575Y-56789386D01*
X125811953Y-56855463D01*
X125704605Y-56943562D01*
X125597257Y-56855463D01*
X125473635Y-56789386D01*
X125339498Y-56748696D01*
X125234958Y-56738400D01*
X124588653Y-56738400D01*
X124553921Y-56696079D01*
X124510220Y-56660214D01*
X124460361Y-56633564D01*
X124406262Y-56617153D01*
X124350000Y-56611612D01*
X123300000Y-56611612D01*
X123243738Y-56617153D01*
X123189639Y-56633564D01*
X123139780Y-56660214D01*
X123096079Y-56696079D01*
X123061347Y-56738400D01*
X120384014Y-56738400D01*
X120410614Y-56688635D01*
X120451304Y-56554498D01*
X120465043Y-56415000D01*
X120451304Y-56275502D01*
X120430676Y-56207500D01*
X120451304Y-56139498D01*
X120461600Y-56034958D01*
X120461600Y-55250042D01*
X120451304Y-55145502D01*
X120410614Y-55011365D01*
X120344537Y-54887743D01*
X120255611Y-54779388D01*
X120236486Y-54763692D01*
X120284928Y-54704666D01*
X120325208Y-54629307D01*
X120350013Y-54547538D01*
X120358388Y-54462500D01*
X120358388Y-54167500D01*
X120350013Y-54082462D01*
X120325208Y-54000693D01*
X120284928Y-53925334D01*
X120230719Y-53859281D01*
X120164666Y-53805072D01*
X120155177Y-53800000D01*
X120164666Y-53794928D01*
X120230719Y-53740719D01*
X120266599Y-53697000D01*
X122282273Y-53697000D01*
X122302500Y-53698992D01*
X122322727Y-53697000D01*
X122322735Y-53697000D01*
X122383266Y-53691038D01*
X122460928Y-53667480D01*
X122532502Y-53629223D01*
X122551797Y-53613388D01*
X123206250Y-53613388D01*
X123310065Y-53603163D01*
X123409890Y-53572881D01*
X123501890Y-53523707D01*
X123582528Y-53457528D01*
X123648707Y-53376890D01*
X123697881Y-53284890D01*
X123728163Y-53185065D01*
X123738388Y-53081250D01*
X123738388Y-52593750D01*
X123728163Y-52489935D01*
X123702192Y-52404323D01*
X125339516Y-50767000D01*
X126130895Y-50767000D01*
X126156365Y-50780614D01*
X126290502Y-50821304D01*
X126395042Y-50831600D01*
X126586612Y-50831600D01*
X126586612Y-51475000D01*
X126596957Y-51580034D01*
X126627594Y-51681032D01*
X126677347Y-51774112D01*
X126744302Y-51855698D01*
X126825888Y-51922653D01*
X126918968Y-51972406D01*
X127019966Y-52003043D01*
X127125000Y-52013388D01*
X127875000Y-52013388D01*
X127980034Y-52003043D01*
X128081032Y-51972406D01*
X128174112Y-51922653D01*
X128255698Y-51855698D01*
X128322653Y-51774112D01*
X128372406Y-51681032D01*
X128403043Y-51580034D01*
X128413388Y-51475000D01*
X128413388Y-49325000D01*
X128403043Y-49219966D01*
X128372406Y-49118968D01*
X128322653Y-49025888D01*
X128255698Y-48944302D01*
X128174112Y-48877347D01*
X128081032Y-48827594D01*
X127980034Y-48796957D01*
X127875000Y-48786612D01*
X127125000Y-48786612D01*
X127019966Y-48796957D01*
X126918968Y-48827594D01*
X126825888Y-48877347D01*
X126744302Y-48944302D01*
X126677347Y-49025888D01*
X126627594Y-49118968D01*
X126596957Y-49219966D01*
X126586612Y-49325000D01*
X126586612Y-49408400D01*
X126395042Y-49408400D01*
X126290502Y-49418696D01*
X126156365Y-49459386D01*
X126032743Y-49525463D01*
X125924388Y-49614388D01*
X125835463Y-49722743D01*
X125769386Y-49846365D01*
X125728696Y-49980502D01*
X125723526Y-50033000D01*
X125205511Y-50033000D01*
X125187500Y-50031226D01*
X125169488Y-50033000D01*
X125169478Y-50033000D01*
X125115556Y-50038311D01*
X125067360Y-50052931D01*
X125046375Y-50059296D01*
X124982619Y-50093375D01*
X124950177Y-50120000D01*
X124926737Y-50139237D01*
X124915250Y-50153234D01*
X123714988Y-51353496D01*
X123728163Y-51310065D01*
X123738388Y-51206250D01*
X123738388Y-50718750D01*
X123728163Y-50614935D01*
X123697881Y-50515110D01*
X123648707Y-50423110D01*
X123582528Y-50342472D01*
X123501890Y-50276293D01*
X123409890Y-50227119D01*
X123310065Y-50196837D01*
X123206250Y-50186612D01*
X122556767Y-50186612D01*
X122408139Y-50037984D01*
X122395237Y-50022263D01*
X122332502Y-49970777D01*
X122260928Y-49932520D01*
X122183266Y-49908962D01*
X122122735Y-49903000D01*
X122122727Y-49903000D01*
X122102500Y-49901008D01*
X122082273Y-49903000D01*
X120266599Y-49903000D01*
X120230719Y-49859281D01*
X120164666Y-49805072D01*
X120089307Y-49764792D01*
X120007538Y-49739987D01*
X119922500Y-49731612D01*
X119577500Y-49731612D01*
X119492462Y-49739987D01*
X119410693Y-49764792D01*
X119335334Y-49805072D01*
X119269281Y-49859281D01*
X119215072Y-49925334D01*
X119174792Y-50000693D01*
X119149987Y-50082462D01*
X119141612Y-50167500D01*
X119141612Y-50462500D01*
X119149987Y-50547538D01*
X119174792Y-50629307D01*
X119215072Y-50704666D01*
X119269281Y-50770719D01*
X119335334Y-50824928D01*
X119410693Y-50865208D01*
X119492462Y-50890013D01*
X119577500Y-50898388D01*
X119922500Y-50898388D01*
X120007538Y-50890013D01*
X120089307Y-50865208D01*
X120164666Y-50824928D01*
X120230719Y-50770719D01*
X120266599Y-50727000D01*
X121761612Y-50727000D01*
X121761612Y-51206250D01*
X121771837Y-51310065D01*
X121802119Y-51409890D01*
X121851293Y-51501890D01*
X121917472Y-51582528D01*
X121998110Y-51648707D01*
X122090110Y-51697881D01*
X122189935Y-51728163D01*
X122293750Y-51738388D01*
X123206250Y-51738388D01*
X123310065Y-51728163D01*
X123353497Y-51714988D01*
X123006873Y-52061612D01*
X122293750Y-52061612D01*
X122189935Y-52071837D01*
X122090110Y-52102119D01*
X121998110Y-52151293D01*
X121917472Y-52217472D01*
X121851293Y-52298110D01*
X121802119Y-52390110D01*
X121771837Y-52489935D01*
X121761612Y-52593750D01*
X121761612Y-52873000D01*
X120266599Y-52873000D01*
X120230719Y-52829281D01*
X120164666Y-52775072D01*
X120089307Y-52734792D01*
X120007538Y-52709987D01*
X119922500Y-52701612D01*
X119577500Y-52701612D01*
X119492462Y-52709987D01*
X119410693Y-52734792D01*
X119335334Y-52775072D01*
X119269281Y-52829281D01*
X119233401Y-52873000D01*
X119166599Y-52873000D01*
X119130719Y-52829281D01*
X119064666Y-52775072D01*
X118989307Y-52734792D01*
X118907538Y-52709987D01*
X118822500Y-52701612D01*
X118477500Y-52701612D01*
X118392462Y-52709987D01*
X118310693Y-52734792D01*
X118235334Y-52775072D01*
X118169281Y-52829281D01*
X118115072Y-52895334D01*
X118074792Y-52970693D01*
X118049987Y-53052462D01*
X118041612Y-53137500D01*
X118041612Y-53432500D01*
X118049987Y-53517538D01*
X118074792Y-53599307D01*
X118115072Y-53674666D01*
X118169281Y-53740719D01*
X118235334Y-53794928D01*
X118238000Y-53796353D01*
X118238001Y-53803647D01*
X118235334Y-53805072D01*
X118169281Y-53859281D01*
X118115072Y-53925334D01*
X118074792Y-54000693D01*
X118049987Y-54082462D01*
X118041612Y-54167500D01*
X118041612Y-54462500D01*
X118049987Y-54547538D01*
X118074792Y-54629307D01*
X118115072Y-54704666D01*
X118169281Y-54770719D01*
X118235334Y-54824928D01*
X118310693Y-54865208D01*
X118392462Y-54890013D01*
X118477500Y-54898388D01*
X118822500Y-54898388D01*
X118907538Y-54890013D01*
X118989307Y-54865208D01*
X119064666Y-54824928D01*
X119130719Y-54770719D01*
X119166599Y-54727000D01*
X119233401Y-54727000D01*
X119263514Y-54763692D01*
X119244388Y-54779389D01*
X119155463Y-54887744D01*
X119089386Y-55011366D01*
X119048696Y-55145503D01*
X119038400Y-55250043D01*
X119038400Y-55703400D01*
X118665042Y-55703400D01*
X118560502Y-55713696D01*
X118426365Y-55754386D01*
X118302743Y-55820463D01*
X118194388Y-55909388D01*
X118191424Y-55913000D01*
X117409716Y-55913000D01*
X117394928Y-55885334D01*
X117345413Y-55825000D01*
X117394928Y-55764666D01*
X117435208Y-55689307D01*
X117460013Y-55607538D01*
X117468388Y-55522500D01*
X117468388Y-55177500D01*
X117460013Y-55092462D01*
X117435208Y-55010693D01*
X117394928Y-54935334D01*
X117340719Y-54869281D01*
X117274666Y-54815072D01*
X117199307Y-54774792D01*
X117117538Y-54749987D01*
X117032500Y-54741612D01*
X116737500Y-54741612D01*
X116652462Y-54749987D01*
X116570693Y-54774792D01*
X116495334Y-54815072D01*
X116429281Y-54869281D01*
X116400000Y-54904960D01*
X116370719Y-54869281D01*
X116304666Y-54815072D01*
X116229307Y-54774792D01*
X116147538Y-54749987D01*
X116062500Y-54741612D01*
X115767500Y-54741612D01*
X115682462Y-54749987D01*
X115600693Y-54774792D01*
X115525334Y-54815072D01*
X115459281Y-54869281D01*
X115405072Y-54935334D01*
X115364792Y-55010693D01*
X115339987Y-55092462D01*
X115331612Y-55177500D01*
X115331612Y-55522500D01*
X115339987Y-55607538D01*
X115364792Y-55689307D01*
X115405072Y-55764666D01*
X115454587Y-55825000D01*
X115405072Y-55885334D01*
X115364792Y-55960693D01*
X115339987Y-56042462D01*
X115331612Y-56127500D01*
X115331612Y-56472500D01*
X115339987Y-56557538D01*
X115364792Y-56639307D01*
X115392759Y-56691631D01*
X115359958Y-56688400D01*
X107965774Y-56688400D01*
X107939786Y-56639780D01*
X107903921Y-56596079D01*
X107860220Y-56560214D01*
X107810361Y-56533564D01*
X107756262Y-56517153D01*
X107700000Y-56511612D01*
X106650000Y-56511612D01*
X106593738Y-56517153D01*
X106539639Y-56533564D01*
X106489780Y-56560214D01*
X106446079Y-56596079D01*
X106411347Y-56638400D01*
X105900042Y-56638400D01*
X105795502Y-56648696D01*
X105661365Y-56689386D01*
X105537743Y-56755463D01*
X105429388Y-56844388D01*
X105401336Y-56878569D01*
X105312257Y-56805463D01*
X105188635Y-56739386D01*
X105054498Y-56698696D01*
X104949958Y-56688400D01*
X102989252Y-56688400D01*
X102884712Y-56698696D01*
X102750575Y-56739386D01*
X102626953Y-56805463D01*
X102519605Y-56893562D01*
X102412257Y-56805463D01*
X102288635Y-56739386D01*
X102154498Y-56698696D01*
X102049958Y-56688400D01*
X100089252Y-56688400D01*
X99984712Y-56698696D01*
X99850575Y-56739386D01*
X99726953Y-56805463D01*
X99619605Y-56893562D01*
X99512257Y-56805463D01*
X99388635Y-56739386D01*
X99254498Y-56698696D01*
X99149958Y-56688400D01*
X96189252Y-56688400D01*
X96084712Y-56698696D01*
X95950575Y-56739386D01*
X95826953Y-56805463D01*
X95719605Y-56893562D01*
X95612257Y-56805463D01*
X95488635Y-56739386D01*
X95354498Y-56698696D01*
X95249958Y-56688400D01*
X93350042Y-56688400D01*
X93245502Y-56698696D01*
X93111365Y-56739386D01*
X92987743Y-56805463D01*
X92880395Y-56893562D01*
X92773047Y-56805463D01*
X92649425Y-56739386D01*
X92515288Y-56698696D01*
X92375790Y-56684957D01*
X92236293Y-56698696D01*
X92190428Y-56712609D01*
X91301435Y-56712609D01*
X91171870Y-56673306D01*
X91067330Y-56663010D01*
X91032372Y-56659567D01*
X90997414Y-56663010D01*
X89594559Y-56663010D01*
X89467667Y-56641200D01*
X85799921Y-53671300D01*
X85768601Y-53652667D01*
X85744776Y-53645440D01*
X85720000Y-53643000D01*
X79312000Y-53643000D01*
X79312000Y-45015260D01*
X79364661Y-44478190D01*
X79516204Y-43976253D01*
X79762354Y-43513311D01*
X80093737Y-43106996D01*
X80497724Y-42772789D01*
X80958938Y-42523412D01*
X81459805Y-42368367D01*
X81995951Y-42312016D01*
X82000513Y-42312000D01*
X140984740Y-42312000D01*
X141521810Y-42364661D01*
X141521810Y-42364661D01*
G37*
X141521810Y-42364661D02*
X142023747Y-42516204D01*
X142486689Y-42762354D01*
X142893004Y-43093737D01*
X143227211Y-43497724D01*
X143476588Y-43958938D01*
X143631633Y-44459805D01*
X143687984Y-44995951D01*
X143688001Y-45000800D01*
X143688001Y-53950787D01*
X137506462Y-54123049D01*
X137487790Y-54124957D01*
X137463822Y-54131693D01*
X137441629Y-54142975D01*
X133307871Y-56783764D01*
X133296149Y-56785779D01*
X133287084Y-56788400D01*
X132352000Y-56788400D01*
X132352000Y-52103011D01*
X132353774Y-52085000D01*
X132352000Y-52066988D01*
X132352000Y-52066978D01*
X132346689Y-52013056D01*
X132325704Y-51943876D01*
X132291625Y-51880120D01*
X132245763Y-51824237D01*
X132231766Y-51812750D01*
X131213388Y-50794373D01*
X131213388Y-49325000D01*
X131203043Y-49219966D01*
X131172406Y-49118968D01*
X131122653Y-49025888D01*
X131055698Y-48944302D01*
X130974112Y-48877347D01*
X130881032Y-48827594D01*
X130780034Y-48796957D01*
X130675000Y-48786612D01*
X129925000Y-48786612D01*
X129819966Y-48796957D01*
X129718968Y-48827594D01*
X129625888Y-48877347D01*
X129544302Y-48944302D01*
X129477347Y-49025888D01*
X129427594Y-49118968D01*
X129396957Y-49219966D01*
X129386612Y-49325000D01*
X129386612Y-51475000D01*
X129396957Y-51580034D01*
X129427594Y-51681032D01*
X129477347Y-51774112D01*
X129544302Y-51855698D01*
X129625888Y-51922653D01*
X129718968Y-51972406D01*
X129819966Y-52003043D01*
X129925000Y-52013388D01*
X130675000Y-52013388D01*
X130780034Y-52003043D01*
X130881032Y-51972406D01*
X130974112Y-51922653D01*
X131055698Y-51855698D01*
X131122653Y-51774112D01*
X131133954Y-51752970D01*
X131618001Y-52237017D01*
X131618000Y-56912810D01*
X131519605Y-56993562D01*
X131412257Y-56905463D01*
X131288635Y-56839386D01*
X131154498Y-56798696D01*
X131049958Y-56788400D01*
X129394591Y-56788400D01*
X129263708Y-56748696D01*
X129124210Y-56734957D01*
X128984712Y-56748696D01*
X128850575Y-56789387D01*
X128726954Y-56855464D01*
X128619606Y-56943562D01*
X128512257Y-56855463D01*
X128388635Y-56789386D01*
X128254498Y-56748696D01*
X128149958Y-56738400D01*
X126174252Y-56738400D01*
X126069712Y-56748696D01*
X125935575Y-56789386D01*
X125811953Y-56855463D01*
X125704605Y-56943562D01*
X125597257Y-56855463D01*
X125473635Y-56789386D01*
X125339498Y-56748696D01*
X125234958Y-56738400D01*
X124588653Y-56738400D01*
X124553921Y-56696079D01*
X124510220Y-56660214D01*
X124460361Y-56633564D01*
X124406262Y-56617153D01*
X124350000Y-56611612D01*
X123300000Y-56611612D01*
X123243738Y-56617153D01*
X123189639Y-56633564D01*
X123139780Y-56660214D01*
X123096079Y-56696079D01*
X123061347Y-56738400D01*
X120384014Y-56738400D01*
X120410614Y-56688635D01*
X120451304Y-56554498D01*
X120465043Y-56415000D01*
X120451304Y-56275502D01*
X120430676Y-56207500D01*
X120451304Y-56139498D01*
X120461600Y-56034958D01*
X120461600Y-55250042D01*
X120451304Y-55145502D01*
X120410614Y-55011365D01*
X120344537Y-54887743D01*
X120255611Y-54779388D01*
X120236486Y-54763692D01*
X120284928Y-54704666D01*
X120325208Y-54629307D01*
X120350013Y-54547538D01*
X120358388Y-54462500D01*
X120358388Y-54167500D01*
X120350013Y-54082462D01*
X120325208Y-54000693D01*
X120284928Y-53925334D01*
X120230719Y-53859281D01*
X120164666Y-53805072D01*
X120155177Y-53800000D01*
X120164666Y-53794928D01*
X120230719Y-53740719D01*
X120266599Y-53697000D01*
X122282273Y-53697000D01*
X122302500Y-53698992D01*
X122322727Y-53697000D01*
X122322735Y-53697000D01*
X122383266Y-53691038D01*
X122460928Y-53667480D01*
X122532502Y-53629223D01*
X122551797Y-53613388D01*
X123206250Y-53613388D01*
X123310065Y-53603163D01*
X123409890Y-53572881D01*
X123501890Y-53523707D01*
X123582528Y-53457528D01*
X123648707Y-53376890D01*
X123697881Y-53284890D01*
X123728163Y-53185065D01*
X123738388Y-53081250D01*
X123738388Y-52593750D01*
X123728163Y-52489935D01*
X123702192Y-52404323D01*
X125339516Y-50767000D01*
X126130895Y-50767000D01*
X126156365Y-50780614D01*
X126290502Y-50821304D01*
X126395042Y-50831600D01*
X126586612Y-50831600D01*
X126586612Y-51475000D01*
X126596957Y-51580034D01*
X126627594Y-51681032D01*
X126677347Y-51774112D01*
X126744302Y-51855698D01*
X126825888Y-51922653D01*
X126918968Y-51972406D01*
X127019966Y-52003043D01*
X127125000Y-52013388D01*
X127875000Y-52013388D01*
X127980034Y-52003043D01*
X128081032Y-51972406D01*
X128174112Y-51922653D01*
X128255698Y-51855698D01*
X128322653Y-51774112D01*
X128372406Y-51681032D01*
X128403043Y-51580034D01*
X128413388Y-51475000D01*
X128413388Y-49325000D01*
X128403043Y-49219966D01*
X128372406Y-49118968D01*
X128322653Y-49025888D01*
X128255698Y-48944302D01*
X128174112Y-48877347D01*
X128081032Y-48827594D01*
X127980034Y-48796957D01*
X127875000Y-48786612D01*
X127125000Y-48786612D01*
X127019966Y-48796957D01*
X126918968Y-48827594D01*
X126825888Y-48877347D01*
X126744302Y-48944302D01*
X126677347Y-49025888D01*
X126627594Y-49118968D01*
X126596957Y-49219966D01*
X126586612Y-49325000D01*
X126586612Y-49408400D01*
X126395042Y-49408400D01*
X126290502Y-49418696D01*
X126156365Y-49459386D01*
X126032743Y-49525463D01*
X125924388Y-49614388D01*
X125835463Y-49722743D01*
X125769386Y-49846365D01*
X125728696Y-49980502D01*
X125723526Y-50033000D01*
X125205511Y-50033000D01*
X125187500Y-50031226D01*
X125169488Y-50033000D01*
X125169478Y-50033000D01*
X125115556Y-50038311D01*
X125067360Y-50052931D01*
X125046375Y-50059296D01*
X124982619Y-50093375D01*
X124950177Y-50120000D01*
X124926737Y-50139237D01*
X124915250Y-50153234D01*
X123714988Y-51353496D01*
X123728163Y-51310065D01*
X123738388Y-51206250D01*
X123738388Y-50718750D01*
X123728163Y-50614935D01*
X123697881Y-50515110D01*
X123648707Y-50423110D01*
X123582528Y-50342472D01*
X123501890Y-50276293D01*
X123409890Y-50227119D01*
X123310065Y-50196837D01*
X123206250Y-50186612D01*
X122556767Y-50186612D01*
X122408139Y-50037984D01*
X122395237Y-50022263D01*
X122332502Y-49970777D01*
X122260928Y-49932520D01*
X122183266Y-49908962D01*
X122122735Y-49903000D01*
X122122727Y-49903000D01*
X122102500Y-49901008D01*
X122082273Y-49903000D01*
X120266599Y-49903000D01*
X120230719Y-49859281D01*
X120164666Y-49805072D01*
X120089307Y-49764792D01*
X120007538Y-49739987D01*
X119922500Y-49731612D01*
X119577500Y-49731612D01*
X119492462Y-49739987D01*
X119410693Y-49764792D01*
X119335334Y-49805072D01*
X119269281Y-49859281D01*
X119215072Y-49925334D01*
X119174792Y-50000693D01*
X119149987Y-50082462D01*
X119141612Y-50167500D01*
X119141612Y-50462500D01*
X119149987Y-50547538D01*
X119174792Y-50629307D01*
X119215072Y-50704666D01*
X119269281Y-50770719D01*
X119335334Y-50824928D01*
X119410693Y-50865208D01*
X119492462Y-50890013D01*
X119577500Y-50898388D01*
X119922500Y-50898388D01*
X120007538Y-50890013D01*
X120089307Y-50865208D01*
X120164666Y-50824928D01*
X120230719Y-50770719D01*
X120266599Y-50727000D01*
X121761612Y-50727000D01*
X121761612Y-51206250D01*
X121771837Y-51310065D01*
X121802119Y-51409890D01*
X121851293Y-51501890D01*
X121917472Y-51582528D01*
X121998110Y-51648707D01*
X122090110Y-51697881D01*
X122189935Y-51728163D01*
X122293750Y-51738388D01*
X123206250Y-51738388D01*
X123310065Y-51728163D01*
X123353497Y-51714988D01*
X123006873Y-52061612D01*
X122293750Y-52061612D01*
X122189935Y-52071837D01*
X122090110Y-52102119D01*
X121998110Y-52151293D01*
X121917472Y-52217472D01*
X121851293Y-52298110D01*
X121802119Y-52390110D01*
X121771837Y-52489935D01*
X121761612Y-52593750D01*
X121761612Y-52873000D01*
X120266599Y-52873000D01*
X120230719Y-52829281D01*
X120164666Y-52775072D01*
X120089307Y-52734792D01*
X120007538Y-52709987D01*
X119922500Y-52701612D01*
X119577500Y-52701612D01*
X119492462Y-52709987D01*
X119410693Y-52734792D01*
X119335334Y-52775072D01*
X119269281Y-52829281D01*
X119233401Y-52873000D01*
X119166599Y-52873000D01*
X119130719Y-52829281D01*
X119064666Y-52775072D01*
X118989307Y-52734792D01*
X118907538Y-52709987D01*
X118822500Y-52701612D01*
X118477500Y-52701612D01*
X118392462Y-52709987D01*
X118310693Y-52734792D01*
X118235334Y-52775072D01*
X118169281Y-52829281D01*
X118115072Y-52895334D01*
X118074792Y-52970693D01*
X118049987Y-53052462D01*
X118041612Y-53137500D01*
X118041612Y-53432500D01*
X118049987Y-53517538D01*
X118074792Y-53599307D01*
X118115072Y-53674666D01*
X118169281Y-53740719D01*
X118235334Y-53794928D01*
X118238000Y-53796353D01*
X118238001Y-53803647D01*
X118235334Y-53805072D01*
X118169281Y-53859281D01*
X118115072Y-53925334D01*
X118074792Y-54000693D01*
X118049987Y-54082462D01*
X118041612Y-54167500D01*
X118041612Y-54462500D01*
X118049987Y-54547538D01*
X118074792Y-54629307D01*
X118115072Y-54704666D01*
X118169281Y-54770719D01*
X118235334Y-54824928D01*
X118310693Y-54865208D01*
X118392462Y-54890013D01*
X118477500Y-54898388D01*
X118822500Y-54898388D01*
X118907538Y-54890013D01*
X118989307Y-54865208D01*
X119064666Y-54824928D01*
X119130719Y-54770719D01*
X119166599Y-54727000D01*
X119233401Y-54727000D01*
X119263514Y-54763692D01*
X119244388Y-54779389D01*
X119155463Y-54887744D01*
X119089386Y-55011366D01*
X119048696Y-55145503D01*
X119038400Y-55250043D01*
X119038400Y-55703400D01*
X118665042Y-55703400D01*
X118560502Y-55713696D01*
X118426365Y-55754386D01*
X118302743Y-55820463D01*
X118194388Y-55909388D01*
X118191424Y-55913000D01*
X117409716Y-55913000D01*
X117394928Y-55885334D01*
X117345413Y-55825000D01*
X117394928Y-55764666D01*
X117435208Y-55689307D01*
X117460013Y-55607538D01*
X117468388Y-55522500D01*
X117468388Y-55177500D01*
X117460013Y-55092462D01*
X117435208Y-55010693D01*
X117394928Y-54935334D01*
X117340719Y-54869281D01*
X117274666Y-54815072D01*
X117199307Y-54774792D01*
X117117538Y-54749987D01*
X117032500Y-54741612D01*
X116737500Y-54741612D01*
X116652462Y-54749987D01*
X116570693Y-54774792D01*
X116495334Y-54815072D01*
X116429281Y-54869281D01*
X116400000Y-54904960D01*
X116370719Y-54869281D01*
X116304666Y-54815072D01*
X116229307Y-54774792D01*
X116147538Y-54749987D01*
X116062500Y-54741612D01*
X115767500Y-54741612D01*
X115682462Y-54749987D01*
X115600693Y-54774792D01*
X115525334Y-54815072D01*
X115459281Y-54869281D01*
X115405072Y-54935334D01*
X115364792Y-55010693D01*
X115339987Y-55092462D01*
X115331612Y-55177500D01*
X115331612Y-55522500D01*
X115339987Y-55607538D01*
X115364792Y-55689307D01*
X115405072Y-55764666D01*
X115454587Y-55825000D01*
X115405072Y-55885334D01*
X115364792Y-55960693D01*
X115339987Y-56042462D01*
X115331612Y-56127500D01*
X115331612Y-56472500D01*
X115339987Y-56557538D01*
X115364792Y-56639307D01*
X115392759Y-56691631D01*
X115359958Y-56688400D01*
X107965774Y-56688400D01*
X107939786Y-56639780D01*
X107903921Y-56596079D01*
X107860220Y-56560214D01*
X107810361Y-56533564D01*
X107756262Y-56517153D01*
X107700000Y-56511612D01*
X106650000Y-56511612D01*
X106593738Y-56517153D01*
X106539639Y-56533564D01*
X106489780Y-56560214D01*
X106446079Y-56596079D01*
X106411347Y-56638400D01*
X105900042Y-56638400D01*
X105795502Y-56648696D01*
X105661365Y-56689386D01*
X105537743Y-56755463D01*
X105429388Y-56844388D01*
X105401336Y-56878569D01*
X105312257Y-56805463D01*
X105188635Y-56739386D01*
X105054498Y-56698696D01*
X104949958Y-56688400D01*
X102989252Y-56688400D01*
X102884712Y-56698696D01*
X102750575Y-56739386D01*
X102626953Y-56805463D01*
X102519605Y-56893562D01*
X102412257Y-56805463D01*
X102288635Y-56739386D01*
X102154498Y-56698696D01*
X102049958Y-56688400D01*
X100089252Y-56688400D01*
X99984712Y-56698696D01*
X99850575Y-56739386D01*
X99726953Y-56805463D01*
X99619605Y-56893562D01*
X99512257Y-56805463D01*
X99388635Y-56739386D01*
X99254498Y-56698696D01*
X99149958Y-56688400D01*
X96189252Y-56688400D01*
X96084712Y-56698696D01*
X95950575Y-56739386D01*
X95826953Y-56805463D01*
X95719605Y-56893562D01*
X95612257Y-56805463D01*
X95488635Y-56739386D01*
X95354498Y-56698696D01*
X95249958Y-56688400D01*
X93350042Y-56688400D01*
X93245502Y-56698696D01*
X93111365Y-56739386D01*
X92987743Y-56805463D01*
X92880395Y-56893562D01*
X92773047Y-56805463D01*
X92649425Y-56739386D01*
X92515288Y-56698696D01*
X92375790Y-56684957D01*
X92236293Y-56698696D01*
X92190428Y-56712609D01*
X91301435Y-56712609D01*
X91171870Y-56673306D01*
X91067330Y-56663010D01*
X91032372Y-56659567D01*
X90997414Y-56663010D01*
X89594559Y-56663010D01*
X89467667Y-56641200D01*
X85799921Y-53671300D01*
X85768601Y-53652667D01*
X85744776Y-53645440D01*
X85720000Y-53643000D01*
X79312000Y-53643000D01*
X79312000Y-45015260D01*
X79364661Y-44478190D01*
X79516204Y-43976253D01*
X79762354Y-43513311D01*
X80093737Y-43106996D01*
X80497724Y-42772789D01*
X80958938Y-42523412D01*
X81459805Y-42368367D01*
X81995951Y-42312016D01*
X82000513Y-42312000D01*
X140984740Y-42312000D01*
X141521810Y-42364661D01*
M02*
