G04 #@! TF.GenerationSoftware,KiCad,Pcbnew,5.1.2-f72e74a~84~ubuntu18.04.1*
G04 #@! TF.CreationDate,2019-08-01T22:55:58-04:00*
G04 #@! TF.ProjectId,iss-lna,6973732d-6c6e-4612-9e6b-696361645f70,rev?*
G04 #@! TF.SameCoordinates,Original*
G04 #@! TF.FileFunction,Soldermask,Top*
G04 #@! TF.FilePolarity,Negative*
%FSLAX46Y46*%
G04 Gerber Fmt 4.6, Leading zero omitted, Abs format (unit mm)*
G04 Created by KiCad (PCBNEW 5.1.2-f72e74a~84~ubuntu18.04.1) date 2019-08-01 22:55:58*
%MOMM*%
%LPD*%
G04 APERTURE LIST*
%ADD10C,0.100000*%
G04 APERTURE END LIST*
D10*
G36*
X140817021Y-67306640D02*
G01*
X141326769Y-67517785D01*
X141326771Y-67517786D01*
X141785534Y-67824321D01*
X142175679Y-68214466D01*
X142482214Y-68673229D01*
X142482215Y-68673231D01*
X142693360Y-69182979D01*
X142801000Y-69724124D01*
X142801000Y-70275876D01*
X142693360Y-70817021D01*
X142482215Y-71326769D01*
X142482214Y-71326771D01*
X142175679Y-71785534D01*
X141785534Y-72175679D01*
X141326771Y-72482214D01*
X141326770Y-72482215D01*
X141326769Y-72482215D01*
X140817021Y-72693360D01*
X140275876Y-72801000D01*
X139724124Y-72801000D01*
X139182979Y-72693360D01*
X138673231Y-72482215D01*
X138673230Y-72482215D01*
X138673229Y-72482214D01*
X138214466Y-72175679D01*
X137824321Y-71785534D01*
X137517786Y-71326771D01*
X137517785Y-71326769D01*
X137306640Y-70817021D01*
X137199000Y-70275876D01*
X137199000Y-69724124D01*
X137306640Y-69182979D01*
X137517785Y-68673231D01*
X137517786Y-68673229D01*
X137824321Y-68214466D01*
X138214466Y-67824321D01*
X138673229Y-67517786D01*
X138673231Y-67517785D01*
X139182979Y-67306640D01*
X139724124Y-67199000D01*
X140275876Y-67199000D01*
X140817021Y-67306640D01*
X140817021Y-67306640D01*
G37*
G36*
X83817021Y-67306640D02*
G01*
X84326769Y-67517785D01*
X84326771Y-67517786D01*
X84785534Y-67824321D01*
X85175679Y-68214466D01*
X85482214Y-68673229D01*
X85482215Y-68673231D01*
X85693360Y-69182979D01*
X85801000Y-69724124D01*
X85801000Y-70275876D01*
X85693360Y-70817021D01*
X85482215Y-71326769D01*
X85482214Y-71326771D01*
X85175679Y-71785534D01*
X84785534Y-72175679D01*
X84326771Y-72482214D01*
X84326770Y-72482215D01*
X84326769Y-72482215D01*
X83817021Y-72693360D01*
X83275876Y-72801000D01*
X82724124Y-72801000D01*
X82182979Y-72693360D01*
X81673231Y-72482215D01*
X81673230Y-72482215D01*
X81673229Y-72482214D01*
X81214466Y-72175679D01*
X80824321Y-71785534D01*
X80517786Y-71326771D01*
X80517785Y-71326769D01*
X80306640Y-70817021D01*
X80199000Y-70275876D01*
X80199000Y-69724124D01*
X80306640Y-69182979D01*
X80517785Y-68673231D01*
X80517786Y-68673229D01*
X80824321Y-68214466D01*
X81214466Y-67824321D01*
X81673229Y-67517786D01*
X81673231Y-67517785D01*
X82182979Y-67306640D01*
X82724124Y-67199000D01*
X83275876Y-67199000D01*
X83817021Y-67306640D01*
X83817021Y-67306640D01*
G37*
G36*
X104651000Y-68271000D02*
G01*
X102549000Y-68271000D01*
X102549000Y-67119000D01*
X104651000Y-67119000D01*
X104651000Y-68271000D01*
X104651000Y-68271000D01*
G37*
G36*
X97951000Y-68266000D02*
G01*
X95849000Y-68266000D01*
X95849000Y-67114000D01*
X97951000Y-67114000D01*
X97951000Y-68266000D01*
X97951000Y-68266000D01*
G37*
G36*
X102651000Y-66751000D02*
G01*
X101499000Y-66751000D01*
X101499000Y-65649000D01*
X102651000Y-65649000D01*
X102651000Y-66751000D01*
X102651000Y-66751000D01*
G37*
G36*
X99001000Y-66746000D02*
G01*
X97849000Y-66746000D01*
X97849000Y-65644000D01*
X99001000Y-65644000D01*
X99001000Y-66746000D01*
X99001000Y-66746000D01*
G37*
G36*
X99971938Y-65831716D02*
G01*
X99992557Y-65837971D01*
X100011553Y-65848124D01*
X100028208Y-65861792D01*
X100041876Y-65878447D01*
X100052029Y-65897443D01*
X100058284Y-65918062D01*
X100061000Y-65945640D01*
X100061000Y-66454360D01*
X100058284Y-66481938D01*
X100052029Y-66502557D01*
X100041876Y-66521553D01*
X100028208Y-66538208D01*
X100011553Y-66551876D01*
X99992557Y-66562029D01*
X99971938Y-66568284D01*
X99944360Y-66571000D01*
X99485640Y-66571000D01*
X99458062Y-66568284D01*
X99437443Y-66562029D01*
X99418447Y-66551876D01*
X99401792Y-66538208D01*
X99388124Y-66521553D01*
X99377971Y-66502557D01*
X99371716Y-66481938D01*
X99369000Y-66454360D01*
X99369000Y-65945640D01*
X99371716Y-65918062D01*
X99377971Y-65897443D01*
X99388124Y-65878447D01*
X99401792Y-65861792D01*
X99418447Y-65848124D01*
X99437443Y-65837971D01*
X99458062Y-65831716D01*
X99485640Y-65829000D01*
X99944360Y-65829000D01*
X99971938Y-65831716D01*
X99971938Y-65831716D01*
G37*
G36*
X100941938Y-65831716D02*
G01*
X100962557Y-65837971D01*
X100981553Y-65848124D01*
X100998208Y-65861792D01*
X101011876Y-65878447D01*
X101022029Y-65897443D01*
X101028284Y-65918062D01*
X101031000Y-65945640D01*
X101031000Y-66454360D01*
X101028284Y-66481938D01*
X101022029Y-66502557D01*
X101011876Y-66521553D01*
X100998208Y-66538208D01*
X100981553Y-66551876D01*
X100962557Y-66562029D01*
X100941938Y-66568284D01*
X100914360Y-66571000D01*
X100455640Y-66571000D01*
X100428062Y-66568284D01*
X100407443Y-66562029D01*
X100388447Y-66551876D01*
X100371792Y-66538208D01*
X100358124Y-66521553D01*
X100347971Y-66502557D01*
X100341716Y-66481938D01*
X100339000Y-66454360D01*
X100339000Y-65945640D01*
X100341716Y-65918062D01*
X100347971Y-65897443D01*
X100358124Y-65878447D01*
X100371792Y-65861792D01*
X100388447Y-65848124D01*
X100407443Y-65837971D01*
X100428062Y-65831716D01*
X100455640Y-65829000D01*
X100914360Y-65829000D01*
X100941938Y-65831716D01*
X100941938Y-65831716D01*
G37*
G36*
X100981938Y-64841716D02*
G01*
X101002557Y-64847971D01*
X101021553Y-64858124D01*
X101038208Y-64871792D01*
X101051876Y-64888447D01*
X101062029Y-64907443D01*
X101068284Y-64928062D01*
X101071000Y-64955640D01*
X101071000Y-65414360D01*
X101068284Y-65441938D01*
X101062029Y-65462557D01*
X101051876Y-65481553D01*
X101038208Y-65498208D01*
X101021553Y-65511876D01*
X101002557Y-65522029D01*
X100981938Y-65528284D01*
X100954360Y-65531000D01*
X100445640Y-65531000D01*
X100418062Y-65528284D01*
X100397443Y-65522029D01*
X100378447Y-65511876D01*
X100361792Y-65498208D01*
X100348124Y-65481553D01*
X100337971Y-65462557D01*
X100331716Y-65441938D01*
X100329000Y-65414360D01*
X100329000Y-64955640D01*
X100331716Y-64928062D01*
X100337971Y-64907443D01*
X100348124Y-64888447D01*
X100361792Y-64871792D01*
X100378447Y-64858124D01*
X100397443Y-64847971D01*
X100418062Y-64841716D01*
X100445640Y-64839000D01*
X100954360Y-64839000D01*
X100981938Y-64841716D01*
X100981938Y-64841716D01*
G37*
G36*
X104651000Y-65281000D02*
G01*
X102549000Y-65281000D01*
X102549000Y-64129000D01*
X104651000Y-64129000D01*
X104651000Y-65281000D01*
X104651000Y-65281000D01*
G37*
G36*
X97951000Y-65276000D02*
G01*
X95849000Y-65276000D01*
X95849000Y-64124000D01*
X97951000Y-64124000D01*
X97951000Y-65276000D01*
X97951000Y-65276000D01*
G37*
G36*
X121587797Y-64360567D02*
G01*
X121642575Y-64383257D01*
X121642577Y-64383258D01*
X121691876Y-64416198D01*
X121733802Y-64458124D01*
X121756809Y-64492557D01*
X121766743Y-64507425D01*
X121789433Y-64562203D01*
X121801000Y-64620353D01*
X121801000Y-64679647D01*
X121789433Y-64737797D01*
X121766743Y-64792575D01*
X121766742Y-64792577D01*
X121733802Y-64841876D01*
X121691876Y-64883802D01*
X121642577Y-64916742D01*
X121642576Y-64916743D01*
X121642575Y-64916743D01*
X121587797Y-64939433D01*
X121529647Y-64951000D01*
X121470353Y-64951000D01*
X121412203Y-64939433D01*
X121357425Y-64916743D01*
X121357424Y-64916743D01*
X121357423Y-64916742D01*
X121308124Y-64883802D01*
X121266198Y-64841876D01*
X121233258Y-64792577D01*
X121233257Y-64792575D01*
X121210567Y-64737797D01*
X121199000Y-64679647D01*
X121199000Y-64620353D01*
X121210567Y-64562203D01*
X121233257Y-64507425D01*
X121243191Y-64492557D01*
X121266198Y-64458124D01*
X121308124Y-64416198D01*
X121357423Y-64383258D01*
X121357425Y-64383257D01*
X121412203Y-64360567D01*
X121470353Y-64349000D01*
X121529647Y-64349000D01*
X121587797Y-64360567D01*
X121587797Y-64360567D01*
G37*
G36*
X100981938Y-63871716D02*
G01*
X101002557Y-63877971D01*
X101021553Y-63888124D01*
X101038208Y-63901792D01*
X101051876Y-63918447D01*
X101062029Y-63937443D01*
X101068284Y-63958062D01*
X101071000Y-63985640D01*
X101071000Y-64444360D01*
X101068284Y-64471938D01*
X101062029Y-64492557D01*
X101051876Y-64511553D01*
X101038208Y-64528208D01*
X101021553Y-64541876D01*
X101002557Y-64552029D01*
X100981938Y-64558284D01*
X100954360Y-64561000D01*
X100445640Y-64561000D01*
X100418062Y-64558284D01*
X100397443Y-64552029D01*
X100378447Y-64541876D01*
X100361792Y-64528208D01*
X100348124Y-64511553D01*
X100337971Y-64492557D01*
X100331716Y-64471938D01*
X100329000Y-64444360D01*
X100329000Y-63985640D01*
X100331716Y-63958062D01*
X100337971Y-63937443D01*
X100348124Y-63918447D01*
X100361792Y-63901792D01*
X100378447Y-63888124D01*
X100397443Y-63877971D01*
X100418062Y-63871716D01*
X100445640Y-63869000D01*
X100954360Y-63869000D01*
X100981938Y-63871716D01*
X100981938Y-63871716D01*
G37*
G36*
X143766000Y-63139000D02*
G01*
X138834000Y-63139000D01*
X138834000Y-60624000D01*
X143766000Y-60624000D01*
X143766000Y-63139000D01*
X143766000Y-63139000D01*
G37*
G36*
X84131000Y-63029000D02*
G01*
X79199000Y-63029000D01*
X79199000Y-60514000D01*
X84131000Y-60514000D01*
X84131000Y-63029000D01*
X84131000Y-63029000D01*
G37*
G36*
X138151645Y-61368405D02*
G01*
X138248753Y-61408629D01*
X138336149Y-61467025D01*
X138410475Y-61541351D01*
X138468871Y-61628747D01*
X138509095Y-61725855D01*
X138529600Y-61828944D01*
X138529600Y-61934056D01*
X138509095Y-62037145D01*
X138468871Y-62134253D01*
X138410475Y-62221649D01*
X138336149Y-62295975D01*
X138248753Y-62354371D01*
X138151645Y-62394595D01*
X138048556Y-62415100D01*
X137943444Y-62415100D01*
X137840355Y-62394595D01*
X137743247Y-62354371D01*
X137655851Y-62295975D01*
X137581525Y-62221649D01*
X137523129Y-62134253D01*
X137482905Y-62037145D01*
X137462400Y-61934056D01*
X137462400Y-61828944D01*
X137482905Y-61725855D01*
X137523129Y-61628747D01*
X137581525Y-61541351D01*
X137655851Y-61467025D01*
X137743247Y-61408629D01*
X137840355Y-61368405D01*
X137943444Y-61347900D01*
X138048556Y-61347900D01*
X138151645Y-61368405D01*
X138151645Y-61368405D01*
G37*
G36*
X85124645Y-61258405D02*
G01*
X85221753Y-61298629D01*
X85309149Y-61357025D01*
X85383475Y-61431351D01*
X85441871Y-61518747D01*
X85482095Y-61615855D01*
X85502600Y-61718944D01*
X85502600Y-61824056D01*
X85482095Y-61927145D01*
X85441871Y-62024253D01*
X85383475Y-62111649D01*
X85309149Y-62185975D01*
X85221753Y-62244371D01*
X85124645Y-62284595D01*
X85021556Y-62305100D01*
X84916444Y-62305100D01*
X84813355Y-62284595D01*
X84716247Y-62244371D01*
X84628851Y-62185975D01*
X84554525Y-62111649D01*
X84496129Y-62024253D01*
X84455905Y-61927145D01*
X84435400Y-61824056D01*
X84435400Y-61718944D01*
X84455905Y-61615855D01*
X84496129Y-61518747D01*
X84554525Y-61431351D01*
X84628851Y-61357025D01*
X84716247Y-61298629D01*
X84813355Y-61258405D01*
X84916444Y-61237900D01*
X85021556Y-61237900D01*
X85124645Y-61258405D01*
X85124645Y-61258405D01*
G37*
G36*
X114721938Y-60131716D02*
G01*
X114742557Y-60137971D01*
X114761553Y-60148124D01*
X114778208Y-60161792D01*
X114791876Y-60178447D01*
X114802029Y-60197443D01*
X114808284Y-60218062D01*
X114811000Y-60245640D01*
X114811000Y-60754360D01*
X114808284Y-60781938D01*
X114802029Y-60802557D01*
X114791876Y-60821553D01*
X114778208Y-60838208D01*
X114761553Y-60851876D01*
X114742557Y-60862029D01*
X114721938Y-60868284D01*
X114694360Y-60871000D01*
X114235640Y-60871000D01*
X114208062Y-60868284D01*
X114187443Y-60862029D01*
X114168447Y-60851876D01*
X114151792Y-60838208D01*
X114138124Y-60821553D01*
X114127971Y-60802557D01*
X114121716Y-60781938D01*
X114119000Y-60754360D01*
X114119000Y-60245640D01*
X114121716Y-60218062D01*
X114127971Y-60197443D01*
X114138124Y-60178447D01*
X114151792Y-60161792D01*
X114168447Y-60148124D01*
X114187443Y-60137971D01*
X114208062Y-60131716D01*
X114235640Y-60129000D01*
X114694360Y-60129000D01*
X114721938Y-60131716D01*
X114721938Y-60131716D01*
G37*
G36*
X115691938Y-60131716D02*
G01*
X115712557Y-60137971D01*
X115731553Y-60148124D01*
X115748208Y-60161792D01*
X115761876Y-60178447D01*
X115772029Y-60197443D01*
X115778284Y-60218062D01*
X115781000Y-60245640D01*
X115781000Y-60754360D01*
X115778284Y-60781938D01*
X115772029Y-60802557D01*
X115761876Y-60821553D01*
X115748208Y-60838208D01*
X115731553Y-60851876D01*
X115712557Y-60862029D01*
X115691938Y-60868284D01*
X115664360Y-60871000D01*
X115205640Y-60871000D01*
X115178062Y-60868284D01*
X115157443Y-60862029D01*
X115138447Y-60851876D01*
X115121792Y-60838208D01*
X115108124Y-60821553D01*
X115097971Y-60802557D01*
X115091716Y-60781938D01*
X115089000Y-60754360D01*
X115089000Y-60245640D01*
X115091716Y-60218062D01*
X115097971Y-60197443D01*
X115108124Y-60178447D01*
X115121792Y-60161792D01*
X115138447Y-60148124D01*
X115157443Y-60137971D01*
X115178062Y-60131716D01*
X115205640Y-60129000D01*
X115664360Y-60129000D01*
X115691938Y-60131716D01*
X115691938Y-60131716D01*
G37*
G36*
X117641938Y-60131716D02*
G01*
X117662557Y-60137971D01*
X117681553Y-60148124D01*
X117698208Y-60161792D01*
X117711876Y-60178447D01*
X117722029Y-60197443D01*
X117728284Y-60218062D01*
X117731000Y-60245640D01*
X117731000Y-60754360D01*
X117728284Y-60781938D01*
X117722029Y-60802557D01*
X117711876Y-60821553D01*
X117698208Y-60838208D01*
X117681553Y-60851876D01*
X117662557Y-60862029D01*
X117641938Y-60868284D01*
X117614360Y-60871000D01*
X117155640Y-60871000D01*
X117128062Y-60868284D01*
X117107443Y-60862029D01*
X117088447Y-60851876D01*
X117071792Y-60838208D01*
X117058124Y-60821553D01*
X117047971Y-60802557D01*
X117041716Y-60781938D01*
X117039000Y-60754360D01*
X117039000Y-60245640D01*
X117041716Y-60218062D01*
X117047971Y-60197443D01*
X117058124Y-60178447D01*
X117071792Y-60161792D01*
X117088447Y-60148124D01*
X117107443Y-60137971D01*
X117128062Y-60131716D01*
X117155640Y-60129000D01*
X117614360Y-60129000D01*
X117641938Y-60131716D01*
X117641938Y-60131716D01*
G37*
G36*
X116671938Y-60131716D02*
G01*
X116692557Y-60137971D01*
X116711553Y-60148124D01*
X116728208Y-60161792D01*
X116741876Y-60178447D01*
X116752029Y-60197443D01*
X116758284Y-60218062D01*
X116761000Y-60245640D01*
X116761000Y-60754360D01*
X116758284Y-60781938D01*
X116752029Y-60802557D01*
X116741876Y-60821553D01*
X116728208Y-60838208D01*
X116711553Y-60851876D01*
X116692557Y-60862029D01*
X116671938Y-60868284D01*
X116644360Y-60871000D01*
X116185640Y-60871000D01*
X116158062Y-60868284D01*
X116137443Y-60862029D01*
X116118447Y-60851876D01*
X116101792Y-60838208D01*
X116088124Y-60821553D01*
X116077971Y-60802557D01*
X116071716Y-60781938D01*
X116069000Y-60754360D01*
X116069000Y-60245640D01*
X116071716Y-60218062D01*
X116077971Y-60197443D01*
X116088124Y-60178447D01*
X116101792Y-60161792D01*
X116118447Y-60148124D01*
X116137443Y-60137971D01*
X116158062Y-60131716D01*
X116185640Y-60129000D01*
X116644360Y-60129000D01*
X116671938Y-60131716D01*
X116671938Y-60131716D01*
G37*
G36*
X117800000Y-59800000D02*
G01*
X117000000Y-59800000D01*
X117000000Y-59000000D01*
X117800000Y-59000000D01*
X117800000Y-59800000D01*
X117800000Y-59800000D01*
G37*
G36*
X115900000Y-59800000D02*
G01*
X115100000Y-59800000D01*
X115100000Y-59000000D01*
X115900000Y-59000000D01*
X115900000Y-59800000D01*
X115900000Y-59800000D01*
G37*
G36*
X123351000Y-59471000D02*
G01*
X121249000Y-59471000D01*
X121249000Y-58319000D01*
X123351000Y-58319000D01*
X123351000Y-59471000D01*
X123351000Y-59471000D01*
G37*
G36*
X109751000Y-59371000D02*
G01*
X107649000Y-59371000D01*
X107649000Y-58219000D01*
X109751000Y-58219000D01*
X109751000Y-59371000D01*
X109751000Y-59371000D01*
G37*
G36*
X138668900Y-56068776D02*
G01*
X138668900Y-56068775D01*
X138704419Y-56104294D01*
X138723355Y-56119834D01*
X138744966Y-56131385D01*
X138768415Y-56138498D01*
X138772864Y-56138936D01*
X138773302Y-56143385D01*
X138780415Y-56166834D01*
X138791966Y-56188445D01*
X138807506Y-56207381D01*
X138869519Y-56269394D01*
X138888455Y-56284934D01*
X138910066Y-56296485D01*
X138933515Y-56303598D01*
X138957901Y-56306000D01*
X143766000Y-56306000D01*
X143766000Y-58694000D01*
X138957901Y-58694000D01*
X138933515Y-58696402D01*
X138910066Y-58703515D01*
X138888455Y-58715066D01*
X138869519Y-58730606D01*
X138807506Y-58792619D01*
X138791966Y-58811555D01*
X138780415Y-58833166D01*
X138773302Y-58856615D01*
X138772864Y-58861064D01*
X138768415Y-58861502D01*
X138744966Y-58868615D01*
X138723355Y-58880166D01*
X138704419Y-58895706D01*
X138668900Y-58931225D01*
X138668900Y-58931224D01*
X138660427Y-58939697D01*
X138659385Y-58936264D01*
X138647834Y-58914653D01*
X138632289Y-58895711D01*
X138613347Y-58880166D01*
X138591736Y-58868615D01*
X138568287Y-58861502D01*
X138543901Y-58859100D01*
X138492943Y-58859100D01*
X138480692Y-58859702D01*
X138464179Y-58861328D01*
X138445670Y-58859749D01*
X138445640Y-58860102D01*
X138433903Y-58859100D01*
X138363836Y-58859100D01*
X138359347Y-58855416D01*
X138337736Y-58843865D01*
X138311075Y-58836156D01*
X133342259Y-57982140D01*
X133326633Y-57977843D01*
X133317654Y-57973342D01*
X133309718Y-57967169D01*
X133303150Y-57959578D01*
X133298183Y-57950843D01*
X133297110Y-57947612D01*
X133295016Y-57941308D01*
X133293753Y-57930000D01*
X133293753Y-57928458D01*
X133293148Y-57923043D01*
X133293148Y-57076140D01*
X133294737Y-57060001D01*
X133297652Y-57050392D01*
X133302390Y-57041528D01*
X133308763Y-57033763D01*
X133316528Y-57027390D01*
X133324661Y-57023043D01*
X133324662Y-57023043D01*
X133325389Y-57022654D01*
X133336319Y-57019494D01*
X133337843Y-57019232D01*
X133343073Y-57017720D01*
X138311075Y-56163844D01*
X138334702Y-56157346D01*
X138356607Y-56146363D01*
X138363630Y-56140900D01*
X138433903Y-56140900D01*
X138444017Y-56140037D01*
X138444042Y-56140380D01*
X138466343Y-56138770D01*
X138475664Y-56139935D01*
X138491164Y-56140900D01*
X138543901Y-56140900D01*
X138568287Y-56138498D01*
X138591736Y-56131385D01*
X138613347Y-56119834D01*
X138632289Y-56104289D01*
X138647834Y-56085347D01*
X138659385Y-56063736D01*
X138660427Y-56060303D01*
X138668900Y-56068776D01*
X138668900Y-56068776D01*
G37*
G36*
X84305615Y-55953736D02*
G01*
X84317166Y-55975347D01*
X84332711Y-55994289D01*
X84351653Y-56009834D01*
X84373264Y-56021385D01*
X84396713Y-56028498D01*
X84421099Y-56030900D01*
X84472057Y-56030900D01*
X84484308Y-56030298D01*
X84500821Y-56028672D01*
X84519330Y-56030251D01*
X84519360Y-56029898D01*
X84531097Y-56030900D01*
X84601164Y-56030900D01*
X84605653Y-56034584D01*
X84627264Y-56046135D01*
X84653925Y-56053844D01*
X89622741Y-56907860D01*
X89638367Y-56912157D01*
X89647346Y-56916658D01*
X89655282Y-56922831D01*
X89661850Y-56930422D01*
X89666817Y-56939157D01*
X89666817Y-56939158D01*
X89669984Y-56948692D01*
X89671247Y-56960000D01*
X89671247Y-56961542D01*
X89671852Y-56966957D01*
X89671852Y-57813860D01*
X89670263Y-57829999D01*
X89667348Y-57839608D01*
X89662610Y-57848472D01*
X89656237Y-57856237D01*
X89648472Y-57862610D01*
X89640339Y-57866957D01*
X89639611Y-57867346D01*
X89628681Y-57870506D01*
X89627157Y-57870768D01*
X89621927Y-57872280D01*
X84653925Y-58726156D01*
X84630298Y-58732654D01*
X84608393Y-58743637D01*
X84601370Y-58749100D01*
X84531097Y-58749100D01*
X84520983Y-58749963D01*
X84520958Y-58749620D01*
X84498657Y-58751230D01*
X84489336Y-58750065D01*
X84473836Y-58749100D01*
X84421099Y-58749100D01*
X84396713Y-58751502D01*
X84373264Y-58758615D01*
X84351653Y-58770166D01*
X84332711Y-58785711D01*
X84317166Y-58804653D01*
X84305615Y-58826264D01*
X84304573Y-58829697D01*
X84296100Y-58821224D01*
X84296100Y-58821225D01*
X84260581Y-58785706D01*
X84241645Y-58770166D01*
X84220034Y-58758615D01*
X84196585Y-58751502D01*
X84192136Y-58751064D01*
X84191698Y-58746615D01*
X84184585Y-58723166D01*
X84173034Y-58701555D01*
X84157494Y-58682619D01*
X84095481Y-58620606D01*
X84076545Y-58605066D01*
X84054934Y-58593515D01*
X84031485Y-58586402D01*
X84007099Y-58584000D01*
X79199000Y-58584000D01*
X79199000Y-56196000D01*
X84007099Y-56196000D01*
X84031485Y-56193598D01*
X84054934Y-56186485D01*
X84076545Y-56174934D01*
X84095481Y-56159394D01*
X84157494Y-56097381D01*
X84173034Y-56078445D01*
X84184585Y-56056834D01*
X84191698Y-56033385D01*
X84192136Y-56028936D01*
X84196585Y-56028498D01*
X84220034Y-56021385D01*
X84241645Y-56009834D01*
X84260581Y-55994294D01*
X84296100Y-55958775D01*
X84296100Y-55958776D01*
X84304573Y-55950303D01*
X84305615Y-55953736D01*
X84305615Y-55953736D01*
G37*
G36*
X112331938Y-58021716D02*
G01*
X112352557Y-58027971D01*
X112371553Y-58038124D01*
X112388208Y-58051792D01*
X112401876Y-58068447D01*
X112414762Y-58092555D01*
X112428376Y-58112929D01*
X112445703Y-58130256D01*
X112466078Y-58143869D01*
X112488717Y-58153246D01*
X112512750Y-58158026D01*
X112537254Y-58158026D01*
X112561287Y-58153245D01*
X112583926Y-58143867D01*
X112604300Y-58130253D01*
X112621627Y-58112926D01*
X112635238Y-58092555D01*
X112648124Y-58068447D01*
X112661792Y-58051792D01*
X112678447Y-58038124D01*
X112697443Y-58027971D01*
X112718062Y-58021716D01*
X112745640Y-58019000D01*
X113254360Y-58019000D01*
X113281938Y-58021716D01*
X113302557Y-58027971D01*
X113321553Y-58038124D01*
X113338208Y-58051792D01*
X113351876Y-58068447D01*
X113362029Y-58087443D01*
X113368284Y-58108062D01*
X113371000Y-58135640D01*
X113371000Y-58594360D01*
X113368284Y-58621938D01*
X113362029Y-58642557D01*
X113351876Y-58661553D01*
X113338208Y-58678208D01*
X113321553Y-58691876D01*
X113302557Y-58702029D01*
X113281938Y-58708284D01*
X113254360Y-58711000D01*
X112745640Y-58711000D01*
X112718062Y-58708284D01*
X112697443Y-58702029D01*
X112678447Y-58691876D01*
X112661792Y-58678208D01*
X112648124Y-58661553D01*
X112635238Y-58637445D01*
X112621624Y-58617071D01*
X112604297Y-58599744D01*
X112583922Y-58586131D01*
X112561283Y-58576754D01*
X112537250Y-58571974D01*
X112512746Y-58571974D01*
X112488713Y-58576755D01*
X112466074Y-58586133D01*
X112445700Y-58599747D01*
X112428373Y-58617074D01*
X112414762Y-58637445D01*
X112401876Y-58661553D01*
X112388208Y-58678208D01*
X112371553Y-58691876D01*
X112352557Y-58702029D01*
X112331938Y-58708284D01*
X112304360Y-58711000D01*
X111795640Y-58711000D01*
X111768062Y-58708284D01*
X111747443Y-58702029D01*
X111728447Y-58691876D01*
X111711792Y-58678208D01*
X111698124Y-58661553D01*
X111687971Y-58642557D01*
X111681716Y-58621938D01*
X111679000Y-58594360D01*
X111679000Y-58135640D01*
X111681716Y-58108062D01*
X111687971Y-58087443D01*
X111698124Y-58068447D01*
X111711792Y-58051792D01*
X111728447Y-58038124D01*
X111747443Y-58027971D01*
X111768062Y-58021716D01*
X111795640Y-58019000D01*
X112304360Y-58019000D01*
X112331938Y-58021716D01*
X112331938Y-58021716D01*
G37*
G36*
X124401000Y-57951000D02*
G01*
X123249000Y-57951000D01*
X123249000Y-56849000D01*
X124401000Y-56849000D01*
X124401000Y-57951000D01*
X124401000Y-57951000D01*
G37*
G36*
X129341938Y-57081716D02*
G01*
X129362557Y-57087971D01*
X129381553Y-57098124D01*
X129398208Y-57111792D01*
X129411876Y-57128447D01*
X129422029Y-57147443D01*
X129428284Y-57168062D01*
X129431000Y-57195640D01*
X129431000Y-57204214D01*
X129433402Y-57228600D01*
X129440515Y-57252049D01*
X129452066Y-57273660D01*
X129467611Y-57292602D01*
X129486553Y-57308147D01*
X129508164Y-57319698D01*
X129531613Y-57326811D01*
X129555999Y-57329213D01*
X129580385Y-57326811D01*
X129603834Y-57319698D01*
X129625445Y-57308147D01*
X129644387Y-57292602D01*
X129659932Y-57273660D01*
X129671483Y-57252049D01*
X129678596Y-57228600D01*
X129680396Y-57216466D01*
X129681716Y-57203062D01*
X129687971Y-57182443D01*
X129698124Y-57163447D01*
X129711792Y-57146792D01*
X129728447Y-57133124D01*
X129747443Y-57122971D01*
X129768062Y-57116716D01*
X129795640Y-57114000D01*
X130304360Y-57114000D01*
X130331938Y-57116716D01*
X130352557Y-57122971D01*
X130371553Y-57133124D01*
X130388208Y-57146792D01*
X130401876Y-57163447D01*
X130412029Y-57182443D01*
X130418284Y-57203062D01*
X130421342Y-57234110D01*
X130426123Y-57258143D01*
X130435500Y-57280782D01*
X130449114Y-57301156D01*
X130466441Y-57318483D01*
X130486815Y-57332097D01*
X130509454Y-57341474D01*
X130533488Y-57346254D01*
X130557992Y-57346254D01*
X130582025Y-57341473D01*
X130604664Y-57332096D01*
X130625038Y-57318482D01*
X130642365Y-57301155D01*
X130655979Y-57280781D01*
X130665356Y-57258142D01*
X130670136Y-57234107D01*
X130671716Y-57218062D01*
X130677971Y-57197443D01*
X130688124Y-57178447D01*
X130701792Y-57161792D01*
X130718447Y-57148124D01*
X130737443Y-57137971D01*
X130758062Y-57131716D01*
X130785640Y-57129000D01*
X131244360Y-57129000D01*
X131271938Y-57131716D01*
X131292557Y-57137971D01*
X131311553Y-57148124D01*
X131328208Y-57161792D01*
X131341876Y-57178447D01*
X131352029Y-57197443D01*
X131358284Y-57218062D01*
X131361000Y-57245640D01*
X131361000Y-57754360D01*
X131358284Y-57781938D01*
X131352029Y-57802557D01*
X131341876Y-57821553D01*
X131328208Y-57838208D01*
X131311553Y-57851876D01*
X131292557Y-57862029D01*
X131271938Y-57868284D01*
X131244360Y-57871000D01*
X130785640Y-57871000D01*
X130758062Y-57868284D01*
X130737443Y-57862029D01*
X130718447Y-57851876D01*
X130701792Y-57838208D01*
X130688124Y-57821553D01*
X130677971Y-57802557D01*
X130671716Y-57781938D01*
X130669000Y-57754360D01*
X130669000Y-57715786D01*
X130666598Y-57691400D01*
X130659485Y-57667951D01*
X130647934Y-57646340D01*
X130632389Y-57627398D01*
X130613447Y-57611853D01*
X130591836Y-57600302D01*
X130568387Y-57593189D01*
X130544001Y-57590787D01*
X130519615Y-57593189D01*
X130496166Y-57600302D01*
X130474555Y-57611853D01*
X130455613Y-57627398D01*
X130440068Y-57646340D01*
X130428517Y-57667951D01*
X130421404Y-57691400D01*
X130419604Y-57703534D01*
X130418284Y-57716938D01*
X130412029Y-57737557D01*
X130401876Y-57756553D01*
X130388208Y-57773208D01*
X130371553Y-57786876D01*
X130352557Y-57797029D01*
X130331938Y-57803284D01*
X130304360Y-57806000D01*
X129795640Y-57806000D01*
X129768062Y-57803284D01*
X129747443Y-57797029D01*
X129728447Y-57786876D01*
X129711792Y-57773208D01*
X129698124Y-57756553D01*
X129687971Y-57737557D01*
X129681716Y-57716938D01*
X129680136Y-57700893D01*
X129675356Y-57676859D01*
X129665979Y-57654220D01*
X129652366Y-57633846D01*
X129635039Y-57616519D01*
X129614665Y-57602905D01*
X129592026Y-57593527D01*
X129567993Y-57588746D01*
X129543489Y-57588746D01*
X129519455Y-57593526D01*
X129496816Y-57602903D01*
X129476442Y-57616516D01*
X129459115Y-57633843D01*
X129445501Y-57654217D01*
X129436123Y-57676856D01*
X129431342Y-57700890D01*
X129428284Y-57731938D01*
X129422029Y-57752557D01*
X129411876Y-57771553D01*
X129398208Y-57788208D01*
X129381553Y-57801876D01*
X129362557Y-57812029D01*
X129341938Y-57818284D01*
X129314360Y-57821000D01*
X128855640Y-57821000D01*
X128828062Y-57818284D01*
X128807443Y-57812029D01*
X128788447Y-57801876D01*
X128771792Y-57788208D01*
X128758124Y-57771553D01*
X128747971Y-57752557D01*
X128741716Y-57731938D01*
X128739000Y-57704360D01*
X128739000Y-57195640D01*
X128741716Y-57168062D01*
X128747971Y-57147443D01*
X128758124Y-57128447D01*
X128771792Y-57111792D01*
X128788447Y-57098124D01*
X128807443Y-57087971D01*
X128828062Y-57081716D01*
X128855640Y-57079000D01*
X129314360Y-57079000D01*
X129341938Y-57081716D01*
X129341938Y-57081716D01*
G37*
G36*
X132241938Y-57131716D02*
G01*
X132262557Y-57137971D01*
X132281553Y-57148124D01*
X132298208Y-57161792D01*
X132311876Y-57178447D01*
X132322029Y-57197443D01*
X132328284Y-57218062D01*
X132331000Y-57245640D01*
X132331000Y-57754360D01*
X132328284Y-57781938D01*
X132322029Y-57802557D01*
X132311876Y-57821553D01*
X132298208Y-57838208D01*
X132281553Y-57851876D01*
X132262557Y-57862029D01*
X132241938Y-57868284D01*
X132214360Y-57871000D01*
X131755640Y-57871000D01*
X131728062Y-57868284D01*
X131707443Y-57862029D01*
X131688447Y-57851876D01*
X131671792Y-57838208D01*
X131658124Y-57821553D01*
X131647971Y-57802557D01*
X131641716Y-57781938D01*
X131639000Y-57754360D01*
X131639000Y-57245640D01*
X131641716Y-57218062D01*
X131647971Y-57197443D01*
X131658124Y-57178447D01*
X131671792Y-57161792D01*
X131688447Y-57148124D01*
X131707443Y-57137971D01*
X131728062Y-57131716D01*
X131755640Y-57129000D01*
X132214360Y-57129000D01*
X132241938Y-57131716D01*
X132241938Y-57131716D01*
G37*
G36*
X107751000Y-57851000D02*
G01*
X106599000Y-57851000D01*
X106599000Y-56749000D01*
X107751000Y-56749000D01*
X107751000Y-57851000D01*
X107751000Y-57851000D01*
G37*
G36*
X125456938Y-57081716D02*
G01*
X125477557Y-57087971D01*
X125496553Y-57098124D01*
X125513208Y-57111792D01*
X125526876Y-57128447D01*
X125537029Y-57147443D01*
X125543284Y-57168062D01*
X125546000Y-57195640D01*
X125546000Y-57704360D01*
X125543284Y-57731938D01*
X125537029Y-57752557D01*
X125526876Y-57771553D01*
X125513208Y-57788208D01*
X125496553Y-57801876D01*
X125477557Y-57812029D01*
X125456938Y-57818284D01*
X125429360Y-57821000D01*
X124970640Y-57821000D01*
X124943062Y-57818284D01*
X124922443Y-57812029D01*
X124903447Y-57801876D01*
X124886792Y-57788208D01*
X124873124Y-57771553D01*
X124862971Y-57752557D01*
X124856716Y-57731938D01*
X124854000Y-57704360D01*
X124854000Y-57195640D01*
X124856716Y-57168062D01*
X124862971Y-57147443D01*
X124873124Y-57128447D01*
X124886792Y-57111792D01*
X124903447Y-57098124D01*
X124922443Y-57087971D01*
X124943062Y-57081716D01*
X124970640Y-57079000D01*
X125429360Y-57079000D01*
X125456938Y-57081716D01*
X125456938Y-57081716D01*
G37*
G36*
X128371938Y-57081716D02*
G01*
X128392557Y-57087971D01*
X128411553Y-57098124D01*
X128428208Y-57111792D01*
X128441876Y-57128447D01*
X128452029Y-57147443D01*
X128458284Y-57168062D01*
X128461000Y-57195640D01*
X128461000Y-57704360D01*
X128458284Y-57731938D01*
X128452029Y-57752557D01*
X128441876Y-57771553D01*
X128428208Y-57788208D01*
X128411553Y-57801876D01*
X128392557Y-57812029D01*
X128371938Y-57818284D01*
X128344360Y-57821000D01*
X127885640Y-57821000D01*
X127858062Y-57818284D01*
X127837443Y-57812029D01*
X127818447Y-57801876D01*
X127801792Y-57788208D01*
X127788124Y-57771553D01*
X127777971Y-57752557D01*
X127771716Y-57731938D01*
X127769000Y-57704360D01*
X127769000Y-57690786D01*
X127766598Y-57666400D01*
X127759485Y-57642951D01*
X127747934Y-57621340D01*
X127732389Y-57602398D01*
X127713447Y-57586853D01*
X127691836Y-57575302D01*
X127668387Y-57568189D01*
X127644001Y-57565787D01*
X127619615Y-57568189D01*
X127596166Y-57575302D01*
X127574555Y-57586853D01*
X127555613Y-57602398D01*
X127540068Y-57621340D01*
X127528517Y-57642951D01*
X127521404Y-57666400D01*
X127519604Y-57678534D01*
X127518284Y-57691938D01*
X127512029Y-57712557D01*
X127501876Y-57731553D01*
X127488208Y-57748208D01*
X127471553Y-57761876D01*
X127452557Y-57772029D01*
X127431938Y-57778284D01*
X127404360Y-57781000D01*
X126895640Y-57781000D01*
X126868062Y-57778284D01*
X126847443Y-57772029D01*
X126828447Y-57761876D01*
X126811792Y-57748208D01*
X126798124Y-57731553D01*
X126787971Y-57712557D01*
X126781716Y-57691938D01*
X126779000Y-57664360D01*
X126779000Y-57205640D01*
X126781716Y-57178062D01*
X126787971Y-57157443D01*
X126798124Y-57138447D01*
X126811792Y-57121792D01*
X126828447Y-57108124D01*
X126847443Y-57097971D01*
X126868062Y-57091716D01*
X126895640Y-57089000D01*
X127404360Y-57089000D01*
X127431938Y-57091716D01*
X127452557Y-57097971D01*
X127471553Y-57108124D01*
X127488208Y-57121792D01*
X127501876Y-57138447D01*
X127512029Y-57157443D01*
X127518284Y-57178062D01*
X127520111Y-57196611D01*
X127524892Y-57220644D01*
X127534269Y-57243282D01*
X127547883Y-57263657D01*
X127565211Y-57280983D01*
X127585585Y-57294597D01*
X127608224Y-57303974D01*
X127632257Y-57308754D01*
X127656762Y-57308754D01*
X127680795Y-57303973D01*
X127703433Y-57294596D01*
X127723808Y-57280982D01*
X127741134Y-57263654D01*
X127754748Y-57243280D01*
X127764125Y-57220641D01*
X127768905Y-57196607D01*
X127771716Y-57168062D01*
X127777971Y-57147443D01*
X127788124Y-57128447D01*
X127801792Y-57111792D01*
X127818447Y-57098124D01*
X127837443Y-57087971D01*
X127858062Y-57081716D01*
X127885640Y-57079000D01*
X128344360Y-57079000D01*
X128371938Y-57081716D01*
X128371938Y-57081716D01*
G37*
G36*
X126426938Y-57081716D02*
G01*
X126447557Y-57087971D01*
X126466553Y-57098124D01*
X126483208Y-57111792D01*
X126496876Y-57128447D01*
X126507029Y-57147443D01*
X126513284Y-57168062D01*
X126516000Y-57195640D01*
X126516000Y-57704360D01*
X126513284Y-57731938D01*
X126507029Y-57752557D01*
X126496876Y-57771553D01*
X126483208Y-57788208D01*
X126466553Y-57801876D01*
X126447557Y-57812029D01*
X126426938Y-57818284D01*
X126399360Y-57821000D01*
X125940640Y-57821000D01*
X125913062Y-57818284D01*
X125892443Y-57812029D01*
X125873447Y-57801876D01*
X125856792Y-57788208D01*
X125843124Y-57771553D01*
X125832971Y-57752557D01*
X125826716Y-57731938D01*
X125824000Y-57704360D01*
X125824000Y-57195640D01*
X125826716Y-57168062D01*
X125832971Y-57147443D01*
X125843124Y-57128447D01*
X125856792Y-57111792D01*
X125873447Y-57098124D01*
X125892443Y-57087971D01*
X125913062Y-57081716D01*
X125940640Y-57079000D01*
X126399360Y-57079000D01*
X126426938Y-57081716D01*
X126426938Y-57081716D01*
G37*
G36*
X117700000Y-57800000D02*
G01*
X116700000Y-57800000D01*
X116700000Y-57000000D01*
X117700000Y-57000000D01*
X117700000Y-57800000D01*
X117700000Y-57800000D01*
G37*
G36*
X115900000Y-57800000D02*
G01*
X115100000Y-57800000D01*
X115100000Y-57000000D01*
X115900000Y-57000000D01*
X115900000Y-57800000D01*
X115900000Y-57800000D01*
G37*
G36*
X100341938Y-57031716D02*
G01*
X100362557Y-57037971D01*
X100381553Y-57048124D01*
X100398208Y-57061792D01*
X100411876Y-57078447D01*
X100422029Y-57097443D01*
X100428284Y-57118062D01*
X100431000Y-57145640D01*
X100431000Y-57179214D01*
X100433402Y-57203600D01*
X100440515Y-57227049D01*
X100452066Y-57248660D01*
X100467611Y-57267602D01*
X100486553Y-57283147D01*
X100508164Y-57294698D01*
X100531613Y-57301811D01*
X100555999Y-57304213D01*
X100580385Y-57301811D01*
X100603834Y-57294698D01*
X100625445Y-57283147D01*
X100644387Y-57267602D01*
X100659932Y-57248660D01*
X100671483Y-57227049D01*
X100678596Y-57203600D01*
X100680396Y-57191466D01*
X100681716Y-57178062D01*
X100687971Y-57157443D01*
X100698124Y-57138447D01*
X100711792Y-57121792D01*
X100728447Y-57108124D01*
X100747443Y-57097971D01*
X100768062Y-57091716D01*
X100795640Y-57089000D01*
X101304360Y-57089000D01*
X101331938Y-57091716D01*
X101352557Y-57097971D01*
X101371553Y-57108124D01*
X101388208Y-57121792D01*
X101401876Y-57138447D01*
X101412029Y-57157443D01*
X101418284Y-57178062D01*
X101419604Y-57191466D01*
X101424384Y-57215499D01*
X101433762Y-57238138D01*
X101447375Y-57258512D01*
X101464702Y-57275839D01*
X101485076Y-57289453D01*
X101507715Y-57298830D01*
X101531749Y-57303611D01*
X101556253Y-57303611D01*
X101580286Y-57298831D01*
X101602925Y-57289453D01*
X101623299Y-57275840D01*
X101640626Y-57258513D01*
X101654240Y-57238139D01*
X101663617Y-57215500D01*
X101668398Y-57191466D01*
X101669000Y-57179214D01*
X101669000Y-57145640D01*
X101671716Y-57118062D01*
X101677971Y-57097443D01*
X101688124Y-57078447D01*
X101701792Y-57061792D01*
X101718447Y-57048124D01*
X101737443Y-57037971D01*
X101758062Y-57031716D01*
X101785640Y-57029000D01*
X102244360Y-57029000D01*
X102271938Y-57031716D01*
X102292557Y-57037971D01*
X102311553Y-57048124D01*
X102328208Y-57061792D01*
X102341876Y-57078447D01*
X102352029Y-57097443D01*
X102358284Y-57118062D01*
X102361000Y-57145640D01*
X102361000Y-57654360D01*
X102358284Y-57681938D01*
X102352029Y-57702557D01*
X102341876Y-57721553D01*
X102328208Y-57738208D01*
X102311553Y-57751876D01*
X102292557Y-57762029D01*
X102271938Y-57768284D01*
X102244360Y-57771000D01*
X101785640Y-57771000D01*
X101758062Y-57768284D01*
X101737443Y-57762029D01*
X101718447Y-57751876D01*
X101701792Y-57738208D01*
X101688124Y-57721553D01*
X101677971Y-57702557D01*
X101671716Y-57681938D01*
X101669889Y-57663389D01*
X101665108Y-57639356D01*
X101655731Y-57616718D01*
X101642117Y-57596343D01*
X101624789Y-57579017D01*
X101604415Y-57565403D01*
X101581776Y-57556026D01*
X101557743Y-57551246D01*
X101533238Y-57551246D01*
X101509205Y-57556027D01*
X101486567Y-57565404D01*
X101466192Y-57579018D01*
X101448866Y-57596346D01*
X101435252Y-57616720D01*
X101425875Y-57639359D01*
X101421095Y-57663393D01*
X101418284Y-57691938D01*
X101412029Y-57712557D01*
X101401876Y-57731553D01*
X101388208Y-57748208D01*
X101371553Y-57761876D01*
X101352557Y-57772029D01*
X101331938Y-57778284D01*
X101304360Y-57781000D01*
X100795640Y-57781000D01*
X100768062Y-57778284D01*
X100747443Y-57772029D01*
X100728447Y-57761876D01*
X100711792Y-57748208D01*
X100698124Y-57731553D01*
X100687971Y-57712557D01*
X100681716Y-57691938D01*
X100678905Y-57663393D01*
X100674125Y-57639359D01*
X100664748Y-57616720D01*
X100651135Y-57596346D01*
X100633808Y-57579019D01*
X100613434Y-57565405D01*
X100590795Y-57556027D01*
X100566762Y-57551246D01*
X100542258Y-57551246D01*
X100518224Y-57556026D01*
X100495585Y-57565403D01*
X100475211Y-57579016D01*
X100457884Y-57596343D01*
X100444270Y-57616717D01*
X100434892Y-57639356D01*
X100430111Y-57663389D01*
X100428284Y-57681938D01*
X100422029Y-57702557D01*
X100411876Y-57721553D01*
X100398208Y-57738208D01*
X100381553Y-57751876D01*
X100362557Y-57762029D01*
X100341938Y-57768284D01*
X100314360Y-57771000D01*
X99855640Y-57771000D01*
X99828062Y-57768284D01*
X99807443Y-57762029D01*
X99788447Y-57751876D01*
X99771792Y-57738208D01*
X99758124Y-57721553D01*
X99747971Y-57702557D01*
X99741716Y-57681938D01*
X99739000Y-57654360D01*
X99739000Y-57145640D01*
X99741716Y-57118062D01*
X99747971Y-57097443D01*
X99758124Y-57078447D01*
X99771792Y-57061792D01*
X99788447Y-57048124D01*
X99807443Y-57037971D01*
X99828062Y-57031716D01*
X99855640Y-57029000D01*
X100314360Y-57029000D01*
X100341938Y-57031716D01*
X100341938Y-57031716D01*
G37*
G36*
X92671938Y-57031716D02*
G01*
X92692557Y-57037971D01*
X92711553Y-57048124D01*
X92728208Y-57061792D01*
X92741876Y-57078447D01*
X92752029Y-57097443D01*
X92758284Y-57118062D01*
X92761000Y-57145640D01*
X92761000Y-57654360D01*
X92758284Y-57681938D01*
X92752029Y-57702557D01*
X92741876Y-57721553D01*
X92728208Y-57738208D01*
X92711553Y-57751876D01*
X92692557Y-57762029D01*
X92671938Y-57768284D01*
X92644360Y-57771000D01*
X92185640Y-57771000D01*
X92158062Y-57768284D01*
X92137443Y-57762029D01*
X92118447Y-57751876D01*
X92101792Y-57738208D01*
X92088124Y-57721553D01*
X92075245Y-57697459D01*
X92070274Y-57685455D01*
X92056661Y-57665080D01*
X92039335Y-57647752D01*
X92018961Y-57634137D01*
X91996323Y-57624759D01*
X91972290Y-57619977D01*
X91947786Y-57619976D01*
X91923752Y-57624756D01*
X91901113Y-57634132D01*
X91880738Y-57647745D01*
X91863410Y-57665071D01*
X91854679Y-57678137D01*
X91838208Y-57698208D01*
X91821553Y-57711876D01*
X91802557Y-57722029D01*
X91781938Y-57728284D01*
X91754360Y-57731000D01*
X91245640Y-57731000D01*
X91218062Y-57728284D01*
X91197443Y-57722029D01*
X91178447Y-57711876D01*
X91161792Y-57698208D01*
X91148124Y-57681553D01*
X91137971Y-57662557D01*
X91131716Y-57641938D01*
X91129000Y-57614360D01*
X91129000Y-57155640D01*
X91131716Y-57128062D01*
X91137971Y-57107443D01*
X91148124Y-57088447D01*
X91161792Y-57071792D01*
X91178447Y-57058124D01*
X91197443Y-57047971D01*
X91218062Y-57041716D01*
X91245640Y-57039000D01*
X91754360Y-57039000D01*
X91781938Y-57041716D01*
X91802557Y-57047971D01*
X91821553Y-57058124D01*
X91838208Y-57071792D01*
X91851874Y-57088445D01*
X91857088Y-57098200D01*
X91870702Y-57118574D01*
X91888029Y-57135901D01*
X91908404Y-57149515D01*
X91931043Y-57158892D01*
X91955076Y-57163672D01*
X91979580Y-57163672D01*
X92003613Y-57158891D01*
X92026252Y-57149514D01*
X92046626Y-57135900D01*
X92063953Y-57118573D01*
X92077565Y-57098202D01*
X92088126Y-57078446D01*
X92101792Y-57061792D01*
X92118447Y-57048124D01*
X92137443Y-57037971D01*
X92158062Y-57031716D01*
X92185640Y-57029000D01*
X92644360Y-57029000D01*
X92671938Y-57031716D01*
X92671938Y-57031716D01*
G37*
G36*
X99371938Y-57031716D02*
G01*
X99392557Y-57037971D01*
X99411553Y-57048124D01*
X99428208Y-57061792D01*
X99441876Y-57078447D01*
X99452029Y-57097443D01*
X99458284Y-57118062D01*
X99461000Y-57145640D01*
X99461000Y-57654360D01*
X99458284Y-57681938D01*
X99452029Y-57702557D01*
X99441876Y-57721553D01*
X99428208Y-57738208D01*
X99411553Y-57751876D01*
X99392557Y-57762029D01*
X99371938Y-57768284D01*
X99344360Y-57771000D01*
X98885640Y-57771000D01*
X98858062Y-57768284D01*
X98837443Y-57762029D01*
X98818447Y-57751876D01*
X98801792Y-57738208D01*
X98788124Y-57721553D01*
X98777971Y-57702557D01*
X98771716Y-57681938D01*
X98769000Y-57654360D01*
X98769000Y-57145640D01*
X98771716Y-57118062D01*
X98777971Y-57097443D01*
X98788124Y-57078447D01*
X98801792Y-57061792D01*
X98818447Y-57048124D01*
X98837443Y-57037971D01*
X98858062Y-57031716D01*
X98885640Y-57029000D01*
X99344360Y-57029000D01*
X99371938Y-57031716D01*
X99371938Y-57031716D01*
G37*
G36*
X93641938Y-57031716D02*
G01*
X93662557Y-57037971D01*
X93681553Y-57048124D01*
X93698208Y-57061792D01*
X93711874Y-57078446D01*
X93722435Y-57098202D01*
X93736050Y-57118576D01*
X93753377Y-57135903D01*
X93773752Y-57149516D01*
X93796391Y-57158893D01*
X93820424Y-57163672D01*
X93844928Y-57163672D01*
X93868962Y-57158891D01*
X93891600Y-57149513D01*
X93911974Y-57135898D01*
X93929301Y-57118571D01*
X93942912Y-57098200D01*
X93948126Y-57088445D01*
X93961792Y-57071792D01*
X93978447Y-57058124D01*
X93997443Y-57047971D01*
X94018062Y-57041716D01*
X94045640Y-57039000D01*
X94554360Y-57039000D01*
X94581938Y-57041716D01*
X94602557Y-57047971D01*
X94621553Y-57058124D01*
X94638208Y-57071792D01*
X94651874Y-57088445D01*
X94657088Y-57098200D01*
X94670702Y-57118574D01*
X94688029Y-57135901D01*
X94708404Y-57149515D01*
X94731043Y-57158892D01*
X94755076Y-57163672D01*
X94779580Y-57163672D01*
X94803613Y-57158891D01*
X94826252Y-57149514D01*
X94846626Y-57135900D01*
X94863953Y-57118573D01*
X94877565Y-57098202D01*
X94888126Y-57078446D01*
X94901792Y-57061792D01*
X94918447Y-57048124D01*
X94937443Y-57037971D01*
X94958062Y-57031716D01*
X94985640Y-57029000D01*
X95444360Y-57029000D01*
X95471938Y-57031716D01*
X95492557Y-57037971D01*
X95511553Y-57048124D01*
X95528208Y-57061792D01*
X95541876Y-57078447D01*
X95552029Y-57097443D01*
X95558284Y-57118062D01*
X95561000Y-57145640D01*
X95561000Y-57654360D01*
X95558284Y-57681938D01*
X95552029Y-57702557D01*
X95541876Y-57721553D01*
X95528208Y-57738208D01*
X95511553Y-57751876D01*
X95492557Y-57762029D01*
X95471938Y-57768284D01*
X95444360Y-57771000D01*
X94985640Y-57771000D01*
X94958062Y-57768284D01*
X94937443Y-57762029D01*
X94918447Y-57751876D01*
X94901792Y-57738208D01*
X94888124Y-57721553D01*
X94875245Y-57697459D01*
X94870274Y-57685455D01*
X94856661Y-57665080D01*
X94839335Y-57647752D01*
X94818961Y-57634137D01*
X94796323Y-57624759D01*
X94772290Y-57619977D01*
X94747786Y-57619976D01*
X94723752Y-57624756D01*
X94701113Y-57634132D01*
X94680738Y-57647745D01*
X94663410Y-57665071D01*
X94654679Y-57678137D01*
X94638208Y-57698208D01*
X94621553Y-57711876D01*
X94602557Y-57722029D01*
X94581938Y-57728284D01*
X94554360Y-57731000D01*
X94045640Y-57731000D01*
X94018062Y-57728284D01*
X93997443Y-57722029D01*
X93978447Y-57711876D01*
X93961792Y-57698208D01*
X93945319Y-57678134D01*
X93936587Y-57665068D01*
X93919259Y-57647742D01*
X93898883Y-57634130D01*
X93876243Y-57624754D01*
X93852210Y-57619976D01*
X93827706Y-57619978D01*
X93803673Y-57624760D01*
X93781035Y-57634140D01*
X93760662Y-57647755D01*
X93743336Y-57665083D01*
X93729724Y-57685459D01*
X93724754Y-57697460D01*
X93711876Y-57721553D01*
X93698208Y-57738208D01*
X93681553Y-57751876D01*
X93662557Y-57762029D01*
X93641938Y-57768284D01*
X93614360Y-57771000D01*
X93155640Y-57771000D01*
X93128062Y-57768284D01*
X93107443Y-57762029D01*
X93088447Y-57751876D01*
X93071792Y-57738208D01*
X93058124Y-57721553D01*
X93047971Y-57702557D01*
X93041716Y-57681938D01*
X93039000Y-57654360D01*
X93039000Y-57145640D01*
X93041716Y-57118062D01*
X93047971Y-57097443D01*
X93058124Y-57078447D01*
X93071792Y-57061792D01*
X93088447Y-57048124D01*
X93107443Y-57037971D01*
X93128062Y-57031716D01*
X93155640Y-57029000D01*
X93614360Y-57029000D01*
X93641938Y-57031716D01*
X93641938Y-57031716D01*
G37*
G36*
X96441938Y-57031716D02*
G01*
X96462557Y-57037971D01*
X96481553Y-57048124D01*
X96498208Y-57061792D01*
X96511874Y-57078446D01*
X96522435Y-57098202D01*
X96536050Y-57118576D01*
X96553377Y-57135903D01*
X96573752Y-57149516D01*
X96596391Y-57158893D01*
X96620424Y-57163672D01*
X96644928Y-57163672D01*
X96668962Y-57158891D01*
X96691600Y-57149513D01*
X96711974Y-57135898D01*
X96729301Y-57118571D01*
X96742912Y-57098200D01*
X96748126Y-57088445D01*
X96761792Y-57071792D01*
X96778447Y-57058124D01*
X96797443Y-57047971D01*
X96818062Y-57041716D01*
X96845640Y-57039000D01*
X97354360Y-57039000D01*
X97381938Y-57041716D01*
X97402557Y-57047971D01*
X97421553Y-57058124D01*
X97438208Y-57071792D01*
X97451876Y-57088447D01*
X97462029Y-57107443D01*
X97468284Y-57128062D01*
X97471000Y-57155640D01*
X97471000Y-57614360D01*
X97468284Y-57641938D01*
X97462029Y-57662557D01*
X97451876Y-57681553D01*
X97438208Y-57698208D01*
X97421553Y-57711876D01*
X97402557Y-57722029D01*
X97381938Y-57728284D01*
X97354360Y-57731000D01*
X96845640Y-57731000D01*
X96818062Y-57728284D01*
X96797443Y-57722029D01*
X96778447Y-57711876D01*
X96761792Y-57698208D01*
X96745319Y-57678134D01*
X96736587Y-57665068D01*
X96719259Y-57647742D01*
X96698883Y-57634130D01*
X96676243Y-57624754D01*
X96652210Y-57619976D01*
X96627706Y-57619978D01*
X96603673Y-57624760D01*
X96581035Y-57634140D01*
X96560662Y-57647755D01*
X96543336Y-57665083D01*
X96529724Y-57685459D01*
X96524754Y-57697460D01*
X96511876Y-57721553D01*
X96498208Y-57738208D01*
X96481553Y-57751876D01*
X96462557Y-57762029D01*
X96441938Y-57768284D01*
X96414360Y-57771000D01*
X95955640Y-57771000D01*
X95928062Y-57768284D01*
X95907443Y-57762029D01*
X95888447Y-57751876D01*
X95871792Y-57738208D01*
X95858124Y-57721553D01*
X95847971Y-57702557D01*
X95841716Y-57681938D01*
X95839000Y-57654360D01*
X95839000Y-57145640D01*
X95841716Y-57118062D01*
X95847971Y-57097443D01*
X95858124Y-57078447D01*
X95871792Y-57061792D01*
X95888447Y-57048124D01*
X95907443Y-57037971D01*
X95928062Y-57031716D01*
X95955640Y-57029000D01*
X96414360Y-57029000D01*
X96441938Y-57031716D01*
X96441938Y-57031716D01*
G37*
G36*
X103241938Y-57031716D02*
G01*
X103262557Y-57037971D01*
X103281553Y-57048124D01*
X103298208Y-57061792D01*
X103311876Y-57078447D01*
X103322029Y-57097443D01*
X103328284Y-57118062D01*
X103331095Y-57146607D01*
X103335875Y-57170641D01*
X103345252Y-57193280D01*
X103358865Y-57213654D01*
X103376192Y-57230981D01*
X103396566Y-57244595D01*
X103419205Y-57253973D01*
X103443238Y-57258754D01*
X103467742Y-57258754D01*
X103491776Y-57253974D01*
X103514415Y-57244597D01*
X103534789Y-57230984D01*
X103552116Y-57213657D01*
X103565730Y-57193283D01*
X103575108Y-57170644D01*
X103579889Y-57146611D01*
X103581716Y-57128062D01*
X103587971Y-57107443D01*
X103598124Y-57088447D01*
X103611792Y-57071792D01*
X103628447Y-57058124D01*
X103647443Y-57047971D01*
X103668062Y-57041716D01*
X103695640Y-57039000D01*
X104204360Y-57039000D01*
X104231938Y-57041716D01*
X104252557Y-57047971D01*
X104271553Y-57058124D01*
X104288208Y-57071792D01*
X104301876Y-57088447D01*
X104312029Y-57107443D01*
X104318284Y-57128062D01*
X104320111Y-57146611D01*
X104324892Y-57170644D01*
X104334269Y-57193282D01*
X104347883Y-57213657D01*
X104365211Y-57230983D01*
X104385585Y-57244597D01*
X104408224Y-57253974D01*
X104432257Y-57258754D01*
X104456762Y-57258754D01*
X104480795Y-57253973D01*
X104503433Y-57244596D01*
X104523808Y-57230982D01*
X104541134Y-57213654D01*
X104554748Y-57193280D01*
X104564125Y-57170641D01*
X104568905Y-57146607D01*
X104571716Y-57118062D01*
X104577971Y-57097443D01*
X104588124Y-57078447D01*
X104601792Y-57061792D01*
X104618447Y-57048124D01*
X104637443Y-57037971D01*
X104658062Y-57031716D01*
X104685640Y-57029000D01*
X105144360Y-57029000D01*
X105171938Y-57031716D01*
X105192557Y-57037971D01*
X105211553Y-57048124D01*
X105228208Y-57061792D01*
X105241876Y-57078447D01*
X105252029Y-57097443D01*
X105258284Y-57118062D01*
X105261000Y-57145640D01*
X105261000Y-57654360D01*
X105258284Y-57681938D01*
X105252029Y-57702557D01*
X105241876Y-57721553D01*
X105228208Y-57738208D01*
X105211553Y-57751876D01*
X105192557Y-57762029D01*
X105171938Y-57768284D01*
X105144360Y-57771000D01*
X104685640Y-57771000D01*
X104658062Y-57768284D01*
X104637443Y-57762029D01*
X104618447Y-57751876D01*
X104601792Y-57738208D01*
X104588124Y-57721553D01*
X104577971Y-57702557D01*
X104571716Y-57681938D01*
X104569000Y-57654360D01*
X104569000Y-57640786D01*
X104566598Y-57616400D01*
X104559485Y-57592951D01*
X104547934Y-57571340D01*
X104532389Y-57552398D01*
X104513447Y-57536853D01*
X104491836Y-57525302D01*
X104468387Y-57518189D01*
X104444001Y-57515787D01*
X104419615Y-57518189D01*
X104396166Y-57525302D01*
X104374555Y-57536853D01*
X104355613Y-57552398D01*
X104340068Y-57571340D01*
X104328517Y-57592951D01*
X104321404Y-57616400D01*
X104319604Y-57628534D01*
X104318284Y-57641938D01*
X104312029Y-57662557D01*
X104301876Y-57681553D01*
X104288208Y-57698208D01*
X104271553Y-57711876D01*
X104252557Y-57722029D01*
X104231938Y-57728284D01*
X104204360Y-57731000D01*
X103695640Y-57731000D01*
X103668062Y-57728284D01*
X103647443Y-57722029D01*
X103628447Y-57711876D01*
X103611792Y-57698208D01*
X103598124Y-57681553D01*
X103587971Y-57662557D01*
X103581716Y-57641938D01*
X103580396Y-57628534D01*
X103575616Y-57604501D01*
X103566238Y-57581862D01*
X103552625Y-57561488D01*
X103535298Y-57544161D01*
X103514924Y-57530547D01*
X103492285Y-57521170D01*
X103468251Y-57516389D01*
X103443747Y-57516389D01*
X103419714Y-57521169D01*
X103397075Y-57530547D01*
X103376701Y-57544160D01*
X103359374Y-57561487D01*
X103345760Y-57581861D01*
X103336383Y-57604500D01*
X103331602Y-57628534D01*
X103331000Y-57640786D01*
X103331000Y-57654360D01*
X103328284Y-57681938D01*
X103322029Y-57702557D01*
X103311876Y-57721553D01*
X103298208Y-57738208D01*
X103281553Y-57751876D01*
X103262557Y-57762029D01*
X103241938Y-57768284D01*
X103214360Y-57771000D01*
X102755640Y-57771000D01*
X102728062Y-57768284D01*
X102707443Y-57762029D01*
X102688447Y-57751876D01*
X102671792Y-57738208D01*
X102658124Y-57721553D01*
X102647971Y-57702557D01*
X102641716Y-57681938D01*
X102639000Y-57654360D01*
X102639000Y-57145640D01*
X102641716Y-57118062D01*
X102647971Y-57097443D01*
X102658124Y-57078447D01*
X102671792Y-57061792D01*
X102688447Y-57048124D01*
X102707443Y-57037971D01*
X102728062Y-57031716D01*
X102755640Y-57029000D01*
X103214360Y-57029000D01*
X103241938Y-57031716D01*
X103241938Y-57031716D01*
G37*
G36*
X106141938Y-57031716D02*
G01*
X106162557Y-57037971D01*
X106181553Y-57048124D01*
X106198208Y-57061792D01*
X106211876Y-57078447D01*
X106222029Y-57097443D01*
X106228284Y-57118062D01*
X106231000Y-57145640D01*
X106231000Y-57654360D01*
X106228284Y-57681938D01*
X106222029Y-57702557D01*
X106211876Y-57721553D01*
X106198208Y-57738208D01*
X106181553Y-57751876D01*
X106162557Y-57762029D01*
X106141938Y-57768284D01*
X106114360Y-57771000D01*
X105655640Y-57771000D01*
X105628062Y-57768284D01*
X105607443Y-57762029D01*
X105588447Y-57751876D01*
X105571792Y-57738208D01*
X105558124Y-57721553D01*
X105547971Y-57702557D01*
X105541716Y-57681938D01*
X105539000Y-57654360D01*
X105539000Y-57145640D01*
X105541716Y-57118062D01*
X105547971Y-57097443D01*
X105558124Y-57078447D01*
X105571792Y-57061792D01*
X105588447Y-57048124D01*
X105607443Y-57037971D01*
X105628062Y-57031716D01*
X105655640Y-57029000D01*
X106114360Y-57029000D01*
X106141938Y-57031716D01*
X106141938Y-57031716D01*
G37*
G36*
X112331938Y-57051716D02*
G01*
X112352557Y-57057971D01*
X112371553Y-57068124D01*
X112388208Y-57081792D01*
X112401876Y-57098447D01*
X112414762Y-57122555D01*
X112428376Y-57142929D01*
X112445703Y-57160256D01*
X112466078Y-57173869D01*
X112488717Y-57183246D01*
X112512750Y-57188026D01*
X112537254Y-57188026D01*
X112561287Y-57183245D01*
X112583926Y-57173867D01*
X112604300Y-57160253D01*
X112621627Y-57142926D01*
X112635238Y-57122555D01*
X112648124Y-57098447D01*
X112661792Y-57081792D01*
X112678447Y-57068124D01*
X112697443Y-57057971D01*
X112718062Y-57051716D01*
X112745640Y-57049000D01*
X113254360Y-57049000D01*
X113281938Y-57051716D01*
X113302557Y-57057971D01*
X113321553Y-57068124D01*
X113338208Y-57081792D01*
X113351876Y-57098447D01*
X113362029Y-57117443D01*
X113368284Y-57138062D01*
X113371000Y-57165640D01*
X113371000Y-57624360D01*
X113368284Y-57651938D01*
X113362029Y-57672557D01*
X113351876Y-57691553D01*
X113338208Y-57708208D01*
X113321553Y-57721876D01*
X113302557Y-57732029D01*
X113281938Y-57738284D01*
X113254360Y-57741000D01*
X112745640Y-57741000D01*
X112718062Y-57738284D01*
X112697443Y-57732029D01*
X112678447Y-57721876D01*
X112661792Y-57708208D01*
X112648124Y-57691553D01*
X112635238Y-57667445D01*
X112621624Y-57647071D01*
X112604297Y-57629744D01*
X112583922Y-57616131D01*
X112561283Y-57606754D01*
X112537250Y-57601974D01*
X112512746Y-57601974D01*
X112488713Y-57606755D01*
X112466074Y-57616133D01*
X112445700Y-57629747D01*
X112428373Y-57647074D01*
X112414762Y-57667445D01*
X112401876Y-57691553D01*
X112388208Y-57708208D01*
X112371553Y-57721876D01*
X112352557Y-57732029D01*
X112331938Y-57738284D01*
X112304360Y-57741000D01*
X111795640Y-57741000D01*
X111768062Y-57738284D01*
X111747443Y-57732029D01*
X111728447Y-57721876D01*
X111711792Y-57708208D01*
X111698124Y-57691553D01*
X111687971Y-57672557D01*
X111681716Y-57651938D01*
X111679000Y-57624360D01*
X111679000Y-57165640D01*
X111681716Y-57138062D01*
X111687971Y-57117443D01*
X111698124Y-57098447D01*
X111711792Y-57081792D01*
X111728447Y-57068124D01*
X111747443Y-57057971D01*
X111768062Y-57051716D01*
X111795640Y-57049000D01*
X112304360Y-57049000D01*
X112331938Y-57051716D01*
X112331938Y-57051716D01*
G37*
G36*
X120031938Y-57041716D02*
G01*
X120052557Y-57047971D01*
X120071553Y-57058124D01*
X120088208Y-57071792D01*
X120101876Y-57088447D01*
X120112029Y-57107443D01*
X120118284Y-57128062D01*
X120121000Y-57155640D01*
X120121000Y-57614360D01*
X120118284Y-57641938D01*
X120112029Y-57662557D01*
X120101876Y-57681553D01*
X120088208Y-57698208D01*
X120071553Y-57711876D01*
X120052557Y-57722029D01*
X120031938Y-57728284D01*
X120004360Y-57731000D01*
X119495640Y-57731000D01*
X119468062Y-57728284D01*
X119447443Y-57722029D01*
X119428447Y-57711876D01*
X119411792Y-57698208D01*
X119398124Y-57681553D01*
X119387971Y-57662557D01*
X119381716Y-57641938D01*
X119379000Y-57614360D01*
X119379000Y-57155640D01*
X119381716Y-57128062D01*
X119387971Y-57107443D01*
X119398124Y-57088447D01*
X119411792Y-57071792D01*
X119428447Y-57058124D01*
X119447443Y-57047971D01*
X119468062Y-57041716D01*
X119495640Y-57039000D01*
X120004360Y-57039000D01*
X120031938Y-57041716D01*
X120031938Y-57041716D01*
G37*
G36*
X118981938Y-57041716D02*
G01*
X119002557Y-57047971D01*
X119021553Y-57058124D01*
X119038208Y-57071792D01*
X119051876Y-57088447D01*
X119062029Y-57107443D01*
X119068284Y-57128062D01*
X119071000Y-57155640D01*
X119071000Y-57614360D01*
X119068284Y-57641938D01*
X119062029Y-57662557D01*
X119051876Y-57681553D01*
X119038208Y-57698208D01*
X119021553Y-57711876D01*
X119002557Y-57722029D01*
X118981938Y-57728284D01*
X118954360Y-57731000D01*
X118445640Y-57731000D01*
X118418062Y-57728284D01*
X118397443Y-57722029D01*
X118378447Y-57711876D01*
X118361792Y-57698208D01*
X118348124Y-57681553D01*
X118337971Y-57662557D01*
X118331716Y-57641938D01*
X118329000Y-57614360D01*
X118329000Y-57155640D01*
X118331716Y-57128062D01*
X118337971Y-57107443D01*
X118348124Y-57088447D01*
X118361792Y-57071792D01*
X118378447Y-57058124D01*
X118397443Y-57047971D01*
X118418062Y-57041716D01*
X118445640Y-57039000D01*
X118954360Y-57039000D01*
X118981938Y-57041716D01*
X118981938Y-57041716D01*
G37*
G36*
X98187797Y-57110567D02*
G01*
X98242575Y-57133257D01*
X98242577Y-57133258D01*
X98291876Y-57166198D01*
X98333802Y-57208124D01*
X98364437Y-57253974D01*
X98366743Y-57257425D01*
X98389433Y-57312203D01*
X98401000Y-57370353D01*
X98401000Y-57429647D01*
X98389433Y-57487797D01*
X98371725Y-57530547D01*
X98366742Y-57542577D01*
X98333802Y-57591876D01*
X98291876Y-57633802D01*
X98242577Y-57666742D01*
X98242576Y-57666743D01*
X98242575Y-57666743D01*
X98187797Y-57689433D01*
X98129647Y-57701000D01*
X98070353Y-57701000D01*
X98012203Y-57689433D01*
X97957425Y-57666743D01*
X97957424Y-57666743D01*
X97957423Y-57666742D01*
X97908124Y-57633802D01*
X97866198Y-57591876D01*
X97833258Y-57542577D01*
X97828275Y-57530547D01*
X97810567Y-57487797D01*
X97799000Y-57429647D01*
X97799000Y-57370353D01*
X97810567Y-57312203D01*
X97833257Y-57257425D01*
X97835563Y-57253974D01*
X97866198Y-57208124D01*
X97908124Y-57166198D01*
X97957423Y-57133258D01*
X97957425Y-57133257D01*
X98012203Y-57110567D01*
X98070353Y-57099000D01*
X98129647Y-57099000D01*
X98187797Y-57110567D01*
X98187797Y-57110567D01*
G37*
G36*
X130331938Y-56146716D02*
G01*
X130352557Y-56152971D01*
X130371553Y-56163124D01*
X130388208Y-56176792D01*
X130401876Y-56193447D01*
X130412029Y-56212443D01*
X130418284Y-56233062D01*
X130421000Y-56260640D01*
X130421000Y-56719360D01*
X130418284Y-56746938D01*
X130412029Y-56767557D01*
X130401876Y-56786553D01*
X130388208Y-56803208D01*
X130371553Y-56816876D01*
X130352557Y-56827029D01*
X130331938Y-56833284D01*
X130304360Y-56836000D01*
X129795640Y-56836000D01*
X129768062Y-56833284D01*
X129747443Y-56827029D01*
X129728447Y-56816876D01*
X129711792Y-56803208D01*
X129698124Y-56786553D01*
X129687971Y-56767557D01*
X129681716Y-56746938D01*
X129679000Y-56719360D01*
X129679000Y-56260640D01*
X129681716Y-56233062D01*
X129687971Y-56212443D01*
X129698124Y-56193447D01*
X129711792Y-56176792D01*
X129728447Y-56163124D01*
X129747443Y-56152971D01*
X129768062Y-56146716D01*
X129795640Y-56144000D01*
X130304360Y-56144000D01*
X130331938Y-56146716D01*
X130331938Y-56146716D01*
G37*
G36*
X127431938Y-56121716D02*
G01*
X127452557Y-56127971D01*
X127471553Y-56138124D01*
X127488208Y-56151792D01*
X127501876Y-56168447D01*
X127512029Y-56187443D01*
X127518284Y-56208062D01*
X127521000Y-56235640D01*
X127521000Y-56694360D01*
X127518284Y-56721938D01*
X127512029Y-56742557D01*
X127501876Y-56761553D01*
X127488208Y-56778208D01*
X127471553Y-56791876D01*
X127452557Y-56802029D01*
X127431938Y-56808284D01*
X127404360Y-56811000D01*
X126895640Y-56811000D01*
X126868062Y-56808284D01*
X126847443Y-56802029D01*
X126828447Y-56791876D01*
X126811792Y-56778208D01*
X126798124Y-56761553D01*
X126787971Y-56742557D01*
X126781716Y-56721938D01*
X126779000Y-56694360D01*
X126779000Y-56235640D01*
X126781716Y-56208062D01*
X126787971Y-56187443D01*
X126798124Y-56168447D01*
X126811792Y-56151792D01*
X126828447Y-56138124D01*
X126847443Y-56127971D01*
X126868062Y-56121716D01*
X126895640Y-56119000D01*
X127404360Y-56119000D01*
X127431938Y-56121716D01*
X127431938Y-56121716D01*
G37*
G36*
X101331938Y-56121716D02*
G01*
X101352557Y-56127971D01*
X101371553Y-56138124D01*
X101388208Y-56151792D01*
X101401876Y-56168447D01*
X101412029Y-56187443D01*
X101418284Y-56208062D01*
X101421000Y-56235640D01*
X101421000Y-56694360D01*
X101418284Y-56721938D01*
X101412029Y-56742557D01*
X101401876Y-56761553D01*
X101388208Y-56778208D01*
X101371553Y-56791876D01*
X101352557Y-56802029D01*
X101331938Y-56808284D01*
X101304360Y-56811000D01*
X100795640Y-56811000D01*
X100768062Y-56808284D01*
X100747443Y-56802029D01*
X100728447Y-56791876D01*
X100711792Y-56778208D01*
X100698124Y-56761553D01*
X100687971Y-56742557D01*
X100681716Y-56721938D01*
X100679000Y-56694360D01*
X100679000Y-56235640D01*
X100681716Y-56208062D01*
X100687971Y-56187443D01*
X100698124Y-56168447D01*
X100711792Y-56151792D01*
X100728447Y-56138124D01*
X100747443Y-56127971D01*
X100768062Y-56121716D01*
X100795640Y-56119000D01*
X101304360Y-56119000D01*
X101331938Y-56121716D01*
X101331938Y-56121716D01*
G37*
G36*
X91781938Y-56071716D02*
G01*
X91802557Y-56077971D01*
X91821553Y-56088124D01*
X91838208Y-56101792D01*
X91851876Y-56118447D01*
X91862029Y-56137443D01*
X91868284Y-56158062D01*
X91871000Y-56185640D01*
X91871000Y-56644360D01*
X91868284Y-56671938D01*
X91862029Y-56692557D01*
X91851876Y-56711553D01*
X91838208Y-56728208D01*
X91821553Y-56741876D01*
X91802557Y-56752029D01*
X91781938Y-56758284D01*
X91754360Y-56761000D01*
X91245640Y-56761000D01*
X91218062Y-56758284D01*
X91197443Y-56752029D01*
X91178447Y-56741876D01*
X91161792Y-56728208D01*
X91148124Y-56711553D01*
X91137971Y-56692557D01*
X91131716Y-56671938D01*
X91129000Y-56644360D01*
X91129000Y-56185640D01*
X91131716Y-56158062D01*
X91137971Y-56137443D01*
X91148124Y-56118447D01*
X91161792Y-56101792D01*
X91178447Y-56088124D01*
X91197443Y-56077971D01*
X91218062Y-56071716D01*
X91245640Y-56069000D01*
X91754360Y-56069000D01*
X91781938Y-56071716D01*
X91781938Y-56071716D01*
G37*
G36*
X118981938Y-56071716D02*
G01*
X119002557Y-56077971D01*
X119021553Y-56088124D01*
X119038208Y-56101792D01*
X119051876Y-56118447D01*
X119062029Y-56137443D01*
X119068284Y-56158062D01*
X119071000Y-56185640D01*
X119071000Y-56644360D01*
X119068284Y-56671938D01*
X119062029Y-56692557D01*
X119051876Y-56711553D01*
X119038208Y-56728208D01*
X119021553Y-56741876D01*
X119002557Y-56752029D01*
X118981938Y-56758284D01*
X118954360Y-56761000D01*
X118445640Y-56761000D01*
X118418062Y-56758284D01*
X118397443Y-56752029D01*
X118378447Y-56741876D01*
X118361792Y-56728208D01*
X118348124Y-56711553D01*
X118337971Y-56692557D01*
X118331716Y-56671938D01*
X118329000Y-56644360D01*
X118329000Y-56185640D01*
X118331716Y-56158062D01*
X118337971Y-56137443D01*
X118348124Y-56118447D01*
X118361792Y-56101792D01*
X118378447Y-56088124D01*
X118397443Y-56077971D01*
X118418062Y-56071716D01*
X118445640Y-56069000D01*
X118954360Y-56069000D01*
X118981938Y-56071716D01*
X118981938Y-56071716D01*
G37*
G36*
X120031938Y-56071716D02*
G01*
X120052557Y-56077971D01*
X120071553Y-56088124D01*
X120088208Y-56101792D01*
X120101876Y-56118447D01*
X120112029Y-56137443D01*
X120118284Y-56158062D01*
X120121000Y-56185640D01*
X120121000Y-56644360D01*
X120118284Y-56671938D01*
X120112029Y-56692557D01*
X120101876Y-56711553D01*
X120088208Y-56728208D01*
X120071553Y-56741876D01*
X120052557Y-56752029D01*
X120031938Y-56758284D01*
X120004360Y-56761000D01*
X119495640Y-56761000D01*
X119468062Y-56758284D01*
X119447443Y-56752029D01*
X119428447Y-56741876D01*
X119411792Y-56728208D01*
X119398124Y-56711553D01*
X119387971Y-56692557D01*
X119381716Y-56671938D01*
X119379000Y-56644360D01*
X119379000Y-56185640D01*
X119381716Y-56158062D01*
X119387971Y-56137443D01*
X119398124Y-56118447D01*
X119411792Y-56101792D01*
X119428447Y-56088124D01*
X119447443Y-56077971D01*
X119468062Y-56071716D01*
X119495640Y-56069000D01*
X120004360Y-56069000D01*
X120031938Y-56071716D01*
X120031938Y-56071716D01*
G37*
G36*
X94581938Y-56071716D02*
G01*
X94602557Y-56077971D01*
X94621553Y-56088124D01*
X94638208Y-56101792D01*
X94651876Y-56118447D01*
X94662029Y-56137443D01*
X94668284Y-56158062D01*
X94671000Y-56185640D01*
X94671000Y-56644360D01*
X94668284Y-56671938D01*
X94662029Y-56692557D01*
X94651876Y-56711553D01*
X94638208Y-56728208D01*
X94621553Y-56741876D01*
X94602557Y-56752029D01*
X94581938Y-56758284D01*
X94554360Y-56761000D01*
X94045640Y-56761000D01*
X94018062Y-56758284D01*
X93997443Y-56752029D01*
X93978447Y-56741876D01*
X93961792Y-56728208D01*
X93948124Y-56711553D01*
X93937971Y-56692557D01*
X93931716Y-56671938D01*
X93929000Y-56644360D01*
X93929000Y-56185640D01*
X93931716Y-56158062D01*
X93937971Y-56137443D01*
X93948124Y-56118447D01*
X93961792Y-56101792D01*
X93978447Y-56088124D01*
X93997443Y-56077971D01*
X94018062Y-56071716D01*
X94045640Y-56069000D01*
X94554360Y-56069000D01*
X94581938Y-56071716D01*
X94581938Y-56071716D01*
G37*
G36*
X104231938Y-56071716D02*
G01*
X104252557Y-56077971D01*
X104271553Y-56088124D01*
X104288208Y-56101792D01*
X104301876Y-56118447D01*
X104312029Y-56137443D01*
X104318284Y-56158062D01*
X104321000Y-56185640D01*
X104321000Y-56644360D01*
X104318284Y-56671938D01*
X104312029Y-56692557D01*
X104301876Y-56711553D01*
X104288208Y-56728208D01*
X104271553Y-56741876D01*
X104252557Y-56752029D01*
X104231938Y-56758284D01*
X104204360Y-56761000D01*
X103695640Y-56761000D01*
X103668062Y-56758284D01*
X103647443Y-56752029D01*
X103628447Y-56741876D01*
X103611792Y-56728208D01*
X103598124Y-56711553D01*
X103587971Y-56692557D01*
X103581716Y-56671938D01*
X103579000Y-56644360D01*
X103579000Y-56185640D01*
X103581716Y-56158062D01*
X103587971Y-56137443D01*
X103598124Y-56118447D01*
X103611792Y-56101792D01*
X103628447Y-56088124D01*
X103647443Y-56077971D01*
X103668062Y-56071716D01*
X103695640Y-56069000D01*
X104204360Y-56069000D01*
X104231938Y-56071716D01*
X104231938Y-56071716D01*
G37*
G36*
X97381938Y-56071716D02*
G01*
X97402557Y-56077971D01*
X97421553Y-56088124D01*
X97438208Y-56101792D01*
X97451876Y-56118447D01*
X97462029Y-56137443D01*
X97468284Y-56158062D01*
X97471000Y-56185640D01*
X97471000Y-56644360D01*
X97468284Y-56671938D01*
X97462029Y-56692557D01*
X97451876Y-56711553D01*
X97438208Y-56728208D01*
X97421553Y-56741876D01*
X97402557Y-56752029D01*
X97381938Y-56758284D01*
X97354360Y-56761000D01*
X96845640Y-56761000D01*
X96818062Y-56758284D01*
X96797443Y-56752029D01*
X96778447Y-56741876D01*
X96761792Y-56728208D01*
X96748124Y-56711553D01*
X96737971Y-56692557D01*
X96731716Y-56671938D01*
X96729000Y-56644360D01*
X96729000Y-56185640D01*
X96731716Y-56158062D01*
X96737971Y-56137443D01*
X96748124Y-56118447D01*
X96761792Y-56101792D01*
X96778447Y-56088124D01*
X96797443Y-56077971D01*
X96818062Y-56071716D01*
X96845640Y-56069000D01*
X97354360Y-56069000D01*
X97381938Y-56071716D01*
X97381938Y-56071716D01*
G37*
G36*
X116171938Y-54981716D02*
G01*
X116192557Y-54987971D01*
X116211553Y-54998124D01*
X116228208Y-55011792D01*
X116241876Y-55028447D01*
X116252029Y-55047443D01*
X116258284Y-55068062D01*
X116261000Y-55095640D01*
X116261000Y-55604360D01*
X116258284Y-55631938D01*
X116252029Y-55652557D01*
X116241876Y-55671553D01*
X116228208Y-55688208D01*
X116211553Y-55701876D01*
X116187445Y-55714762D01*
X116167071Y-55728376D01*
X116149744Y-55745703D01*
X116136131Y-55766078D01*
X116126754Y-55788717D01*
X116121974Y-55812750D01*
X116121974Y-55837254D01*
X116126755Y-55861287D01*
X116136133Y-55883926D01*
X116149747Y-55904300D01*
X116167074Y-55921627D01*
X116187445Y-55935238D01*
X116211553Y-55948124D01*
X116228208Y-55961792D01*
X116241876Y-55978447D01*
X116252029Y-55997443D01*
X116258284Y-56018062D01*
X116261000Y-56045640D01*
X116261000Y-56554360D01*
X116258284Y-56581938D01*
X116252029Y-56602557D01*
X116241876Y-56621553D01*
X116228208Y-56638208D01*
X116211553Y-56651876D01*
X116192557Y-56662029D01*
X116171938Y-56668284D01*
X116144360Y-56671000D01*
X115685640Y-56671000D01*
X115658062Y-56668284D01*
X115637443Y-56662029D01*
X115618447Y-56651876D01*
X115601792Y-56638208D01*
X115588124Y-56621553D01*
X115577971Y-56602557D01*
X115571716Y-56581938D01*
X115569000Y-56554360D01*
X115569000Y-56045640D01*
X115571716Y-56018062D01*
X115577971Y-55997443D01*
X115588124Y-55978447D01*
X115601792Y-55961792D01*
X115618447Y-55948124D01*
X115642555Y-55935238D01*
X115662929Y-55921624D01*
X115680256Y-55904297D01*
X115693869Y-55883922D01*
X115703246Y-55861283D01*
X115708026Y-55837250D01*
X115708026Y-55812746D01*
X115703245Y-55788713D01*
X115693867Y-55766074D01*
X115680253Y-55745700D01*
X115662926Y-55728373D01*
X115642555Y-55714762D01*
X115618447Y-55701876D01*
X115601792Y-55688208D01*
X115588124Y-55671553D01*
X115577971Y-55652557D01*
X115571716Y-55631938D01*
X115569000Y-55604360D01*
X115569000Y-55095640D01*
X115571716Y-55068062D01*
X115577971Y-55047443D01*
X115588124Y-55028447D01*
X115601792Y-55011792D01*
X115618447Y-54998124D01*
X115637443Y-54987971D01*
X115658062Y-54981716D01*
X115685640Y-54979000D01*
X116144360Y-54979000D01*
X116171938Y-54981716D01*
X116171938Y-54981716D01*
G37*
G36*
X117141938Y-54981716D02*
G01*
X117162557Y-54987971D01*
X117181553Y-54998124D01*
X117198208Y-55011792D01*
X117211876Y-55028447D01*
X117222029Y-55047443D01*
X117228284Y-55068062D01*
X117231000Y-55095640D01*
X117231000Y-55604360D01*
X117228284Y-55631938D01*
X117222029Y-55652557D01*
X117211876Y-55671553D01*
X117198208Y-55688208D01*
X117181553Y-55701876D01*
X117157445Y-55714762D01*
X117137071Y-55728376D01*
X117119744Y-55745703D01*
X117106131Y-55766078D01*
X117096754Y-55788717D01*
X117091974Y-55812750D01*
X117091974Y-55837254D01*
X117096755Y-55861287D01*
X117106133Y-55883926D01*
X117119747Y-55904300D01*
X117137074Y-55921627D01*
X117157445Y-55935238D01*
X117181553Y-55948124D01*
X117198208Y-55961792D01*
X117211876Y-55978447D01*
X117222029Y-55997443D01*
X117228284Y-56018062D01*
X117231000Y-56045640D01*
X117231000Y-56554360D01*
X117228284Y-56581938D01*
X117222029Y-56602557D01*
X117211876Y-56621553D01*
X117198208Y-56638208D01*
X117181553Y-56651876D01*
X117162557Y-56662029D01*
X117141938Y-56668284D01*
X117114360Y-56671000D01*
X116655640Y-56671000D01*
X116628062Y-56668284D01*
X116607443Y-56662029D01*
X116588447Y-56651876D01*
X116571792Y-56638208D01*
X116558124Y-56621553D01*
X116547971Y-56602557D01*
X116541716Y-56581938D01*
X116539000Y-56554360D01*
X116539000Y-56045640D01*
X116541716Y-56018062D01*
X116547971Y-55997443D01*
X116558124Y-55978447D01*
X116571792Y-55961792D01*
X116588447Y-55948124D01*
X116612555Y-55935238D01*
X116632929Y-55921624D01*
X116650256Y-55904297D01*
X116663869Y-55883922D01*
X116673246Y-55861283D01*
X116678026Y-55837250D01*
X116678026Y-55812746D01*
X116673245Y-55788713D01*
X116663867Y-55766074D01*
X116650253Y-55745700D01*
X116632926Y-55728373D01*
X116612555Y-55714762D01*
X116588447Y-55701876D01*
X116571792Y-55688208D01*
X116558124Y-55671553D01*
X116547971Y-55652557D01*
X116541716Y-55631938D01*
X116539000Y-55604360D01*
X116539000Y-55095640D01*
X116541716Y-55068062D01*
X116547971Y-55047443D01*
X116558124Y-55028447D01*
X116571792Y-55011792D01*
X116588447Y-54998124D01*
X116607443Y-54987971D01*
X116628062Y-54981716D01*
X116655640Y-54979000D01*
X117114360Y-54979000D01*
X117141938Y-54981716D01*
X117141938Y-54981716D01*
G37*
G36*
X123351000Y-56481000D02*
G01*
X121249000Y-56481000D01*
X121249000Y-55329000D01*
X123351000Y-55329000D01*
X123351000Y-56481000D01*
X123351000Y-56481000D01*
G37*
G36*
X109751000Y-56381000D02*
G01*
X107649000Y-56381000D01*
X107649000Y-55229000D01*
X109751000Y-55229000D01*
X109751000Y-56381000D01*
X109751000Y-56381000D01*
G37*
G36*
X120031938Y-54941716D02*
G01*
X120052557Y-54947971D01*
X120071553Y-54958124D01*
X120088208Y-54971792D01*
X120101876Y-54988447D01*
X120112029Y-55007443D01*
X120118284Y-55028062D01*
X120121000Y-55055640D01*
X120121000Y-55514360D01*
X120118284Y-55541938D01*
X120112029Y-55562557D01*
X120101876Y-55581553D01*
X120088208Y-55598208D01*
X120071553Y-55611876D01*
X120052557Y-55622029D01*
X120031938Y-55628284D01*
X120004360Y-55631000D01*
X119495640Y-55631000D01*
X119468062Y-55628284D01*
X119447443Y-55622029D01*
X119428447Y-55611876D01*
X119411792Y-55598208D01*
X119398124Y-55581553D01*
X119387971Y-55562557D01*
X119381716Y-55541938D01*
X119379000Y-55514360D01*
X119379000Y-55055640D01*
X119381716Y-55028062D01*
X119387971Y-55007443D01*
X119398124Y-54988447D01*
X119411792Y-54971792D01*
X119428447Y-54958124D01*
X119447443Y-54947971D01*
X119468062Y-54941716D01*
X119495640Y-54939000D01*
X120004360Y-54939000D01*
X120031938Y-54941716D01*
X120031938Y-54941716D01*
G37*
G36*
X118931938Y-54941716D02*
G01*
X118952557Y-54947971D01*
X118971553Y-54958124D01*
X118988208Y-54971792D01*
X119001876Y-54988447D01*
X119012029Y-55007443D01*
X119018284Y-55028062D01*
X119021000Y-55055640D01*
X119021000Y-55514360D01*
X119018284Y-55541938D01*
X119012029Y-55562557D01*
X119001876Y-55581553D01*
X118988208Y-55598208D01*
X118971553Y-55611876D01*
X118952557Y-55622029D01*
X118931938Y-55628284D01*
X118904360Y-55631000D01*
X118395640Y-55631000D01*
X118368062Y-55628284D01*
X118347443Y-55622029D01*
X118328447Y-55611876D01*
X118311792Y-55598208D01*
X118298124Y-55581553D01*
X118287971Y-55562557D01*
X118281716Y-55541938D01*
X118279000Y-55514360D01*
X118279000Y-55055640D01*
X118281716Y-55028062D01*
X118287971Y-55007443D01*
X118298124Y-54988447D01*
X118311792Y-54971792D01*
X118328447Y-54958124D01*
X118347443Y-54947971D01*
X118368062Y-54941716D01*
X118395640Y-54939000D01*
X118904360Y-54939000D01*
X118931938Y-54941716D01*
X118931938Y-54941716D01*
G37*
G36*
X118931938Y-53971716D02*
G01*
X118952557Y-53977971D01*
X118971553Y-53988124D01*
X118988208Y-54001792D01*
X119001876Y-54018447D01*
X119012029Y-54037443D01*
X119018284Y-54058062D01*
X119021000Y-54085640D01*
X119021000Y-54544360D01*
X119018284Y-54571938D01*
X119012029Y-54592557D01*
X119001876Y-54611553D01*
X118988208Y-54628208D01*
X118971553Y-54641876D01*
X118952557Y-54652029D01*
X118931938Y-54658284D01*
X118904360Y-54661000D01*
X118395640Y-54661000D01*
X118368062Y-54658284D01*
X118347443Y-54652029D01*
X118328447Y-54641876D01*
X118311792Y-54628208D01*
X118298124Y-54611553D01*
X118287971Y-54592557D01*
X118281716Y-54571938D01*
X118279000Y-54544360D01*
X118279000Y-54085640D01*
X118281716Y-54058062D01*
X118287971Y-54037443D01*
X118298124Y-54018447D01*
X118311792Y-54001792D01*
X118328447Y-53988124D01*
X118347443Y-53977971D01*
X118368062Y-53971716D01*
X118395640Y-53969000D01*
X118904360Y-53969000D01*
X118931938Y-53971716D01*
X118931938Y-53971716D01*
G37*
G36*
X120031938Y-53971716D02*
G01*
X120052557Y-53977971D01*
X120071553Y-53988124D01*
X120088208Y-54001792D01*
X120101876Y-54018447D01*
X120112029Y-54037443D01*
X120118284Y-54058062D01*
X120121000Y-54085640D01*
X120121000Y-54544360D01*
X120118284Y-54571938D01*
X120112029Y-54592557D01*
X120101876Y-54611553D01*
X120088208Y-54628208D01*
X120071553Y-54641876D01*
X120052557Y-54652029D01*
X120031938Y-54658284D01*
X120004360Y-54661000D01*
X119495640Y-54661000D01*
X119468062Y-54658284D01*
X119447443Y-54652029D01*
X119428447Y-54641876D01*
X119411792Y-54628208D01*
X119398124Y-54611553D01*
X119387971Y-54592557D01*
X119381716Y-54571938D01*
X119379000Y-54544360D01*
X119379000Y-54085640D01*
X119381716Y-54058062D01*
X119387971Y-54037443D01*
X119398124Y-54018447D01*
X119411792Y-54001792D01*
X119428447Y-53988124D01*
X119447443Y-53977971D01*
X119468062Y-53971716D01*
X119495640Y-53969000D01*
X120004360Y-53969000D01*
X120031938Y-53971716D01*
X120031938Y-53971716D01*
G37*
G36*
X143766000Y-54376000D02*
G01*
X138834000Y-54376000D01*
X138834000Y-51861000D01*
X143766000Y-51861000D01*
X143766000Y-54376000D01*
X143766000Y-54376000D01*
G37*
G36*
X84131000Y-54266000D02*
G01*
X79199000Y-54266000D01*
X79199000Y-51751000D01*
X84131000Y-51751000D01*
X84131000Y-54266000D01*
X84131000Y-54266000D01*
G37*
G36*
X138151645Y-52605405D02*
G01*
X138248753Y-52645629D01*
X138336149Y-52704025D01*
X138410475Y-52778351D01*
X138468871Y-52865747D01*
X138509095Y-52962855D01*
X138529600Y-53065944D01*
X138529600Y-53171056D01*
X138509095Y-53274145D01*
X138468871Y-53371253D01*
X138410475Y-53458649D01*
X138336149Y-53532975D01*
X138248753Y-53591371D01*
X138151645Y-53631595D01*
X138048556Y-53652100D01*
X137943444Y-53652100D01*
X137840355Y-53631595D01*
X137743247Y-53591371D01*
X137655851Y-53532975D01*
X137581525Y-53458649D01*
X137523129Y-53371253D01*
X137482905Y-53274145D01*
X137462400Y-53171056D01*
X137462400Y-53065944D01*
X137482905Y-52962855D01*
X137523129Y-52865747D01*
X137581525Y-52778351D01*
X137655851Y-52704025D01*
X137743247Y-52645629D01*
X137840355Y-52605405D01*
X137943444Y-52584900D01*
X138048556Y-52584900D01*
X138151645Y-52605405D01*
X138151645Y-52605405D01*
G37*
G36*
X118931938Y-52941716D02*
G01*
X118952557Y-52947971D01*
X118971553Y-52958124D01*
X118988208Y-52971792D01*
X119001876Y-52988447D01*
X119012029Y-53007443D01*
X119018284Y-53028062D01*
X119021000Y-53055640D01*
X119021000Y-53514360D01*
X119018284Y-53541938D01*
X119012029Y-53562557D01*
X119001876Y-53581553D01*
X118988208Y-53598208D01*
X118971553Y-53611876D01*
X118952557Y-53622029D01*
X118931938Y-53628284D01*
X118904360Y-53631000D01*
X118395640Y-53631000D01*
X118368062Y-53628284D01*
X118347443Y-53622029D01*
X118328447Y-53611876D01*
X118311792Y-53598208D01*
X118298124Y-53581553D01*
X118287971Y-53562557D01*
X118281716Y-53541938D01*
X118279000Y-53514360D01*
X118279000Y-53055640D01*
X118281716Y-53028062D01*
X118287971Y-53007443D01*
X118298124Y-52988447D01*
X118311792Y-52971792D01*
X118328447Y-52958124D01*
X118347443Y-52947971D01*
X118368062Y-52941716D01*
X118395640Y-52939000D01*
X118904360Y-52939000D01*
X118931938Y-52941716D01*
X118931938Y-52941716D01*
G37*
G36*
X120031938Y-52941716D02*
G01*
X120052557Y-52947971D01*
X120071553Y-52958124D01*
X120088208Y-52971792D01*
X120101876Y-52988447D01*
X120112029Y-53007443D01*
X120118284Y-53028062D01*
X120121000Y-53055640D01*
X120121000Y-53514360D01*
X120118284Y-53541938D01*
X120112029Y-53562557D01*
X120101876Y-53581553D01*
X120088208Y-53598208D01*
X120071553Y-53611876D01*
X120052557Y-53622029D01*
X120031938Y-53628284D01*
X120004360Y-53631000D01*
X119495640Y-53631000D01*
X119468062Y-53628284D01*
X119447443Y-53622029D01*
X119428447Y-53611876D01*
X119411792Y-53598208D01*
X119398124Y-53581553D01*
X119387971Y-53562557D01*
X119381716Y-53541938D01*
X119379000Y-53514360D01*
X119379000Y-53055640D01*
X119381716Y-53028062D01*
X119387971Y-53007443D01*
X119398124Y-52988447D01*
X119411792Y-52971792D01*
X119428447Y-52958124D01*
X119447443Y-52947971D01*
X119468062Y-52941716D01*
X119495640Y-52939000D01*
X120004360Y-52939000D01*
X120031938Y-52941716D01*
X120031938Y-52941716D01*
G37*
G36*
X85124645Y-52495405D02*
G01*
X85221753Y-52535629D01*
X85309149Y-52594025D01*
X85383475Y-52668351D01*
X85441871Y-52755747D01*
X85482095Y-52852855D01*
X85502600Y-52955944D01*
X85502600Y-53061056D01*
X85482095Y-53164145D01*
X85441871Y-53261253D01*
X85383475Y-53348649D01*
X85309149Y-53422975D01*
X85221753Y-53481371D01*
X85124645Y-53521595D01*
X85021556Y-53542100D01*
X84916444Y-53542100D01*
X84813355Y-53521595D01*
X84716247Y-53481371D01*
X84628851Y-53422975D01*
X84554525Y-53348649D01*
X84496129Y-53261253D01*
X84455905Y-53164145D01*
X84435400Y-53061056D01*
X84435400Y-52955944D01*
X84455905Y-52852855D01*
X84496129Y-52755747D01*
X84554525Y-52668351D01*
X84628851Y-52594025D01*
X84716247Y-52535629D01*
X84813355Y-52495405D01*
X84916444Y-52474900D01*
X85021556Y-52474900D01*
X85124645Y-52495405D01*
X85124645Y-52495405D01*
G37*
G36*
X123334468Y-52303565D02*
G01*
X123373138Y-52315296D01*
X123408777Y-52334346D01*
X123440017Y-52359983D01*
X123465654Y-52391223D01*
X123484704Y-52426862D01*
X123496435Y-52465532D01*
X123501000Y-52511888D01*
X123501000Y-53163112D01*
X123496435Y-53209468D01*
X123484704Y-53248138D01*
X123465654Y-53283777D01*
X123440017Y-53315017D01*
X123408777Y-53340654D01*
X123373138Y-53359704D01*
X123334468Y-53371435D01*
X123288112Y-53376000D01*
X122211888Y-53376000D01*
X122165532Y-53371435D01*
X122126862Y-53359704D01*
X122091223Y-53340654D01*
X122059983Y-53315017D01*
X122034346Y-53283777D01*
X122015296Y-53248138D01*
X122003565Y-53209468D01*
X121999000Y-53163112D01*
X121999000Y-52511888D01*
X122003565Y-52465532D01*
X122015296Y-52426862D01*
X122034346Y-52391223D01*
X122059983Y-52359983D01*
X122091223Y-52334346D01*
X122126862Y-52315296D01*
X122165532Y-52303565D01*
X122211888Y-52299000D01*
X123288112Y-52299000D01*
X123334468Y-52303565D01*
X123334468Y-52303565D01*
G37*
G36*
X120031938Y-51971716D02*
G01*
X120052557Y-51977971D01*
X120071553Y-51988124D01*
X120088208Y-52001792D01*
X120101876Y-52018447D01*
X120112029Y-52037443D01*
X120118284Y-52058062D01*
X120121000Y-52085640D01*
X120121000Y-52544360D01*
X120118284Y-52571938D01*
X120112029Y-52592557D01*
X120101876Y-52611553D01*
X120088208Y-52628208D01*
X120071553Y-52641876D01*
X120052557Y-52652029D01*
X120031938Y-52658284D01*
X120004360Y-52661000D01*
X119495640Y-52661000D01*
X119468062Y-52658284D01*
X119447443Y-52652029D01*
X119428447Y-52641876D01*
X119411792Y-52628208D01*
X119398124Y-52611553D01*
X119387971Y-52592557D01*
X119381716Y-52571938D01*
X119379000Y-52544360D01*
X119379000Y-52085640D01*
X119381716Y-52058062D01*
X119387971Y-52037443D01*
X119398124Y-52018447D01*
X119411792Y-52001792D01*
X119428447Y-51988124D01*
X119447443Y-51977971D01*
X119468062Y-51971716D01*
X119495640Y-51969000D01*
X120004360Y-51969000D01*
X120031938Y-51971716D01*
X120031938Y-51971716D01*
G37*
G36*
X118931938Y-51971716D02*
G01*
X118952557Y-51977971D01*
X118971553Y-51988124D01*
X118988208Y-52001792D01*
X119001876Y-52018447D01*
X119012029Y-52037443D01*
X119018284Y-52058062D01*
X119021000Y-52085640D01*
X119021000Y-52544360D01*
X119018284Y-52571938D01*
X119012029Y-52592557D01*
X119001876Y-52611553D01*
X118988208Y-52628208D01*
X118971553Y-52641876D01*
X118952557Y-52652029D01*
X118931938Y-52658284D01*
X118904360Y-52661000D01*
X118395640Y-52661000D01*
X118368062Y-52658284D01*
X118347443Y-52652029D01*
X118328447Y-52641876D01*
X118311792Y-52628208D01*
X118298124Y-52611553D01*
X118287971Y-52592557D01*
X118281716Y-52571938D01*
X118279000Y-52544360D01*
X118279000Y-52085640D01*
X118281716Y-52058062D01*
X118287971Y-52037443D01*
X118298124Y-52018447D01*
X118311792Y-52001792D01*
X118328447Y-51988124D01*
X118347443Y-51977971D01*
X118368062Y-51971716D01*
X118395640Y-51969000D01*
X118904360Y-51969000D01*
X118931938Y-51971716D01*
X118931938Y-51971716D01*
G37*
G36*
X130818604Y-49028347D02*
G01*
X130855144Y-49039432D01*
X130888821Y-49057433D01*
X130918341Y-49081659D01*
X130942567Y-49111179D01*
X130960568Y-49144856D01*
X130971653Y-49181396D01*
X130976000Y-49225538D01*
X130976000Y-51574462D01*
X130971653Y-51618604D01*
X130960568Y-51655144D01*
X130942567Y-51688821D01*
X130918341Y-51718341D01*
X130888821Y-51742567D01*
X130855144Y-51760568D01*
X130818604Y-51771653D01*
X130774462Y-51776000D01*
X129825538Y-51776000D01*
X129781396Y-51771653D01*
X129744856Y-51760568D01*
X129711179Y-51742567D01*
X129681659Y-51718341D01*
X129657433Y-51688821D01*
X129639432Y-51655144D01*
X129628347Y-51618604D01*
X129624000Y-51574462D01*
X129624000Y-49225538D01*
X129628347Y-49181396D01*
X129639432Y-49144856D01*
X129657433Y-49111179D01*
X129681659Y-49081659D01*
X129711179Y-49057433D01*
X129744856Y-49039432D01*
X129781396Y-49028347D01*
X129825538Y-49024000D01*
X130774462Y-49024000D01*
X130818604Y-49028347D01*
X130818604Y-49028347D01*
G37*
G36*
X128018604Y-49028347D02*
G01*
X128055144Y-49039432D01*
X128088821Y-49057433D01*
X128118341Y-49081659D01*
X128142567Y-49111179D01*
X128160568Y-49144856D01*
X128171653Y-49181396D01*
X128176000Y-49225538D01*
X128176000Y-51574462D01*
X128171653Y-51618604D01*
X128160568Y-51655144D01*
X128142567Y-51688821D01*
X128118341Y-51718341D01*
X128088821Y-51742567D01*
X128055144Y-51760568D01*
X128018604Y-51771653D01*
X127974462Y-51776000D01*
X127025538Y-51776000D01*
X126981396Y-51771653D01*
X126944856Y-51760568D01*
X126911179Y-51742567D01*
X126881659Y-51718341D01*
X126857433Y-51688821D01*
X126839432Y-51655144D01*
X126828347Y-51618604D01*
X126824000Y-51574462D01*
X126824000Y-50452604D01*
X126821598Y-50428218D01*
X126814485Y-50404769D01*
X126802934Y-50383158D01*
X126787389Y-50364216D01*
X126768447Y-50348671D01*
X126746836Y-50337120D01*
X126723387Y-50330007D01*
X126699001Y-50327605D01*
X126674615Y-50330007D01*
X126651166Y-50337120D01*
X126629556Y-50348671D01*
X126572578Y-50386742D01*
X126517797Y-50409433D01*
X126459647Y-50421000D01*
X126400353Y-50421000D01*
X126342203Y-50409433D01*
X126287425Y-50386743D01*
X126287424Y-50386743D01*
X126287423Y-50386742D01*
X126238124Y-50353802D01*
X126196198Y-50311876D01*
X126163258Y-50262577D01*
X126163257Y-50262575D01*
X126140567Y-50207797D01*
X126129000Y-50149647D01*
X126129000Y-50090353D01*
X126140567Y-50032203D01*
X126163257Y-49977425D01*
X126166665Y-49972324D01*
X126196198Y-49928124D01*
X126238124Y-49886198D01*
X126287423Y-49853258D01*
X126287425Y-49853257D01*
X126342203Y-49830567D01*
X126400353Y-49819000D01*
X126459647Y-49819000D01*
X126517797Y-49830567D01*
X126572578Y-49853258D01*
X126629556Y-49891329D01*
X126651167Y-49902880D01*
X126674616Y-49909993D01*
X126699002Y-49912395D01*
X126723388Y-49909993D01*
X126746837Y-49902880D01*
X126768447Y-49891328D01*
X126787389Y-49875783D01*
X126802934Y-49856841D01*
X126814485Y-49835230D01*
X126821598Y-49811781D01*
X126824000Y-49787396D01*
X126824000Y-49225538D01*
X126828347Y-49181396D01*
X126839432Y-49144856D01*
X126857433Y-49111179D01*
X126881659Y-49081659D01*
X126911179Y-49057433D01*
X126944856Y-49039432D01*
X126981396Y-49028347D01*
X127025538Y-49024000D01*
X127974462Y-49024000D01*
X128018604Y-49028347D01*
X128018604Y-49028347D01*
G37*
G36*
X120031938Y-50941716D02*
G01*
X120052557Y-50947971D01*
X120071553Y-50958124D01*
X120088208Y-50971792D01*
X120101876Y-50988447D01*
X120112029Y-51007443D01*
X120118284Y-51028062D01*
X120121000Y-51055640D01*
X120121000Y-51514360D01*
X120118284Y-51541938D01*
X120112029Y-51562557D01*
X120101876Y-51581553D01*
X120088208Y-51598208D01*
X120071553Y-51611876D01*
X120052557Y-51622029D01*
X120031938Y-51628284D01*
X120004360Y-51631000D01*
X119495640Y-51631000D01*
X119468062Y-51628284D01*
X119447443Y-51622029D01*
X119428447Y-51611876D01*
X119411792Y-51598208D01*
X119398124Y-51581553D01*
X119387971Y-51562557D01*
X119381716Y-51541938D01*
X119379000Y-51514360D01*
X119379000Y-51055640D01*
X119381716Y-51028062D01*
X119387971Y-51007443D01*
X119398124Y-50988447D01*
X119411792Y-50971792D01*
X119428447Y-50958124D01*
X119447443Y-50947971D01*
X119468062Y-50941716D01*
X119495640Y-50939000D01*
X120004360Y-50939000D01*
X120031938Y-50941716D01*
X120031938Y-50941716D01*
G37*
G36*
X123334468Y-50428565D02*
G01*
X123373138Y-50440296D01*
X123408777Y-50459346D01*
X123440017Y-50484983D01*
X123465654Y-50516223D01*
X123484704Y-50551862D01*
X123496435Y-50590532D01*
X123501000Y-50636888D01*
X123501000Y-51288112D01*
X123496435Y-51334468D01*
X123484704Y-51373138D01*
X123465654Y-51408777D01*
X123440017Y-51440017D01*
X123408777Y-51465654D01*
X123373138Y-51484704D01*
X123334468Y-51496435D01*
X123288112Y-51501000D01*
X122211888Y-51501000D01*
X122165532Y-51496435D01*
X122126862Y-51484704D01*
X122091223Y-51465654D01*
X122059983Y-51440017D01*
X122034346Y-51408777D01*
X122015296Y-51373138D01*
X122003565Y-51334468D01*
X121999000Y-51288112D01*
X121999000Y-50636888D01*
X122003565Y-50590532D01*
X122015296Y-50551862D01*
X122034346Y-50516223D01*
X122059983Y-50484983D01*
X122091223Y-50459346D01*
X122126862Y-50440296D01*
X122165532Y-50428565D01*
X122211888Y-50424000D01*
X123288112Y-50424000D01*
X123334468Y-50428565D01*
X123334468Y-50428565D01*
G37*
G36*
X120031938Y-49971716D02*
G01*
X120052557Y-49977971D01*
X120071553Y-49988124D01*
X120088208Y-50001792D01*
X120101876Y-50018447D01*
X120112029Y-50037443D01*
X120118284Y-50058062D01*
X120121000Y-50085640D01*
X120121000Y-50544360D01*
X120118284Y-50571938D01*
X120112029Y-50592557D01*
X120101876Y-50611553D01*
X120088208Y-50628208D01*
X120071553Y-50641876D01*
X120052557Y-50652029D01*
X120031938Y-50658284D01*
X120004360Y-50661000D01*
X119495640Y-50661000D01*
X119468062Y-50658284D01*
X119447443Y-50652029D01*
X119428447Y-50641876D01*
X119411792Y-50628208D01*
X119398124Y-50611553D01*
X119387971Y-50592557D01*
X119381716Y-50571938D01*
X119379000Y-50544360D01*
X119379000Y-50085640D01*
X119381716Y-50058062D01*
X119387971Y-50037443D01*
X119398124Y-50018447D01*
X119411792Y-50001792D01*
X119428447Y-49988124D01*
X119447443Y-49977971D01*
X119468062Y-49971716D01*
X119495640Y-49969000D01*
X120004360Y-49969000D01*
X120031938Y-49971716D01*
X120031938Y-49971716D01*
G37*
G36*
X140817021Y-43306640D02*
G01*
X141326769Y-43517785D01*
X141326771Y-43517786D01*
X141785534Y-43824321D01*
X142175679Y-44214466D01*
X142482214Y-44673229D01*
X142482215Y-44673231D01*
X142693360Y-45182979D01*
X142801000Y-45724124D01*
X142801000Y-46275876D01*
X142693360Y-46817021D01*
X142482215Y-47326769D01*
X142482214Y-47326771D01*
X142175679Y-47785534D01*
X141785534Y-48175679D01*
X141326771Y-48482214D01*
X141326770Y-48482215D01*
X141326769Y-48482215D01*
X140817021Y-48693360D01*
X140275876Y-48801000D01*
X139724124Y-48801000D01*
X139182979Y-48693360D01*
X138673231Y-48482215D01*
X138673230Y-48482215D01*
X138673229Y-48482214D01*
X138214466Y-48175679D01*
X137824321Y-47785534D01*
X137517786Y-47326771D01*
X137517785Y-47326769D01*
X137306640Y-46817021D01*
X137199000Y-46275876D01*
X137199000Y-45724124D01*
X137306640Y-45182979D01*
X137517785Y-44673231D01*
X137517786Y-44673229D01*
X137824321Y-44214466D01*
X138214466Y-43824321D01*
X138673229Y-43517786D01*
X138673231Y-43517785D01*
X139182979Y-43306640D01*
X139724124Y-43199000D01*
X140275876Y-43199000D01*
X140817021Y-43306640D01*
X140817021Y-43306640D01*
G37*
G36*
X83817021Y-43306640D02*
G01*
X84326769Y-43517785D01*
X84326771Y-43517786D01*
X84785534Y-43824321D01*
X85175679Y-44214466D01*
X85482214Y-44673229D01*
X85482215Y-44673231D01*
X85693360Y-45182979D01*
X85801000Y-45724124D01*
X85801000Y-46275876D01*
X85693360Y-46817021D01*
X85482215Y-47326769D01*
X85482214Y-47326771D01*
X85175679Y-47785534D01*
X84785534Y-48175679D01*
X84326771Y-48482214D01*
X84326770Y-48482215D01*
X84326769Y-48482215D01*
X83817021Y-48693360D01*
X83275876Y-48801000D01*
X82724124Y-48801000D01*
X82182979Y-48693360D01*
X81673231Y-48482215D01*
X81673230Y-48482215D01*
X81673229Y-48482214D01*
X81214466Y-48175679D01*
X80824321Y-47785534D01*
X80517786Y-47326771D01*
X80517785Y-47326769D01*
X80306640Y-46817021D01*
X80199000Y-46275876D01*
X80199000Y-45724124D01*
X80306640Y-45182979D01*
X80517785Y-44673231D01*
X80517786Y-44673229D01*
X80824321Y-44214466D01*
X81214466Y-43824321D01*
X81673229Y-43517786D01*
X81673231Y-43517785D01*
X82182979Y-43306640D01*
X82724124Y-43199000D01*
X83275876Y-43199000D01*
X83817021Y-43306640D01*
X83817021Y-43306640D01*
G37*
M02*
