M48
; DRILL file {KiCad 5.1.2-f72e74a~84~ubuntu18.04.1} date Sat 13 Jul 2019 09:23:30 AM EDT
; FORMAT={-:-/ absolute / inch / decimal}
; #@! TF.CreationDate,2019-07-13T09:23:30-04:00
; #@! TF.GenerationSoftware,Kicad,Pcbnew,5.1.2-f72e74a~84~ubuntu18.04.1
; #@! TF.FileFunction,Plated,1,2,PTH
FMAT,2
INCH
T1C0.0130
T2C0.0180
T3C0.1260
%
G90
G05
T1
X3.1496Y-2.6575
X3.3465Y-2.1457
X3.3626Y-2.3736
X3.4118Y-2.3339
X3.4252Y-2.185
X3.4744Y-2.1949
X3.4754Y-2.314
X3.5335Y-2.1949
X3.5335Y-2.1949
X3.5433Y-1.8701
X3.5433Y-2.0669
X3.5433Y-2.4606
X3.5433Y-2.6575
X3.5433Y-2.8543
X3.5543Y-2.3012
X3.6024Y-2.3031
X3.6063Y-2.1831
X3.6417Y-2.2146
X3.6811Y-2.2047
X3.6811Y-2.3031
X3.7175Y-2.186
X3.7402Y-1.8701
X3.7402Y-2.0669
X3.7402Y-2.4606
X3.7402Y-2.6575
X3.7402Y-2.8543
X3.7598Y-2.3031
X3.7795Y-2.2047
X3.7844Y-2.7126
X3.7992Y-2.4941
X3.8228Y-2.186
X3.8386Y-2.3031
X3.8396Y-2.7156
X3.8484Y-2.499
X3.8583Y-2.2047
X3.8976Y-2.2213
X3.9173Y-2.3031
X3.937Y-1.8701
X3.937Y-2.0669
X3.937Y-2.2047
X3.937Y-2.4606
X3.937Y-2.6575
X3.937Y-2.8543
X3.9626Y-2.4921
X3.9783Y-2.1919
X3.9882Y-2.6543
X3.9961Y-2.3031
X4.0157Y-2.2217
X4.0492Y-2.5059
X4.0502Y-2.7096
X4.0551Y-2.2205
X4.0748Y-2.3031
X4.0965Y-2.188
X4.1043Y-2.5059
X4.1063Y-2.7096
X4.1331Y-2.2209
X4.1339Y-1.8701
X4.1339Y-2.0669
X4.1339Y-2.8543
X4.1417Y-2.4685
X4.1535Y-2.3031
X4.1732Y-2.2047
X4.2126Y-2.2047
X4.2323Y-2.3031
X4.251Y-2.3573
X4.2628Y-2.1417
X4.3012Y-2.3593
X4.3061Y-2.1506
X4.3307Y-1.8701
X4.3307Y-2.0669
X4.3307Y-2.3031
X4.3307Y-2.4606
X4.3307Y-2.6575
X4.3307Y-2.8543
X4.3504Y-2.3425
X4.3622Y-2.2205
X4.4016Y-2.2205
X4.4094Y-2.3819
X4.4154Y-2.189
X4.4571Y-2.3016
X4.4577Y-2.189
X4.4882Y-2.3917
X4.4951Y-2.1909
X4.5108Y-2.1358
X4.5198Y-2.301
X4.5276Y-1.8701
X4.5276Y-2.0669
X4.5276Y-2.6575
X4.5276Y-2.8543
X4.5276Y-2.8543
X4.5669Y-2.3917
X4.569Y-2.301
X4.628Y-2.301
X4.6437Y-2.503
X4.6467Y-2.4695
X4.6693Y-2.2126
X4.6811Y-2.1368
X4.7184Y-2.2106
X4.7234Y-2.4902
X4.7244Y-1.8701
X4.7244Y-2.0669
X4.7244Y-2.6575
X4.7244Y-2.8543
X4.748Y-2.3514
X4.7913Y-2.1585
X4.815Y-2.3593
X4.8376Y-2.1545
X4.8563Y-2.3593
X4.9016Y-2.2146
X4.9016Y-2.3031
X4.9213Y-1.8701
X4.9213Y-2.0669
X4.9213Y-2.4016
X4.9213Y-2.6575
X4.9213Y-2.8543
X4.9705Y-2.2244
X4.9803Y-2.3031
X5.0059Y-2.1939
X5.0394Y-2.4016
X5.0492Y-2.2146
X5.0689Y-2.3031
X5.0886Y-2.2146
X5.1181Y-1.8701
X5.1181Y-2.0669
X5.1181Y-2.6575
X5.1181Y-2.8543
X5.1201Y-2.1949
X5.1673Y-2.2146
X5.2067Y-2.2146
X5.2559Y-2.2146
X5.2657Y-2.313
X5.315Y-1.8701
X5.315Y-2.0669
X5.315Y-2.6575
X5.315Y-2.8543
X5.3445Y-2.3327
X5.3543Y-2.185
X5.4232Y-2.372
X5.4429Y-2.1358
T2
X5.4329Y-2.0913
X5.4329Y-2.4363
X3.3452Y-2.0869
X3.3452Y-2.4319
T3
X3.2677Y-2.7559
X5.5118Y-1.811
X5.5118Y-2.7559
X3.2677Y-1.811
T0
M30
