G04 #@! TF.GenerationSoftware,KiCad,Pcbnew,5.1.2-f72e74a~84~ubuntu18.04.1*
G04 #@! TF.CreationDate,2019-07-13T09:23:27-04:00*
G04 #@! TF.ProjectId,iss-lna,6973732d-6c6e-4612-9e6b-696361645f70,rev?*
G04 #@! TF.SameCoordinates,Original*
G04 #@! TF.FileFunction,Copper,L2,Bot*
G04 #@! TF.FilePolarity,Positive*
%FSLAX46Y46*%
G04 Gerber Fmt 4.6, Leading zero omitted, Abs format (unit mm)*
G04 Created by KiCad (PCBNEW 5.1.2-f72e74a~84~ubuntu18.04.1) date 2019-07-13 09:23:27*
%MOMM*%
%LPD*%
G04 APERTURE LIST*
%ADD10C,5.500000*%
%ADD11C,0.965200*%
%ADD12R,4.830000X2.413000*%
%ADD13C,0.690000*%
%ADD14C,0.849200*%
%ADD15C,0.250000*%
%ADD16C,0.254000*%
G04 APERTURE END LIST*
D10*
X140000000Y-70000000D03*
X140000000Y-46000000D03*
X83000000Y-70000000D03*
X83000000Y-46000000D03*
D11*
X137996000Y-53118500D03*
X137996000Y-61881500D03*
D12*
X141315000Y-53118500D03*
X141300000Y-61881500D03*
D11*
X84969000Y-61771500D03*
X84969000Y-53008500D03*
D12*
X81650000Y-61771500D03*
X81665000Y-53008500D03*
D13*
X135000000Y-52500000D03*
X86660000Y-59280000D03*
X88250000Y-55750000D03*
X87000000Y-55500000D03*
X85000000Y-54500000D03*
X138250000Y-54250000D03*
X137750000Y-60250000D03*
X135750000Y-59250000D03*
X133750000Y-58750000D03*
X136000000Y-55500000D03*
X133500000Y-56250000D03*
X85410000Y-60290000D03*
X121700000Y-54825000D03*
X117550057Y-58446410D03*
X113210000Y-58460000D03*
X120600000Y-59725000D03*
X122300000Y-59925000D03*
X123350000Y-59925000D03*
X122875000Y-54725000D03*
X127150000Y-55725000D03*
X130050000Y-55750000D03*
X114575000Y-54250000D03*
X113225000Y-55600000D03*
X114175000Y-55650000D03*
X118900000Y-54275000D03*
X107975000Y-59875000D03*
X109250000Y-59925000D03*
X108275000Y-54400000D03*
X109375000Y-54625000D03*
X104050000Y-55575000D03*
X101050000Y-55675000D03*
X97100000Y-55525000D03*
X94425000Y-55525000D03*
X91600000Y-55450000D03*
X102850000Y-63650000D03*
X104250000Y-63650000D03*
X102875000Y-68825000D03*
X104300000Y-68825000D03*
X96125000Y-68900000D03*
X97525000Y-68975000D03*
X96500000Y-63350000D03*
X97750000Y-63475000D03*
X100650000Y-63300000D03*
X119975000Y-63250000D03*
X118025000Y-62725000D03*
X117950000Y-63575000D03*
X90280000Y-58450000D03*
X91500000Y-58500000D03*
X93500000Y-58500000D03*
X95500000Y-58500000D03*
X97500000Y-58500000D03*
X99500000Y-58500000D03*
X101500000Y-58500000D03*
X103500000Y-58500000D03*
X105500000Y-58500000D03*
X107500000Y-58500000D03*
X110000000Y-58500000D03*
X106000000Y-56000000D03*
X107000000Y-56000000D03*
X104980000Y-56410000D03*
X103000000Y-56400000D03*
X102000000Y-56430000D03*
X100000000Y-56000000D03*
X99000000Y-56420000D03*
X98000000Y-56000000D03*
X96000000Y-56000000D03*
X93500000Y-56000000D03*
X92500000Y-56250000D03*
X89750000Y-55750000D03*
X89750000Y-55750000D03*
X110500000Y-59500000D03*
X112000000Y-60500000D03*
X114000000Y-60750000D03*
X116000000Y-60750000D03*
X114803590Y-58446410D03*
X116053590Y-58446410D03*
X112150000Y-55600000D03*
X124500000Y-58500000D03*
X126500000Y-58500000D03*
X128750000Y-58500000D03*
X128250000Y-56250000D03*
X129250000Y-56250000D03*
X131250000Y-56250000D03*
X132250000Y-56250000D03*
X126250000Y-56500000D03*
X124500000Y-56250000D03*
X88275000Y-58775000D03*
X90000000Y-52500000D03*
X95000000Y-52500000D03*
X100000000Y-52500000D03*
X105000000Y-52500000D03*
X110000000Y-52500000D03*
X115000000Y-52500000D03*
X120000000Y-52500000D03*
X125000000Y-52500000D03*
X130000000Y-52500000D03*
X90000000Y-47500000D03*
X95000000Y-47500000D03*
X100000000Y-47500000D03*
X105000000Y-47500000D03*
X110000000Y-47500000D03*
X115000000Y-47500000D03*
X120000000Y-47500000D03*
X125000000Y-47500000D03*
X130000000Y-47500000D03*
X135000000Y-47500000D03*
X90000000Y-62500000D03*
X90000000Y-67500000D03*
X80000000Y-67500000D03*
X90000000Y-72500000D03*
X95000000Y-72500000D03*
X95000000Y-67500000D03*
X95000000Y-62500000D03*
X100000000Y-62500000D03*
X105200000Y-62700000D03*
X100000000Y-72500000D03*
X100000000Y-67500000D03*
X105000000Y-72500000D03*
X110000000Y-72500000D03*
X110000000Y-67500000D03*
X110000000Y-62500000D03*
X115000000Y-67500000D03*
X115000000Y-72500000D03*
X115000000Y-72500000D03*
X120000000Y-72500000D03*
X120000000Y-67500000D03*
X125000000Y-67500000D03*
X130000000Y-67500000D03*
X125000000Y-72500000D03*
X130000000Y-72500000D03*
X135000000Y-72500000D03*
X135000000Y-67500000D03*
X101300000Y-67420000D03*
X125000000Y-61000000D03*
X128000000Y-61000000D03*
X110800000Y-56400000D03*
X111800000Y-56400000D03*
X118600000Y-56200000D03*
X119848233Y-56148233D03*
D14*
X121700000Y-54825000D02*
X121171467Y-54825000D01*
X117550057Y-58446410D02*
X116053590Y-58446410D01*
X113391810Y-58446410D02*
X113225000Y-58279600D01*
X122875000Y-54725000D02*
X126150000Y-54725000D01*
X126150000Y-54725000D02*
X127150000Y-55725000D01*
X126150000Y-54725000D02*
X129025000Y-54725000D01*
X129025000Y-54725000D02*
X130050000Y-55750000D01*
X113225000Y-58279600D02*
X113225000Y-55600000D01*
X113900000Y-54925000D02*
X113900000Y-55375000D01*
X113900000Y-55375000D02*
X114175000Y-55650000D01*
X113225000Y-55600000D02*
X113900000Y-54925000D01*
X113900000Y-54925000D02*
X114575000Y-54250000D01*
X119973234Y-55348234D02*
X118900000Y-54275000D01*
X121171467Y-54825000D02*
X120648234Y-55348234D01*
X120648234Y-55348234D02*
X119973234Y-55348234D01*
X120648234Y-55348234D02*
X119848233Y-56148233D01*
X108275000Y-54500000D02*
X105125000Y-54500000D01*
X105125000Y-54500000D02*
X104050000Y-55575000D01*
X105125000Y-54500000D02*
X102225000Y-54500000D01*
X102225000Y-54500000D02*
X101050000Y-55675000D01*
X102225000Y-54500000D02*
X98125000Y-54500000D01*
X98125000Y-54500000D02*
X97100000Y-55525000D01*
X98125000Y-54500000D02*
X95450000Y-54500000D01*
X95450000Y-54500000D02*
X94425000Y-55525000D01*
X95450000Y-54500000D02*
X92550000Y-54500000D01*
X97750000Y-63475000D02*
X100475000Y-63475000D01*
X100475000Y-63475000D02*
X100650000Y-63300000D01*
X110350000Y-55600000D02*
X109375000Y-54625000D01*
X113225000Y-55600000D02*
X112150000Y-55600000D01*
D15*
X117950000Y-62800000D02*
X118025000Y-62725000D01*
X117950000Y-63575000D02*
X117950000Y-62800000D01*
X118550000Y-63250000D02*
X118025000Y-62725000D01*
X119975000Y-63250000D02*
X118550000Y-63250000D01*
X119975000Y-60350000D02*
X120600000Y-59725000D01*
X119975000Y-63250000D02*
X119975000Y-60350000D01*
X122100000Y-59725000D02*
X122300000Y-59925000D01*
X120600000Y-59725000D02*
X122100000Y-59725000D01*
X118828647Y-59725000D02*
X117550057Y-58446410D01*
X120600000Y-59725000D02*
X118828647Y-59725000D01*
X107925000Y-59875000D02*
X107975000Y-59875000D01*
X104250000Y-63650000D02*
X105200000Y-62700000D01*
X107975000Y-56025000D02*
X109375000Y-54625000D01*
X107975000Y-59875000D02*
X107975000Y-56025000D01*
X102500000Y-63300000D02*
X102850000Y-63650000D01*
X100650000Y-63300000D02*
X102500000Y-63300000D01*
X104300000Y-63700000D02*
X104250000Y-63650000D01*
X104300000Y-68825000D02*
X104300000Y-63700000D01*
X97525000Y-63700000D02*
X97750000Y-63475000D01*
X97525000Y-68975000D02*
X97525000Y-63700000D01*
X134696000Y-61881500D02*
X138000000Y-61881500D01*
X134696000Y-60396000D02*
X130050000Y-55750000D01*
X134696000Y-61881500D02*
X134696000Y-60396000D01*
D14*
X89168500Y-53018500D02*
X91600000Y-55450000D01*
X81600000Y-53018500D02*
X89168500Y-53018500D01*
X85268500Y-61781500D02*
X88275000Y-58775000D01*
X81585000Y-61781500D02*
X85268500Y-61781500D01*
X92550000Y-54500000D02*
X92050000Y-55000000D01*
X92050000Y-55000000D02*
X91600000Y-55450000D01*
X114803590Y-58446410D02*
X113391810Y-58446410D01*
X116053590Y-58446410D02*
X114803590Y-58446410D01*
X112150000Y-55600000D02*
X110350000Y-55600000D01*
X88275000Y-58775000D02*
X92050000Y-55000000D01*
D15*
X105200000Y-62700000D02*
X107925000Y-59975000D01*
D14*
X119848233Y-56148233D02*
X117550057Y-58446410D01*
D16*
G36*
X141453893Y-42707670D02*
G01*
X141890498Y-42839489D01*
X142293185Y-43053600D01*
X142646612Y-43341848D01*
X142937327Y-43693261D01*
X143154242Y-44094439D01*
X143289106Y-44530113D01*
X143340001Y-45014353D01*
X143340000Y-70967721D01*
X143292330Y-71453894D01*
X143160512Y-71890497D01*
X142946399Y-72293186D01*
X142658150Y-72646613D01*
X142306739Y-72937327D01*
X141905564Y-73154240D01*
X141469886Y-73289106D01*
X140985664Y-73340000D01*
X82032279Y-73340000D01*
X81546106Y-73292330D01*
X81109503Y-73160512D01*
X80706814Y-72946399D01*
X80353387Y-72658150D01*
X80062673Y-72306739D01*
X79845760Y-71905564D01*
X79710894Y-71469886D01*
X79660000Y-70985664D01*
X79660000Y-45032279D01*
X79707670Y-44546107D01*
X79839489Y-44109502D01*
X80053600Y-43706815D01*
X80341848Y-43353388D01*
X80693261Y-43062673D01*
X81094439Y-42845758D01*
X81530113Y-42710894D01*
X82014344Y-42660000D01*
X140967721Y-42660000D01*
X141453893Y-42707670D01*
X141453893Y-42707670D01*
G37*
X141453893Y-42707670D02*
X141890498Y-42839489D01*
X142293185Y-43053600D01*
X142646612Y-43341848D01*
X142937327Y-43693261D01*
X143154242Y-44094439D01*
X143289106Y-44530113D01*
X143340001Y-45014353D01*
X143340000Y-70967721D01*
X143292330Y-71453894D01*
X143160512Y-71890497D01*
X142946399Y-72293186D01*
X142658150Y-72646613D01*
X142306739Y-72937327D01*
X141905564Y-73154240D01*
X141469886Y-73289106D01*
X140985664Y-73340000D01*
X82032279Y-73340000D01*
X81546106Y-73292330D01*
X81109503Y-73160512D01*
X80706814Y-72946399D01*
X80353387Y-72658150D01*
X80062673Y-72306739D01*
X79845760Y-71905564D01*
X79710894Y-71469886D01*
X79660000Y-70985664D01*
X79660000Y-45032279D01*
X79707670Y-44546107D01*
X79839489Y-44109502D01*
X80053600Y-43706815D01*
X80341848Y-43353388D01*
X80693261Y-43062673D01*
X81094439Y-42845758D01*
X81530113Y-42710894D01*
X82014344Y-42660000D01*
X140967721Y-42660000D01*
X141453893Y-42707670D01*
M02*
