G04 #@! TF.GenerationSoftware,KiCad,Pcbnew,5.1.2-f72e74a~84~ubuntu18.04.1*
G04 #@! TF.CreationDate,2019-07-13T08:00:24-04:00*
G04 #@! TF.ProjectId,iss-lna,6973732d-6c6e-4612-9e6b-696361645f70,rev?*
G04 #@! TF.SameCoordinates,Original*
G04 #@! TF.FileFunction,Paste,Top*
G04 #@! TF.FilePolarity,Positive*
%FSLAX46Y46*%
G04 Gerber Fmt 4.6, Leading zero omitted, Abs format (unit mm)*
G04 Created by KiCad (PCBNEW 5.1.2-f72e74a~84~ubuntu18.04.1) date 2019-07-13 08:00:24*
%MOMM*%
%LPD*%
G04 APERTURE LIST*
%ADD10R,4.830000X2.413000*%
%ADD11R,4.830000X2.286000*%
%ADD12C,0.165100*%
%ADD13C,0.100000*%
%ADD14R,0.254000X2.616200*%
%ADD15C,0.590000*%
%ADD16C,0.500000*%
%ADD17R,0.800000X0.600000*%
%ADD18R,0.600000X0.600000*%
%ADD19C,1.250000*%
%ADD20R,2.000000X1.050000*%
%ADD21R,1.050000X1.000000*%
%ADD22C,0.975000*%
G04 APERTURE END LIST*
D10*
X141300000Y-61881500D03*
D11*
X141300000Y-57500000D03*
D10*
X141300000Y-53118500D03*
D12*
X138802450Y-57500000D03*
D13*
G36*
X138719900Y-56191900D02*
G01*
X138885000Y-56357000D01*
X138885000Y-58643000D01*
X138719900Y-58808100D01*
X138719900Y-56191900D01*
X138719900Y-56191900D01*
G37*
D14*
X138592900Y-57500000D03*
D10*
X141315000Y-53118500D03*
X141300000Y-61881500D03*
X81665000Y-53008500D03*
D11*
X81665000Y-57390000D03*
D10*
X81665000Y-61771500D03*
D12*
X84162550Y-57390000D03*
D13*
G36*
X84245100Y-58698100D02*
G01*
X84080000Y-58533000D01*
X84080000Y-56247000D01*
X84245100Y-56081900D01*
X84245100Y-58698100D01*
X84245100Y-58698100D01*
G37*
D14*
X84372100Y-57390000D03*
D10*
X81650000Y-61771500D03*
X81665000Y-53008500D03*
D13*
G36*
X119936958Y-57070710D02*
G01*
X119951276Y-57072834D01*
X119965317Y-57076351D01*
X119978946Y-57081228D01*
X119992031Y-57087417D01*
X120004447Y-57094858D01*
X120016073Y-57103481D01*
X120026798Y-57113202D01*
X120036519Y-57123927D01*
X120045142Y-57135553D01*
X120052583Y-57147969D01*
X120058772Y-57161054D01*
X120063649Y-57174683D01*
X120067166Y-57188724D01*
X120069290Y-57203042D01*
X120070000Y-57217500D01*
X120070000Y-57512500D01*
X120069290Y-57526958D01*
X120067166Y-57541276D01*
X120063649Y-57555317D01*
X120058772Y-57568946D01*
X120052583Y-57582031D01*
X120045142Y-57594447D01*
X120036519Y-57606073D01*
X120026798Y-57616798D01*
X120016073Y-57626519D01*
X120004447Y-57635142D01*
X119992031Y-57642583D01*
X119978946Y-57648772D01*
X119965317Y-57653649D01*
X119951276Y-57657166D01*
X119936958Y-57659290D01*
X119922500Y-57660000D01*
X119577500Y-57660000D01*
X119563042Y-57659290D01*
X119548724Y-57657166D01*
X119534683Y-57653649D01*
X119521054Y-57648772D01*
X119507969Y-57642583D01*
X119495553Y-57635142D01*
X119483927Y-57626519D01*
X119473202Y-57616798D01*
X119463481Y-57606073D01*
X119454858Y-57594447D01*
X119447417Y-57582031D01*
X119441228Y-57568946D01*
X119436351Y-57555317D01*
X119432834Y-57541276D01*
X119430710Y-57526958D01*
X119430000Y-57512500D01*
X119430000Y-57217500D01*
X119430710Y-57203042D01*
X119432834Y-57188724D01*
X119436351Y-57174683D01*
X119441228Y-57161054D01*
X119447417Y-57147969D01*
X119454858Y-57135553D01*
X119463481Y-57123927D01*
X119473202Y-57113202D01*
X119483927Y-57103481D01*
X119495553Y-57094858D01*
X119507969Y-57087417D01*
X119521054Y-57081228D01*
X119534683Y-57076351D01*
X119548724Y-57072834D01*
X119563042Y-57070710D01*
X119577500Y-57070000D01*
X119922500Y-57070000D01*
X119936958Y-57070710D01*
X119936958Y-57070710D01*
G37*
D15*
X119750000Y-57365000D03*
D13*
G36*
X119936958Y-58040710D02*
G01*
X119951276Y-58042834D01*
X119965317Y-58046351D01*
X119978946Y-58051228D01*
X119992031Y-58057417D01*
X120004447Y-58064858D01*
X120016073Y-58073481D01*
X120026798Y-58083202D01*
X120036519Y-58093927D01*
X120045142Y-58105553D01*
X120052583Y-58117969D01*
X120058772Y-58131054D01*
X120063649Y-58144683D01*
X120067166Y-58158724D01*
X120069290Y-58173042D01*
X120070000Y-58187500D01*
X120070000Y-58482500D01*
X120069290Y-58496958D01*
X120067166Y-58511276D01*
X120063649Y-58525317D01*
X120058772Y-58538946D01*
X120052583Y-58552031D01*
X120045142Y-58564447D01*
X120036519Y-58576073D01*
X120026798Y-58586798D01*
X120016073Y-58596519D01*
X120004447Y-58605142D01*
X119992031Y-58612583D01*
X119978946Y-58618772D01*
X119965317Y-58623649D01*
X119951276Y-58627166D01*
X119936958Y-58629290D01*
X119922500Y-58630000D01*
X119577500Y-58630000D01*
X119563042Y-58629290D01*
X119548724Y-58627166D01*
X119534683Y-58623649D01*
X119521054Y-58618772D01*
X119507969Y-58612583D01*
X119495553Y-58605142D01*
X119483927Y-58596519D01*
X119473202Y-58586798D01*
X119463481Y-58576073D01*
X119454858Y-58564447D01*
X119447417Y-58552031D01*
X119441228Y-58538946D01*
X119436351Y-58525317D01*
X119432834Y-58511276D01*
X119430710Y-58496958D01*
X119430000Y-58482500D01*
X119430000Y-58187500D01*
X119430710Y-58173042D01*
X119432834Y-58158724D01*
X119436351Y-58144683D01*
X119441228Y-58131054D01*
X119447417Y-58117969D01*
X119454858Y-58105553D01*
X119463481Y-58093927D01*
X119473202Y-58083202D01*
X119483927Y-58073481D01*
X119495553Y-58064858D01*
X119507969Y-58057417D01*
X119521054Y-58051228D01*
X119534683Y-58046351D01*
X119548724Y-58042834D01*
X119563042Y-58040710D01*
X119577500Y-58040000D01*
X119922500Y-58040000D01*
X119936958Y-58040710D01*
X119936958Y-58040710D01*
G37*
D15*
X119750000Y-58335000D03*
D13*
G36*
X118421958Y-53905710D02*
G01*
X118436276Y-53907834D01*
X118450317Y-53911351D01*
X118463946Y-53916228D01*
X118477031Y-53922417D01*
X118489447Y-53929858D01*
X118501073Y-53938481D01*
X118511798Y-53948202D01*
X118521519Y-53958927D01*
X118530142Y-53970553D01*
X118537583Y-53982969D01*
X118543772Y-53996054D01*
X118548649Y-54009683D01*
X118552166Y-54023724D01*
X118554290Y-54038042D01*
X118555000Y-54052500D01*
X118555000Y-54397500D01*
X118554290Y-54411958D01*
X118552166Y-54426276D01*
X118548649Y-54440317D01*
X118543772Y-54453946D01*
X118537583Y-54467031D01*
X118530142Y-54479447D01*
X118521519Y-54491073D01*
X118511798Y-54501798D01*
X118501073Y-54511519D01*
X118489447Y-54520142D01*
X118477031Y-54527583D01*
X118463946Y-54533772D01*
X118450317Y-54538649D01*
X118436276Y-54542166D01*
X118421958Y-54544290D01*
X118407500Y-54545000D01*
X118112500Y-54545000D01*
X118098042Y-54544290D01*
X118083724Y-54542166D01*
X118069683Y-54538649D01*
X118056054Y-54533772D01*
X118042969Y-54527583D01*
X118030553Y-54520142D01*
X118018927Y-54511519D01*
X118008202Y-54501798D01*
X117998481Y-54491073D01*
X117989858Y-54479447D01*
X117982417Y-54467031D01*
X117976228Y-54453946D01*
X117971351Y-54440317D01*
X117967834Y-54426276D01*
X117965710Y-54411958D01*
X117965000Y-54397500D01*
X117965000Y-54052500D01*
X117965710Y-54038042D01*
X117967834Y-54023724D01*
X117971351Y-54009683D01*
X117976228Y-53996054D01*
X117982417Y-53982969D01*
X117989858Y-53970553D01*
X117998481Y-53958927D01*
X118008202Y-53948202D01*
X118018927Y-53938481D01*
X118030553Y-53929858D01*
X118042969Y-53922417D01*
X118056054Y-53916228D01*
X118069683Y-53911351D01*
X118083724Y-53907834D01*
X118098042Y-53905710D01*
X118112500Y-53905000D01*
X118407500Y-53905000D01*
X118421958Y-53905710D01*
X118421958Y-53905710D01*
G37*
D15*
X118260000Y-54225000D03*
D13*
G36*
X117451958Y-53905710D02*
G01*
X117466276Y-53907834D01*
X117480317Y-53911351D01*
X117493946Y-53916228D01*
X117507031Y-53922417D01*
X117519447Y-53929858D01*
X117531073Y-53938481D01*
X117541798Y-53948202D01*
X117551519Y-53958927D01*
X117560142Y-53970553D01*
X117567583Y-53982969D01*
X117573772Y-53996054D01*
X117578649Y-54009683D01*
X117582166Y-54023724D01*
X117584290Y-54038042D01*
X117585000Y-54052500D01*
X117585000Y-54397500D01*
X117584290Y-54411958D01*
X117582166Y-54426276D01*
X117578649Y-54440317D01*
X117573772Y-54453946D01*
X117567583Y-54467031D01*
X117560142Y-54479447D01*
X117551519Y-54491073D01*
X117541798Y-54501798D01*
X117531073Y-54511519D01*
X117519447Y-54520142D01*
X117507031Y-54527583D01*
X117493946Y-54533772D01*
X117480317Y-54538649D01*
X117466276Y-54542166D01*
X117451958Y-54544290D01*
X117437500Y-54545000D01*
X117142500Y-54545000D01*
X117128042Y-54544290D01*
X117113724Y-54542166D01*
X117099683Y-54538649D01*
X117086054Y-54533772D01*
X117072969Y-54527583D01*
X117060553Y-54520142D01*
X117048927Y-54511519D01*
X117038202Y-54501798D01*
X117028481Y-54491073D01*
X117019858Y-54479447D01*
X117012417Y-54467031D01*
X117006228Y-54453946D01*
X117001351Y-54440317D01*
X116997834Y-54426276D01*
X116995710Y-54411958D01*
X116995000Y-54397500D01*
X116995000Y-54052500D01*
X116995710Y-54038042D01*
X116997834Y-54023724D01*
X117001351Y-54009683D01*
X117006228Y-53996054D01*
X117012417Y-53982969D01*
X117019858Y-53970553D01*
X117028481Y-53958927D01*
X117038202Y-53948202D01*
X117048927Y-53938481D01*
X117060553Y-53929858D01*
X117072969Y-53922417D01*
X117086054Y-53916228D01*
X117099683Y-53911351D01*
X117113724Y-53907834D01*
X117128042Y-53905710D01*
X117142500Y-53905000D01*
X117437500Y-53905000D01*
X117451958Y-53905710D01*
X117451958Y-53905710D01*
G37*
D15*
X117290000Y-54225000D03*
D13*
G36*
X115526958Y-53905710D02*
G01*
X115541276Y-53907834D01*
X115555317Y-53911351D01*
X115568946Y-53916228D01*
X115582031Y-53922417D01*
X115594447Y-53929858D01*
X115606073Y-53938481D01*
X115616798Y-53948202D01*
X115626519Y-53958927D01*
X115635142Y-53970553D01*
X115642583Y-53982969D01*
X115648772Y-53996054D01*
X115653649Y-54009683D01*
X115657166Y-54023724D01*
X115659290Y-54038042D01*
X115660000Y-54052500D01*
X115660000Y-54397500D01*
X115659290Y-54411958D01*
X115657166Y-54426276D01*
X115653649Y-54440317D01*
X115648772Y-54453946D01*
X115642583Y-54467031D01*
X115635142Y-54479447D01*
X115626519Y-54491073D01*
X115616798Y-54501798D01*
X115606073Y-54511519D01*
X115594447Y-54520142D01*
X115582031Y-54527583D01*
X115568946Y-54533772D01*
X115555317Y-54538649D01*
X115541276Y-54542166D01*
X115526958Y-54544290D01*
X115512500Y-54545000D01*
X115217500Y-54545000D01*
X115203042Y-54544290D01*
X115188724Y-54542166D01*
X115174683Y-54538649D01*
X115161054Y-54533772D01*
X115147969Y-54527583D01*
X115135553Y-54520142D01*
X115123927Y-54511519D01*
X115113202Y-54501798D01*
X115103481Y-54491073D01*
X115094858Y-54479447D01*
X115087417Y-54467031D01*
X115081228Y-54453946D01*
X115076351Y-54440317D01*
X115072834Y-54426276D01*
X115070710Y-54411958D01*
X115070000Y-54397500D01*
X115070000Y-54052500D01*
X115070710Y-54038042D01*
X115072834Y-54023724D01*
X115076351Y-54009683D01*
X115081228Y-53996054D01*
X115087417Y-53982969D01*
X115094858Y-53970553D01*
X115103481Y-53958927D01*
X115113202Y-53948202D01*
X115123927Y-53938481D01*
X115135553Y-53929858D01*
X115147969Y-53922417D01*
X115161054Y-53916228D01*
X115174683Y-53911351D01*
X115188724Y-53907834D01*
X115203042Y-53905710D01*
X115217500Y-53905000D01*
X115512500Y-53905000D01*
X115526958Y-53905710D01*
X115526958Y-53905710D01*
G37*
D15*
X115365000Y-54225000D03*
D13*
G36*
X116496958Y-53905710D02*
G01*
X116511276Y-53907834D01*
X116525317Y-53911351D01*
X116538946Y-53916228D01*
X116552031Y-53922417D01*
X116564447Y-53929858D01*
X116576073Y-53938481D01*
X116586798Y-53948202D01*
X116596519Y-53958927D01*
X116605142Y-53970553D01*
X116612583Y-53982969D01*
X116618772Y-53996054D01*
X116623649Y-54009683D01*
X116627166Y-54023724D01*
X116629290Y-54038042D01*
X116630000Y-54052500D01*
X116630000Y-54397500D01*
X116629290Y-54411958D01*
X116627166Y-54426276D01*
X116623649Y-54440317D01*
X116618772Y-54453946D01*
X116612583Y-54467031D01*
X116605142Y-54479447D01*
X116596519Y-54491073D01*
X116586798Y-54501798D01*
X116576073Y-54511519D01*
X116564447Y-54520142D01*
X116552031Y-54527583D01*
X116538946Y-54533772D01*
X116525317Y-54538649D01*
X116511276Y-54542166D01*
X116496958Y-54544290D01*
X116482500Y-54545000D01*
X116187500Y-54545000D01*
X116173042Y-54544290D01*
X116158724Y-54542166D01*
X116144683Y-54538649D01*
X116131054Y-54533772D01*
X116117969Y-54527583D01*
X116105553Y-54520142D01*
X116093927Y-54511519D01*
X116083202Y-54501798D01*
X116073481Y-54491073D01*
X116064858Y-54479447D01*
X116057417Y-54467031D01*
X116051228Y-54453946D01*
X116046351Y-54440317D01*
X116042834Y-54426276D01*
X116040710Y-54411958D01*
X116040000Y-54397500D01*
X116040000Y-54052500D01*
X116040710Y-54038042D01*
X116042834Y-54023724D01*
X116046351Y-54009683D01*
X116051228Y-53996054D01*
X116057417Y-53982969D01*
X116064858Y-53970553D01*
X116073481Y-53958927D01*
X116083202Y-53948202D01*
X116093927Y-53938481D01*
X116105553Y-53929858D01*
X116117969Y-53922417D01*
X116131054Y-53916228D01*
X116144683Y-53911351D01*
X116158724Y-53907834D01*
X116173042Y-53905710D01*
X116187500Y-53905000D01*
X116482500Y-53905000D01*
X116496958Y-53905710D01*
X116496958Y-53905710D01*
G37*
D15*
X116335000Y-54225000D03*
D16*
X121500000Y-64650000D03*
X129500000Y-62250000D03*
X98100000Y-57400000D03*
D13*
G36*
X99876958Y-65880710D02*
G01*
X99891276Y-65882834D01*
X99905317Y-65886351D01*
X99918946Y-65891228D01*
X99932031Y-65897417D01*
X99944447Y-65904858D01*
X99956073Y-65913481D01*
X99966798Y-65923202D01*
X99976519Y-65933927D01*
X99985142Y-65945553D01*
X99992583Y-65957969D01*
X99998772Y-65971054D01*
X100003649Y-65984683D01*
X100007166Y-65998724D01*
X100009290Y-66013042D01*
X100010000Y-66027500D01*
X100010000Y-66372500D01*
X100009290Y-66386958D01*
X100007166Y-66401276D01*
X100003649Y-66415317D01*
X99998772Y-66428946D01*
X99992583Y-66442031D01*
X99985142Y-66454447D01*
X99976519Y-66466073D01*
X99966798Y-66476798D01*
X99956073Y-66486519D01*
X99944447Y-66495142D01*
X99932031Y-66502583D01*
X99918946Y-66508772D01*
X99905317Y-66513649D01*
X99891276Y-66517166D01*
X99876958Y-66519290D01*
X99862500Y-66520000D01*
X99567500Y-66520000D01*
X99553042Y-66519290D01*
X99538724Y-66517166D01*
X99524683Y-66513649D01*
X99511054Y-66508772D01*
X99497969Y-66502583D01*
X99485553Y-66495142D01*
X99473927Y-66486519D01*
X99463202Y-66476798D01*
X99453481Y-66466073D01*
X99444858Y-66454447D01*
X99437417Y-66442031D01*
X99431228Y-66428946D01*
X99426351Y-66415317D01*
X99422834Y-66401276D01*
X99420710Y-66386958D01*
X99420000Y-66372500D01*
X99420000Y-66027500D01*
X99420710Y-66013042D01*
X99422834Y-65998724D01*
X99426351Y-65984683D01*
X99431228Y-65971054D01*
X99437417Y-65957969D01*
X99444858Y-65945553D01*
X99453481Y-65933927D01*
X99463202Y-65923202D01*
X99473927Y-65913481D01*
X99485553Y-65904858D01*
X99497969Y-65897417D01*
X99511054Y-65891228D01*
X99524683Y-65886351D01*
X99538724Y-65882834D01*
X99553042Y-65880710D01*
X99567500Y-65880000D01*
X99862500Y-65880000D01*
X99876958Y-65880710D01*
X99876958Y-65880710D01*
G37*
D15*
X99715000Y-66200000D03*
D13*
G36*
X100846958Y-65880710D02*
G01*
X100861276Y-65882834D01*
X100875317Y-65886351D01*
X100888946Y-65891228D01*
X100902031Y-65897417D01*
X100914447Y-65904858D01*
X100926073Y-65913481D01*
X100936798Y-65923202D01*
X100946519Y-65933927D01*
X100955142Y-65945553D01*
X100962583Y-65957969D01*
X100968772Y-65971054D01*
X100973649Y-65984683D01*
X100977166Y-65998724D01*
X100979290Y-66013042D01*
X100980000Y-66027500D01*
X100980000Y-66372500D01*
X100979290Y-66386958D01*
X100977166Y-66401276D01*
X100973649Y-66415317D01*
X100968772Y-66428946D01*
X100962583Y-66442031D01*
X100955142Y-66454447D01*
X100946519Y-66466073D01*
X100936798Y-66476798D01*
X100926073Y-66486519D01*
X100914447Y-66495142D01*
X100902031Y-66502583D01*
X100888946Y-66508772D01*
X100875317Y-66513649D01*
X100861276Y-66517166D01*
X100846958Y-66519290D01*
X100832500Y-66520000D01*
X100537500Y-66520000D01*
X100523042Y-66519290D01*
X100508724Y-66517166D01*
X100494683Y-66513649D01*
X100481054Y-66508772D01*
X100467969Y-66502583D01*
X100455553Y-66495142D01*
X100443927Y-66486519D01*
X100433202Y-66476798D01*
X100423481Y-66466073D01*
X100414858Y-66454447D01*
X100407417Y-66442031D01*
X100401228Y-66428946D01*
X100396351Y-66415317D01*
X100392834Y-66401276D01*
X100390710Y-66386958D01*
X100390000Y-66372500D01*
X100390000Y-66027500D01*
X100390710Y-66013042D01*
X100392834Y-65998724D01*
X100396351Y-65984683D01*
X100401228Y-65971054D01*
X100407417Y-65957969D01*
X100414858Y-65945553D01*
X100423481Y-65933927D01*
X100433202Y-65923202D01*
X100443927Y-65913481D01*
X100455553Y-65904858D01*
X100467969Y-65897417D01*
X100481054Y-65891228D01*
X100494683Y-65886351D01*
X100508724Y-65882834D01*
X100523042Y-65880710D01*
X100537500Y-65880000D01*
X100832500Y-65880000D01*
X100846958Y-65880710D01*
X100846958Y-65880710D01*
G37*
D15*
X100685000Y-66200000D03*
D13*
G36*
X100886958Y-63920710D02*
G01*
X100901276Y-63922834D01*
X100915317Y-63926351D01*
X100928946Y-63931228D01*
X100942031Y-63937417D01*
X100954447Y-63944858D01*
X100966073Y-63953481D01*
X100976798Y-63963202D01*
X100986519Y-63973927D01*
X100995142Y-63985553D01*
X101002583Y-63997969D01*
X101008772Y-64011054D01*
X101013649Y-64024683D01*
X101017166Y-64038724D01*
X101019290Y-64053042D01*
X101020000Y-64067500D01*
X101020000Y-64362500D01*
X101019290Y-64376958D01*
X101017166Y-64391276D01*
X101013649Y-64405317D01*
X101008772Y-64418946D01*
X101002583Y-64432031D01*
X100995142Y-64444447D01*
X100986519Y-64456073D01*
X100976798Y-64466798D01*
X100966073Y-64476519D01*
X100954447Y-64485142D01*
X100942031Y-64492583D01*
X100928946Y-64498772D01*
X100915317Y-64503649D01*
X100901276Y-64507166D01*
X100886958Y-64509290D01*
X100872500Y-64510000D01*
X100527500Y-64510000D01*
X100513042Y-64509290D01*
X100498724Y-64507166D01*
X100484683Y-64503649D01*
X100471054Y-64498772D01*
X100457969Y-64492583D01*
X100445553Y-64485142D01*
X100433927Y-64476519D01*
X100423202Y-64466798D01*
X100413481Y-64456073D01*
X100404858Y-64444447D01*
X100397417Y-64432031D01*
X100391228Y-64418946D01*
X100386351Y-64405317D01*
X100382834Y-64391276D01*
X100380710Y-64376958D01*
X100380000Y-64362500D01*
X100380000Y-64067500D01*
X100380710Y-64053042D01*
X100382834Y-64038724D01*
X100386351Y-64024683D01*
X100391228Y-64011054D01*
X100397417Y-63997969D01*
X100404858Y-63985553D01*
X100413481Y-63973927D01*
X100423202Y-63963202D01*
X100433927Y-63953481D01*
X100445553Y-63944858D01*
X100457969Y-63937417D01*
X100471054Y-63931228D01*
X100484683Y-63926351D01*
X100498724Y-63922834D01*
X100513042Y-63920710D01*
X100527500Y-63920000D01*
X100872500Y-63920000D01*
X100886958Y-63920710D01*
X100886958Y-63920710D01*
G37*
D15*
X100700000Y-64215000D03*
D13*
G36*
X100886958Y-64890710D02*
G01*
X100901276Y-64892834D01*
X100915317Y-64896351D01*
X100928946Y-64901228D01*
X100942031Y-64907417D01*
X100954447Y-64914858D01*
X100966073Y-64923481D01*
X100976798Y-64933202D01*
X100986519Y-64943927D01*
X100995142Y-64955553D01*
X101002583Y-64967969D01*
X101008772Y-64981054D01*
X101013649Y-64994683D01*
X101017166Y-65008724D01*
X101019290Y-65023042D01*
X101020000Y-65037500D01*
X101020000Y-65332500D01*
X101019290Y-65346958D01*
X101017166Y-65361276D01*
X101013649Y-65375317D01*
X101008772Y-65388946D01*
X101002583Y-65402031D01*
X100995142Y-65414447D01*
X100986519Y-65426073D01*
X100976798Y-65436798D01*
X100966073Y-65446519D01*
X100954447Y-65455142D01*
X100942031Y-65462583D01*
X100928946Y-65468772D01*
X100915317Y-65473649D01*
X100901276Y-65477166D01*
X100886958Y-65479290D01*
X100872500Y-65480000D01*
X100527500Y-65480000D01*
X100513042Y-65479290D01*
X100498724Y-65477166D01*
X100484683Y-65473649D01*
X100471054Y-65468772D01*
X100457969Y-65462583D01*
X100445553Y-65455142D01*
X100433927Y-65446519D01*
X100423202Y-65436798D01*
X100413481Y-65426073D01*
X100404858Y-65414447D01*
X100397417Y-65402031D01*
X100391228Y-65388946D01*
X100386351Y-65375317D01*
X100382834Y-65361276D01*
X100380710Y-65346958D01*
X100380000Y-65332500D01*
X100380000Y-65037500D01*
X100380710Y-65023042D01*
X100382834Y-65008724D01*
X100386351Y-64994683D01*
X100391228Y-64981054D01*
X100397417Y-64967969D01*
X100404858Y-64955553D01*
X100413481Y-64943927D01*
X100423202Y-64933202D01*
X100433927Y-64923481D01*
X100445553Y-64914858D01*
X100457969Y-64907417D01*
X100471054Y-64901228D01*
X100484683Y-64896351D01*
X100498724Y-64892834D01*
X100513042Y-64890710D01*
X100527500Y-64890000D01*
X100872500Y-64890000D01*
X100886958Y-64890710D01*
X100886958Y-64890710D01*
G37*
D15*
X100700000Y-65185000D03*
D13*
G36*
X118886958Y-63370710D02*
G01*
X118901276Y-63372834D01*
X118915317Y-63376351D01*
X118928946Y-63381228D01*
X118942031Y-63387417D01*
X118954447Y-63394858D01*
X118966073Y-63403481D01*
X118976798Y-63413202D01*
X118986519Y-63423927D01*
X118995142Y-63435553D01*
X119002583Y-63447969D01*
X119008772Y-63461054D01*
X119013649Y-63474683D01*
X119017166Y-63488724D01*
X119019290Y-63503042D01*
X119020000Y-63517500D01*
X119020000Y-63812500D01*
X119019290Y-63826958D01*
X119017166Y-63841276D01*
X119013649Y-63855317D01*
X119008772Y-63868946D01*
X119002583Y-63882031D01*
X118995142Y-63894447D01*
X118986519Y-63906073D01*
X118976798Y-63916798D01*
X118966073Y-63926519D01*
X118954447Y-63935142D01*
X118942031Y-63942583D01*
X118928946Y-63948772D01*
X118915317Y-63953649D01*
X118901276Y-63957166D01*
X118886958Y-63959290D01*
X118872500Y-63960000D01*
X118527500Y-63960000D01*
X118513042Y-63959290D01*
X118498724Y-63957166D01*
X118484683Y-63953649D01*
X118471054Y-63948772D01*
X118457969Y-63942583D01*
X118445553Y-63935142D01*
X118433927Y-63926519D01*
X118423202Y-63916798D01*
X118413481Y-63906073D01*
X118404858Y-63894447D01*
X118397417Y-63882031D01*
X118391228Y-63868946D01*
X118386351Y-63855317D01*
X118382834Y-63841276D01*
X118380710Y-63826958D01*
X118380000Y-63812500D01*
X118380000Y-63517500D01*
X118380710Y-63503042D01*
X118382834Y-63488724D01*
X118386351Y-63474683D01*
X118391228Y-63461054D01*
X118397417Y-63447969D01*
X118404858Y-63435553D01*
X118413481Y-63423927D01*
X118423202Y-63413202D01*
X118433927Y-63403481D01*
X118445553Y-63394858D01*
X118457969Y-63387417D01*
X118471054Y-63381228D01*
X118484683Y-63376351D01*
X118498724Y-63372834D01*
X118513042Y-63370710D01*
X118527500Y-63370000D01*
X118872500Y-63370000D01*
X118886958Y-63370710D01*
X118886958Y-63370710D01*
G37*
D15*
X118700000Y-63665000D03*
D13*
G36*
X118886958Y-64340710D02*
G01*
X118901276Y-64342834D01*
X118915317Y-64346351D01*
X118928946Y-64351228D01*
X118942031Y-64357417D01*
X118954447Y-64364858D01*
X118966073Y-64373481D01*
X118976798Y-64383202D01*
X118986519Y-64393927D01*
X118995142Y-64405553D01*
X119002583Y-64417969D01*
X119008772Y-64431054D01*
X119013649Y-64444683D01*
X119017166Y-64458724D01*
X119019290Y-64473042D01*
X119020000Y-64487500D01*
X119020000Y-64782500D01*
X119019290Y-64796958D01*
X119017166Y-64811276D01*
X119013649Y-64825317D01*
X119008772Y-64838946D01*
X119002583Y-64852031D01*
X118995142Y-64864447D01*
X118986519Y-64876073D01*
X118976798Y-64886798D01*
X118966073Y-64896519D01*
X118954447Y-64905142D01*
X118942031Y-64912583D01*
X118928946Y-64918772D01*
X118915317Y-64923649D01*
X118901276Y-64927166D01*
X118886958Y-64929290D01*
X118872500Y-64930000D01*
X118527500Y-64930000D01*
X118513042Y-64929290D01*
X118498724Y-64927166D01*
X118484683Y-64923649D01*
X118471054Y-64918772D01*
X118457969Y-64912583D01*
X118445553Y-64905142D01*
X118433927Y-64896519D01*
X118423202Y-64886798D01*
X118413481Y-64876073D01*
X118404858Y-64864447D01*
X118397417Y-64852031D01*
X118391228Y-64838946D01*
X118386351Y-64825317D01*
X118382834Y-64811276D01*
X118380710Y-64796958D01*
X118380000Y-64782500D01*
X118380000Y-64487500D01*
X118380710Y-64473042D01*
X118382834Y-64458724D01*
X118386351Y-64444683D01*
X118391228Y-64431054D01*
X118397417Y-64417969D01*
X118404858Y-64405553D01*
X118413481Y-64393927D01*
X118423202Y-64383202D01*
X118433927Y-64373481D01*
X118445553Y-64364858D01*
X118457969Y-64357417D01*
X118471054Y-64351228D01*
X118484683Y-64346351D01*
X118498724Y-64342834D01*
X118513042Y-64340710D01*
X118527500Y-64340000D01*
X118872500Y-64340000D01*
X118886958Y-64340710D01*
X118886958Y-64340710D01*
G37*
D15*
X118700000Y-64635000D03*
D13*
G36*
X125361958Y-57130710D02*
G01*
X125376276Y-57132834D01*
X125390317Y-57136351D01*
X125403946Y-57141228D01*
X125417031Y-57147417D01*
X125429447Y-57154858D01*
X125441073Y-57163481D01*
X125451798Y-57173202D01*
X125461519Y-57183927D01*
X125470142Y-57195553D01*
X125477583Y-57207969D01*
X125483772Y-57221054D01*
X125488649Y-57234683D01*
X125492166Y-57248724D01*
X125494290Y-57263042D01*
X125495000Y-57277500D01*
X125495000Y-57622500D01*
X125494290Y-57636958D01*
X125492166Y-57651276D01*
X125488649Y-57665317D01*
X125483772Y-57678946D01*
X125477583Y-57692031D01*
X125470142Y-57704447D01*
X125461519Y-57716073D01*
X125451798Y-57726798D01*
X125441073Y-57736519D01*
X125429447Y-57745142D01*
X125417031Y-57752583D01*
X125403946Y-57758772D01*
X125390317Y-57763649D01*
X125376276Y-57767166D01*
X125361958Y-57769290D01*
X125347500Y-57770000D01*
X125052500Y-57770000D01*
X125038042Y-57769290D01*
X125023724Y-57767166D01*
X125009683Y-57763649D01*
X124996054Y-57758772D01*
X124982969Y-57752583D01*
X124970553Y-57745142D01*
X124958927Y-57736519D01*
X124948202Y-57726798D01*
X124938481Y-57716073D01*
X124929858Y-57704447D01*
X124922417Y-57692031D01*
X124916228Y-57678946D01*
X124911351Y-57665317D01*
X124907834Y-57651276D01*
X124905710Y-57636958D01*
X124905000Y-57622500D01*
X124905000Y-57277500D01*
X124905710Y-57263042D01*
X124907834Y-57248724D01*
X124911351Y-57234683D01*
X124916228Y-57221054D01*
X124922417Y-57207969D01*
X124929858Y-57195553D01*
X124938481Y-57183927D01*
X124948202Y-57173202D01*
X124958927Y-57163481D01*
X124970553Y-57154858D01*
X124982969Y-57147417D01*
X124996054Y-57141228D01*
X125009683Y-57136351D01*
X125023724Y-57132834D01*
X125038042Y-57130710D01*
X125052500Y-57130000D01*
X125347500Y-57130000D01*
X125361958Y-57130710D01*
X125361958Y-57130710D01*
G37*
D15*
X125200000Y-57450000D03*
D13*
G36*
X126331958Y-57130710D02*
G01*
X126346276Y-57132834D01*
X126360317Y-57136351D01*
X126373946Y-57141228D01*
X126387031Y-57147417D01*
X126399447Y-57154858D01*
X126411073Y-57163481D01*
X126421798Y-57173202D01*
X126431519Y-57183927D01*
X126440142Y-57195553D01*
X126447583Y-57207969D01*
X126453772Y-57221054D01*
X126458649Y-57234683D01*
X126462166Y-57248724D01*
X126464290Y-57263042D01*
X126465000Y-57277500D01*
X126465000Y-57622500D01*
X126464290Y-57636958D01*
X126462166Y-57651276D01*
X126458649Y-57665317D01*
X126453772Y-57678946D01*
X126447583Y-57692031D01*
X126440142Y-57704447D01*
X126431519Y-57716073D01*
X126421798Y-57726798D01*
X126411073Y-57736519D01*
X126399447Y-57745142D01*
X126387031Y-57752583D01*
X126373946Y-57758772D01*
X126360317Y-57763649D01*
X126346276Y-57767166D01*
X126331958Y-57769290D01*
X126317500Y-57770000D01*
X126022500Y-57770000D01*
X126008042Y-57769290D01*
X125993724Y-57767166D01*
X125979683Y-57763649D01*
X125966054Y-57758772D01*
X125952969Y-57752583D01*
X125940553Y-57745142D01*
X125928927Y-57736519D01*
X125918202Y-57726798D01*
X125908481Y-57716073D01*
X125899858Y-57704447D01*
X125892417Y-57692031D01*
X125886228Y-57678946D01*
X125881351Y-57665317D01*
X125877834Y-57651276D01*
X125875710Y-57636958D01*
X125875000Y-57622500D01*
X125875000Y-57277500D01*
X125875710Y-57263042D01*
X125877834Y-57248724D01*
X125881351Y-57234683D01*
X125886228Y-57221054D01*
X125892417Y-57207969D01*
X125899858Y-57195553D01*
X125908481Y-57183927D01*
X125918202Y-57173202D01*
X125928927Y-57163481D01*
X125940553Y-57154858D01*
X125952969Y-57147417D01*
X125966054Y-57141228D01*
X125979683Y-57136351D01*
X125993724Y-57132834D01*
X126008042Y-57130710D01*
X126022500Y-57130000D01*
X126317500Y-57130000D01*
X126331958Y-57130710D01*
X126331958Y-57130710D01*
G37*
D15*
X126170000Y-57450000D03*
D13*
G36*
X118886958Y-59370710D02*
G01*
X118901276Y-59372834D01*
X118915317Y-59376351D01*
X118928946Y-59381228D01*
X118942031Y-59387417D01*
X118954447Y-59394858D01*
X118966073Y-59403481D01*
X118976798Y-59413202D01*
X118986519Y-59423927D01*
X118995142Y-59435553D01*
X119002583Y-59447969D01*
X119008772Y-59461054D01*
X119013649Y-59474683D01*
X119017166Y-59488724D01*
X119019290Y-59503042D01*
X119020000Y-59517500D01*
X119020000Y-59812500D01*
X119019290Y-59826958D01*
X119017166Y-59841276D01*
X119013649Y-59855317D01*
X119008772Y-59868946D01*
X119002583Y-59882031D01*
X118995142Y-59894447D01*
X118986519Y-59906073D01*
X118976798Y-59916798D01*
X118966073Y-59926519D01*
X118954447Y-59935142D01*
X118942031Y-59942583D01*
X118928946Y-59948772D01*
X118915317Y-59953649D01*
X118901276Y-59957166D01*
X118886958Y-59959290D01*
X118872500Y-59960000D01*
X118527500Y-59960000D01*
X118513042Y-59959290D01*
X118498724Y-59957166D01*
X118484683Y-59953649D01*
X118471054Y-59948772D01*
X118457969Y-59942583D01*
X118445553Y-59935142D01*
X118433927Y-59926519D01*
X118423202Y-59916798D01*
X118413481Y-59906073D01*
X118404858Y-59894447D01*
X118397417Y-59882031D01*
X118391228Y-59868946D01*
X118386351Y-59855317D01*
X118382834Y-59841276D01*
X118380710Y-59826958D01*
X118380000Y-59812500D01*
X118380000Y-59517500D01*
X118380710Y-59503042D01*
X118382834Y-59488724D01*
X118386351Y-59474683D01*
X118391228Y-59461054D01*
X118397417Y-59447969D01*
X118404858Y-59435553D01*
X118413481Y-59423927D01*
X118423202Y-59413202D01*
X118433927Y-59403481D01*
X118445553Y-59394858D01*
X118457969Y-59387417D01*
X118471054Y-59381228D01*
X118484683Y-59376351D01*
X118498724Y-59372834D01*
X118513042Y-59370710D01*
X118527500Y-59370000D01*
X118872500Y-59370000D01*
X118886958Y-59370710D01*
X118886958Y-59370710D01*
G37*
D15*
X118700000Y-59665000D03*
D13*
G36*
X118886958Y-60340710D02*
G01*
X118901276Y-60342834D01*
X118915317Y-60346351D01*
X118928946Y-60351228D01*
X118942031Y-60357417D01*
X118954447Y-60364858D01*
X118966073Y-60373481D01*
X118976798Y-60383202D01*
X118986519Y-60393927D01*
X118995142Y-60405553D01*
X119002583Y-60417969D01*
X119008772Y-60431054D01*
X119013649Y-60444683D01*
X119017166Y-60458724D01*
X119019290Y-60473042D01*
X119020000Y-60487500D01*
X119020000Y-60782500D01*
X119019290Y-60796958D01*
X119017166Y-60811276D01*
X119013649Y-60825317D01*
X119008772Y-60838946D01*
X119002583Y-60852031D01*
X118995142Y-60864447D01*
X118986519Y-60876073D01*
X118976798Y-60886798D01*
X118966073Y-60896519D01*
X118954447Y-60905142D01*
X118942031Y-60912583D01*
X118928946Y-60918772D01*
X118915317Y-60923649D01*
X118901276Y-60927166D01*
X118886958Y-60929290D01*
X118872500Y-60930000D01*
X118527500Y-60930000D01*
X118513042Y-60929290D01*
X118498724Y-60927166D01*
X118484683Y-60923649D01*
X118471054Y-60918772D01*
X118457969Y-60912583D01*
X118445553Y-60905142D01*
X118433927Y-60896519D01*
X118423202Y-60886798D01*
X118413481Y-60876073D01*
X118404858Y-60864447D01*
X118397417Y-60852031D01*
X118391228Y-60838946D01*
X118386351Y-60825317D01*
X118382834Y-60811276D01*
X118380710Y-60796958D01*
X118380000Y-60782500D01*
X118380000Y-60487500D01*
X118380710Y-60473042D01*
X118382834Y-60458724D01*
X118386351Y-60444683D01*
X118391228Y-60431054D01*
X118397417Y-60417969D01*
X118404858Y-60405553D01*
X118413481Y-60393927D01*
X118423202Y-60383202D01*
X118433927Y-60373481D01*
X118445553Y-60364858D01*
X118457969Y-60357417D01*
X118471054Y-60351228D01*
X118484683Y-60346351D01*
X118498724Y-60342834D01*
X118513042Y-60340710D01*
X118527500Y-60340000D01*
X118872500Y-60340000D01*
X118886958Y-60340710D01*
X118886958Y-60340710D01*
G37*
D15*
X118700000Y-60635000D03*
D13*
G36*
X114286958Y-56070710D02*
G01*
X114301276Y-56072834D01*
X114315317Y-56076351D01*
X114328946Y-56081228D01*
X114342031Y-56087417D01*
X114354447Y-56094858D01*
X114366073Y-56103481D01*
X114376798Y-56113202D01*
X114386519Y-56123927D01*
X114395142Y-56135553D01*
X114402583Y-56147969D01*
X114408772Y-56161054D01*
X114413649Y-56174683D01*
X114417166Y-56188724D01*
X114419290Y-56203042D01*
X114420000Y-56217500D01*
X114420000Y-56512500D01*
X114419290Y-56526958D01*
X114417166Y-56541276D01*
X114413649Y-56555317D01*
X114408772Y-56568946D01*
X114402583Y-56582031D01*
X114395142Y-56594447D01*
X114386519Y-56606073D01*
X114376798Y-56616798D01*
X114366073Y-56626519D01*
X114354447Y-56635142D01*
X114342031Y-56642583D01*
X114328946Y-56648772D01*
X114315317Y-56653649D01*
X114301276Y-56657166D01*
X114286958Y-56659290D01*
X114272500Y-56660000D01*
X113927500Y-56660000D01*
X113913042Y-56659290D01*
X113898724Y-56657166D01*
X113884683Y-56653649D01*
X113871054Y-56648772D01*
X113857969Y-56642583D01*
X113845553Y-56635142D01*
X113833927Y-56626519D01*
X113823202Y-56616798D01*
X113813481Y-56606073D01*
X113804858Y-56594447D01*
X113797417Y-56582031D01*
X113791228Y-56568946D01*
X113786351Y-56555317D01*
X113782834Y-56541276D01*
X113780710Y-56526958D01*
X113780000Y-56512500D01*
X113780000Y-56217500D01*
X113780710Y-56203042D01*
X113782834Y-56188724D01*
X113786351Y-56174683D01*
X113791228Y-56161054D01*
X113797417Y-56147969D01*
X113804858Y-56135553D01*
X113813481Y-56123927D01*
X113823202Y-56113202D01*
X113833927Y-56103481D01*
X113845553Y-56094858D01*
X113857969Y-56087417D01*
X113871054Y-56081228D01*
X113884683Y-56076351D01*
X113898724Y-56072834D01*
X113913042Y-56070710D01*
X113927500Y-56070000D01*
X114272500Y-56070000D01*
X114286958Y-56070710D01*
X114286958Y-56070710D01*
G37*
D15*
X114100000Y-56365000D03*
D13*
G36*
X114286958Y-57040710D02*
G01*
X114301276Y-57042834D01*
X114315317Y-57046351D01*
X114328946Y-57051228D01*
X114342031Y-57057417D01*
X114354447Y-57064858D01*
X114366073Y-57073481D01*
X114376798Y-57083202D01*
X114386519Y-57093927D01*
X114395142Y-57105553D01*
X114402583Y-57117969D01*
X114408772Y-57131054D01*
X114413649Y-57144683D01*
X114417166Y-57158724D01*
X114419290Y-57173042D01*
X114420000Y-57187500D01*
X114420000Y-57482500D01*
X114419290Y-57496958D01*
X114417166Y-57511276D01*
X114413649Y-57525317D01*
X114408772Y-57538946D01*
X114402583Y-57552031D01*
X114395142Y-57564447D01*
X114386519Y-57576073D01*
X114376798Y-57586798D01*
X114366073Y-57596519D01*
X114354447Y-57605142D01*
X114342031Y-57612583D01*
X114328946Y-57618772D01*
X114315317Y-57623649D01*
X114301276Y-57627166D01*
X114286958Y-57629290D01*
X114272500Y-57630000D01*
X113927500Y-57630000D01*
X113913042Y-57629290D01*
X113898724Y-57627166D01*
X113884683Y-57623649D01*
X113871054Y-57618772D01*
X113857969Y-57612583D01*
X113845553Y-57605142D01*
X113833927Y-57596519D01*
X113823202Y-57586798D01*
X113813481Y-57576073D01*
X113804858Y-57564447D01*
X113797417Y-57552031D01*
X113791228Y-57538946D01*
X113786351Y-57525317D01*
X113782834Y-57511276D01*
X113780710Y-57496958D01*
X113780000Y-57482500D01*
X113780000Y-57187500D01*
X113780710Y-57173042D01*
X113782834Y-57158724D01*
X113786351Y-57144683D01*
X113791228Y-57131054D01*
X113797417Y-57117969D01*
X113804858Y-57105553D01*
X113813481Y-57093927D01*
X113823202Y-57083202D01*
X113833927Y-57073481D01*
X113845553Y-57064858D01*
X113857969Y-57057417D01*
X113871054Y-57051228D01*
X113884683Y-57046351D01*
X113898724Y-57042834D01*
X113913042Y-57040710D01*
X113927500Y-57040000D01*
X114272500Y-57040000D01*
X114286958Y-57040710D01*
X114286958Y-57040710D01*
G37*
D15*
X114100000Y-57335000D03*
D13*
G36*
X112286958Y-57100710D02*
G01*
X112301276Y-57102834D01*
X112315317Y-57106351D01*
X112328946Y-57111228D01*
X112342031Y-57117417D01*
X112354447Y-57124858D01*
X112366073Y-57133481D01*
X112376798Y-57143202D01*
X112386519Y-57153927D01*
X112395142Y-57165553D01*
X112402583Y-57177969D01*
X112408772Y-57191054D01*
X112413649Y-57204683D01*
X112417166Y-57218724D01*
X112419290Y-57233042D01*
X112420000Y-57247500D01*
X112420000Y-57542500D01*
X112419290Y-57556958D01*
X112417166Y-57571276D01*
X112413649Y-57585317D01*
X112408772Y-57598946D01*
X112402583Y-57612031D01*
X112395142Y-57624447D01*
X112386519Y-57636073D01*
X112376798Y-57646798D01*
X112366073Y-57656519D01*
X112354447Y-57665142D01*
X112342031Y-57672583D01*
X112328946Y-57678772D01*
X112315317Y-57683649D01*
X112301276Y-57687166D01*
X112286958Y-57689290D01*
X112272500Y-57690000D01*
X111927500Y-57690000D01*
X111913042Y-57689290D01*
X111898724Y-57687166D01*
X111884683Y-57683649D01*
X111871054Y-57678772D01*
X111857969Y-57672583D01*
X111845553Y-57665142D01*
X111833927Y-57656519D01*
X111823202Y-57646798D01*
X111813481Y-57636073D01*
X111804858Y-57624447D01*
X111797417Y-57612031D01*
X111791228Y-57598946D01*
X111786351Y-57585317D01*
X111782834Y-57571276D01*
X111780710Y-57556958D01*
X111780000Y-57542500D01*
X111780000Y-57247500D01*
X111780710Y-57233042D01*
X111782834Y-57218724D01*
X111786351Y-57204683D01*
X111791228Y-57191054D01*
X111797417Y-57177969D01*
X111804858Y-57165553D01*
X111813481Y-57153927D01*
X111823202Y-57143202D01*
X111833927Y-57133481D01*
X111845553Y-57124858D01*
X111857969Y-57117417D01*
X111871054Y-57111228D01*
X111884683Y-57106351D01*
X111898724Y-57102834D01*
X111913042Y-57100710D01*
X111927500Y-57100000D01*
X112272500Y-57100000D01*
X112286958Y-57100710D01*
X112286958Y-57100710D01*
G37*
D15*
X112100000Y-57395000D03*
D13*
G36*
X112286958Y-58070710D02*
G01*
X112301276Y-58072834D01*
X112315317Y-58076351D01*
X112328946Y-58081228D01*
X112342031Y-58087417D01*
X112354447Y-58094858D01*
X112366073Y-58103481D01*
X112376798Y-58113202D01*
X112386519Y-58123927D01*
X112395142Y-58135553D01*
X112402583Y-58147969D01*
X112408772Y-58161054D01*
X112413649Y-58174683D01*
X112417166Y-58188724D01*
X112419290Y-58203042D01*
X112420000Y-58217500D01*
X112420000Y-58512500D01*
X112419290Y-58526958D01*
X112417166Y-58541276D01*
X112413649Y-58555317D01*
X112408772Y-58568946D01*
X112402583Y-58582031D01*
X112395142Y-58594447D01*
X112386519Y-58606073D01*
X112376798Y-58616798D01*
X112366073Y-58626519D01*
X112354447Y-58635142D01*
X112342031Y-58642583D01*
X112328946Y-58648772D01*
X112315317Y-58653649D01*
X112301276Y-58657166D01*
X112286958Y-58659290D01*
X112272500Y-58660000D01*
X111927500Y-58660000D01*
X111913042Y-58659290D01*
X111898724Y-58657166D01*
X111884683Y-58653649D01*
X111871054Y-58648772D01*
X111857969Y-58642583D01*
X111845553Y-58635142D01*
X111833927Y-58626519D01*
X111823202Y-58616798D01*
X111813481Y-58606073D01*
X111804858Y-58594447D01*
X111797417Y-58582031D01*
X111791228Y-58568946D01*
X111786351Y-58555317D01*
X111782834Y-58541276D01*
X111780710Y-58526958D01*
X111780000Y-58512500D01*
X111780000Y-58217500D01*
X111780710Y-58203042D01*
X111782834Y-58188724D01*
X111786351Y-58174683D01*
X111791228Y-58161054D01*
X111797417Y-58147969D01*
X111804858Y-58135553D01*
X111813481Y-58123927D01*
X111823202Y-58113202D01*
X111833927Y-58103481D01*
X111845553Y-58094858D01*
X111857969Y-58087417D01*
X111871054Y-58081228D01*
X111884683Y-58076351D01*
X111898724Y-58072834D01*
X111913042Y-58070710D01*
X111927500Y-58070000D01*
X112272500Y-58070000D01*
X112286958Y-58070710D01*
X112286958Y-58070710D01*
G37*
D15*
X112100000Y-58365000D03*
D13*
G36*
X113286958Y-56070710D02*
G01*
X113301276Y-56072834D01*
X113315317Y-56076351D01*
X113328946Y-56081228D01*
X113342031Y-56087417D01*
X113354447Y-56094858D01*
X113366073Y-56103481D01*
X113376798Y-56113202D01*
X113386519Y-56123927D01*
X113395142Y-56135553D01*
X113402583Y-56147969D01*
X113408772Y-56161054D01*
X113413649Y-56174683D01*
X113417166Y-56188724D01*
X113419290Y-56203042D01*
X113420000Y-56217500D01*
X113420000Y-56512500D01*
X113419290Y-56526958D01*
X113417166Y-56541276D01*
X113413649Y-56555317D01*
X113408772Y-56568946D01*
X113402583Y-56582031D01*
X113395142Y-56594447D01*
X113386519Y-56606073D01*
X113376798Y-56616798D01*
X113366073Y-56626519D01*
X113354447Y-56635142D01*
X113342031Y-56642583D01*
X113328946Y-56648772D01*
X113315317Y-56653649D01*
X113301276Y-56657166D01*
X113286958Y-56659290D01*
X113272500Y-56660000D01*
X112927500Y-56660000D01*
X112913042Y-56659290D01*
X112898724Y-56657166D01*
X112884683Y-56653649D01*
X112871054Y-56648772D01*
X112857969Y-56642583D01*
X112845553Y-56635142D01*
X112833927Y-56626519D01*
X112823202Y-56616798D01*
X112813481Y-56606073D01*
X112804858Y-56594447D01*
X112797417Y-56582031D01*
X112791228Y-56568946D01*
X112786351Y-56555317D01*
X112782834Y-56541276D01*
X112780710Y-56526958D01*
X112780000Y-56512500D01*
X112780000Y-56217500D01*
X112780710Y-56203042D01*
X112782834Y-56188724D01*
X112786351Y-56174683D01*
X112791228Y-56161054D01*
X112797417Y-56147969D01*
X112804858Y-56135553D01*
X112813481Y-56123927D01*
X112823202Y-56113202D01*
X112833927Y-56103481D01*
X112845553Y-56094858D01*
X112857969Y-56087417D01*
X112871054Y-56081228D01*
X112884683Y-56076351D01*
X112898724Y-56072834D01*
X112913042Y-56070710D01*
X112927500Y-56070000D01*
X113272500Y-56070000D01*
X113286958Y-56070710D01*
X113286958Y-56070710D01*
G37*
D15*
X113100000Y-56365000D03*
D13*
G36*
X113286958Y-57040710D02*
G01*
X113301276Y-57042834D01*
X113315317Y-57046351D01*
X113328946Y-57051228D01*
X113342031Y-57057417D01*
X113354447Y-57064858D01*
X113366073Y-57073481D01*
X113376798Y-57083202D01*
X113386519Y-57093927D01*
X113395142Y-57105553D01*
X113402583Y-57117969D01*
X113408772Y-57131054D01*
X113413649Y-57144683D01*
X113417166Y-57158724D01*
X113419290Y-57173042D01*
X113420000Y-57187500D01*
X113420000Y-57482500D01*
X113419290Y-57496958D01*
X113417166Y-57511276D01*
X113413649Y-57525317D01*
X113408772Y-57538946D01*
X113402583Y-57552031D01*
X113395142Y-57564447D01*
X113386519Y-57576073D01*
X113376798Y-57586798D01*
X113366073Y-57596519D01*
X113354447Y-57605142D01*
X113342031Y-57612583D01*
X113328946Y-57618772D01*
X113315317Y-57623649D01*
X113301276Y-57627166D01*
X113286958Y-57629290D01*
X113272500Y-57630000D01*
X112927500Y-57630000D01*
X112913042Y-57629290D01*
X112898724Y-57627166D01*
X112884683Y-57623649D01*
X112871054Y-57618772D01*
X112857969Y-57612583D01*
X112845553Y-57605142D01*
X112833927Y-57596519D01*
X112823202Y-57586798D01*
X112813481Y-57576073D01*
X112804858Y-57564447D01*
X112797417Y-57552031D01*
X112791228Y-57538946D01*
X112786351Y-57525317D01*
X112782834Y-57511276D01*
X112780710Y-57496958D01*
X112780000Y-57482500D01*
X112780000Y-57187500D01*
X112780710Y-57173042D01*
X112782834Y-57158724D01*
X112786351Y-57144683D01*
X112791228Y-57131054D01*
X112797417Y-57117969D01*
X112804858Y-57105553D01*
X112813481Y-57093927D01*
X112823202Y-57083202D01*
X112833927Y-57073481D01*
X112845553Y-57064858D01*
X112857969Y-57057417D01*
X112871054Y-57051228D01*
X112884683Y-57046351D01*
X112898724Y-57042834D01*
X112913042Y-57040710D01*
X112927500Y-57040000D01*
X113272500Y-57040000D01*
X113286958Y-57040710D01*
X113286958Y-57040710D01*
G37*
D15*
X113100000Y-57335000D03*
D13*
G36*
X111276958Y-57110710D02*
G01*
X111291276Y-57112834D01*
X111305317Y-57116351D01*
X111318946Y-57121228D01*
X111332031Y-57127417D01*
X111344447Y-57134858D01*
X111356073Y-57143481D01*
X111366798Y-57153202D01*
X111376519Y-57163927D01*
X111385142Y-57175553D01*
X111392583Y-57187969D01*
X111398772Y-57201054D01*
X111403649Y-57214683D01*
X111407166Y-57228724D01*
X111409290Y-57243042D01*
X111410000Y-57257500D01*
X111410000Y-57552500D01*
X111409290Y-57566958D01*
X111407166Y-57581276D01*
X111403649Y-57595317D01*
X111398772Y-57608946D01*
X111392583Y-57622031D01*
X111385142Y-57634447D01*
X111376519Y-57646073D01*
X111366798Y-57656798D01*
X111356073Y-57666519D01*
X111344447Y-57675142D01*
X111332031Y-57682583D01*
X111318946Y-57688772D01*
X111305317Y-57693649D01*
X111291276Y-57697166D01*
X111276958Y-57699290D01*
X111262500Y-57700000D01*
X110917500Y-57700000D01*
X110903042Y-57699290D01*
X110888724Y-57697166D01*
X110874683Y-57693649D01*
X110861054Y-57688772D01*
X110847969Y-57682583D01*
X110835553Y-57675142D01*
X110823927Y-57666519D01*
X110813202Y-57656798D01*
X110803481Y-57646073D01*
X110794858Y-57634447D01*
X110787417Y-57622031D01*
X110781228Y-57608946D01*
X110776351Y-57595317D01*
X110772834Y-57581276D01*
X110770710Y-57566958D01*
X110770000Y-57552500D01*
X110770000Y-57257500D01*
X110770710Y-57243042D01*
X110772834Y-57228724D01*
X110776351Y-57214683D01*
X110781228Y-57201054D01*
X110787417Y-57187969D01*
X110794858Y-57175553D01*
X110803481Y-57163927D01*
X110813202Y-57153202D01*
X110823927Y-57143481D01*
X110835553Y-57134858D01*
X110847969Y-57127417D01*
X110861054Y-57121228D01*
X110874683Y-57116351D01*
X110888724Y-57112834D01*
X110903042Y-57110710D01*
X110917500Y-57110000D01*
X111262500Y-57110000D01*
X111276958Y-57110710D01*
X111276958Y-57110710D01*
G37*
D15*
X111090000Y-57405000D03*
D13*
G36*
X111276958Y-58080710D02*
G01*
X111291276Y-58082834D01*
X111305317Y-58086351D01*
X111318946Y-58091228D01*
X111332031Y-58097417D01*
X111344447Y-58104858D01*
X111356073Y-58113481D01*
X111366798Y-58123202D01*
X111376519Y-58133927D01*
X111385142Y-58145553D01*
X111392583Y-58157969D01*
X111398772Y-58171054D01*
X111403649Y-58184683D01*
X111407166Y-58198724D01*
X111409290Y-58213042D01*
X111410000Y-58227500D01*
X111410000Y-58522500D01*
X111409290Y-58536958D01*
X111407166Y-58551276D01*
X111403649Y-58565317D01*
X111398772Y-58578946D01*
X111392583Y-58592031D01*
X111385142Y-58604447D01*
X111376519Y-58616073D01*
X111366798Y-58626798D01*
X111356073Y-58636519D01*
X111344447Y-58645142D01*
X111332031Y-58652583D01*
X111318946Y-58658772D01*
X111305317Y-58663649D01*
X111291276Y-58667166D01*
X111276958Y-58669290D01*
X111262500Y-58670000D01*
X110917500Y-58670000D01*
X110903042Y-58669290D01*
X110888724Y-58667166D01*
X110874683Y-58663649D01*
X110861054Y-58658772D01*
X110847969Y-58652583D01*
X110835553Y-58645142D01*
X110823927Y-58636519D01*
X110813202Y-58626798D01*
X110803481Y-58616073D01*
X110794858Y-58604447D01*
X110787417Y-58592031D01*
X110781228Y-58578946D01*
X110776351Y-58565317D01*
X110772834Y-58551276D01*
X110770710Y-58536958D01*
X110770000Y-58522500D01*
X110770000Y-58227500D01*
X110770710Y-58213042D01*
X110772834Y-58198724D01*
X110776351Y-58184683D01*
X110781228Y-58171054D01*
X110787417Y-58157969D01*
X110794858Y-58145553D01*
X110803481Y-58133927D01*
X110813202Y-58123202D01*
X110823927Y-58113481D01*
X110835553Y-58104858D01*
X110847969Y-58097417D01*
X110861054Y-58091228D01*
X110874683Y-58086351D01*
X110888724Y-58082834D01*
X110903042Y-58080710D01*
X110917500Y-58080000D01*
X111262500Y-58080000D01*
X111276958Y-58080710D01*
X111276958Y-58080710D01*
G37*
D15*
X111090000Y-58375000D03*
D13*
G36*
X105076958Y-57080710D02*
G01*
X105091276Y-57082834D01*
X105105317Y-57086351D01*
X105118946Y-57091228D01*
X105132031Y-57097417D01*
X105144447Y-57104858D01*
X105156073Y-57113481D01*
X105166798Y-57123202D01*
X105176519Y-57133927D01*
X105185142Y-57145553D01*
X105192583Y-57157969D01*
X105198772Y-57171054D01*
X105203649Y-57184683D01*
X105207166Y-57198724D01*
X105209290Y-57213042D01*
X105210000Y-57227500D01*
X105210000Y-57572500D01*
X105209290Y-57586958D01*
X105207166Y-57601276D01*
X105203649Y-57615317D01*
X105198772Y-57628946D01*
X105192583Y-57642031D01*
X105185142Y-57654447D01*
X105176519Y-57666073D01*
X105166798Y-57676798D01*
X105156073Y-57686519D01*
X105144447Y-57695142D01*
X105132031Y-57702583D01*
X105118946Y-57708772D01*
X105105317Y-57713649D01*
X105091276Y-57717166D01*
X105076958Y-57719290D01*
X105062500Y-57720000D01*
X104767500Y-57720000D01*
X104753042Y-57719290D01*
X104738724Y-57717166D01*
X104724683Y-57713649D01*
X104711054Y-57708772D01*
X104697969Y-57702583D01*
X104685553Y-57695142D01*
X104673927Y-57686519D01*
X104663202Y-57676798D01*
X104653481Y-57666073D01*
X104644858Y-57654447D01*
X104637417Y-57642031D01*
X104631228Y-57628946D01*
X104626351Y-57615317D01*
X104622834Y-57601276D01*
X104620710Y-57586958D01*
X104620000Y-57572500D01*
X104620000Y-57227500D01*
X104620710Y-57213042D01*
X104622834Y-57198724D01*
X104626351Y-57184683D01*
X104631228Y-57171054D01*
X104637417Y-57157969D01*
X104644858Y-57145553D01*
X104653481Y-57133927D01*
X104663202Y-57123202D01*
X104673927Y-57113481D01*
X104685553Y-57104858D01*
X104697969Y-57097417D01*
X104711054Y-57091228D01*
X104724683Y-57086351D01*
X104738724Y-57082834D01*
X104753042Y-57080710D01*
X104767500Y-57080000D01*
X105062500Y-57080000D01*
X105076958Y-57080710D01*
X105076958Y-57080710D01*
G37*
D15*
X104915000Y-57400000D03*
D13*
G36*
X106046958Y-57080710D02*
G01*
X106061276Y-57082834D01*
X106075317Y-57086351D01*
X106088946Y-57091228D01*
X106102031Y-57097417D01*
X106114447Y-57104858D01*
X106126073Y-57113481D01*
X106136798Y-57123202D01*
X106146519Y-57133927D01*
X106155142Y-57145553D01*
X106162583Y-57157969D01*
X106168772Y-57171054D01*
X106173649Y-57184683D01*
X106177166Y-57198724D01*
X106179290Y-57213042D01*
X106180000Y-57227500D01*
X106180000Y-57572500D01*
X106179290Y-57586958D01*
X106177166Y-57601276D01*
X106173649Y-57615317D01*
X106168772Y-57628946D01*
X106162583Y-57642031D01*
X106155142Y-57654447D01*
X106146519Y-57666073D01*
X106136798Y-57676798D01*
X106126073Y-57686519D01*
X106114447Y-57695142D01*
X106102031Y-57702583D01*
X106088946Y-57708772D01*
X106075317Y-57713649D01*
X106061276Y-57717166D01*
X106046958Y-57719290D01*
X106032500Y-57720000D01*
X105737500Y-57720000D01*
X105723042Y-57719290D01*
X105708724Y-57717166D01*
X105694683Y-57713649D01*
X105681054Y-57708772D01*
X105667969Y-57702583D01*
X105655553Y-57695142D01*
X105643927Y-57686519D01*
X105633202Y-57676798D01*
X105623481Y-57666073D01*
X105614858Y-57654447D01*
X105607417Y-57642031D01*
X105601228Y-57628946D01*
X105596351Y-57615317D01*
X105592834Y-57601276D01*
X105590710Y-57586958D01*
X105590000Y-57572500D01*
X105590000Y-57227500D01*
X105590710Y-57213042D01*
X105592834Y-57198724D01*
X105596351Y-57184683D01*
X105601228Y-57171054D01*
X105607417Y-57157969D01*
X105614858Y-57145553D01*
X105623481Y-57133927D01*
X105633202Y-57123202D01*
X105643927Y-57113481D01*
X105655553Y-57104858D01*
X105667969Y-57097417D01*
X105681054Y-57091228D01*
X105694683Y-57086351D01*
X105708724Y-57082834D01*
X105723042Y-57080710D01*
X105737500Y-57080000D01*
X106032500Y-57080000D01*
X106046958Y-57080710D01*
X106046958Y-57080710D01*
G37*
D15*
X105885000Y-57400000D03*
D17*
X115650000Y-57350000D03*
D18*
X117350000Y-57350000D03*
X117350000Y-55350000D03*
X115450000Y-55350000D03*
D13*
G36*
X132599504Y-58326204D02*
G01*
X132623773Y-58329804D01*
X132647571Y-58335765D01*
X132670671Y-58344030D01*
X132692849Y-58354520D01*
X132713893Y-58367133D01*
X132733598Y-58381747D01*
X132751777Y-58398223D01*
X132768253Y-58416402D01*
X132782867Y-58436107D01*
X132795480Y-58457151D01*
X132805970Y-58479329D01*
X132814235Y-58502429D01*
X132820196Y-58526227D01*
X132823796Y-58550496D01*
X132825000Y-58575000D01*
X132825000Y-59325000D01*
X132823796Y-59349504D01*
X132820196Y-59373773D01*
X132814235Y-59397571D01*
X132805970Y-59420671D01*
X132795480Y-59442849D01*
X132782867Y-59463893D01*
X132768253Y-59483598D01*
X132751777Y-59501777D01*
X132733598Y-59518253D01*
X132713893Y-59532867D01*
X132692849Y-59545480D01*
X132670671Y-59555970D01*
X132647571Y-59564235D01*
X132623773Y-59570196D01*
X132599504Y-59573796D01*
X132575000Y-59575000D01*
X130425000Y-59575000D01*
X130400496Y-59573796D01*
X130376227Y-59570196D01*
X130352429Y-59564235D01*
X130329329Y-59555970D01*
X130307151Y-59545480D01*
X130286107Y-59532867D01*
X130266402Y-59518253D01*
X130248223Y-59501777D01*
X130231747Y-59483598D01*
X130217133Y-59463893D01*
X130204520Y-59442849D01*
X130194030Y-59420671D01*
X130185765Y-59397571D01*
X130179804Y-59373773D01*
X130176204Y-59349504D01*
X130175000Y-59325000D01*
X130175000Y-58575000D01*
X130176204Y-58550496D01*
X130179804Y-58526227D01*
X130185765Y-58502429D01*
X130194030Y-58479329D01*
X130204520Y-58457151D01*
X130217133Y-58436107D01*
X130231747Y-58416402D01*
X130248223Y-58398223D01*
X130266402Y-58381747D01*
X130286107Y-58367133D01*
X130307151Y-58354520D01*
X130329329Y-58344030D01*
X130352429Y-58335765D01*
X130376227Y-58329804D01*
X130400496Y-58326204D01*
X130425000Y-58325000D01*
X132575000Y-58325000D01*
X132599504Y-58326204D01*
X132599504Y-58326204D01*
G37*
D19*
X131500000Y-58950000D03*
D13*
G36*
X132599504Y-61126204D02*
G01*
X132623773Y-61129804D01*
X132647571Y-61135765D01*
X132670671Y-61144030D01*
X132692849Y-61154520D01*
X132713893Y-61167133D01*
X132733598Y-61181747D01*
X132751777Y-61198223D01*
X132768253Y-61216402D01*
X132782867Y-61236107D01*
X132795480Y-61257151D01*
X132805970Y-61279329D01*
X132814235Y-61302429D01*
X132820196Y-61326227D01*
X132823796Y-61350496D01*
X132825000Y-61375000D01*
X132825000Y-62125000D01*
X132823796Y-62149504D01*
X132820196Y-62173773D01*
X132814235Y-62197571D01*
X132805970Y-62220671D01*
X132795480Y-62242849D01*
X132782867Y-62263893D01*
X132768253Y-62283598D01*
X132751777Y-62301777D01*
X132733598Y-62318253D01*
X132713893Y-62332867D01*
X132692849Y-62345480D01*
X132670671Y-62355970D01*
X132647571Y-62364235D01*
X132623773Y-62370196D01*
X132599504Y-62373796D01*
X132575000Y-62375000D01*
X130425000Y-62375000D01*
X130400496Y-62373796D01*
X130376227Y-62370196D01*
X130352429Y-62364235D01*
X130329329Y-62355970D01*
X130307151Y-62345480D01*
X130286107Y-62332867D01*
X130266402Y-62318253D01*
X130248223Y-62301777D01*
X130231747Y-62283598D01*
X130217133Y-62263893D01*
X130204520Y-62242849D01*
X130194030Y-62220671D01*
X130185765Y-62197571D01*
X130179804Y-62173773D01*
X130176204Y-62149504D01*
X130175000Y-62125000D01*
X130175000Y-61375000D01*
X130176204Y-61350496D01*
X130179804Y-61326227D01*
X130185765Y-61302429D01*
X130194030Y-61279329D01*
X130204520Y-61257151D01*
X130217133Y-61236107D01*
X130231747Y-61216402D01*
X130248223Y-61198223D01*
X130266402Y-61181747D01*
X130286107Y-61167133D01*
X130307151Y-61154520D01*
X130329329Y-61144030D01*
X130352429Y-61135765D01*
X130376227Y-61129804D01*
X130400496Y-61126204D01*
X130425000Y-61125000D01*
X132575000Y-61125000D01*
X132599504Y-61126204D01*
X132599504Y-61126204D01*
G37*
D19*
X131500000Y-61750000D03*
D13*
G36*
X129246958Y-57130710D02*
G01*
X129261276Y-57132834D01*
X129275317Y-57136351D01*
X129288946Y-57141228D01*
X129302031Y-57147417D01*
X129314447Y-57154858D01*
X129326073Y-57163481D01*
X129336798Y-57173202D01*
X129346519Y-57183927D01*
X129355142Y-57195553D01*
X129362583Y-57207969D01*
X129368772Y-57221054D01*
X129373649Y-57234683D01*
X129377166Y-57248724D01*
X129379290Y-57263042D01*
X129380000Y-57277500D01*
X129380000Y-57622500D01*
X129379290Y-57636958D01*
X129377166Y-57651276D01*
X129373649Y-57665317D01*
X129368772Y-57678946D01*
X129362583Y-57692031D01*
X129355142Y-57704447D01*
X129346519Y-57716073D01*
X129336798Y-57726798D01*
X129326073Y-57736519D01*
X129314447Y-57745142D01*
X129302031Y-57752583D01*
X129288946Y-57758772D01*
X129275317Y-57763649D01*
X129261276Y-57767166D01*
X129246958Y-57769290D01*
X129232500Y-57770000D01*
X128937500Y-57770000D01*
X128923042Y-57769290D01*
X128908724Y-57767166D01*
X128894683Y-57763649D01*
X128881054Y-57758772D01*
X128867969Y-57752583D01*
X128855553Y-57745142D01*
X128843927Y-57736519D01*
X128833202Y-57726798D01*
X128823481Y-57716073D01*
X128814858Y-57704447D01*
X128807417Y-57692031D01*
X128801228Y-57678946D01*
X128796351Y-57665317D01*
X128792834Y-57651276D01*
X128790710Y-57636958D01*
X128790000Y-57622500D01*
X128790000Y-57277500D01*
X128790710Y-57263042D01*
X128792834Y-57248724D01*
X128796351Y-57234683D01*
X128801228Y-57221054D01*
X128807417Y-57207969D01*
X128814858Y-57195553D01*
X128823481Y-57183927D01*
X128833202Y-57173202D01*
X128843927Y-57163481D01*
X128855553Y-57154858D01*
X128867969Y-57147417D01*
X128881054Y-57141228D01*
X128894683Y-57136351D01*
X128908724Y-57132834D01*
X128923042Y-57130710D01*
X128937500Y-57130000D01*
X129232500Y-57130000D01*
X129246958Y-57130710D01*
X129246958Y-57130710D01*
G37*
D15*
X129085000Y-57450000D03*
D13*
G36*
X128276958Y-57130710D02*
G01*
X128291276Y-57132834D01*
X128305317Y-57136351D01*
X128318946Y-57141228D01*
X128332031Y-57147417D01*
X128344447Y-57154858D01*
X128356073Y-57163481D01*
X128366798Y-57173202D01*
X128376519Y-57183927D01*
X128385142Y-57195553D01*
X128392583Y-57207969D01*
X128398772Y-57221054D01*
X128403649Y-57234683D01*
X128407166Y-57248724D01*
X128409290Y-57263042D01*
X128410000Y-57277500D01*
X128410000Y-57622500D01*
X128409290Y-57636958D01*
X128407166Y-57651276D01*
X128403649Y-57665317D01*
X128398772Y-57678946D01*
X128392583Y-57692031D01*
X128385142Y-57704447D01*
X128376519Y-57716073D01*
X128366798Y-57726798D01*
X128356073Y-57736519D01*
X128344447Y-57745142D01*
X128332031Y-57752583D01*
X128318946Y-57758772D01*
X128305317Y-57763649D01*
X128291276Y-57767166D01*
X128276958Y-57769290D01*
X128262500Y-57770000D01*
X127967500Y-57770000D01*
X127953042Y-57769290D01*
X127938724Y-57767166D01*
X127924683Y-57763649D01*
X127911054Y-57758772D01*
X127897969Y-57752583D01*
X127885553Y-57745142D01*
X127873927Y-57736519D01*
X127863202Y-57726798D01*
X127853481Y-57716073D01*
X127844858Y-57704447D01*
X127837417Y-57692031D01*
X127831228Y-57678946D01*
X127826351Y-57665317D01*
X127822834Y-57651276D01*
X127820710Y-57636958D01*
X127820000Y-57622500D01*
X127820000Y-57277500D01*
X127820710Y-57263042D01*
X127822834Y-57248724D01*
X127826351Y-57234683D01*
X127831228Y-57221054D01*
X127837417Y-57207969D01*
X127844858Y-57195553D01*
X127853481Y-57183927D01*
X127863202Y-57173202D01*
X127873927Y-57163481D01*
X127885553Y-57154858D01*
X127897969Y-57147417D01*
X127911054Y-57141228D01*
X127924683Y-57136351D01*
X127938724Y-57132834D01*
X127953042Y-57130710D01*
X127967500Y-57130000D01*
X128262500Y-57130000D01*
X128276958Y-57130710D01*
X128276958Y-57130710D01*
G37*
D15*
X128115000Y-57450000D03*
D13*
G36*
X118886958Y-57085710D02*
G01*
X118901276Y-57087834D01*
X118915317Y-57091351D01*
X118928946Y-57096228D01*
X118942031Y-57102417D01*
X118954447Y-57109858D01*
X118966073Y-57118481D01*
X118976798Y-57128202D01*
X118986519Y-57138927D01*
X118995142Y-57150553D01*
X119002583Y-57162969D01*
X119008772Y-57176054D01*
X119013649Y-57189683D01*
X119017166Y-57203724D01*
X119019290Y-57218042D01*
X119020000Y-57232500D01*
X119020000Y-57527500D01*
X119019290Y-57541958D01*
X119017166Y-57556276D01*
X119013649Y-57570317D01*
X119008772Y-57583946D01*
X119002583Y-57597031D01*
X118995142Y-57609447D01*
X118986519Y-57621073D01*
X118976798Y-57631798D01*
X118966073Y-57641519D01*
X118954447Y-57650142D01*
X118942031Y-57657583D01*
X118928946Y-57663772D01*
X118915317Y-57668649D01*
X118901276Y-57672166D01*
X118886958Y-57674290D01*
X118872500Y-57675000D01*
X118527500Y-57675000D01*
X118513042Y-57674290D01*
X118498724Y-57672166D01*
X118484683Y-57668649D01*
X118471054Y-57663772D01*
X118457969Y-57657583D01*
X118445553Y-57650142D01*
X118433927Y-57641519D01*
X118423202Y-57631798D01*
X118413481Y-57621073D01*
X118404858Y-57609447D01*
X118397417Y-57597031D01*
X118391228Y-57583946D01*
X118386351Y-57570317D01*
X118382834Y-57556276D01*
X118380710Y-57541958D01*
X118380000Y-57527500D01*
X118380000Y-57232500D01*
X118380710Y-57218042D01*
X118382834Y-57203724D01*
X118386351Y-57189683D01*
X118391228Y-57176054D01*
X118397417Y-57162969D01*
X118404858Y-57150553D01*
X118413481Y-57138927D01*
X118423202Y-57128202D01*
X118433927Y-57118481D01*
X118445553Y-57109858D01*
X118457969Y-57102417D01*
X118471054Y-57096228D01*
X118484683Y-57091351D01*
X118498724Y-57087834D01*
X118513042Y-57085710D01*
X118527500Y-57085000D01*
X118872500Y-57085000D01*
X118886958Y-57085710D01*
X118886958Y-57085710D01*
G37*
D15*
X118700000Y-57380000D03*
D13*
G36*
X118886958Y-58055710D02*
G01*
X118901276Y-58057834D01*
X118915317Y-58061351D01*
X118928946Y-58066228D01*
X118942031Y-58072417D01*
X118954447Y-58079858D01*
X118966073Y-58088481D01*
X118976798Y-58098202D01*
X118986519Y-58108927D01*
X118995142Y-58120553D01*
X119002583Y-58132969D01*
X119008772Y-58146054D01*
X119013649Y-58159683D01*
X119017166Y-58173724D01*
X119019290Y-58188042D01*
X119020000Y-58202500D01*
X119020000Y-58497500D01*
X119019290Y-58511958D01*
X119017166Y-58526276D01*
X119013649Y-58540317D01*
X119008772Y-58553946D01*
X119002583Y-58567031D01*
X118995142Y-58579447D01*
X118986519Y-58591073D01*
X118976798Y-58601798D01*
X118966073Y-58611519D01*
X118954447Y-58620142D01*
X118942031Y-58627583D01*
X118928946Y-58633772D01*
X118915317Y-58638649D01*
X118901276Y-58642166D01*
X118886958Y-58644290D01*
X118872500Y-58645000D01*
X118527500Y-58645000D01*
X118513042Y-58644290D01*
X118498724Y-58642166D01*
X118484683Y-58638649D01*
X118471054Y-58633772D01*
X118457969Y-58627583D01*
X118445553Y-58620142D01*
X118433927Y-58611519D01*
X118423202Y-58601798D01*
X118413481Y-58591073D01*
X118404858Y-58579447D01*
X118397417Y-58567031D01*
X118391228Y-58553946D01*
X118386351Y-58540317D01*
X118382834Y-58526276D01*
X118380710Y-58511958D01*
X118380000Y-58497500D01*
X118380000Y-58202500D01*
X118380710Y-58188042D01*
X118382834Y-58173724D01*
X118386351Y-58159683D01*
X118391228Y-58146054D01*
X118397417Y-58132969D01*
X118404858Y-58120553D01*
X118413481Y-58108927D01*
X118423202Y-58098202D01*
X118433927Y-58088481D01*
X118445553Y-58079858D01*
X118457969Y-58072417D01*
X118471054Y-58066228D01*
X118484683Y-58061351D01*
X118498724Y-58057834D01*
X118513042Y-58055710D01*
X118527500Y-58055000D01*
X118872500Y-58055000D01*
X118886958Y-58055710D01*
X118886958Y-58055710D01*
G37*
D15*
X118700000Y-58350000D03*
D13*
G36*
X103146958Y-57080710D02*
G01*
X103161276Y-57082834D01*
X103175317Y-57086351D01*
X103188946Y-57091228D01*
X103202031Y-57097417D01*
X103214447Y-57104858D01*
X103226073Y-57113481D01*
X103236798Y-57123202D01*
X103246519Y-57133927D01*
X103255142Y-57145553D01*
X103262583Y-57157969D01*
X103268772Y-57171054D01*
X103273649Y-57184683D01*
X103277166Y-57198724D01*
X103279290Y-57213042D01*
X103280000Y-57227500D01*
X103280000Y-57572500D01*
X103279290Y-57586958D01*
X103277166Y-57601276D01*
X103273649Y-57615317D01*
X103268772Y-57628946D01*
X103262583Y-57642031D01*
X103255142Y-57654447D01*
X103246519Y-57666073D01*
X103236798Y-57676798D01*
X103226073Y-57686519D01*
X103214447Y-57695142D01*
X103202031Y-57702583D01*
X103188946Y-57708772D01*
X103175317Y-57713649D01*
X103161276Y-57717166D01*
X103146958Y-57719290D01*
X103132500Y-57720000D01*
X102837500Y-57720000D01*
X102823042Y-57719290D01*
X102808724Y-57717166D01*
X102794683Y-57713649D01*
X102781054Y-57708772D01*
X102767969Y-57702583D01*
X102755553Y-57695142D01*
X102743927Y-57686519D01*
X102733202Y-57676798D01*
X102723481Y-57666073D01*
X102714858Y-57654447D01*
X102707417Y-57642031D01*
X102701228Y-57628946D01*
X102696351Y-57615317D01*
X102692834Y-57601276D01*
X102690710Y-57586958D01*
X102690000Y-57572500D01*
X102690000Y-57227500D01*
X102690710Y-57213042D01*
X102692834Y-57198724D01*
X102696351Y-57184683D01*
X102701228Y-57171054D01*
X102707417Y-57157969D01*
X102714858Y-57145553D01*
X102723481Y-57133927D01*
X102733202Y-57123202D01*
X102743927Y-57113481D01*
X102755553Y-57104858D01*
X102767969Y-57097417D01*
X102781054Y-57091228D01*
X102794683Y-57086351D01*
X102808724Y-57082834D01*
X102823042Y-57080710D01*
X102837500Y-57080000D01*
X103132500Y-57080000D01*
X103146958Y-57080710D01*
X103146958Y-57080710D01*
G37*
D15*
X102985000Y-57400000D03*
D13*
G36*
X102176958Y-57080710D02*
G01*
X102191276Y-57082834D01*
X102205317Y-57086351D01*
X102218946Y-57091228D01*
X102232031Y-57097417D01*
X102244447Y-57104858D01*
X102256073Y-57113481D01*
X102266798Y-57123202D01*
X102276519Y-57133927D01*
X102285142Y-57145553D01*
X102292583Y-57157969D01*
X102298772Y-57171054D01*
X102303649Y-57184683D01*
X102307166Y-57198724D01*
X102309290Y-57213042D01*
X102310000Y-57227500D01*
X102310000Y-57572500D01*
X102309290Y-57586958D01*
X102307166Y-57601276D01*
X102303649Y-57615317D01*
X102298772Y-57628946D01*
X102292583Y-57642031D01*
X102285142Y-57654447D01*
X102276519Y-57666073D01*
X102266798Y-57676798D01*
X102256073Y-57686519D01*
X102244447Y-57695142D01*
X102232031Y-57702583D01*
X102218946Y-57708772D01*
X102205317Y-57713649D01*
X102191276Y-57717166D01*
X102176958Y-57719290D01*
X102162500Y-57720000D01*
X101867500Y-57720000D01*
X101853042Y-57719290D01*
X101838724Y-57717166D01*
X101824683Y-57713649D01*
X101811054Y-57708772D01*
X101797969Y-57702583D01*
X101785553Y-57695142D01*
X101773927Y-57686519D01*
X101763202Y-57676798D01*
X101753481Y-57666073D01*
X101744858Y-57654447D01*
X101737417Y-57642031D01*
X101731228Y-57628946D01*
X101726351Y-57615317D01*
X101722834Y-57601276D01*
X101720710Y-57586958D01*
X101720000Y-57572500D01*
X101720000Y-57227500D01*
X101720710Y-57213042D01*
X101722834Y-57198724D01*
X101726351Y-57184683D01*
X101731228Y-57171054D01*
X101737417Y-57157969D01*
X101744858Y-57145553D01*
X101753481Y-57133927D01*
X101763202Y-57123202D01*
X101773927Y-57113481D01*
X101785553Y-57104858D01*
X101797969Y-57097417D01*
X101811054Y-57091228D01*
X101824683Y-57086351D01*
X101838724Y-57082834D01*
X101853042Y-57080710D01*
X101867500Y-57080000D01*
X102162500Y-57080000D01*
X102176958Y-57080710D01*
X102176958Y-57080710D01*
G37*
D15*
X102015000Y-57400000D03*
D13*
G36*
X96346958Y-57080710D02*
G01*
X96361276Y-57082834D01*
X96375317Y-57086351D01*
X96388946Y-57091228D01*
X96402031Y-57097417D01*
X96414447Y-57104858D01*
X96426073Y-57113481D01*
X96436798Y-57123202D01*
X96446519Y-57133927D01*
X96455142Y-57145553D01*
X96462583Y-57157969D01*
X96468772Y-57171054D01*
X96473649Y-57184683D01*
X96477166Y-57198724D01*
X96479290Y-57213042D01*
X96480000Y-57227500D01*
X96480000Y-57572500D01*
X96479290Y-57586958D01*
X96477166Y-57601276D01*
X96473649Y-57615317D01*
X96468772Y-57628946D01*
X96462583Y-57642031D01*
X96455142Y-57654447D01*
X96446519Y-57666073D01*
X96436798Y-57676798D01*
X96426073Y-57686519D01*
X96414447Y-57695142D01*
X96402031Y-57702583D01*
X96388946Y-57708772D01*
X96375317Y-57713649D01*
X96361276Y-57717166D01*
X96346958Y-57719290D01*
X96332500Y-57720000D01*
X96037500Y-57720000D01*
X96023042Y-57719290D01*
X96008724Y-57717166D01*
X95994683Y-57713649D01*
X95981054Y-57708772D01*
X95967969Y-57702583D01*
X95955553Y-57695142D01*
X95943927Y-57686519D01*
X95933202Y-57676798D01*
X95923481Y-57666073D01*
X95914858Y-57654447D01*
X95907417Y-57642031D01*
X95901228Y-57628946D01*
X95896351Y-57615317D01*
X95892834Y-57601276D01*
X95890710Y-57586958D01*
X95890000Y-57572500D01*
X95890000Y-57227500D01*
X95890710Y-57213042D01*
X95892834Y-57198724D01*
X95896351Y-57184683D01*
X95901228Y-57171054D01*
X95907417Y-57157969D01*
X95914858Y-57145553D01*
X95923481Y-57133927D01*
X95933202Y-57123202D01*
X95943927Y-57113481D01*
X95955553Y-57104858D01*
X95967969Y-57097417D01*
X95981054Y-57091228D01*
X95994683Y-57086351D01*
X96008724Y-57082834D01*
X96023042Y-57080710D01*
X96037500Y-57080000D01*
X96332500Y-57080000D01*
X96346958Y-57080710D01*
X96346958Y-57080710D01*
G37*
D15*
X96185000Y-57400000D03*
D13*
G36*
X95376958Y-57080710D02*
G01*
X95391276Y-57082834D01*
X95405317Y-57086351D01*
X95418946Y-57091228D01*
X95432031Y-57097417D01*
X95444447Y-57104858D01*
X95456073Y-57113481D01*
X95466798Y-57123202D01*
X95476519Y-57133927D01*
X95485142Y-57145553D01*
X95492583Y-57157969D01*
X95498772Y-57171054D01*
X95503649Y-57184683D01*
X95507166Y-57198724D01*
X95509290Y-57213042D01*
X95510000Y-57227500D01*
X95510000Y-57572500D01*
X95509290Y-57586958D01*
X95507166Y-57601276D01*
X95503649Y-57615317D01*
X95498772Y-57628946D01*
X95492583Y-57642031D01*
X95485142Y-57654447D01*
X95476519Y-57666073D01*
X95466798Y-57676798D01*
X95456073Y-57686519D01*
X95444447Y-57695142D01*
X95432031Y-57702583D01*
X95418946Y-57708772D01*
X95405317Y-57713649D01*
X95391276Y-57717166D01*
X95376958Y-57719290D01*
X95362500Y-57720000D01*
X95067500Y-57720000D01*
X95053042Y-57719290D01*
X95038724Y-57717166D01*
X95024683Y-57713649D01*
X95011054Y-57708772D01*
X94997969Y-57702583D01*
X94985553Y-57695142D01*
X94973927Y-57686519D01*
X94963202Y-57676798D01*
X94953481Y-57666073D01*
X94944858Y-57654447D01*
X94937417Y-57642031D01*
X94931228Y-57628946D01*
X94926351Y-57615317D01*
X94922834Y-57601276D01*
X94920710Y-57586958D01*
X94920000Y-57572500D01*
X94920000Y-57227500D01*
X94920710Y-57213042D01*
X94922834Y-57198724D01*
X94926351Y-57184683D01*
X94931228Y-57171054D01*
X94937417Y-57157969D01*
X94944858Y-57145553D01*
X94953481Y-57133927D01*
X94963202Y-57123202D01*
X94973927Y-57113481D01*
X94985553Y-57104858D01*
X94997969Y-57097417D01*
X95011054Y-57091228D01*
X95024683Y-57086351D01*
X95038724Y-57082834D01*
X95053042Y-57080710D01*
X95067500Y-57080000D01*
X95362500Y-57080000D01*
X95376958Y-57080710D01*
X95376958Y-57080710D01*
G37*
D15*
X95215000Y-57400000D03*
D13*
G36*
X93546958Y-57080710D02*
G01*
X93561276Y-57082834D01*
X93575317Y-57086351D01*
X93588946Y-57091228D01*
X93602031Y-57097417D01*
X93614447Y-57104858D01*
X93626073Y-57113481D01*
X93636798Y-57123202D01*
X93646519Y-57133927D01*
X93655142Y-57145553D01*
X93662583Y-57157969D01*
X93668772Y-57171054D01*
X93673649Y-57184683D01*
X93677166Y-57198724D01*
X93679290Y-57213042D01*
X93680000Y-57227500D01*
X93680000Y-57572500D01*
X93679290Y-57586958D01*
X93677166Y-57601276D01*
X93673649Y-57615317D01*
X93668772Y-57628946D01*
X93662583Y-57642031D01*
X93655142Y-57654447D01*
X93646519Y-57666073D01*
X93636798Y-57676798D01*
X93626073Y-57686519D01*
X93614447Y-57695142D01*
X93602031Y-57702583D01*
X93588946Y-57708772D01*
X93575317Y-57713649D01*
X93561276Y-57717166D01*
X93546958Y-57719290D01*
X93532500Y-57720000D01*
X93237500Y-57720000D01*
X93223042Y-57719290D01*
X93208724Y-57717166D01*
X93194683Y-57713649D01*
X93181054Y-57708772D01*
X93167969Y-57702583D01*
X93155553Y-57695142D01*
X93143927Y-57686519D01*
X93133202Y-57676798D01*
X93123481Y-57666073D01*
X93114858Y-57654447D01*
X93107417Y-57642031D01*
X93101228Y-57628946D01*
X93096351Y-57615317D01*
X93092834Y-57601276D01*
X93090710Y-57586958D01*
X93090000Y-57572500D01*
X93090000Y-57227500D01*
X93090710Y-57213042D01*
X93092834Y-57198724D01*
X93096351Y-57184683D01*
X93101228Y-57171054D01*
X93107417Y-57157969D01*
X93114858Y-57145553D01*
X93123481Y-57133927D01*
X93133202Y-57123202D01*
X93143927Y-57113481D01*
X93155553Y-57104858D01*
X93167969Y-57097417D01*
X93181054Y-57091228D01*
X93194683Y-57086351D01*
X93208724Y-57082834D01*
X93223042Y-57080710D01*
X93237500Y-57080000D01*
X93532500Y-57080000D01*
X93546958Y-57080710D01*
X93546958Y-57080710D01*
G37*
D15*
X93385000Y-57400000D03*
D13*
G36*
X92576958Y-57080710D02*
G01*
X92591276Y-57082834D01*
X92605317Y-57086351D01*
X92618946Y-57091228D01*
X92632031Y-57097417D01*
X92644447Y-57104858D01*
X92656073Y-57113481D01*
X92666798Y-57123202D01*
X92676519Y-57133927D01*
X92685142Y-57145553D01*
X92692583Y-57157969D01*
X92698772Y-57171054D01*
X92703649Y-57184683D01*
X92707166Y-57198724D01*
X92709290Y-57213042D01*
X92710000Y-57227500D01*
X92710000Y-57572500D01*
X92709290Y-57586958D01*
X92707166Y-57601276D01*
X92703649Y-57615317D01*
X92698772Y-57628946D01*
X92692583Y-57642031D01*
X92685142Y-57654447D01*
X92676519Y-57666073D01*
X92666798Y-57676798D01*
X92656073Y-57686519D01*
X92644447Y-57695142D01*
X92632031Y-57702583D01*
X92618946Y-57708772D01*
X92605317Y-57713649D01*
X92591276Y-57717166D01*
X92576958Y-57719290D01*
X92562500Y-57720000D01*
X92267500Y-57720000D01*
X92253042Y-57719290D01*
X92238724Y-57717166D01*
X92224683Y-57713649D01*
X92211054Y-57708772D01*
X92197969Y-57702583D01*
X92185553Y-57695142D01*
X92173927Y-57686519D01*
X92163202Y-57676798D01*
X92153481Y-57666073D01*
X92144858Y-57654447D01*
X92137417Y-57642031D01*
X92131228Y-57628946D01*
X92126351Y-57615317D01*
X92122834Y-57601276D01*
X92120710Y-57586958D01*
X92120000Y-57572500D01*
X92120000Y-57227500D01*
X92120710Y-57213042D01*
X92122834Y-57198724D01*
X92126351Y-57184683D01*
X92131228Y-57171054D01*
X92137417Y-57157969D01*
X92144858Y-57145553D01*
X92153481Y-57133927D01*
X92163202Y-57123202D01*
X92173927Y-57113481D01*
X92185553Y-57104858D01*
X92197969Y-57097417D01*
X92211054Y-57091228D01*
X92224683Y-57086351D01*
X92238724Y-57082834D01*
X92253042Y-57080710D01*
X92267500Y-57080000D01*
X92562500Y-57080000D01*
X92576958Y-57080710D01*
X92576958Y-57080710D01*
G37*
D15*
X92415000Y-57400000D03*
D20*
X96900000Y-67690000D03*
X96900000Y-64700000D03*
D21*
X98425000Y-66195000D03*
D20*
X103600000Y-64705000D03*
X103600000Y-67695000D03*
D21*
X102075000Y-66200000D03*
D20*
X122400000Y-58895000D03*
X122400000Y-55905000D03*
D21*
X123925000Y-57400000D03*
D20*
X108700000Y-55805000D03*
X108700000Y-58795000D03*
D21*
X107175000Y-57300000D03*
D13*
G36*
X116180142Y-61626174D02*
G01*
X116203803Y-61629684D01*
X116227007Y-61635496D01*
X116249529Y-61643554D01*
X116271153Y-61653782D01*
X116291670Y-61666079D01*
X116310883Y-61680329D01*
X116328607Y-61696393D01*
X116344671Y-61714117D01*
X116358921Y-61733330D01*
X116371218Y-61753847D01*
X116381446Y-61775471D01*
X116389504Y-61797993D01*
X116395316Y-61821197D01*
X116398826Y-61844858D01*
X116400000Y-61868750D01*
X116400000Y-62356250D01*
X116398826Y-62380142D01*
X116395316Y-62403803D01*
X116389504Y-62427007D01*
X116381446Y-62449529D01*
X116371218Y-62471153D01*
X116358921Y-62491670D01*
X116344671Y-62510883D01*
X116328607Y-62528607D01*
X116310883Y-62544671D01*
X116291670Y-62558921D01*
X116271153Y-62571218D01*
X116249529Y-62581446D01*
X116227007Y-62589504D01*
X116203803Y-62595316D01*
X116180142Y-62598826D01*
X116156250Y-62600000D01*
X115243750Y-62600000D01*
X115219858Y-62598826D01*
X115196197Y-62595316D01*
X115172993Y-62589504D01*
X115150471Y-62581446D01*
X115128847Y-62571218D01*
X115108330Y-62558921D01*
X115089117Y-62544671D01*
X115071393Y-62528607D01*
X115055329Y-62510883D01*
X115041079Y-62491670D01*
X115028782Y-62471153D01*
X115018554Y-62449529D01*
X115010496Y-62427007D01*
X115004684Y-62403803D01*
X115001174Y-62380142D01*
X115000000Y-62356250D01*
X115000000Y-61868750D01*
X115001174Y-61844858D01*
X115004684Y-61821197D01*
X115010496Y-61797993D01*
X115018554Y-61775471D01*
X115028782Y-61753847D01*
X115041079Y-61733330D01*
X115055329Y-61714117D01*
X115071393Y-61696393D01*
X115089117Y-61680329D01*
X115108330Y-61666079D01*
X115128847Y-61653782D01*
X115150471Y-61643554D01*
X115172993Y-61635496D01*
X115196197Y-61629684D01*
X115219858Y-61626174D01*
X115243750Y-61625000D01*
X116156250Y-61625000D01*
X116180142Y-61626174D01*
X116180142Y-61626174D01*
G37*
D22*
X115700000Y-62112500D03*
D13*
G36*
X116180142Y-63501174D02*
G01*
X116203803Y-63504684D01*
X116227007Y-63510496D01*
X116249529Y-63518554D01*
X116271153Y-63528782D01*
X116291670Y-63541079D01*
X116310883Y-63555329D01*
X116328607Y-63571393D01*
X116344671Y-63589117D01*
X116358921Y-63608330D01*
X116371218Y-63628847D01*
X116381446Y-63650471D01*
X116389504Y-63672993D01*
X116395316Y-63696197D01*
X116398826Y-63719858D01*
X116400000Y-63743750D01*
X116400000Y-64231250D01*
X116398826Y-64255142D01*
X116395316Y-64278803D01*
X116389504Y-64302007D01*
X116381446Y-64324529D01*
X116371218Y-64346153D01*
X116358921Y-64366670D01*
X116344671Y-64385883D01*
X116328607Y-64403607D01*
X116310883Y-64419671D01*
X116291670Y-64433921D01*
X116271153Y-64446218D01*
X116249529Y-64456446D01*
X116227007Y-64464504D01*
X116203803Y-64470316D01*
X116180142Y-64473826D01*
X116156250Y-64475000D01*
X115243750Y-64475000D01*
X115219858Y-64473826D01*
X115196197Y-64470316D01*
X115172993Y-64464504D01*
X115150471Y-64456446D01*
X115128847Y-64446218D01*
X115108330Y-64433921D01*
X115089117Y-64419671D01*
X115071393Y-64403607D01*
X115055329Y-64385883D01*
X115041079Y-64366670D01*
X115028782Y-64346153D01*
X115018554Y-64324529D01*
X115010496Y-64302007D01*
X115004684Y-64278803D01*
X115001174Y-64255142D01*
X115000000Y-64231250D01*
X115000000Y-63743750D01*
X115001174Y-63719858D01*
X115004684Y-63696197D01*
X115010496Y-63672993D01*
X115018554Y-63650471D01*
X115028782Y-63628847D01*
X115041079Y-63608330D01*
X115055329Y-63589117D01*
X115071393Y-63571393D01*
X115089117Y-63555329D01*
X115108330Y-63541079D01*
X115128847Y-63528782D01*
X115150471Y-63518554D01*
X115172993Y-63510496D01*
X115196197Y-63504684D01*
X115219858Y-63501174D01*
X115243750Y-63500000D01*
X116156250Y-63500000D01*
X116180142Y-63501174D01*
X116180142Y-63501174D01*
G37*
D22*
X115700000Y-63987500D03*
D13*
G36*
X132146958Y-57180710D02*
G01*
X132161276Y-57182834D01*
X132175317Y-57186351D01*
X132188946Y-57191228D01*
X132202031Y-57197417D01*
X132214447Y-57204858D01*
X132226073Y-57213481D01*
X132236798Y-57223202D01*
X132246519Y-57233927D01*
X132255142Y-57245553D01*
X132262583Y-57257969D01*
X132268772Y-57271054D01*
X132273649Y-57284683D01*
X132277166Y-57298724D01*
X132279290Y-57313042D01*
X132280000Y-57327500D01*
X132280000Y-57672500D01*
X132279290Y-57686958D01*
X132277166Y-57701276D01*
X132273649Y-57715317D01*
X132268772Y-57728946D01*
X132262583Y-57742031D01*
X132255142Y-57754447D01*
X132246519Y-57766073D01*
X132236798Y-57776798D01*
X132226073Y-57786519D01*
X132214447Y-57795142D01*
X132202031Y-57802583D01*
X132188946Y-57808772D01*
X132175317Y-57813649D01*
X132161276Y-57817166D01*
X132146958Y-57819290D01*
X132132500Y-57820000D01*
X131837500Y-57820000D01*
X131823042Y-57819290D01*
X131808724Y-57817166D01*
X131794683Y-57813649D01*
X131781054Y-57808772D01*
X131767969Y-57802583D01*
X131755553Y-57795142D01*
X131743927Y-57786519D01*
X131733202Y-57776798D01*
X131723481Y-57766073D01*
X131714858Y-57754447D01*
X131707417Y-57742031D01*
X131701228Y-57728946D01*
X131696351Y-57715317D01*
X131692834Y-57701276D01*
X131690710Y-57686958D01*
X131690000Y-57672500D01*
X131690000Y-57327500D01*
X131690710Y-57313042D01*
X131692834Y-57298724D01*
X131696351Y-57284683D01*
X131701228Y-57271054D01*
X131707417Y-57257969D01*
X131714858Y-57245553D01*
X131723481Y-57233927D01*
X131733202Y-57223202D01*
X131743927Y-57213481D01*
X131755553Y-57204858D01*
X131767969Y-57197417D01*
X131781054Y-57191228D01*
X131794683Y-57186351D01*
X131808724Y-57182834D01*
X131823042Y-57180710D01*
X131837500Y-57180000D01*
X132132500Y-57180000D01*
X132146958Y-57180710D01*
X132146958Y-57180710D01*
G37*
D15*
X131985000Y-57500000D03*
D13*
G36*
X131176958Y-57180710D02*
G01*
X131191276Y-57182834D01*
X131205317Y-57186351D01*
X131218946Y-57191228D01*
X131232031Y-57197417D01*
X131244447Y-57204858D01*
X131256073Y-57213481D01*
X131266798Y-57223202D01*
X131276519Y-57233927D01*
X131285142Y-57245553D01*
X131292583Y-57257969D01*
X131298772Y-57271054D01*
X131303649Y-57284683D01*
X131307166Y-57298724D01*
X131309290Y-57313042D01*
X131310000Y-57327500D01*
X131310000Y-57672500D01*
X131309290Y-57686958D01*
X131307166Y-57701276D01*
X131303649Y-57715317D01*
X131298772Y-57728946D01*
X131292583Y-57742031D01*
X131285142Y-57754447D01*
X131276519Y-57766073D01*
X131266798Y-57776798D01*
X131256073Y-57786519D01*
X131244447Y-57795142D01*
X131232031Y-57802583D01*
X131218946Y-57808772D01*
X131205317Y-57813649D01*
X131191276Y-57817166D01*
X131176958Y-57819290D01*
X131162500Y-57820000D01*
X130867500Y-57820000D01*
X130853042Y-57819290D01*
X130838724Y-57817166D01*
X130824683Y-57813649D01*
X130811054Y-57808772D01*
X130797969Y-57802583D01*
X130785553Y-57795142D01*
X130773927Y-57786519D01*
X130763202Y-57776798D01*
X130753481Y-57766073D01*
X130744858Y-57754447D01*
X130737417Y-57742031D01*
X130731228Y-57728946D01*
X130726351Y-57715317D01*
X130722834Y-57701276D01*
X130720710Y-57686958D01*
X130720000Y-57672500D01*
X130720000Y-57327500D01*
X130720710Y-57313042D01*
X130722834Y-57298724D01*
X130726351Y-57284683D01*
X130731228Y-57271054D01*
X130737417Y-57257969D01*
X130744858Y-57245553D01*
X130753481Y-57233927D01*
X130763202Y-57223202D01*
X130773927Y-57213481D01*
X130785553Y-57204858D01*
X130797969Y-57197417D01*
X130811054Y-57191228D01*
X130824683Y-57186351D01*
X130838724Y-57182834D01*
X130853042Y-57180710D01*
X130867500Y-57180000D01*
X131162500Y-57180000D01*
X131176958Y-57180710D01*
X131176958Y-57180710D01*
G37*
D15*
X131015000Y-57500000D03*
D13*
G36*
X130236958Y-56195710D02*
G01*
X130251276Y-56197834D01*
X130265317Y-56201351D01*
X130278946Y-56206228D01*
X130292031Y-56212417D01*
X130304447Y-56219858D01*
X130316073Y-56228481D01*
X130326798Y-56238202D01*
X130336519Y-56248927D01*
X130345142Y-56260553D01*
X130352583Y-56272969D01*
X130358772Y-56286054D01*
X130363649Y-56299683D01*
X130367166Y-56313724D01*
X130369290Y-56328042D01*
X130370000Y-56342500D01*
X130370000Y-56637500D01*
X130369290Y-56651958D01*
X130367166Y-56666276D01*
X130363649Y-56680317D01*
X130358772Y-56693946D01*
X130352583Y-56707031D01*
X130345142Y-56719447D01*
X130336519Y-56731073D01*
X130326798Y-56741798D01*
X130316073Y-56751519D01*
X130304447Y-56760142D01*
X130292031Y-56767583D01*
X130278946Y-56773772D01*
X130265317Y-56778649D01*
X130251276Y-56782166D01*
X130236958Y-56784290D01*
X130222500Y-56785000D01*
X129877500Y-56785000D01*
X129863042Y-56784290D01*
X129848724Y-56782166D01*
X129834683Y-56778649D01*
X129821054Y-56773772D01*
X129807969Y-56767583D01*
X129795553Y-56760142D01*
X129783927Y-56751519D01*
X129773202Y-56741798D01*
X129763481Y-56731073D01*
X129754858Y-56719447D01*
X129747417Y-56707031D01*
X129741228Y-56693946D01*
X129736351Y-56680317D01*
X129732834Y-56666276D01*
X129730710Y-56651958D01*
X129730000Y-56637500D01*
X129730000Y-56342500D01*
X129730710Y-56328042D01*
X129732834Y-56313724D01*
X129736351Y-56299683D01*
X129741228Y-56286054D01*
X129747417Y-56272969D01*
X129754858Y-56260553D01*
X129763481Y-56248927D01*
X129773202Y-56238202D01*
X129783927Y-56228481D01*
X129795553Y-56219858D01*
X129807969Y-56212417D01*
X129821054Y-56206228D01*
X129834683Y-56201351D01*
X129848724Y-56197834D01*
X129863042Y-56195710D01*
X129877500Y-56195000D01*
X130222500Y-56195000D01*
X130236958Y-56195710D01*
X130236958Y-56195710D01*
G37*
D15*
X130050000Y-56490000D03*
D13*
G36*
X130236958Y-57165710D02*
G01*
X130251276Y-57167834D01*
X130265317Y-57171351D01*
X130278946Y-57176228D01*
X130292031Y-57182417D01*
X130304447Y-57189858D01*
X130316073Y-57198481D01*
X130326798Y-57208202D01*
X130336519Y-57218927D01*
X130345142Y-57230553D01*
X130352583Y-57242969D01*
X130358772Y-57256054D01*
X130363649Y-57269683D01*
X130367166Y-57283724D01*
X130369290Y-57298042D01*
X130370000Y-57312500D01*
X130370000Y-57607500D01*
X130369290Y-57621958D01*
X130367166Y-57636276D01*
X130363649Y-57650317D01*
X130358772Y-57663946D01*
X130352583Y-57677031D01*
X130345142Y-57689447D01*
X130336519Y-57701073D01*
X130326798Y-57711798D01*
X130316073Y-57721519D01*
X130304447Y-57730142D01*
X130292031Y-57737583D01*
X130278946Y-57743772D01*
X130265317Y-57748649D01*
X130251276Y-57752166D01*
X130236958Y-57754290D01*
X130222500Y-57755000D01*
X129877500Y-57755000D01*
X129863042Y-57754290D01*
X129848724Y-57752166D01*
X129834683Y-57748649D01*
X129821054Y-57743772D01*
X129807969Y-57737583D01*
X129795553Y-57730142D01*
X129783927Y-57721519D01*
X129773202Y-57711798D01*
X129763481Y-57701073D01*
X129754858Y-57689447D01*
X129747417Y-57677031D01*
X129741228Y-57663946D01*
X129736351Y-57650317D01*
X129732834Y-57636276D01*
X129730710Y-57621958D01*
X129730000Y-57607500D01*
X129730000Y-57312500D01*
X129730710Y-57298042D01*
X129732834Y-57283724D01*
X129736351Y-57269683D01*
X129741228Y-57256054D01*
X129747417Y-57242969D01*
X129754858Y-57230553D01*
X129763481Y-57218927D01*
X129773202Y-57208202D01*
X129783927Y-57198481D01*
X129795553Y-57189858D01*
X129807969Y-57182417D01*
X129821054Y-57176228D01*
X129834683Y-57171351D01*
X129848724Y-57167834D01*
X129863042Y-57165710D01*
X129877500Y-57165000D01*
X130222500Y-57165000D01*
X130236958Y-57165710D01*
X130236958Y-57165710D01*
G37*
D15*
X130050000Y-57460000D03*
D13*
G36*
X127336958Y-56170710D02*
G01*
X127351276Y-56172834D01*
X127365317Y-56176351D01*
X127378946Y-56181228D01*
X127392031Y-56187417D01*
X127404447Y-56194858D01*
X127416073Y-56203481D01*
X127426798Y-56213202D01*
X127436519Y-56223927D01*
X127445142Y-56235553D01*
X127452583Y-56247969D01*
X127458772Y-56261054D01*
X127463649Y-56274683D01*
X127467166Y-56288724D01*
X127469290Y-56303042D01*
X127470000Y-56317500D01*
X127470000Y-56612500D01*
X127469290Y-56626958D01*
X127467166Y-56641276D01*
X127463649Y-56655317D01*
X127458772Y-56668946D01*
X127452583Y-56682031D01*
X127445142Y-56694447D01*
X127436519Y-56706073D01*
X127426798Y-56716798D01*
X127416073Y-56726519D01*
X127404447Y-56735142D01*
X127392031Y-56742583D01*
X127378946Y-56748772D01*
X127365317Y-56753649D01*
X127351276Y-56757166D01*
X127336958Y-56759290D01*
X127322500Y-56760000D01*
X126977500Y-56760000D01*
X126963042Y-56759290D01*
X126948724Y-56757166D01*
X126934683Y-56753649D01*
X126921054Y-56748772D01*
X126907969Y-56742583D01*
X126895553Y-56735142D01*
X126883927Y-56726519D01*
X126873202Y-56716798D01*
X126863481Y-56706073D01*
X126854858Y-56694447D01*
X126847417Y-56682031D01*
X126841228Y-56668946D01*
X126836351Y-56655317D01*
X126832834Y-56641276D01*
X126830710Y-56626958D01*
X126830000Y-56612500D01*
X126830000Y-56317500D01*
X126830710Y-56303042D01*
X126832834Y-56288724D01*
X126836351Y-56274683D01*
X126841228Y-56261054D01*
X126847417Y-56247969D01*
X126854858Y-56235553D01*
X126863481Y-56223927D01*
X126873202Y-56213202D01*
X126883927Y-56203481D01*
X126895553Y-56194858D01*
X126907969Y-56187417D01*
X126921054Y-56181228D01*
X126934683Y-56176351D01*
X126948724Y-56172834D01*
X126963042Y-56170710D01*
X126977500Y-56170000D01*
X127322500Y-56170000D01*
X127336958Y-56170710D01*
X127336958Y-56170710D01*
G37*
D15*
X127150000Y-56465000D03*
D13*
G36*
X127336958Y-57140710D02*
G01*
X127351276Y-57142834D01*
X127365317Y-57146351D01*
X127378946Y-57151228D01*
X127392031Y-57157417D01*
X127404447Y-57164858D01*
X127416073Y-57173481D01*
X127426798Y-57183202D01*
X127436519Y-57193927D01*
X127445142Y-57205553D01*
X127452583Y-57217969D01*
X127458772Y-57231054D01*
X127463649Y-57244683D01*
X127467166Y-57258724D01*
X127469290Y-57273042D01*
X127470000Y-57287500D01*
X127470000Y-57582500D01*
X127469290Y-57596958D01*
X127467166Y-57611276D01*
X127463649Y-57625317D01*
X127458772Y-57638946D01*
X127452583Y-57652031D01*
X127445142Y-57664447D01*
X127436519Y-57676073D01*
X127426798Y-57686798D01*
X127416073Y-57696519D01*
X127404447Y-57705142D01*
X127392031Y-57712583D01*
X127378946Y-57718772D01*
X127365317Y-57723649D01*
X127351276Y-57727166D01*
X127336958Y-57729290D01*
X127322500Y-57730000D01*
X126977500Y-57730000D01*
X126963042Y-57729290D01*
X126948724Y-57727166D01*
X126934683Y-57723649D01*
X126921054Y-57718772D01*
X126907969Y-57712583D01*
X126895553Y-57705142D01*
X126883927Y-57696519D01*
X126873202Y-57686798D01*
X126863481Y-57676073D01*
X126854858Y-57664447D01*
X126847417Y-57652031D01*
X126841228Y-57638946D01*
X126836351Y-57625317D01*
X126832834Y-57611276D01*
X126830710Y-57596958D01*
X126830000Y-57582500D01*
X126830000Y-57287500D01*
X126830710Y-57273042D01*
X126832834Y-57258724D01*
X126836351Y-57244683D01*
X126841228Y-57231054D01*
X126847417Y-57217969D01*
X126854858Y-57205553D01*
X126863481Y-57193927D01*
X126873202Y-57183202D01*
X126883927Y-57173481D01*
X126895553Y-57164858D01*
X126907969Y-57157417D01*
X126921054Y-57151228D01*
X126934683Y-57146351D01*
X126948724Y-57142834D01*
X126963042Y-57140710D01*
X126977500Y-57140000D01*
X127322500Y-57140000D01*
X127336958Y-57140710D01*
X127336958Y-57140710D01*
G37*
D15*
X127150000Y-57435000D03*
D13*
G36*
X119986958Y-59370710D02*
G01*
X120001276Y-59372834D01*
X120015317Y-59376351D01*
X120028946Y-59381228D01*
X120042031Y-59387417D01*
X120054447Y-59394858D01*
X120066073Y-59403481D01*
X120076798Y-59413202D01*
X120086519Y-59423927D01*
X120095142Y-59435553D01*
X120102583Y-59447969D01*
X120108772Y-59461054D01*
X120113649Y-59474683D01*
X120117166Y-59488724D01*
X120119290Y-59503042D01*
X120120000Y-59517500D01*
X120120000Y-59812500D01*
X120119290Y-59826958D01*
X120117166Y-59841276D01*
X120113649Y-59855317D01*
X120108772Y-59868946D01*
X120102583Y-59882031D01*
X120095142Y-59894447D01*
X120086519Y-59906073D01*
X120076798Y-59916798D01*
X120066073Y-59926519D01*
X120054447Y-59935142D01*
X120042031Y-59942583D01*
X120028946Y-59948772D01*
X120015317Y-59953649D01*
X120001276Y-59957166D01*
X119986958Y-59959290D01*
X119972500Y-59960000D01*
X119627500Y-59960000D01*
X119613042Y-59959290D01*
X119598724Y-59957166D01*
X119584683Y-59953649D01*
X119571054Y-59948772D01*
X119557969Y-59942583D01*
X119545553Y-59935142D01*
X119533927Y-59926519D01*
X119523202Y-59916798D01*
X119513481Y-59906073D01*
X119504858Y-59894447D01*
X119497417Y-59882031D01*
X119491228Y-59868946D01*
X119486351Y-59855317D01*
X119482834Y-59841276D01*
X119480710Y-59826958D01*
X119480000Y-59812500D01*
X119480000Y-59517500D01*
X119480710Y-59503042D01*
X119482834Y-59488724D01*
X119486351Y-59474683D01*
X119491228Y-59461054D01*
X119497417Y-59447969D01*
X119504858Y-59435553D01*
X119513481Y-59423927D01*
X119523202Y-59413202D01*
X119533927Y-59403481D01*
X119545553Y-59394858D01*
X119557969Y-59387417D01*
X119571054Y-59381228D01*
X119584683Y-59376351D01*
X119598724Y-59372834D01*
X119613042Y-59370710D01*
X119627500Y-59370000D01*
X119972500Y-59370000D01*
X119986958Y-59370710D01*
X119986958Y-59370710D01*
G37*
D15*
X119800000Y-59665000D03*
D13*
G36*
X119986958Y-60340710D02*
G01*
X120001276Y-60342834D01*
X120015317Y-60346351D01*
X120028946Y-60351228D01*
X120042031Y-60357417D01*
X120054447Y-60364858D01*
X120066073Y-60373481D01*
X120076798Y-60383202D01*
X120086519Y-60393927D01*
X120095142Y-60405553D01*
X120102583Y-60417969D01*
X120108772Y-60431054D01*
X120113649Y-60444683D01*
X120117166Y-60458724D01*
X120119290Y-60473042D01*
X120120000Y-60487500D01*
X120120000Y-60782500D01*
X120119290Y-60796958D01*
X120117166Y-60811276D01*
X120113649Y-60825317D01*
X120108772Y-60838946D01*
X120102583Y-60852031D01*
X120095142Y-60864447D01*
X120086519Y-60876073D01*
X120076798Y-60886798D01*
X120066073Y-60896519D01*
X120054447Y-60905142D01*
X120042031Y-60912583D01*
X120028946Y-60918772D01*
X120015317Y-60923649D01*
X120001276Y-60927166D01*
X119986958Y-60929290D01*
X119972500Y-60930000D01*
X119627500Y-60930000D01*
X119613042Y-60929290D01*
X119598724Y-60927166D01*
X119584683Y-60923649D01*
X119571054Y-60918772D01*
X119557969Y-60912583D01*
X119545553Y-60905142D01*
X119533927Y-60896519D01*
X119523202Y-60886798D01*
X119513481Y-60876073D01*
X119504858Y-60864447D01*
X119497417Y-60852031D01*
X119491228Y-60838946D01*
X119486351Y-60825317D01*
X119482834Y-60811276D01*
X119480710Y-60796958D01*
X119480000Y-60782500D01*
X119480000Y-60487500D01*
X119480710Y-60473042D01*
X119482834Y-60458724D01*
X119486351Y-60444683D01*
X119491228Y-60431054D01*
X119497417Y-60417969D01*
X119504858Y-60405553D01*
X119513481Y-60393927D01*
X119523202Y-60383202D01*
X119533927Y-60373481D01*
X119545553Y-60364858D01*
X119557969Y-60357417D01*
X119571054Y-60351228D01*
X119584683Y-60346351D01*
X119598724Y-60342834D01*
X119613042Y-60340710D01*
X119627500Y-60340000D01*
X119972500Y-60340000D01*
X119986958Y-60340710D01*
X119986958Y-60340710D01*
G37*
D15*
X119800000Y-60635000D03*
D13*
G36*
X118886958Y-62340710D02*
G01*
X118901276Y-62342834D01*
X118915317Y-62346351D01*
X118928946Y-62351228D01*
X118942031Y-62357417D01*
X118954447Y-62364858D01*
X118966073Y-62373481D01*
X118976798Y-62383202D01*
X118986519Y-62393927D01*
X118995142Y-62405553D01*
X119002583Y-62417969D01*
X119008772Y-62431054D01*
X119013649Y-62444683D01*
X119017166Y-62458724D01*
X119019290Y-62473042D01*
X119020000Y-62487500D01*
X119020000Y-62782500D01*
X119019290Y-62796958D01*
X119017166Y-62811276D01*
X119013649Y-62825317D01*
X119008772Y-62838946D01*
X119002583Y-62852031D01*
X118995142Y-62864447D01*
X118986519Y-62876073D01*
X118976798Y-62886798D01*
X118966073Y-62896519D01*
X118954447Y-62905142D01*
X118942031Y-62912583D01*
X118928946Y-62918772D01*
X118915317Y-62923649D01*
X118901276Y-62927166D01*
X118886958Y-62929290D01*
X118872500Y-62930000D01*
X118527500Y-62930000D01*
X118513042Y-62929290D01*
X118498724Y-62927166D01*
X118484683Y-62923649D01*
X118471054Y-62918772D01*
X118457969Y-62912583D01*
X118445553Y-62905142D01*
X118433927Y-62896519D01*
X118423202Y-62886798D01*
X118413481Y-62876073D01*
X118404858Y-62864447D01*
X118397417Y-62852031D01*
X118391228Y-62838946D01*
X118386351Y-62825317D01*
X118382834Y-62811276D01*
X118380710Y-62796958D01*
X118380000Y-62782500D01*
X118380000Y-62487500D01*
X118380710Y-62473042D01*
X118382834Y-62458724D01*
X118386351Y-62444683D01*
X118391228Y-62431054D01*
X118397417Y-62417969D01*
X118404858Y-62405553D01*
X118413481Y-62393927D01*
X118423202Y-62383202D01*
X118433927Y-62373481D01*
X118445553Y-62364858D01*
X118457969Y-62357417D01*
X118471054Y-62351228D01*
X118484683Y-62346351D01*
X118498724Y-62342834D01*
X118513042Y-62340710D01*
X118527500Y-62340000D01*
X118872500Y-62340000D01*
X118886958Y-62340710D01*
X118886958Y-62340710D01*
G37*
D15*
X118700000Y-62635000D03*
D13*
G36*
X118886958Y-61370710D02*
G01*
X118901276Y-61372834D01*
X118915317Y-61376351D01*
X118928946Y-61381228D01*
X118942031Y-61387417D01*
X118954447Y-61394858D01*
X118966073Y-61403481D01*
X118976798Y-61413202D01*
X118986519Y-61423927D01*
X118995142Y-61435553D01*
X119002583Y-61447969D01*
X119008772Y-61461054D01*
X119013649Y-61474683D01*
X119017166Y-61488724D01*
X119019290Y-61503042D01*
X119020000Y-61517500D01*
X119020000Y-61812500D01*
X119019290Y-61826958D01*
X119017166Y-61841276D01*
X119013649Y-61855317D01*
X119008772Y-61868946D01*
X119002583Y-61882031D01*
X118995142Y-61894447D01*
X118986519Y-61906073D01*
X118976798Y-61916798D01*
X118966073Y-61926519D01*
X118954447Y-61935142D01*
X118942031Y-61942583D01*
X118928946Y-61948772D01*
X118915317Y-61953649D01*
X118901276Y-61957166D01*
X118886958Y-61959290D01*
X118872500Y-61960000D01*
X118527500Y-61960000D01*
X118513042Y-61959290D01*
X118498724Y-61957166D01*
X118484683Y-61953649D01*
X118471054Y-61948772D01*
X118457969Y-61942583D01*
X118445553Y-61935142D01*
X118433927Y-61926519D01*
X118423202Y-61916798D01*
X118413481Y-61906073D01*
X118404858Y-61894447D01*
X118397417Y-61882031D01*
X118391228Y-61868946D01*
X118386351Y-61855317D01*
X118382834Y-61841276D01*
X118380710Y-61826958D01*
X118380000Y-61812500D01*
X118380000Y-61517500D01*
X118380710Y-61503042D01*
X118382834Y-61488724D01*
X118386351Y-61474683D01*
X118391228Y-61461054D01*
X118397417Y-61447969D01*
X118404858Y-61435553D01*
X118413481Y-61423927D01*
X118423202Y-61413202D01*
X118433927Y-61403481D01*
X118445553Y-61394858D01*
X118457969Y-61387417D01*
X118471054Y-61381228D01*
X118484683Y-61376351D01*
X118498724Y-61372834D01*
X118513042Y-61370710D01*
X118527500Y-61370000D01*
X118872500Y-61370000D01*
X118886958Y-61370710D01*
X118886958Y-61370710D01*
G37*
D15*
X118700000Y-61665000D03*
D13*
G36*
X119986958Y-62340710D02*
G01*
X120001276Y-62342834D01*
X120015317Y-62346351D01*
X120028946Y-62351228D01*
X120042031Y-62357417D01*
X120054447Y-62364858D01*
X120066073Y-62373481D01*
X120076798Y-62383202D01*
X120086519Y-62393927D01*
X120095142Y-62405553D01*
X120102583Y-62417969D01*
X120108772Y-62431054D01*
X120113649Y-62444683D01*
X120117166Y-62458724D01*
X120119290Y-62473042D01*
X120120000Y-62487500D01*
X120120000Y-62782500D01*
X120119290Y-62796958D01*
X120117166Y-62811276D01*
X120113649Y-62825317D01*
X120108772Y-62838946D01*
X120102583Y-62852031D01*
X120095142Y-62864447D01*
X120086519Y-62876073D01*
X120076798Y-62886798D01*
X120066073Y-62896519D01*
X120054447Y-62905142D01*
X120042031Y-62912583D01*
X120028946Y-62918772D01*
X120015317Y-62923649D01*
X120001276Y-62927166D01*
X119986958Y-62929290D01*
X119972500Y-62930000D01*
X119627500Y-62930000D01*
X119613042Y-62929290D01*
X119598724Y-62927166D01*
X119584683Y-62923649D01*
X119571054Y-62918772D01*
X119557969Y-62912583D01*
X119545553Y-62905142D01*
X119533927Y-62896519D01*
X119523202Y-62886798D01*
X119513481Y-62876073D01*
X119504858Y-62864447D01*
X119497417Y-62852031D01*
X119491228Y-62838946D01*
X119486351Y-62825317D01*
X119482834Y-62811276D01*
X119480710Y-62796958D01*
X119480000Y-62782500D01*
X119480000Y-62487500D01*
X119480710Y-62473042D01*
X119482834Y-62458724D01*
X119486351Y-62444683D01*
X119491228Y-62431054D01*
X119497417Y-62417969D01*
X119504858Y-62405553D01*
X119513481Y-62393927D01*
X119523202Y-62383202D01*
X119533927Y-62373481D01*
X119545553Y-62364858D01*
X119557969Y-62357417D01*
X119571054Y-62351228D01*
X119584683Y-62346351D01*
X119598724Y-62342834D01*
X119613042Y-62340710D01*
X119627500Y-62340000D01*
X119972500Y-62340000D01*
X119986958Y-62340710D01*
X119986958Y-62340710D01*
G37*
D15*
X119800000Y-62635000D03*
D13*
G36*
X119986958Y-61370710D02*
G01*
X120001276Y-61372834D01*
X120015317Y-61376351D01*
X120028946Y-61381228D01*
X120042031Y-61387417D01*
X120054447Y-61394858D01*
X120066073Y-61403481D01*
X120076798Y-61413202D01*
X120086519Y-61423927D01*
X120095142Y-61435553D01*
X120102583Y-61447969D01*
X120108772Y-61461054D01*
X120113649Y-61474683D01*
X120117166Y-61488724D01*
X120119290Y-61503042D01*
X120120000Y-61517500D01*
X120120000Y-61812500D01*
X120119290Y-61826958D01*
X120117166Y-61841276D01*
X120113649Y-61855317D01*
X120108772Y-61868946D01*
X120102583Y-61882031D01*
X120095142Y-61894447D01*
X120086519Y-61906073D01*
X120076798Y-61916798D01*
X120066073Y-61926519D01*
X120054447Y-61935142D01*
X120042031Y-61942583D01*
X120028946Y-61948772D01*
X120015317Y-61953649D01*
X120001276Y-61957166D01*
X119986958Y-61959290D01*
X119972500Y-61960000D01*
X119627500Y-61960000D01*
X119613042Y-61959290D01*
X119598724Y-61957166D01*
X119584683Y-61953649D01*
X119571054Y-61948772D01*
X119557969Y-61942583D01*
X119545553Y-61935142D01*
X119533927Y-61926519D01*
X119523202Y-61916798D01*
X119513481Y-61906073D01*
X119504858Y-61894447D01*
X119497417Y-61882031D01*
X119491228Y-61868946D01*
X119486351Y-61855317D01*
X119482834Y-61841276D01*
X119480710Y-61826958D01*
X119480000Y-61812500D01*
X119480000Y-61517500D01*
X119480710Y-61503042D01*
X119482834Y-61488724D01*
X119486351Y-61474683D01*
X119491228Y-61461054D01*
X119497417Y-61447969D01*
X119504858Y-61435553D01*
X119513481Y-61423927D01*
X119523202Y-61413202D01*
X119533927Y-61403481D01*
X119545553Y-61394858D01*
X119557969Y-61387417D01*
X119571054Y-61381228D01*
X119584683Y-61376351D01*
X119598724Y-61372834D01*
X119613042Y-61370710D01*
X119627500Y-61370000D01*
X119972500Y-61370000D01*
X119986958Y-61370710D01*
X119986958Y-61370710D01*
G37*
D15*
X119800000Y-61665000D03*
D13*
G36*
X104136958Y-56120710D02*
G01*
X104151276Y-56122834D01*
X104165317Y-56126351D01*
X104178946Y-56131228D01*
X104192031Y-56137417D01*
X104204447Y-56144858D01*
X104216073Y-56153481D01*
X104226798Y-56163202D01*
X104236519Y-56173927D01*
X104245142Y-56185553D01*
X104252583Y-56197969D01*
X104258772Y-56211054D01*
X104263649Y-56224683D01*
X104267166Y-56238724D01*
X104269290Y-56253042D01*
X104270000Y-56267500D01*
X104270000Y-56562500D01*
X104269290Y-56576958D01*
X104267166Y-56591276D01*
X104263649Y-56605317D01*
X104258772Y-56618946D01*
X104252583Y-56632031D01*
X104245142Y-56644447D01*
X104236519Y-56656073D01*
X104226798Y-56666798D01*
X104216073Y-56676519D01*
X104204447Y-56685142D01*
X104192031Y-56692583D01*
X104178946Y-56698772D01*
X104165317Y-56703649D01*
X104151276Y-56707166D01*
X104136958Y-56709290D01*
X104122500Y-56710000D01*
X103777500Y-56710000D01*
X103763042Y-56709290D01*
X103748724Y-56707166D01*
X103734683Y-56703649D01*
X103721054Y-56698772D01*
X103707969Y-56692583D01*
X103695553Y-56685142D01*
X103683927Y-56676519D01*
X103673202Y-56666798D01*
X103663481Y-56656073D01*
X103654858Y-56644447D01*
X103647417Y-56632031D01*
X103641228Y-56618946D01*
X103636351Y-56605317D01*
X103632834Y-56591276D01*
X103630710Y-56576958D01*
X103630000Y-56562500D01*
X103630000Y-56267500D01*
X103630710Y-56253042D01*
X103632834Y-56238724D01*
X103636351Y-56224683D01*
X103641228Y-56211054D01*
X103647417Y-56197969D01*
X103654858Y-56185553D01*
X103663481Y-56173927D01*
X103673202Y-56163202D01*
X103683927Y-56153481D01*
X103695553Y-56144858D01*
X103707969Y-56137417D01*
X103721054Y-56131228D01*
X103734683Y-56126351D01*
X103748724Y-56122834D01*
X103763042Y-56120710D01*
X103777500Y-56120000D01*
X104122500Y-56120000D01*
X104136958Y-56120710D01*
X104136958Y-56120710D01*
G37*
D15*
X103950000Y-56415000D03*
D13*
G36*
X104136958Y-57090710D02*
G01*
X104151276Y-57092834D01*
X104165317Y-57096351D01*
X104178946Y-57101228D01*
X104192031Y-57107417D01*
X104204447Y-57114858D01*
X104216073Y-57123481D01*
X104226798Y-57133202D01*
X104236519Y-57143927D01*
X104245142Y-57155553D01*
X104252583Y-57167969D01*
X104258772Y-57181054D01*
X104263649Y-57194683D01*
X104267166Y-57208724D01*
X104269290Y-57223042D01*
X104270000Y-57237500D01*
X104270000Y-57532500D01*
X104269290Y-57546958D01*
X104267166Y-57561276D01*
X104263649Y-57575317D01*
X104258772Y-57588946D01*
X104252583Y-57602031D01*
X104245142Y-57614447D01*
X104236519Y-57626073D01*
X104226798Y-57636798D01*
X104216073Y-57646519D01*
X104204447Y-57655142D01*
X104192031Y-57662583D01*
X104178946Y-57668772D01*
X104165317Y-57673649D01*
X104151276Y-57677166D01*
X104136958Y-57679290D01*
X104122500Y-57680000D01*
X103777500Y-57680000D01*
X103763042Y-57679290D01*
X103748724Y-57677166D01*
X103734683Y-57673649D01*
X103721054Y-57668772D01*
X103707969Y-57662583D01*
X103695553Y-57655142D01*
X103683927Y-57646519D01*
X103673202Y-57636798D01*
X103663481Y-57626073D01*
X103654858Y-57614447D01*
X103647417Y-57602031D01*
X103641228Y-57588946D01*
X103636351Y-57575317D01*
X103632834Y-57561276D01*
X103630710Y-57546958D01*
X103630000Y-57532500D01*
X103630000Y-57237500D01*
X103630710Y-57223042D01*
X103632834Y-57208724D01*
X103636351Y-57194683D01*
X103641228Y-57181054D01*
X103647417Y-57167969D01*
X103654858Y-57155553D01*
X103663481Y-57143927D01*
X103673202Y-57133202D01*
X103683927Y-57123481D01*
X103695553Y-57114858D01*
X103707969Y-57107417D01*
X103721054Y-57101228D01*
X103734683Y-57096351D01*
X103748724Y-57092834D01*
X103763042Y-57090710D01*
X103777500Y-57090000D01*
X104122500Y-57090000D01*
X104136958Y-57090710D01*
X104136958Y-57090710D01*
G37*
D15*
X103950000Y-57385000D03*
D13*
G36*
X101236958Y-56170710D02*
G01*
X101251276Y-56172834D01*
X101265317Y-56176351D01*
X101278946Y-56181228D01*
X101292031Y-56187417D01*
X101304447Y-56194858D01*
X101316073Y-56203481D01*
X101326798Y-56213202D01*
X101336519Y-56223927D01*
X101345142Y-56235553D01*
X101352583Y-56247969D01*
X101358772Y-56261054D01*
X101363649Y-56274683D01*
X101367166Y-56288724D01*
X101369290Y-56303042D01*
X101370000Y-56317500D01*
X101370000Y-56612500D01*
X101369290Y-56626958D01*
X101367166Y-56641276D01*
X101363649Y-56655317D01*
X101358772Y-56668946D01*
X101352583Y-56682031D01*
X101345142Y-56694447D01*
X101336519Y-56706073D01*
X101326798Y-56716798D01*
X101316073Y-56726519D01*
X101304447Y-56735142D01*
X101292031Y-56742583D01*
X101278946Y-56748772D01*
X101265317Y-56753649D01*
X101251276Y-56757166D01*
X101236958Y-56759290D01*
X101222500Y-56760000D01*
X100877500Y-56760000D01*
X100863042Y-56759290D01*
X100848724Y-56757166D01*
X100834683Y-56753649D01*
X100821054Y-56748772D01*
X100807969Y-56742583D01*
X100795553Y-56735142D01*
X100783927Y-56726519D01*
X100773202Y-56716798D01*
X100763481Y-56706073D01*
X100754858Y-56694447D01*
X100747417Y-56682031D01*
X100741228Y-56668946D01*
X100736351Y-56655317D01*
X100732834Y-56641276D01*
X100730710Y-56626958D01*
X100730000Y-56612500D01*
X100730000Y-56317500D01*
X100730710Y-56303042D01*
X100732834Y-56288724D01*
X100736351Y-56274683D01*
X100741228Y-56261054D01*
X100747417Y-56247969D01*
X100754858Y-56235553D01*
X100763481Y-56223927D01*
X100773202Y-56213202D01*
X100783927Y-56203481D01*
X100795553Y-56194858D01*
X100807969Y-56187417D01*
X100821054Y-56181228D01*
X100834683Y-56176351D01*
X100848724Y-56172834D01*
X100863042Y-56170710D01*
X100877500Y-56170000D01*
X101222500Y-56170000D01*
X101236958Y-56170710D01*
X101236958Y-56170710D01*
G37*
D15*
X101050000Y-56465000D03*
D13*
G36*
X101236958Y-57140710D02*
G01*
X101251276Y-57142834D01*
X101265317Y-57146351D01*
X101278946Y-57151228D01*
X101292031Y-57157417D01*
X101304447Y-57164858D01*
X101316073Y-57173481D01*
X101326798Y-57183202D01*
X101336519Y-57193927D01*
X101345142Y-57205553D01*
X101352583Y-57217969D01*
X101358772Y-57231054D01*
X101363649Y-57244683D01*
X101367166Y-57258724D01*
X101369290Y-57273042D01*
X101370000Y-57287500D01*
X101370000Y-57582500D01*
X101369290Y-57596958D01*
X101367166Y-57611276D01*
X101363649Y-57625317D01*
X101358772Y-57638946D01*
X101352583Y-57652031D01*
X101345142Y-57664447D01*
X101336519Y-57676073D01*
X101326798Y-57686798D01*
X101316073Y-57696519D01*
X101304447Y-57705142D01*
X101292031Y-57712583D01*
X101278946Y-57718772D01*
X101265317Y-57723649D01*
X101251276Y-57727166D01*
X101236958Y-57729290D01*
X101222500Y-57730000D01*
X100877500Y-57730000D01*
X100863042Y-57729290D01*
X100848724Y-57727166D01*
X100834683Y-57723649D01*
X100821054Y-57718772D01*
X100807969Y-57712583D01*
X100795553Y-57705142D01*
X100783927Y-57696519D01*
X100773202Y-57686798D01*
X100763481Y-57676073D01*
X100754858Y-57664447D01*
X100747417Y-57652031D01*
X100741228Y-57638946D01*
X100736351Y-57625317D01*
X100732834Y-57611276D01*
X100730710Y-57596958D01*
X100730000Y-57582500D01*
X100730000Y-57287500D01*
X100730710Y-57273042D01*
X100732834Y-57258724D01*
X100736351Y-57244683D01*
X100741228Y-57231054D01*
X100747417Y-57217969D01*
X100754858Y-57205553D01*
X100763481Y-57193927D01*
X100773202Y-57183202D01*
X100783927Y-57173481D01*
X100795553Y-57164858D01*
X100807969Y-57157417D01*
X100821054Y-57151228D01*
X100834683Y-57146351D01*
X100848724Y-57142834D01*
X100863042Y-57140710D01*
X100877500Y-57140000D01*
X101222500Y-57140000D01*
X101236958Y-57140710D01*
X101236958Y-57140710D01*
G37*
D15*
X101050000Y-57435000D03*
D13*
G36*
X100246958Y-57080710D02*
G01*
X100261276Y-57082834D01*
X100275317Y-57086351D01*
X100288946Y-57091228D01*
X100302031Y-57097417D01*
X100314447Y-57104858D01*
X100326073Y-57113481D01*
X100336798Y-57123202D01*
X100346519Y-57133927D01*
X100355142Y-57145553D01*
X100362583Y-57157969D01*
X100368772Y-57171054D01*
X100373649Y-57184683D01*
X100377166Y-57198724D01*
X100379290Y-57213042D01*
X100380000Y-57227500D01*
X100380000Y-57572500D01*
X100379290Y-57586958D01*
X100377166Y-57601276D01*
X100373649Y-57615317D01*
X100368772Y-57628946D01*
X100362583Y-57642031D01*
X100355142Y-57654447D01*
X100346519Y-57666073D01*
X100336798Y-57676798D01*
X100326073Y-57686519D01*
X100314447Y-57695142D01*
X100302031Y-57702583D01*
X100288946Y-57708772D01*
X100275317Y-57713649D01*
X100261276Y-57717166D01*
X100246958Y-57719290D01*
X100232500Y-57720000D01*
X99937500Y-57720000D01*
X99923042Y-57719290D01*
X99908724Y-57717166D01*
X99894683Y-57713649D01*
X99881054Y-57708772D01*
X99867969Y-57702583D01*
X99855553Y-57695142D01*
X99843927Y-57686519D01*
X99833202Y-57676798D01*
X99823481Y-57666073D01*
X99814858Y-57654447D01*
X99807417Y-57642031D01*
X99801228Y-57628946D01*
X99796351Y-57615317D01*
X99792834Y-57601276D01*
X99790710Y-57586958D01*
X99790000Y-57572500D01*
X99790000Y-57227500D01*
X99790710Y-57213042D01*
X99792834Y-57198724D01*
X99796351Y-57184683D01*
X99801228Y-57171054D01*
X99807417Y-57157969D01*
X99814858Y-57145553D01*
X99823481Y-57133927D01*
X99833202Y-57123202D01*
X99843927Y-57113481D01*
X99855553Y-57104858D01*
X99867969Y-57097417D01*
X99881054Y-57091228D01*
X99894683Y-57086351D01*
X99908724Y-57082834D01*
X99923042Y-57080710D01*
X99937500Y-57080000D01*
X100232500Y-57080000D01*
X100246958Y-57080710D01*
X100246958Y-57080710D01*
G37*
D15*
X100085000Y-57400000D03*
D13*
G36*
X99276958Y-57080710D02*
G01*
X99291276Y-57082834D01*
X99305317Y-57086351D01*
X99318946Y-57091228D01*
X99332031Y-57097417D01*
X99344447Y-57104858D01*
X99356073Y-57113481D01*
X99366798Y-57123202D01*
X99376519Y-57133927D01*
X99385142Y-57145553D01*
X99392583Y-57157969D01*
X99398772Y-57171054D01*
X99403649Y-57184683D01*
X99407166Y-57198724D01*
X99409290Y-57213042D01*
X99410000Y-57227500D01*
X99410000Y-57572500D01*
X99409290Y-57586958D01*
X99407166Y-57601276D01*
X99403649Y-57615317D01*
X99398772Y-57628946D01*
X99392583Y-57642031D01*
X99385142Y-57654447D01*
X99376519Y-57666073D01*
X99366798Y-57676798D01*
X99356073Y-57686519D01*
X99344447Y-57695142D01*
X99332031Y-57702583D01*
X99318946Y-57708772D01*
X99305317Y-57713649D01*
X99291276Y-57717166D01*
X99276958Y-57719290D01*
X99262500Y-57720000D01*
X98967500Y-57720000D01*
X98953042Y-57719290D01*
X98938724Y-57717166D01*
X98924683Y-57713649D01*
X98911054Y-57708772D01*
X98897969Y-57702583D01*
X98885553Y-57695142D01*
X98873927Y-57686519D01*
X98863202Y-57676798D01*
X98853481Y-57666073D01*
X98844858Y-57654447D01*
X98837417Y-57642031D01*
X98831228Y-57628946D01*
X98826351Y-57615317D01*
X98822834Y-57601276D01*
X98820710Y-57586958D01*
X98820000Y-57572500D01*
X98820000Y-57227500D01*
X98820710Y-57213042D01*
X98822834Y-57198724D01*
X98826351Y-57184683D01*
X98831228Y-57171054D01*
X98837417Y-57157969D01*
X98844858Y-57145553D01*
X98853481Y-57133927D01*
X98863202Y-57123202D01*
X98873927Y-57113481D01*
X98885553Y-57104858D01*
X98897969Y-57097417D01*
X98911054Y-57091228D01*
X98924683Y-57086351D01*
X98938724Y-57082834D01*
X98953042Y-57080710D01*
X98967500Y-57080000D01*
X99262500Y-57080000D01*
X99276958Y-57080710D01*
X99276958Y-57080710D01*
G37*
D15*
X99115000Y-57400000D03*
D13*
G36*
X97286958Y-56120710D02*
G01*
X97301276Y-56122834D01*
X97315317Y-56126351D01*
X97328946Y-56131228D01*
X97342031Y-56137417D01*
X97354447Y-56144858D01*
X97366073Y-56153481D01*
X97376798Y-56163202D01*
X97386519Y-56173927D01*
X97395142Y-56185553D01*
X97402583Y-56197969D01*
X97408772Y-56211054D01*
X97413649Y-56224683D01*
X97417166Y-56238724D01*
X97419290Y-56253042D01*
X97420000Y-56267500D01*
X97420000Y-56562500D01*
X97419290Y-56576958D01*
X97417166Y-56591276D01*
X97413649Y-56605317D01*
X97408772Y-56618946D01*
X97402583Y-56632031D01*
X97395142Y-56644447D01*
X97386519Y-56656073D01*
X97376798Y-56666798D01*
X97366073Y-56676519D01*
X97354447Y-56685142D01*
X97342031Y-56692583D01*
X97328946Y-56698772D01*
X97315317Y-56703649D01*
X97301276Y-56707166D01*
X97286958Y-56709290D01*
X97272500Y-56710000D01*
X96927500Y-56710000D01*
X96913042Y-56709290D01*
X96898724Y-56707166D01*
X96884683Y-56703649D01*
X96871054Y-56698772D01*
X96857969Y-56692583D01*
X96845553Y-56685142D01*
X96833927Y-56676519D01*
X96823202Y-56666798D01*
X96813481Y-56656073D01*
X96804858Y-56644447D01*
X96797417Y-56632031D01*
X96791228Y-56618946D01*
X96786351Y-56605317D01*
X96782834Y-56591276D01*
X96780710Y-56576958D01*
X96780000Y-56562500D01*
X96780000Y-56267500D01*
X96780710Y-56253042D01*
X96782834Y-56238724D01*
X96786351Y-56224683D01*
X96791228Y-56211054D01*
X96797417Y-56197969D01*
X96804858Y-56185553D01*
X96813481Y-56173927D01*
X96823202Y-56163202D01*
X96833927Y-56153481D01*
X96845553Y-56144858D01*
X96857969Y-56137417D01*
X96871054Y-56131228D01*
X96884683Y-56126351D01*
X96898724Y-56122834D01*
X96913042Y-56120710D01*
X96927500Y-56120000D01*
X97272500Y-56120000D01*
X97286958Y-56120710D01*
X97286958Y-56120710D01*
G37*
D15*
X97100000Y-56415000D03*
D13*
G36*
X97286958Y-57090710D02*
G01*
X97301276Y-57092834D01*
X97315317Y-57096351D01*
X97328946Y-57101228D01*
X97342031Y-57107417D01*
X97354447Y-57114858D01*
X97366073Y-57123481D01*
X97376798Y-57133202D01*
X97386519Y-57143927D01*
X97395142Y-57155553D01*
X97402583Y-57167969D01*
X97408772Y-57181054D01*
X97413649Y-57194683D01*
X97417166Y-57208724D01*
X97419290Y-57223042D01*
X97420000Y-57237500D01*
X97420000Y-57532500D01*
X97419290Y-57546958D01*
X97417166Y-57561276D01*
X97413649Y-57575317D01*
X97408772Y-57588946D01*
X97402583Y-57602031D01*
X97395142Y-57614447D01*
X97386519Y-57626073D01*
X97376798Y-57636798D01*
X97366073Y-57646519D01*
X97354447Y-57655142D01*
X97342031Y-57662583D01*
X97328946Y-57668772D01*
X97315317Y-57673649D01*
X97301276Y-57677166D01*
X97286958Y-57679290D01*
X97272500Y-57680000D01*
X96927500Y-57680000D01*
X96913042Y-57679290D01*
X96898724Y-57677166D01*
X96884683Y-57673649D01*
X96871054Y-57668772D01*
X96857969Y-57662583D01*
X96845553Y-57655142D01*
X96833927Y-57646519D01*
X96823202Y-57636798D01*
X96813481Y-57626073D01*
X96804858Y-57614447D01*
X96797417Y-57602031D01*
X96791228Y-57588946D01*
X96786351Y-57575317D01*
X96782834Y-57561276D01*
X96780710Y-57546958D01*
X96780000Y-57532500D01*
X96780000Y-57237500D01*
X96780710Y-57223042D01*
X96782834Y-57208724D01*
X96786351Y-57194683D01*
X96791228Y-57181054D01*
X96797417Y-57167969D01*
X96804858Y-57155553D01*
X96813481Y-57143927D01*
X96823202Y-57133202D01*
X96833927Y-57123481D01*
X96845553Y-57114858D01*
X96857969Y-57107417D01*
X96871054Y-57101228D01*
X96884683Y-57096351D01*
X96898724Y-57092834D01*
X96913042Y-57090710D01*
X96927500Y-57090000D01*
X97272500Y-57090000D01*
X97286958Y-57090710D01*
X97286958Y-57090710D01*
G37*
D15*
X97100000Y-57385000D03*
D13*
G36*
X94486958Y-56120710D02*
G01*
X94501276Y-56122834D01*
X94515317Y-56126351D01*
X94528946Y-56131228D01*
X94542031Y-56137417D01*
X94554447Y-56144858D01*
X94566073Y-56153481D01*
X94576798Y-56163202D01*
X94586519Y-56173927D01*
X94595142Y-56185553D01*
X94602583Y-56197969D01*
X94608772Y-56211054D01*
X94613649Y-56224683D01*
X94617166Y-56238724D01*
X94619290Y-56253042D01*
X94620000Y-56267500D01*
X94620000Y-56562500D01*
X94619290Y-56576958D01*
X94617166Y-56591276D01*
X94613649Y-56605317D01*
X94608772Y-56618946D01*
X94602583Y-56632031D01*
X94595142Y-56644447D01*
X94586519Y-56656073D01*
X94576798Y-56666798D01*
X94566073Y-56676519D01*
X94554447Y-56685142D01*
X94542031Y-56692583D01*
X94528946Y-56698772D01*
X94515317Y-56703649D01*
X94501276Y-56707166D01*
X94486958Y-56709290D01*
X94472500Y-56710000D01*
X94127500Y-56710000D01*
X94113042Y-56709290D01*
X94098724Y-56707166D01*
X94084683Y-56703649D01*
X94071054Y-56698772D01*
X94057969Y-56692583D01*
X94045553Y-56685142D01*
X94033927Y-56676519D01*
X94023202Y-56666798D01*
X94013481Y-56656073D01*
X94004858Y-56644447D01*
X93997417Y-56632031D01*
X93991228Y-56618946D01*
X93986351Y-56605317D01*
X93982834Y-56591276D01*
X93980710Y-56576958D01*
X93980000Y-56562500D01*
X93980000Y-56267500D01*
X93980710Y-56253042D01*
X93982834Y-56238724D01*
X93986351Y-56224683D01*
X93991228Y-56211054D01*
X93997417Y-56197969D01*
X94004858Y-56185553D01*
X94013481Y-56173927D01*
X94023202Y-56163202D01*
X94033927Y-56153481D01*
X94045553Y-56144858D01*
X94057969Y-56137417D01*
X94071054Y-56131228D01*
X94084683Y-56126351D01*
X94098724Y-56122834D01*
X94113042Y-56120710D01*
X94127500Y-56120000D01*
X94472500Y-56120000D01*
X94486958Y-56120710D01*
X94486958Y-56120710D01*
G37*
D15*
X94300000Y-56415000D03*
D13*
G36*
X94486958Y-57090710D02*
G01*
X94501276Y-57092834D01*
X94515317Y-57096351D01*
X94528946Y-57101228D01*
X94542031Y-57107417D01*
X94554447Y-57114858D01*
X94566073Y-57123481D01*
X94576798Y-57133202D01*
X94586519Y-57143927D01*
X94595142Y-57155553D01*
X94602583Y-57167969D01*
X94608772Y-57181054D01*
X94613649Y-57194683D01*
X94617166Y-57208724D01*
X94619290Y-57223042D01*
X94620000Y-57237500D01*
X94620000Y-57532500D01*
X94619290Y-57546958D01*
X94617166Y-57561276D01*
X94613649Y-57575317D01*
X94608772Y-57588946D01*
X94602583Y-57602031D01*
X94595142Y-57614447D01*
X94586519Y-57626073D01*
X94576798Y-57636798D01*
X94566073Y-57646519D01*
X94554447Y-57655142D01*
X94542031Y-57662583D01*
X94528946Y-57668772D01*
X94515317Y-57673649D01*
X94501276Y-57677166D01*
X94486958Y-57679290D01*
X94472500Y-57680000D01*
X94127500Y-57680000D01*
X94113042Y-57679290D01*
X94098724Y-57677166D01*
X94084683Y-57673649D01*
X94071054Y-57668772D01*
X94057969Y-57662583D01*
X94045553Y-57655142D01*
X94033927Y-57646519D01*
X94023202Y-57636798D01*
X94013481Y-57626073D01*
X94004858Y-57614447D01*
X93997417Y-57602031D01*
X93991228Y-57588946D01*
X93986351Y-57575317D01*
X93982834Y-57561276D01*
X93980710Y-57546958D01*
X93980000Y-57532500D01*
X93980000Y-57237500D01*
X93980710Y-57223042D01*
X93982834Y-57208724D01*
X93986351Y-57194683D01*
X93991228Y-57181054D01*
X93997417Y-57167969D01*
X94004858Y-57155553D01*
X94013481Y-57143927D01*
X94023202Y-57133202D01*
X94033927Y-57123481D01*
X94045553Y-57114858D01*
X94057969Y-57107417D01*
X94071054Y-57101228D01*
X94084683Y-57096351D01*
X94098724Y-57092834D01*
X94113042Y-57090710D01*
X94127500Y-57090000D01*
X94472500Y-57090000D01*
X94486958Y-57090710D01*
X94486958Y-57090710D01*
G37*
D15*
X94300000Y-57385000D03*
D13*
G36*
X91686958Y-56120710D02*
G01*
X91701276Y-56122834D01*
X91715317Y-56126351D01*
X91728946Y-56131228D01*
X91742031Y-56137417D01*
X91754447Y-56144858D01*
X91766073Y-56153481D01*
X91776798Y-56163202D01*
X91786519Y-56173927D01*
X91795142Y-56185553D01*
X91802583Y-56197969D01*
X91808772Y-56211054D01*
X91813649Y-56224683D01*
X91817166Y-56238724D01*
X91819290Y-56253042D01*
X91820000Y-56267500D01*
X91820000Y-56562500D01*
X91819290Y-56576958D01*
X91817166Y-56591276D01*
X91813649Y-56605317D01*
X91808772Y-56618946D01*
X91802583Y-56632031D01*
X91795142Y-56644447D01*
X91786519Y-56656073D01*
X91776798Y-56666798D01*
X91766073Y-56676519D01*
X91754447Y-56685142D01*
X91742031Y-56692583D01*
X91728946Y-56698772D01*
X91715317Y-56703649D01*
X91701276Y-56707166D01*
X91686958Y-56709290D01*
X91672500Y-56710000D01*
X91327500Y-56710000D01*
X91313042Y-56709290D01*
X91298724Y-56707166D01*
X91284683Y-56703649D01*
X91271054Y-56698772D01*
X91257969Y-56692583D01*
X91245553Y-56685142D01*
X91233927Y-56676519D01*
X91223202Y-56666798D01*
X91213481Y-56656073D01*
X91204858Y-56644447D01*
X91197417Y-56632031D01*
X91191228Y-56618946D01*
X91186351Y-56605317D01*
X91182834Y-56591276D01*
X91180710Y-56576958D01*
X91180000Y-56562500D01*
X91180000Y-56267500D01*
X91180710Y-56253042D01*
X91182834Y-56238724D01*
X91186351Y-56224683D01*
X91191228Y-56211054D01*
X91197417Y-56197969D01*
X91204858Y-56185553D01*
X91213481Y-56173927D01*
X91223202Y-56163202D01*
X91233927Y-56153481D01*
X91245553Y-56144858D01*
X91257969Y-56137417D01*
X91271054Y-56131228D01*
X91284683Y-56126351D01*
X91298724Y-56122834D01*
X91313042Y-56120710D01*
X91327500Y-56120000D01*
X91672500Y-56120000D01*
X91686958Y-56120710D01*
X91686958Y-56120710D01*
G37*
D15*
X91500000Y-56415000D03*
D13*
G36*
X91686958Y-57090710D02*
G01*
X91701276Y-57092834D01*
X91715317Y-57096351D01*
X91728946Y-57101228D01*
X91742031Y-57107417D01*
X91754447Y-57114858D01*
X91766073Y-57123481D01*
X91776798Y-57133202D01*
X91786519Y-57143927D01*
X91795142Y-57155553D01*
X91802583Y-57167969D01*
X91808772Y-57181054D01*
X91813649Y-57194683D01*
X91817166Y-57208724D01*
X91819290Y-57223042D01*
X91820000Y-57237500D01*
X91820000Y-57532500D01*
X91819290Y-57546958D01*
X91817166Y-57561276D01*
X91813649Y-57575317D01*
X91808772Y-57588946D01*
X91802583Y-57602031D01*
X91795142Y-57614447D01*
X91786519Y-57626073D01*
X91776798Y-57636798D01*
X91766073Y-57646519D01*
X91754447Y-57655142D01*
X91742031Y-57662583D01*
X91728946Y-57668772D01*
X91715317Y-57673649D01*
X91701276Y-57677166D01*
X91686958Y-57679290D01*
X91672500Y-57680000D01*
X91327500Y-57680000D01*
X91313042Y-57679290D01*
X91298724Y-57677166D01*
X91284683Y-57673649D01*
X91271054Y-57668772D01*
X91257969Y-57662583D01*
X91245553Y-57655142D01*
X91233927Y-57646519D01*
X91223202Y-57636798D01*
X91213481Y-57626073D01*
X91204858Y-57614447D01*
X91197417Y-57602031D01*
X91191228Y-57588946D01*
X91186351Y-57575317D01*
X91182834Y-57561276D01*
X91180710Y-57546958D01*
X91180000Y-57532500D01*
X91180000Y-57237500D01*
X91180710Y-57223042D01*
X91182834Y-57208724D01*
X91186351Y-57194683D01*
X91191228Y-57181054D01*
X91197417Y-57167969D01*
X91204858Y-57155553D01*
X91213481Y-57143927D01*
X91223202Y-57133202D01*
X91233927Y-57123481D01*
X91245553Y-57114858D01*
X91257969Y-57107417D01*
X91271054Y-57101228D01*
X91284683Y-57096351D01*
X91298724Y-57092834D01*
X91313042Y-57090710D01*
X91327500Y-57090000D01*
X91672500Y-57090000D01*
X91686958Y-57090710D01*
X91686958Y-57090710D01*
G37*
D15*
X91500000Y-57385000D03*
M02*
