G04 #@! TF.GenerationSoftware,KiCad,Pcbnew,5.1.2-f72e74a~84~ubuntu18.04.1*
G04 #@! TF.CreationDate,2019-07-13T09:23:27-04:00*
G04 #@! TF.ProjectId,iss-lna,6973732d-6c6e-4612-9e6b-696361645f70,rev?*
G04 #@! TF.SameCoordinates,Original*
G04 #@! TF.FileFunction,Legend,Top*
G04 #@! TF.FilePolarity,Positive*
%FSLAX46Y46*%
G04 Gerber Fmt 4.6, Leading zero omitted, Abs format (unit mm)*
G04 Created by KiCad (PCBNEW 5.1.2-f72e74a~84~ubuntu18.04.1) date 2019-07-13 09:23:27*
%MOMM*%
%LPD*%
G04 APERTURE LIST*
%ADD10C,0.100000*%
%ADD11C,0.150000*%
%ADD12C,0.120000*%
G04 APERTURE END LIST*
D10*
X95385714Y-69846428D02*
X95385714Y-70332142D01*
X95414285Y-70389285D01*
X95442857Y-70417857D01*
X95500000Y-70446428D01*
X95614285Y-70446428D01*
X95671428Y-70417857D01*
X95700000Y-70389285D01*
X95728571Y-70332142D01*
X95728571Y-69846428D01*
X96014285Y-70389285D02*
X96042857Y-70417857D01*
X96014285Y-70446428D01*
X95985714Y-70417857D01*
X96014285Y-70389285D01*
X96014285Y-70446428D01*
X96500000Y-70132142D02*
X96300000Y-70132142D01*
X96300000Y-70446428D02*
X96300000Y-69846428D01*
X96585714Y-69846428D01*
X97100000Y-70446428D02*
X96814285Y-70446428D01*
X96814285Y-69846428D01*
X98014285Y-70417857D02*
X97957142Y-70446428D01*
X97842857Y-70446428D01*
X97785714Y-70417857D01*
X97757142Y-70389285D01*
X97728571Y-70332142D01*
X97728571Y-70160714D01*
X97757142Y-70103571D01*
X97785714Y-70075000D01*
X97842857Y-70046428D01*
X97957142Y-70046428D01*
X98014285Y-70075000D01*
X98528571Y-70446428D02*
X98528571Y-70132142D01*
X98500000Y-70075000D01*
X98442857Y-70046428D01*
X98328571Y-70046428D01*
X98271428Y-70075000D01*
X98528571Y-70417857D02*
X98471428Y-70446428D01*
X98328571Y-70446428D01*
X98271428Y-70417857D01*
X98242857Y-70360714D01*
X98242857Y-70303571D01*
X98271428Y-70246428D01*
X98328571Y-70217857D01*
X98471428Y-70217857D01*
X98528571Y-70189285D01*
X98900000Y-70446428D02*
X98842857Y-70417857D01*
X98814285Y-70360714D01*
X98814285Y-69846428D01*
X99128571Y-70446428D02*
X99128571Y-70046428D01*
X99128571Y-69846428D02*
X99100000Y-69875000D01*
X99128571Y-69903571D01*
X99157142Y-69875000D01*
X99128571Y-69846428D01*
X99128571Y-69903571D01*
X99414285Y-70446428D02*
X99414285Y-69846428D01*
X99414285Y-70075000D02*
X99471428Y-70046428D01*
X99585714Y-70046428D01*
X99642857Y-70075000D01*
X99671428Y-70103571D01*
X99700000Y-70160714D01*
X99700000Y-70332142D01*
X99671428Y-70389285D01*
X99642857Y-70417857D01*
X99585714Y-70446428D01*
X99471428Y-70446428D01*
X99414285Y-70417857D01*
X99957142Y-70446428D02*
X99957142Y-70046428D01*
X99957142Y-70160714D02*
X99985714Y-70103571D01*
X100014285Y-70075000D01*
X100071428Y-70046428D01*
X100128571Y-70046428D01*
X100585714Y-70446428D02*
X100585714Y-70132142D01*
X100557142Y-70075000D01*
X100500000Y-70046428D01*
X100385714Y-70046428D01*
X100328571Y-70075000D01*
X100585714Y-70417857D02*
X100528571Y-70446428D01*
X100385714Y-70446428D01*
X100328571Y-70417857D01*
X100300000Y-70360714D01*
X100300000Y-70303571D01*
X100328571Y-70246428D01*
X100385714Y-70217857D01*
X100528571Y-70217857D01*
X100585714Y-70189285D01*
X100785714Y-70046428D02*
X101014285Y-70046428D01*
X100871428Y-69846428D02*
X100871428Y-70360714D01*
X100900000Y-70417857D01*
X100957142Y-70446428D01*
X101014285Y-70446428D01*
X101214285Y-70446428D02*
X101214285Y-70046428D01*
X101214285Y-69846428D02*
X101185714Y-69875000D01*
X101214285Y-69903571D01*
X101242857Y-69875000D01*
X101214285Y-69846428D01*
X101214285Y-69903571D01*
X101585714Y-70446428D02*
X101528571Y-70417857D01*
X101500000Y-70389285D01*
X101471428Y-70332142D01*
X101471428Y-70160714D01*
X101500000Y-70103571D01*
X101528571Y-70075000D01*
X101585714Y-70046428D01*
X101671428Y-70046428D01*
X101728571Y-70075000D01*
X101757142Y-70103571D01*
X101785714Y-70160714D01*
X101785714Y-70332142D01*
X101757142Y-70389285D01*
X101728571Y-70417857D01*
X101671428Y-70446428D01*
X101585714Y-70446428D01*
X102042857Y-70046428D02*
X102042857Y-70446428D01*
X102042857Y-70103571D02*
X102071428Y-70075000D01*
X102128571Y-70046428D01*
X102214285Y-70046428D01*
X102271428Y-70075000D01*
X102300000Y-70132142D01*
X102300000Y-70446428D01*
X103042857Y-70046428D02*
X103042857Y-70646428D01*
X103042857Y-70075000D02*
X103100000Y-70046428D01*
X103214285Y-70046428D01*
X103271428Y-70075000D01*
X103300000Y-70103571D01*
X103328571Y-70160714D01*
X103328571Y-70332142D01*
X103300000Y-70389285D01*
X103271428Y-70417857D01*
X103214285Y-70446428D01*
X103100000Y-70446428D01*
X103042857Y-70417857D01*
X103671428Y-70446428D02*
X103614285Y-70417857D01*
X103585714Y-70360714D01*
X103585714Y-69846428D01*
X104157142Y-70446428D02*
X104157142Y-70132142D01*
X104128571Y-70075000D01*
X104071428Y-70046428D01*
X103957142Y-70046428D01*
X103900000Y-70075000D01*
X104157142Y-70417857D02*
X104100000Y-70446428D01*
X103957142Y-70446428D01*
X103900000Y-70417857D01*
X103871428Y-70360714D01*
X103871428Y-70303571D01*
X103900000Y-70246428D01*
X103957142Y-70217857D01*
X104100000Y-70217857D01*
X104157142Y-70189285D01*
X104442857Y-70046428D02*
X104442857Y-70446428D01*
X104442857Y-70103571D02*
X104471428Y-70075000D01*
X104528571Y-70046428D01*
X104614285Y-70046428D01*
X104671428Y-70075000D01*
X104700000Y-70132142D01*
X104700000Y-70446428D01*
X105214285Y-70417857D02*
X105157142Y-70446428D01*
X105042857Y-70446428D01*
X104985714Y-70417857D01*
X104957142Y-70360714D01*
X104957142Y-70132142D01*
X104985714Y-70075000D01*
X105042857Y-70046428D01*
X105157142Y-70046428D01*
X105214285Y-70075000D01*
X105242857Y-70132142D01*
X105242857Y-70189285D01*
X104957142Y-70246428D01*
D11*
X96057142Y-45014285D02*
X96228571Y-45071428D01*
X96285714Y-45128571D01*
X96342857Y-45242857D01*
X96342857Y-45414285D01*
X96285714Y-45528571D01*
X96228571Y-45585714D01*
X96114285Y-45642857D01*
X95657142Y-45642857D01*
X95657142Y-44442857D01*
X96057142Y-44442857D01*
X96171428Y-44500000D01*
X96228571Y-44557142D01*
X96285714Y-44671428D01*
X96285714Y-44785714D01*
X96228571Y-44900000D01*
X96171428Y-44957142D01*
X96057142Y-45014285D01*
X95657142Y-45014285D01*
X97257142Y-45014285D02*
X96857142Y-45014285D01*
X96857142Y-45642857D02*
X96857142Y-44442857D01*
X97428571Y-44442857D01*
X97885714Y-44442857D02*
X97885714Y-45414285D01*
X97942857Y-45528571D01*
X98000000Y-45585714D01*
X98114285Y-45642857D01*
X98342857Y-45642857D01*
X98457142Y-45585714D01*
X98514285Y-45528571D01*
X98571428Y-45414285D01*
X98571428Y-44442857D01*
X99714285Y-44442857D02*
X99142857Y-44442857D01*
X99085714Y-45014285D01*
X99142857Y-44957142D01*
X99257142Y-44900000D01*
X99542857Y-44900000D01*
X99657142Y-44957142D01*
X99714285Y-45014285D01*
X99771428Y-45128571D01*
X99771428Y-45414285D01*
X99714285Y-45528571D01*
X99657142Y-45585714D01*
X99542857Y-45642857D01*
X99257142Y-45642857D01*
X99142857Y-45585714D01*
X99085714Y-45528571D01*
X100228571Y-44557142D02*
X100285714Y-44500000D01*
X100400000Y-44442857D01*
X100685714Y-44442857D01*
X100800000Y-44500000D01*
X100857142Y-44557142D01*
X100914285Y-44671428D01*
X100914285Y-44785714D01*
X100857142Y-44957142D01*
X100171428Y-45642857D01*
X100914285Y-45642857D01*
X101657142Y-44442857D02*
X101771428Y-44442857D01*
X101885714Y-44500000D01*
X101942857Y-44557142D01*
X102000000Y-44671428D01*
X102057142Y-44900000D01*
X102057142Y-45185714D01*
X102000000Y-45414285D01*
X101942857Y-45528571D01*
X101885714Y-45585714D01*
X101771428Y-45642857D01*
X101657142Y-45642857D01*
X101542857Y-45585714D01*
X101485714Y-45528571D01*
X101428571Y-45414285D01*
X101371428Y-45185714D01*
X101371428Y-44900000D01*
X101428571Y-44671428D01*
X101485714Y-44557142D01*
X101542857Y-44500000D01*
X101657142Y-44442857D01*
X103257142Y-45642857D02*
X102857142Y-45071428D01*
X102571428Y-45642857D02*
X102571428Y-44442857D01*
X103028571Y-44442857D01*
X103142857Y-44500000D01*
X103200000Y-44557142D01*
X103257142Y-44671428D01*
X103257142Y-44842857D01*
X103200000Y-44957142D01*
X103142857Y-45014285D01*
X103028571Y-45071428D01*
X102571428Y-45071428D01*
X104628571Y-45300000D02*
X105200000Y-45300000D01*
X104514285Y-45642857D02*
X104914285Y-44442857D01*
X105314285Y-45642857D01*
X105714285Y-45642857D02*
X105714285Y-44842857D01*
X105714285Y-44957142D02*
X105771428Y-44900000D01*
X105885714Y-44842857D01*
X106057142Y-44842857D01*
X106171428Y-44900000D01*
X106228571Y-45014285D01*
X106228571Y-45642857D01*
X106228571Y-45014285D02*
X106285714Y-44900000D01*
X106400000Y-44842857D01*
X106571428Y-44842857D01*
X106685714Y-44900000D01*
X106742857Y-45014285D01*
X106742857Y-45642857D01*
X107314285Y-44842857D02*
X107314285Y-46042857D01*
X107314285Y-44900000D02*
X107428571Y-44842857D01*
X107657142Y-44842857D01*
X107771428Y-44900000D01*
X107828571Y-44957142D01*
X107885714Y-45071428D01*
X107885714Y-45414285D01*
X107828571Y-45528571D01*
X107771428Y-45585714D01*
X107657142Y-45642857D01*
X107428571Y-45642857D01*
X107314285Y-45585714D01*
X108571428Y-45642857D02*
X108457142Y-45585714D01*
X108400000Y-45471428D01*
X108400000Y-44442857D01*
X109028571Y-45642857D02*
X109028571Y-44842857D01*
X109028571Y-44442857D02*
X108971428Y-44500000D01*
X109028571Y-44557142D01*
X109085714Y-44500000D01*
X109028571Y-44442857D01*
X109028571Y-44557142D01*
X109428571Y-44842857D02*
X109885714Y-44842857D01*
X109600000Y-45642857D02*
X109600000Y-44614285D01*
X109657142Y-44500000D01*
X109771428Y-44442857D01*
X109885714Y-44442857D01*
X110285714Y-45642857D02*
X110285714Y-44842857D01*
X110285714Y-44442857D02*
X110228571Y-44500000D01*
X110285714Y-44557142D01*
X110342857Y-44500000D01*
X110285714Y-44442857D01*
X110285714Y-44557142D01*
X111314285Y-45585714D02*
X111200000Y-45642857D01*
X110971428Y-45642857D01*
X110857142Y-45585714D01*
X110800000Y-45471428D01*
X110800000Y-45014285D01*
X110857142Y-44900000D01*
X110971428Y-44842857D01*
X111200000Y-44842857D01*
X111314285Y-44900000D01*
X111371428Y-45014285D01*
X111371428Y-45128571D01*
X110800000Y-45242857D01*
X111885714Y-45642857D02*
X111885714Y-44842857D01*
X111885714Y-45071428D02*
X111942857Y-44957142D01*
X112000000Y-44900000D01*
X112114285Y-44842857D01*
X112228571Y-44842857D01*
X113371428Y-44442857D02*
X114057142Y-44442857D01*
X113714285Y-45642857D02*
X113714285Y-44442857D01*
X114914285Y-45585714D02*
X114800000Y-45642857D01*
X114571428Y-45642857D01*
X114457142Y-45585714D01*
X114400000Y-45471428D01*
X114400000Y-45014285D01*
X114457142Y-44900000D01*
X114571428Y-44842857D01*
X114800000Y-44842857D01*
X114914285Y-44900000D01*
X114971428Y-45014285D01*
X114971428Y-45128571D01*
X114400000Y-45242857D01*
X115428571Y-45585714D02*
X115542857Y-45642857D01*
X115771428Y-45642857D01*
X115885714Y-45585714D01*
X115942857Y-45471428D01*
X115942857Y-45414285D01*
X115885714Y-45300000D01*
X115771428Y-45242857D01*
X115600000Y-45242857D01*
X115485714Y-45185714D01*
X115428571Y-45071428D01*
X115428571Y-45014285D01*
X115485714Y-44900000D01*
X115600000Y-44842857D01*
X115771428Y-44842857D01*
X115885714Y-44900000D01*
X116285714Y-44842857D02*
X116742857Y-44842857D01*
X116457142Y-44442857D02*
X116457142Y-45471428D01*
X116514285Y-45585714D01*
X116628571Y-45642857D01*
X116742857Y-45642857D01*
X118457142Y-45014285D02*
X118628571Y-45071428D01*
X118685714Y-45128571D01*
X118742857Y-45242857D01*
X118742857Y-45414285D01*
X118685714Y-45528571D01*
X118628571Y-45585714D01*
X118514285Y-45642857D01*
X118057142Y-45642857D01*
X118057142Y-44442857D01*
X118457142Y-44442857D01*
X118571428Y-44500000D01*
X118628571Y-44557142D01*
X118685714Y-44671428D01*
X118685714Y-44785714D01*
X118628571Y-44900000D01*
X118571428Y-44957142D01*
X118457142Y-45014285D01*
X118057142Y-45014285D01*
X119428571Y-45642857D02*
X119314285Y-45585714D01*
X119257142Y-45528571D01*
X119200000Y-45414285D01*
X119200000Y-45071428D01*
X119257142Y-44957142D01*
X119314285Y-44900000D01*
X119428571Y-44842857D01*
X119600000Y-44842857D01*
X119714285Y-44900000D01*
X119771428Y-44957142D01*
X119828571Y-45071428D01*
X119828571Y-45414285D01*
X119771428Y-45528571D01*
X119714285Y-45585714D01*
X119600000Y-45642857D01*
X119428571Y-45642857D01*
X120857142Y-45642857D02*
X120857142Y-45014285D01*
X120800000Y-44900000D01*
X120685714Y-44842857D01*
X120457142Y-44842857D01*
X120342857Y-44900000D01*
X120857142Y-45585714D02*
X120742857Y-45642857D01*
X120457142Y-45642857D01*
X120342857Y-45585714D01*
X120285714Y-45471428D01*
X120285714Y-45357142D01*
X120342857Y-45242857D01*
X120457142Y-45185714D01*
X120742857Y-45185714D01*
X120857142Y-45128571D01*
X121428571Y-45642857D02*
X121428571Y-44842857D01*
X121428571Y-45071428D02*
X121485714Y-44957142D01*
X121542857Y-44900000D01*
X121657142Y-44842857D01*
X121771428Y-44842857D01*
X122685714Y-45642857D02*
X122685714Y-44442857D01*
X122685714Y-45585714D02*
X122571428Y-45642857D01*
X122342857Y-45642857D01*
X122228571Y-45585714D01*
X122171428Y-45528571D01*
X122114285Y-45414285D01*
X122114285Y-45071428D01*
X122171428Y-44957142D01*
X122228571Y-44900000D01*
X122342857Y-44842857D01*
X122571428Y-44842857D01*
X122685714Y-44900000D01*
X123314285Y-45585714D02*
X123314285Y-45642857D01*
X123257142Y-45757142D01*
X123200000Y-45814285D01*
X125428571Y-45642857D02*
X125028571Y-45071428D01*
X124742857Y-45642857D02*
X124742857Y-44442857D01*
X125200000Y-44442857D01*
X125314285Y-44500000D01*
X125371428Y-44557142D01*
X125428571Y-44671428D01*
X125428571Y-44842857D01*
X125371428Y-44957142D01*
X125314285Y-45014285D01*
X125200000Y-45071428D01*
X124742857Y-45071428D01*
X126400000Y-45585714D02*
X126285714Y-45642857D01*
X126057142Y-45642857D01*
X125942857Y-45585714D01*
X125885714Y-45471428D01*
X125885714Y-45014285D01*
X125942857Y-44900000D01*
X126057142Y-44842857D01*
X126285714Y-44842857D01*
X126400000Y-44900000D01*
X126457142Y-45014285D01*
X126457142Y-45128571D01*
X125885714Y-45242857D01*
X126857142Y-44842857D02*
X127142857Y-45642857D01*
X127428571Y-44842857D01*
X127885714Y-45528571D02*
X127942857Y-45585714D01*
X127885714Y-45642857D01*
X127828571Y-45585714D01*
X127885714Y-45528571D01*
X127885714Y-45642857D01*
X130000000Y-45642857D02*
X129314285Y-45642857D01*
X129657142Y-45642857D02*
X129657142Y-44442857D01*
X129542857Y-44614285D01*
X129428571Y-44728571D01*
X129314285Y-44785714D01*
X141200000Y-63952380D02*
X141390476Y-63952380D01*
X141485714Y-64000000D01*
X141580952Y-64095238D01*
X141628571Y-64285714D01*
X141628571Y-64619047D01*
X141580952Y-64809523D01*
X141485714Y-64904761D01*
X141390476Y-64952380D01*
X141200000Y-64952380D01*
X141104761Y-64904761D01*
X141009523Y-64809523D01*
X140961904Y-64619047D01*
X140961904Y-64285714D01*
X141009523Y-64095238D01*
X141104761Y-64000000D01*
X141200000Y-63952380D01*
X142057142Y-63952380D02*
X142057142Y-64761904D01*
X142104761Y-64857142D01*
X142152380Y-64904761D01*
X142247619Y-64952380D01*
X142438095Y-64952380D01*
X142533333Y-64904761D01*
X142580952Y-64857142D01*
X142628571Y-64761904D01*
X142628571Y-63952380D01*
X142961904Y-63952380D02*
X143533333Y-63952380D01*
X143247619Y-64952380D02*
X143247619Y-63952380D01*
X81276190Y-65052380D02*
X81276190Y-64052380D01*
X81752380Y-65052380D02*
X81752380Y-64052380D01*
X82323809Y-65052380D01*
X82323809Y-64052380D01*
D12*
X117200000Y-52200000D02*
X116900000Y-53400000D01*
X115400000Y-53500000D02*
X117800000Y-53500000D01*
X114700000Y-52000000D02*
X120000000Y-52000000D01*
X122400000Y-51200000D02*
X119300000Y-56600000D01*
X118300000Y-56800000D02*
X120200000Y-56800000D01*
X123700000Y-50900000D02*
X121000000Y-50900000D01*
X114900000Y-55650000D02*
X115000000Y-55650000D01*
X117800000Y-55650000D02*
X117900000Y-55650000D01*
X117900000Y-57050000D02*
X117800000Y-57050000D01*
X114900000Y-57050000D02*
X115100000Y-57050000D01*
X114900000Y-55650000D02*
X114900000Y-57050000D01*
X117900000Y-55650000D02*
X117900000Y-57050000D01*
X116300000Y-57050000D02*
X116900000Y-57050000D01*
X115900000Y-55650000D02*
X116900000Y-55650000D01*
X132860000Y-60952064D02*
X132860000Y-59747936D01*
X130140000Y-60952064D02*
X130140000Y-59747936D01*
X116660000Y-64735000D02*
X116660000Y-62050000D01*
X114740000Y-64735000D02*
X116660000Y-64735000D01*
X114740000Y-62050000D02*
X114740000Y-64735000D01*
D11*
X140866666Y-49652380D02*
X140866666Y-50366666D01*
X140819047Y-50509523D01*
X140723809Y-50604761D01*
X140580952Y-50652380D01*
X140485714Y-50652380D01*
X141771428Y-49985714D02*
X141771428Y-50652380D01*
X141533333Y-49604761D02*
X141295238Y-50319047D01*
X141914285Y-50319047D01*
X81126666Y-50322380D02*
X81126666Y-51036666D01*
X81079047Y-51179523D01*
X80983809Y-51274761D01*
X80840952Y-51322380D01*
X80745714Y-51322380D01*
X82126666Y-51322380D02*
X81555238Y-51322380D01*
X81840952Y-51322380D02*
X81840952Y-50322380D01*
X81745714Y-50465238D01*
X81650476Y-50560476D01*
X81555238Y-50608095D01*
X123452380Y-50066666D02*
X122976190Y-50400000D01*
X123452380Y-50638095D02*
X122452380Y-50638095D01*
X122452380Y-50257142D01*
X122500000Y-50161904D01*
X122547619Y-50114285D01*
X122642857Y-50066666D01*
X122785714Y-50066666D01*
X122880952Y-50114285D01*
X122928571Y-50161904D01*
X122976190Y-50257142D01*
X122976190Y-50638095D01*
X122452380Y-49733333D02*
X122452380Y-49066666D01*
X123452380Y-49495238D01*
X118057142Y-51652380D02*
X117723809Y-51176190D01*
X117485714Y-51652380D02*
X117485714Y-50652380D01*
X117866666Y-50652380D01*
X117961904Y-50700000D01*
X118009523Y-50747619D01*
X118057142Y-50842857D01*
X118057142Y-50985714D01*
X118009523Y-51080952D01*
X117961904Y-51128571D01*
X117866666Y-51176190D01*
X117485714Y-51176190D01*
X119009523Y-51652380D02*
X118438095Y-51652380D01*
X118723809Y-51652380D02*
X118723809Y-50652380D01*
X118628571Y-50795238D01*
X118533333Y-50890476D01*
X118438095Y-50938095D01*
X119390476Y-50747619D02*
X119438095Y-50700000D01*
X119533333Y-50652380D01*
X119771428Y-50652380D01*
X119866666Y-50700000D01*
X119914285Y-50747619D01*
X119961904Y-50842857D01*
X119961904Y-50938095D01*
X119914285Y-51080952D01*
X119342857Y-51652380D01*
X119961904Y-51652380D01*
X115157142Y-51557142D02*
X115109523Y-51604761D01*
X114966666Y-51652380D01*
X114871428Y-51652380D01*
X114728571Y-51604761D01*
X114633333Y-51509523D01*
X114585714Y-51414285D01*
X114538095Y-51223809D01*
X114538095Y-51080952D01*
X114585714Y-50890476D01*
X114633333Y-50795238D01*
X114728571Y-50700000D01*
X114871428Y-50652380D01*
X114966666Y-50652380D01*
X115109523Y-50700000D01*
X115157142Y-50747619D01*
X116109523Y-51652380D02*
X115538095Y-51652380D01*
X115823809Y-51652380D02*
X115823809Y-50652380D01*
X115728571Y-50795238D01*
X115633333Y-50890476D01*
X115538095Y-50938095D01*
X116442857Y-50652380D02*
X117061904Y-50652380D01*
X116728571Y-51033333D01*
X116871428Y-51033333D01*
X116966666Y-51080952D01*
X117014285Y-51128571D01*
X117061904Y-51223809D01*
X117061904Y-51461904D01*
X117014285Y-51557142D01*
X116966666Y-51604761D01*
X116871428Y-51652380D01*
X116585714Y-51652380D01*
X116490476Y-51604761D01*
X116442857Y-51557142D01*
X122438095Y-64152380D02*
X123009523Y-64152380D01*
X122723809Y-65152380D02*
X122723809Y-64152380D01*
X123342857Y-65152380D02*
X123342857Y-64152380D01*
X123723809Y-64152380D01*
X123819047Y-64200000D01*
X123866666Y-64247619D01*
X123914285Y-64342857D01*
X123914285Y-64485714D01*
X123866666Y-64580952D01*
X123819047Y-64628571D01*
X123723809Y-64676190D01*
X123342857Y-64676190D01*
X124247619Y-64152380D02*
X124866666Y-64152380D01*
X124533333Y-64533333D01*
X124676190Y-64533333D01*
X124771428Y-64580952D01*
X124819047Y-64628571D01*
X124866666Y-64723809D01*
X124866666Y-64961904D01*
X124819047Y-65057142D01*
X124771428Y-65104761D01*
X124676190Y-65152380D01*
X124390476Y-65152380D01*
X124295238Y-65104761D01*
X124247619Y-65057142D01*
X128138095Y-63152380D02*
X128709523Y-63152380D01*
X128423809Y-64152380D02*
X128423809Y-63152380D01*
X129042857Y-64152380D02*
X129042857Y-63152380D01*
X129423809Y-63152380D01*
X129519047Y-63200000D01*
X129566666Y-63247619D01*
X129614285Y-63342857D01*
X129614285Y-63485714D01*
X129566666Y-63580952D01*
X129519047Y-63628571D01*
X129423809Y-63676190D01*
X129042857Y-63676190D01*
X129995238Y-63247619D02*
X130042857Y-63200000D01*
X130138095Y-63152380D01*
X130376190Y-63152380D01*
X130471428Y-63200000D01*
X130519047Y-63247619D01*
X130566666Y-63342857D01*
X130566666Y-63438095D01*
X130519047Y-63580952D01*
X129947619Y-64152380D01*
X130566666Y-64152380D01*
X96838095Y-59152380D02*
X97409523Y-59152380D01*
X97123809Y-60152380D02*
X97123809Y-59152380D01*
X97742857Y-60152380D02*
X97742857Y-59152380D01*
X98123809Y-59152380D01*
X98219047Y-59200000D01*
X98266666Y-59247619D01*
X98314285Y-59342857D01*
X98314285Y-59485714D01*
X98266666Y-59580952D01*
X98219047Y-59628571D01*
X98123809Y-59676190D01*
X97742857Y-59676190D01*
X99266666Y-60152380D02*
X98695238Y-60152380D01*
X98980952Y-60152380D02*
X98980952Y-59152380D01*
X98885714Y-59295238D01*
X98790476Y-59390476D01*
X98695238Y-59438095D01*
X99557142Y-69252380D02*
X99223809Y-68776190D01*
X98985714Y-69252380D02*
X98985714Y-68252380D01*
X99366666Y-68252380D01*
X99461904Y-68300000D01*
X99509523Y-68347619D01*
X99557142Y-68442857D01*
X99557142Y-68585714D01*
X99509523Y-68680952D01*
X99461904Y-68728571D01*
X99366666Y-68776190D01*
X98985714Y-68776190D01*
X100509523Y-69252380D02*
X99938095Y-69252380D01*
X100223809Y-69252380D02*
X100223809Y-68252380D01*
X100128571Y-68395238D01*
X100033333Y-68490476D01*
X99938095Y-68538095D01*
X101461904Y-69252380D02*
X100890476Y-69252380D01*
X101176190Y-69252380D02*
X101176190Y-68252380D01*
X101080952Y-68395238D01*
X100985714Y-68490476D01*
X100890476Y-68538095D01*
X101552380Y-62142857D02*
X101076190Y-62476190D01*
X101552380Y-62714285D02*
X100552380Y-62714285D01*
X100552380Y-62333333D01*
X100600000Y-62238095D01*
X100647619Y-62190476D01*
X100742857Y-62142857D01*
X100885714Y-62142857D01*
X100980952Y-62190476D01*
X101028571Y-62238095D01*
X101076190Y-62333333D01*
X101076190Y-62714285D01*
X101552380Y-61190476D02*
X101552380Y-61761904D01*
X101552380Y-61476190D02*
X100552380Y-61476190D01*
X100695238Y-61571428D01*
X100790476Y-61666666D01*
X100838095Y-61761904D01*
X100552380Y-60571428D02*
X100552380Y-60476190D01*
X100600000Y-60380952D01*
X100647619Y-60333333D01*
X100742857Y-60285714D01*
X100933333Y-60238095D01*
X101171428Y-60238095D01*
X101361904Y-60285714D01*
X101457142Y-60333333D01*
X101504761Y-60380952D01*
X101552380Y-60476190D01*
X101552380Y-60571428D01*
X101504761Y-60666666D01*
X101457142Y-60714285D01*
X101361904Y-60761904D01*
X101171428Y-60809523D01*
X100933333Y-60809523D01*
X100742857Y-60761904D01*
X100647619Y-60714285D01*
X100600000Y-60666666D01*
X100552380Y-60571428D01*
X117982380Y-64316666D02*
X117506190Y-64650000D01*
X117982380Y-64888095D02*
X116982380Y-64888095D01*
X116982380Y-64507142D01*
X117030000Y-64411904D01*
X117077619Y-64364285D01*
X117172857Y-64316666D01*
X117315714Y-64316666D01*
X117410952Y-64364285D01*
X117458571Y-64411904D01*
X117506190Y-64507142D01*
X117506190Y-64888095D01*
X117982380Y-63840476D02*
X117982380Y-63650000D01*
X117934761Y-63554761D01*
X117887142Y-63507142D01*
X117744285Y-63411904D01*
X117553809Y-63364285D01*
X117172857Y-63364285D01*
X117077619Y-63411904D01*
X117030000Y-63459523D01*
X116982380Y-63554761D01*
X116982380Y-63745238D01*
X117030000Y-63840476D01*
X117077619Y-63888095D01*
X117172857Y-63935714D01*
X117410952Y-63935714D01*
X117506190Y-63888095D01*
X117553809Y-63840476D01*
X117601428Y-63745238D01*
X117601428Y-63554761D01*
X117553809Y-63459523D01*
X117506190Y-63411904D01*
X117410952Y-63364285D01*
X125633333Y-60052380D02*
X125300000Y-59576190D01*
X125061904Y-60052380D02*
X125061904Y-59052380D01*
X125442857Y-59052380D01*
X125538095Y-59100000D01*
X125585714Y-59147619D01*
X125633333Y-59242857D01*
X125633333Y-59385714D01*
X125585714Y-59480952D01*
X125538095Y-59528571D01*
X125442857Y-59576190D01*
X125061904Y-59576190D01*
X126204761Y-59480952D02*
X126109523Y-59433333D01*
X126061904Y-59385714D01*
X126014285Y-59290476D01*
X126014285Y-59242857D01*
X126061904Y-59147619D01*
X126109523Y-59100000D01*
X126204761Y-59052380D01*
X126395238Y-59052380D01*
X126490476Y-59100000D01*
X126538095Y-59147619D01*
X126585714Y-59242857D01*
X126585714Y-59290476D01*
X126538095Y-59385714D01*
X126490476Y-59433333D01*
X126395238Y-59480952D01*
X126204761Y-59480952D01*
X126109523Y-59528571D01*
X126061904Y-59576190D01*
X126014285Y-59671428D01*
X126014285Y-59861904D01*
X126061904Y-59957142D01*
X126109523Y-60004761D01*
X126204761Y-60052380D01*
X126395238Y-60052380D01*
X126490476Y-60004761D01*
X126538095Y-59957142D01*
X126585714Y-59861904D01*
X126585714Y-59671428D01*
X126538095Y-59576190D01*
X126490476Y-59528571D01*
X126395238Y-59480952D01*
X122152380Y-61266666D02*
X121676190Y-61600000D01*
X122152380Y-61838095D02*
X121152380Y-61838095D01*
X121152380Y-61457142D01*
X121200000Y-61361904D01*
X121247619Y-61314285D01*
X121342857Y-61266666D01*
X121485714Y-61266666D01*
X121580952Y-61314285D01*
X121628571Y-61361904D01*
X121676190Y-61457142D01*
X121676190Y-61838095D01*
X121152380Y-60409523D02*
X121152380Y-60600000D01*
X121200000Y-60695238D01*
X121247619Y-60742857D01*
X121390476Y-60838095D01*
X121580952Y-60885714D01*
X121961904Y-60885714D01*
X122057142Y-60838095D01*
X122104761Y-60790476D01*
X122152380Y-60695238D01*
X122152380Y-60504761D01*
X122104761Y-60409523D01*
X122057142Y-60361904D01*
X121961904Y-60314285D01*
X121723809Y-60314285D01*
X121628571Y-60361904D01*
X121580952Y-60409523D01*
X121533333Y-60504761D01*
X121533333Y-60695238D01*
X121580952Y-60790476D01*
X121628571Y-60838095D01*
X121723809Y-60885714D01*
X114252380Y-54166666D02*
X113776190Y-54500000D01*
X114252380Y-54738095D02*
X113252380Y-54738095D01*
X113252380Y-54357142D01*
X113300000Y-54261904D01*
X113347619Y-54214285D01*
X113442857Y-54166666D01*
X113585714Y-54166666D01*
X113680952Y-54214285D01*
X113728571Y-54261904D01*
X113776190Y-54357142D01*
X113776190Y-54738095D01*
X113252380Y-53261904D02*
X113252380Y-53738095D01*
X113728571Y-53785714D01*
X113680952Y-53738095D01*
X113633333Y-53642857D01*
X113633333Y-53404761D01*
X113680952Y-53309523D01*
X113728571Y-53261904D01*
X113823809Y-53214285D01*
X114061904Y-53214285D01*
X114157142Y-53261904D01*
X114204761Y-53309523D01*
X114252380Y-53404761D01*
X114252380Y-53642857D01*
X114204761Y-53738095D01*
X114157142Y-53785714D01*
X112952380Y-61866666D02*
X112476190Y-62200000D01*
X112952380Y-62438095D02*
X111952380Y-62438095D01*
X111952380Y-62057142D01*
X112000000Y-61961904D01*
X112047619Y-61914285D01*
X112142857Y-61866666D01*
X112285714Y-61866666D01*
X112380952Y-61914285D01*
X112428571Y-61961904D01*
X112476190Y-62057142D01*
X112476190Y-62438095D01*
X112285714Y-61009523D02*
X112952380Y-61009523D01*
X111904761Y-61247619D02*
X112619047Y-61485714D01*
X112619047Y-60866666D01*
X113152380Y-54166666D02*
X112676190Y-54500000D01*
X113152380Y-54738095D02*
X112152380Y-54738095D01*
X112152380Y-54357142D01*
X112200000Y-54261904D01*
X112247619Y-54214285D01*
X112342857Y-54166666D01*
X112485714Y-54166666D01*
X112580952Y-54214285D01*
X112628571Y-54261904D01*
X112676190Y-54357142D01*
X112676190Y-54738095D01*
X112152380Y-53833333D02*
X112152380Y-53214285D01*
X112533333Y-53547619D01*
X112533333Y-53404761D01*
X112580952Y-53309523D01*
X112628571Y-53261904D01*
X112723809Y-53214285D01*
X112961904Y-53214285D01*
X113057142Y-53261904D01*
X113104761Y-53309523D01*
X113152380Y-53404761D01*
X113152380Y-53690476D01*
X113104761Y-53785714D01*
X113057142Y-53833333D01*
X111652380Y-61666666D02*
X111176190Y-62000000D01*
X111652380Y-62238095D02*
X110652380Y-62238095D01*
X110652380Y-61857142D01*
X110700000Y-61761904D01*
X110747619Y-61714285D01*
X110842857Y-61666666D01*
X110985714Y-61666666D01*
X111080952Y-61714285D01*
X111128571Y-61761904D01*
X111176190Y-61857142D01*
X111176190Y-62238095D01*
X110747619Y-61285714D02*
X110700000Y-61238095D01*
X110652380Y-61142857D01*
X110652380Y-60904761D01*
X110700000Y-60809523D01*
X110747619Y-60761904D01*
X110842857Y-60714285D01*
X110938095Y-60714285D01*
X111080952Y-60761904D01*
X111652380Y-61333333D01*
X111652380Y-60714285D01*
X105233333Y-60052380D02*
X104900000Y-59576190D01*
X104661904Y-60052380D02*
X104661904Y-59052380D01*
X105042857Y-59052380D01*
X105138095Y-59100000D01*
X105185714Y-59147619D01*
X105233333Y-59242857D01*
X105233333Y-59385714D01*
X105185714Y-59480952D01*
X105138095Y-59528571D01*
X105042857Y-59576190D01*
X104661904Y-59576190D01*
X106185714Y-60052380D02*
X105614285Y-60052380D01*
X105900000Y-60052380D02*
X105900000Y-59052380D01*
X105804761Y-59195238D01*
X105709523Y-59290476D01*
X105614285Y-59338095D01*
X119347619Y-55595238D02*
X119300000Y-55690476D01*
X119204761Y-55785714D01*
X119061904Y-55928571D01*
X119014285Y-56023809D01*
X119014285Y-56119047D01*
X119252380Y-56071428D02*
X119204761Y-56166666D01*
X119109523Y-56261904D01*
X118919047Y-56309523D01*
X118585714Y-56309523D01*
X118395238Y-56261904D01*
X118300000Y-56166666D01*
X118252380Y-56071428D01*
X118252380Y-55880952D01*
X118300000Y-55785714D01*
X118395238Y-55690476D01*
X118585714Y-55642857D01*
X118919047Y-55642857D01*
X119109523Y-55690476D01*
X119204761Y-55785714D01*
X119252380Y-55880952D01*
X119252380Y-56071428D01*
X119252380Y-54690476D02*
X119252380Y-55261904D01*
X119252380Y-54976190D02*
X118252380Y-54976190D01*
X118395238Y-55071428D01*
X118490476Y-55166666D01*
X118538095Y-55261904D01*
X129672380Y-60516666D02*
X129672380Y-60992857D01*
X128672380Y-60992857D01*
X128672380Y-59754761D02*
X128672380Y-59945238D01*
X128720000Y-60040476D01*
X128767619Y-60088095D01*
X128910476Y-60183333D01*
X129100952Y-60230952D01*
X129481904Y-60230952D01*
X129577142Y-60183333D01*
X129624761Y-60135714D01*
X129672380Y-60040476D01*
X129672380Y-59850000D01*
X129624761Y-59754761D01*
X129577142Y-59707142D01*
X129481904Y-59659523D01*
X129243809Y-59659523D01*
X129148571Y-59707142D01*
X129100952Y-59754761D01*
X129053333Y-59850000D01*
X129053333Y-60040476D01*
X129100952Y-60135714D01*
X129148571Y-60183333D01*
X129243809Y-60230952D01*
X128533333Y-55652380D02*
X128057142Y-55652380D01*
X128057142Y-54652380D01*
X129342857Y-54652380D02*
X128866666Y-54652380D01*
X128819047Y-55128571D01*
X128866666Y-55080952D01*
X128961904Y-55033333D01*
X129200000Y-55033333D01*
X129295238Y-55080952D01*
X129342857Y-55128571D01*
X129390476Y-55223809D01*
X129390476Y-55461904D01*
X129342857Y-55557142D01*
X129295238Y-55604761D01*
X129200000Y-55652380D01*
X128961904Y-55652380D01*
X128866666Y-55604761D01*
X128819047Y-55557142D01*
X122052380Y-50066666D02*
X122052380Y-50542857D01*
X121052380Y-50542857D01*
X121385714Y-49304761D02*
X122052380Y-49304761D01*
X121004761Y-49542857D02*
X121719047Y-49780952D01*
X121719047Y-49161904D01*
X102333333Y-60152380D02*
X101857142Y-60152380D01*
X101857142Y-59152380D01*
X102571428Y-59152380D02*
X103190476Y-59152380D01*
X102857142Y-59533333D01*
X103000000Y-59533333D01*
X103095238Y-59580952D01*
X103142857Y-59628571D01*
X103190476Y-59723809D01*
X103190476Y-59961904D01*
X103142857Y-60057142D01*
X103095238Y-60104761D01*
X103000000Y-60152380D01*
X102714285Y-60152380D01*
X102619047Y-60104761D01*
X102571428Y-60057142D01*
X95533333Y-60252380D02*
X95057142Y-60252380D01*
X95057142Y-59252380D01*
X95819047Y-59347619D02*
X95866666Y-59300000D01*
X95961904Y-59252380D01*
X96200000Y-59252380D01*
X96295238Y-59300000D01*
X96342857Y-59347619D01*
X96390476Y-59442857D01*
X96390476Y-59538095D01*
X96342857Y-59680952D01*
X95771428Y-60252380D01*
X96390476Y-60252380D01*
X92733333Y-60052380D02*
X92257142Y-60052380D01*
X92257142Y-59052380D01*
X93590476Y-60052380D02*
X93019047Y-60052380D01*
X93304761Y-60052380D02*
X93304761Y-59052380D01*
X93209523Y-59195238D01*
X93114285Y-59290476D01*
X93019047Y-59338095D01*
X94002380Y-66528333D02*
X94716666Y-66528333D01*
X94859523Y-66575952D01*
X94954761Y-66671190D01*
X95002380Y-66814047D01*
X95002380Y-66909285D01*
X94002380Y-65623571D02*
X94002380Y-65814047D01*
X94050000Y-65909285D01*
X94097619Y-65956904D01*
X94240476Y-66052142D01*
X94430952Y-66099761D01*
X94811904Y-66099761D01*
X94907142Y-66052142D01*
X94954761Y-66004523D01*
X95002380Y-65909285D01*
X95002380Y-65718809D01*
X94954761Y-65623571D01*
X94907142Y-65575952D01*
X94811904Y-65528333D01*
X94573809Y-65528333D01*
X94478571Y-65575952D01*
X94430952Y-65623571D01*
X94383333Y-65718809D01*
X94383333Y-65909285D01*
X94430952Y-66004523D01*
X94478571Y-66052142D01*
X94573809Y-66099761D01*
X105402380Y-66533333D02*
X106116666Y-66533333D01*
X106259523Y-66580952D01*
X106354761Y-66676190D01*
X106402380Y-66819047D01*
X106402380Y-66914285D01*
X105402380Y-65580952D02*
X105402380Y-66057142D01*
X105878571Y-66104761D01*
X105830952Y-66057142D01*
X105783333Y-65961904D01*
X105783333Y-65723809D01*
X105830952Y-65628571D01*
X105878571Y-65580952D01*
X105973809Y-65533333D01*
X106211904Y-65533333D01*
X106307142Y-65580952D01*
X106354761Y-65628571D01*
X106402380Y-65723809D01*
X106402380Y-65961904D01*
X106354761Y-66057142D01*
X106307142Y-66104761D01*
X122066666Y-53052380D02*
X122066666Y-53766666D01*
X122019047Y-53909523D01*
X121923809Y-54004761D01*
X121780952Y-54052380D01*
X121685714Y-54052380D01*
X122447619Y-53052380D02*
X123066666Y-53052380D01*
X122733333Y-53433333D01*
X122876190Y-53433333D01*
X122971428Y-53480952D01*
X123019047Y-53528571D01*
X123066666Y-53623809D01*
X123066666Y-53861904D01*
X123019047Y-53957142D01*
X122971428Y-54004761D01*
X122876190Y-54052380D01*
X122590476Y-54052380D01*
X122495238Y-54004761D01*
X122447619Y-53957142D01*
X108366666Y-52652380D02*
X108366666Y-53366666D01*
X108319047Y-53509523D01*
X108223809Y-53604761D01*
X108080952Y-53652380D01*
X107985714Y-53652380D01*
X108795238Y-52747619D02*
X108842857Y-52700000D01*
X108938095Y-52652380D01*
X109176190Y-52652380D01*
X109271428Y-52700000D01*
X109319047Y-52747619D01*
X109366666Y-52842857D01*
X109366666Y-52938095D01*
X109319047Y-53080952D01*
X108747619Y-53652380D01*
X109366666Y-53652380D01*
X114502380Y-63788095D02*
X113502380Y-63788095D01*
X113502380Y-63550000D01*
X113550000Y-63407142D01*
X113645238Y-63311904D01*
X113740476Y-63264285D01*
X113930952Y-63216666D01*
X114073809Y-63216666D01*
X114264285Y-63264285D01*
X114359523Y-63311904D01*
X114454761Y-63407142D01*
X114502380Y-63550000D01*
X114502380Y-63788095D01*
X114502380Y-62264285D02*
X114502380Y-62835714D01*
X114502380Y-62550000D02*
X113502380Y-62550000D01*
X113645238Y-62645238D01*
X113740476Y-62740476D01*
X113788095Y-62835714D01*
X131457142Y-55557142D02*
X131409523Y-55604761D01*
X131266666Y-55652380D01*
X131171428Y-55652380D01*
X131028571Y-55604761D01*
X130933333Y-55509523D01*
X130885714Y-55414285D01*
X130838095Y-55223809D01*
X130838095Y-55080952D01*
X130885714Y-54890476D01*
X130933333Y-54795238D01*
X131028571Y-54700000D01*
X131171428Y-54652380D01*
X131266666Y-54652380D01*
X131409523Y-54700000D01*
X131457142Y-54747619D01*
X132409523Y-55652380D02*
X131838095Y-55652380D01*
X132123809Y-55652380D02*
X132123809Y-54652380D01*
X132028571Y-54795238D01*
X131933333Y-54890476D01*
X131838095Y-54938095D01*
X132790476Y-54747619D02*
X132838095Y-54700000D01*
X132933333Y-54652380D01*
X133171428Y-54652380D01*
X133266666Y-54700000D01*
X133314285Y-54747619D01*
X133361904Y-54842857D01*
X133361904Y-54938095D01*
X133314285Y-55080952D01*
X132742857Y-55652380D01*
X133361904Y-55652380D01*
X130457142Y-54642857D02*
X130504761Y-54690476D01*
X130552380Y-54833333D01*
X130552380Y-54928571D01*
X130504761Y-55071428D01*
X130409523Y-55166666D01*
X130314285Y-55214285D01*
X130123809Y-55261904D01*
X129980952Y-55261904D01*
X129790476Y-55214285D01*
X129695238Y-55166666D01*
X129600000Y-55071428D01*
X129552380Y-54928571D01*
X129552380Y-54833333D01*
X129600000Y-54690476D01*
X129647619Y-54642857D01*
X130552380Y-53690476D02*
X130552380Y-54261904D01*
X130552380Y-53976190D02*
X129552380Y-53976190D01*
X129695238Y-54071428D01*
X129790476Y-54166666D01*
X129838095Y-54261904D01*
X130552380Y-52738095D02*
X130552380Y-53309523D01*
X130552380Y-53023809D02*
X129552380Y-53023809D01*
X129695238Y-53119047D01*
X129790476Y-53214285D01*
X129838095Y-53309523D01*
X127457142Y-54442857D02*
X127504761Y-54490476D01*
X127552380Y-54633333D01*
X127552380Y-54728571D01*
X127504761Y-54871428D01*
X127409523Y-54966666D01*
X127314285Y-55014285D01*
X127123809Y-55061904D01*
X126980952Y-55061904D01*
X126790476Y-55014285D01*
X126695238Y-54966666D01*
X126600000Y-54871428D01*
X126552380Y-54728571D01*
X126552380Y-54633333D01*
X126600000Y-54490476D01*
X126647619Y-54442857D01*
X127552380Y-53490476D02*
X127552380Y-54061904D01*
X127552380Y-53776190D02*
X126552380Y-53776190D01*
X126695238Y-53871428D01*
X126790476Y-53966666D01*
X126838095Y-54061904D01*
X126552380Y-52871428D02*
X126552380Y-52776190D01*
X126600000Y-52680952D01*
X126647619Y-52633333D01*
X126742857Y-52585714D01*
X126933333Y-52538095D01*
X127171428Y-52538095D01*
X127361904Y-52585714D01*
X127457142Y-52633333D01*
X127504761Y-52680952D01*
X127552380Y-52776190D01*
X127552380Y-52871428D01*
X127504761Y-52966666D01*
X127457142Y-53014285D01*
X127361904Y-53061904D01*
X127171428Y-53109523D01*
X126933333Y-53109523D01*
X126742857Y-53061904D01*
X126647619Y-53014285D01*
X126600000Y-52966666D01*
X126552380Y-52871428D01*
X123457142Y-61166666D02*
X123504761Y-61214285D01*
X123552380Y-61357142D01*
X123552380Y-61452380D01*
X123504761Y-61595238D01*
X123409523Y-61690476D01*
X123314285Y-61738095D01*
X123123809Y-61785714D01*
X122980952Y-61785714D01*
X122790476Y-61738095D01*
X122695238Y-61690476D01*
X122600000Y-61595238D01*
X122552380Y-61452380D01*
X122552380Y-61357142D01*
X122600000Y-61214285D01*
X122647619Y-61166666D01*
X123552380Y-60690476D02*
X123552380Y-60500000D01*
X123504761Y-60404761D01*
X123457142Y-60357142D01*
X123314285Y-60261904D01*
X123123809Y-60214285D01*
X122742857Y-60214285D01*
X122647619Y-60261904D01*
X122600000Y-60309523D01*
X122552380Y-60404761D01*
X122552380Y-60595238D01*
X122600000Y-60690476D01*
X122647619Y-60738095D01*
X122742857Y-60785714D01*
X122980952Y-60785714D01*
X123076190Y-60738095D01*
X123123809Y-60690476D01*
X123171428Y-60595238D01*
X123171428Y-60404761D01*
X123123809Y-60309523D01*
X123076190Y-60261904D01*
X122980952Y-60214285D01*
X121957142Y-62966666D02*
X122004761Y-63014285D01*
X122052380Y-63157142D01*
X122052380Y-63252380D01*
X122004761Y-63395238D01*
X121909523Y-63490476D01*
X121814285Y-63538095D01*
X121623809Y-63585714D01*
X121480952Y-63585714D01*
X121290476Y-63538095D01*
X121195238Y-63490476D01*
X121100000Y-63395238D01*
X121052380Y-63252380D01*
X121052380Y-63157142D01*
X121100000Y-63014285D01*
X121147619Y-62966666D01*
X121480952Y-62395238D02*
X121433333Y-62490476D01*
X121385714Y-62538095D01*
X121290476Y-62585714D01*
X121242857Y-62585714D01*
X121147619Y-62538095D01*
X121100000Y-62490476D01*
X121052380Y-62395238D01*
X121052380Y-62204761D01*
X121100000Y-62109523D01*
X121147619Y-62061904D01*
X121242857Y-62014285D01*
X121290476Y-62014285D01*
X121385714Y-62061904D01*
X121433333Y-62109523D01*
X121480952Y-62204761D01*
X121480952Y-62395238D01*
X121528571Y-62490476D01*
X121576190Y-62538095D01*
X121671428Y-62585714D01*
X121861904Y-62585714D01*
X121957142Y-62538095D01*
X122004761Y-62490476D01*
X122052380Y-62395238D01*
X122052380Y-62204761D01*
X122004761Y-62109523D01*
X121957142Y-62061904D01*
X121861904Y-62014285D01*
X121671428Y-62014285D01*
X121576190Y-62061904D01*
X121528571Y-62109523D01*
X121480952Y-62204761D01*
X123457142Y-62966666D02*
X123504761Y-63014285D01*
X123552380Y-63157142D01*
X123552380Y-63252380D01*
X123504761Y-63395238D01*
X123409523Y-63490476D01*
X123314285Y-63538095D01*
X123123809Y-63585714D01*
X122980952Y-63585714D01*
X122790476Y-63538095D01*
X122695238Y-63490476D01*
X122600000Y-63395238D01*
X122552380Y-63252380D01*
X122552380Y-63157142D01*
X122600000Y-63014285D01*
X122647619Y-62966666D01*
X122552380Y-62633333D02*
X122552380Y-61966666D01*
X123552380Y-62395238D01*
X104357142Y-54366666D02*
X104404761Y-54414285D01*
X104452380Y-54557142D01*
X104452380Y-54652380D01*
X104404761Y-54795238D01*
X104309523Y-54890476D01*
X104214285Y-54938095D01*
X104023809Y-54985714D01*
X103880952Y-54985714D01*
X103690476Y-54938095D01*
X103595238Y-54890476D01*
X103500000Y-54795238D01*
X103452380Y-54652380D01*
X103452380Y-54557142D01*
X103500000Y-54414285D01*
X103547619Y-54366666D01*
X103452380Y-53509523D02*
X103452380Y-53700000D01*
X103500000Y-53795238D01*
X103547619Y-53842857D01*
X103690476Y-53938095D01*
X103880952Y-53985714D01*
X104261904Y-53985714D01*
X104357142Y-53938095D01*
X104404761Y-53890476D01*
X104452380Y-53795238D01*
X104452380Y-53604761D01*
X104404761Y-53509523D01*
X104357142Y-53461904D01*
X104261904Y-53414285D01*
X104023809Y-53414285D01*
X103928571Y-53461904D01*
X103880952Y-53509523D01*
X103833333Y-53604761D01*
X103833333Y-53795238D01*
X103880952Y-53890476D01*
X103928571Y-53938095D01*
X104023809Y-53985714D01*
X101457142Y-54466666D02*
X101504761Y-54514285D01*
X101552380Y-54657142D01*
X101552380Y-54752380D01*
X101504761Y-54895238D01*
X101409523Y-54990476D01*
X101314285Y-55038095D01*
X101123809Y-55085714D01*
X100980952Y-55085714D01*
X100790476Y-55038095D01*
X100695238Y-54990476D01*
X100600000Y-54895238D01*
X100552380Y-54752380D01*
X100552380Y-54657142D01*
X100600000Y-54514285D01*
X100647619Y-54466666D01*
X100552380Y-53561904D02*
X100552380Y-54038095D01*
X101028571Y-54085714D01*
X100980952Y-54038095D01*
X100933333Y-53942857D01*
X100933333Y-53704761D01*
X100980952Y-53609523D01*
X101028571Y-53561904D01*
X101123809Y-53514285D01*
X101361904Y-53514285D01*
X101457142Y-53561904D01*
X101504761Y-53609523D01*
X101552380Y-53704761D01*
X101552380Y-53942857D01*
X101504761Y-54038095D01*
X101457142Y-54085714D01*
X99433333Y-55457142D02*
X99385714Y-55504761D01*
X99242857Y-55552380D01*
X99147619Y-55552380D01*
X99004761Y-55504761D01*
X98909523Y-55409523D01*
X98861904Y-55314285D01*
X98814285Y-55123809D01*
X98814285Y-54980952D01*
X98861904Y-54790476D01*
X98909523Y-54695238D01*
X99004761Y-54600000D01*
X99147619Y-54552380D01*
X99242857Y-54552380D01*
X99385714Y-54600000D01*
X99433333Y-54647619D01*
X100290476Y-54885714D02*
X100290476Y-55552380D01*
X100052380Y-54504761D02*
X99814285Y-55219047D01*
X100433333Y-55219047D01*
X97457142Y-54166666D02*
X97504761Y-54214285D01*
X97552380Y-54357142D01*
X97552380Y-54452380D01*
X97504761Y-54595238D01*
X97409523Y-54690476D01*
X97314285Y-54738095D01*
X97123809Y-54785714D01*
X96980952Y-54785714D01*
X96790476Y-54738095D01*
X96695238Y-54690476D01*
X96600000Y-54595238D01*
X96552380Y-54452380D01*
X96552380Y-54357142D01*
X96600000Y-54214285D01*
X96647619Y-54166666D01*
X96552380Y-53833333D02*
X96552380Y-53214285D01*
X96933333Y-53547619D01*
X96933333Y-53404761D01*
X96980952Y-53309523D01*
X97028571Y-53261904D01*
X97123809Y-53214285D01*
X97361904Y-53214285D01*
X97457142Y-53261904D01*
X97504761Y-53309523D01*
X97552380Y-53404761D01*
X97552380Y-53690476D01*
X97504761Y-53785714D01*
X97457142Y-53833333D01*
X94657142Y-54266666D02*
X94704761Y-54314285D01*
X94752380Y-54457142D01*
X94752380Y-54552380D01*
X94704761Y-54695238D01*
X94609523Y-54790476D01*
X94514285Y-54838095D01*
X94323809Y-54885714D01*
X94180952Y-54885714D01*
X93990476Y-54838095D01*
X93895238Y-54790476D01*
X93800000Y-54695238D01*
X93752380Y-54552380D01*
X93752380Y-54457142D01*
X93800000Y-54314285D01*
X93847619Y-54266666D01*
X93847619Y-53885714D02*
X93800000Y-53838095D01*
X93752380Y-53742857D01*
X93752380Y-53504761D01*
X93800000Y-53409523D01*
X93847619Y-53361904D01*
X93942857Y-53314285D01*
X94038095Y-53314285D01*
X94180952Y-53361904D01*
X94752380Y-53933333D01*
X94752380Y-53314285D01*
X92057142Y-54366666D02*
X92104761Y-54414285D01*
X92152380Y-54557142D01*
X92152380Y-54652380D01*
X92104761Y-54795238D01*
X92009523Y-54890476D01*
X91914285Y-54938095D01*
X91723809Y-54985714D01*
X91580952Y-54985714D01*
X91390476Y-54938095D01*
X91295238Y-54890476D01*
X91200000Y-54795238D01*
X91152380Y-54652380D01*
X91152380Y-54557142D01*
X91200000Y-54414285D01*
X91247619Y-54366666D01*
X92152380Y-53414285D02*
X92152380Y-53985714D01*
X92152380Y-53700000D02*
X91152380Y-53700000D01*
X91295238Y-53795238D01*
X91390476Y-53890476D01*
X91438095Y-53985714D01*
M02*
